<svg width="24" height="24" viewBox="0 0 24 24" fill="none" xmlns="http://www.w3.org/2000/svg">
    <path d="M9.14062 16.9688H8.20312C7.29844 16.9688 6.5625 17.7047 6.5625 18.6094V22.3594C6.5625 23.2641 7.29844 24 8.20312 24H9.14062C10.0453 24 10.7812 23.2641 10.7812 22.3594V18.6094C10.7812 17.7047 10.0453 16.9688 9.14062 16.9688ZM9.375 22.3594C9.375 22.4887 9.26991 22.5938 9.14062 22.5938H8.20312C8.07384 22.5938 7.96875 22.4887 7.96875 22.3594V18.6094C7.96875 18.4801 8.07384 18.375 8.20312 18.375H9.14062C9.26991 18.375 9.375 18.4801 9.375 18.6094V22.3594ZM3.51562 22.5938H2.8125V17.6719C2.8125 17.2835 2.49773 16.9688 2.10938 16.9688H0.703125C0.314766 16.9688 0 17.2835 0 17.6719C0 18.0602 0.314766 18.375 0.703125 18.375H1.40625V22.5938H0.703125C0.314766 22.5938 0 22.9085 0 23.2969C0 23.6852 0.314766 24 0.703125 24H3.51562C3.90398 24 4.21875 23.6852 4.21875 23.2969C4.21875 22.9085 3.90398 22.5938 3.51562 22.5938ZM22.2656 16.9688H21.3281C20.4234 16.9688 19.6875 17.7047 19.6875 18.6094V22.3594C19.6875 23.2641 20.4234 24 21.3281 24H22.2656C23.1703 24 23.9062 23.2641 23.9062 22.3594V18.6094C23.9062 17.7047 23.1703 16.9688 22.2656 16.9688ZM22.5 22.3594C22.5 22.4887 22.3949 22.5938 22.2656 22.5938H21.3281C21.1988 22.5938 21.0938 22.4887 21.0938 22.3594V18.6094C21.0938 18.4801 21.1988 18.375 21.3281 18.375H22.2656C22.3949 18.375 22.5 18.4801 22.5 18.6094V22.3594ZM16.6406 22.5938H15.9375V17.6719C15.9375 17.2835 15.6227 16.9688 15.2344 16.9688H13.8281C13.4398 16.9688 13.125 17.2835 13.125 17.6719C13.125 18.0602 13.4398 18.375 13.8281 18.375H14.5312V22.5938H13.8281C13.4398 22.5938 13.125 22.9085 13.125 23.2969C13.125 23.6852 13.4398 24 13.8281 24H16.6406C17.029 24 17.3438 23.6852 17.3438 23.2969C17.3438 22.9085 17.029 22.5938 16.6406 22.5938ZM9.14062 8.48438H8.20312C7.29844 8.48438 6.5625 9.22031 6.5625 10.125V13.875C6.5625 14.7797 7.29844 15.5156 8.20312 15.5156H9.14062C10.0453 15.5156 10.7812 14.7797 10.7812 13.875V10.125C10.7812 9.22031 10.0453 8.48438 9.14062 8.48438ZM9.375 13.875C9.375 14.0043 9.26991 14.1094 9.14062 14.1094H8.20312C8.07384 14.1094 7.96875 14.0043 7.96875 13.875V10.125C7.96875 9.99572 8.07384 9.89062 8.20312 9.89062H9.14062C9.26991 9.89062 9.375 9.99572 9.375 10.125V13.875ZM3.51562 14.1094H2.8125V9.1875C2.8125 8.79914 2.49773 8.48438 2.10938 8.48438H0.703125C0.314766 8.48438 0 8.79914 0 9.1875C0 9.57586 0.314766 9.89062 0.703125 9.89062H1.40625V14.1094H0.703125C0.314766 14.1094 0 14.4241 0 14.8125C0 15.2009 0.314766 15.5156 0.703125 15.5156H3.51562C3.90398 15.5156 4.21875 15.2009 4.21875 14.8125C4.21875 14.4241 3.90398 14.1094 3.51562 14.1094ZM15.7031 8.48438H14.7656C13.8609 8.48438 13.125 9.22031 13.125 10.125V13.875C13.125 14.7797 13.8609 15.5156 14.7656 15.5156H15.7031C16.6078 15.5156 17.3438 14.7797 17.3438 13.875V10.125C17.3438 9.22031 16.6078 8.48438 15.7031 8.48438ZM15.9375 13.875C15.9375 14.0043 15.8324 14.1094 15.7031 14.1094H14.7656C14.6363 14.1094 14.5312 14.0043 14.5312 13.875V10.125C14.5312 9.99572 14.6363 9.89062 14.7656 9.89062H15.7031C15.8324 9.89062 15.9375 9.99572 15.9375 10.125V13.875ZM23.2031 14.1094H22.5V9.1875C22.5 8.79914 22.1852 8.48438 21.7969 8.48438H20.3906C20.0023 8.48438 19.6875 8.79914 19.6875 9.1875C19.6875 9.57586 20.0023 9.89062 20.3906 9.89062H21.0938V14.1094H20.3906C20.0023 14.1094 19.6875 14.4241 19.6875 14.8125C19.6875 15.2009 20.0023 15.5156 20.3906 15.5156H23.2031C23.5915 15.5156 23.9062 15.2009 23.9062 14.8125C23.9062 14.4241 23.5915 14.1094 23.2031 14.1094ZM2.57812 0H1.64062C0.735938 0 0 0.735938 0 1.64062V5.39062C0 6.29531 0.735938 7.03125 1.64062 7.03125H2.57812C3.48281 7.03125 4.21875 6.29531 4.21875 5.39062V1.64062C4.21875 0.735938 3.48281 0 2.57812 0ZM2.8125 5.39062C2.8125 5.51991 2.70741 5.625 2.57812 5.625H1.64062C1.51134 5.625 1.40625 5.51991 1.40625 5.39062V1.64062C1.40625 1.51134 1.51134 1.40625 1.64062 1.40625H2.57812C2.70741 1.40625 2.8125 1.51134 2.8125 1.64062V5.39062ZM10.0781 5.625H9.375V0.703125C9.375 0.314766 9.06023 0 8.67188 0H7.26562C6.87727 0 6.5625 0.314766 6.5625 0.703125C6.5625 1.09148 6.87727 1.40625 7.26562 1.40625H7.96875V5.625H7.26562C6.87727 5.625 6.5625 5.93977 6.5625 6.32812C6.5625 6.71648 6.87727 7.03125 7.26562 7.03125H10.0781C10.4665 7.03125 10.7812 6.71648 10.7812 6.32812C10.7812 5.93977 10.4665 5.625 10.0781 5.625ZM22.2656 0H21.3281C20.4234 0 19.6875 0.735938 19.6875 1.64062V5.39062C19.6875 6.29531 20.4234 7.03125 21.3281 7.03125H22.2656C23.1703 7.03125 23.9062 6.29531 23.9062 5.39062V1.64062C23.9062 0.735938 23.1703 0 22.2656 0ZM22.5 5.39062C22.5 5.51991 22.3949 5.625 22.2656 5.625H21.3281C21.1988 5.625 21.0938 5.51991 21.0938 5.39062V1.64062C21.0938 1.51134 21.1988 1.40625 21.3281 1.40625H22.2656C22.3949 1.40625 22.5 1.51134 22.5 1.64062V5.39062ZM16.6406 5.625H15.9375V0.703125C15.9375 0.314766 15.6227 0 15.2344 0H13.8281C13.4398 0 13.125 0.314766 13.125 0.703125C13.125 1.09148 13.4398 1.40625 13.8281 1.40625H14.5312V5.625H13.8281C13.4398 5.625 13.125 5.93977 13.125 6.32812C13.125 6.71648 13.4398 7.03125 13.8281 7.03125H16.6406C17.029 7.03125 17.3438 6.71648 17.3438 6.32812C17.3438 5.93977 17.029 5.625 16.6406 5.625Z"
          fill="currentColor"/>
</svg>

