<svg width="364" height="124" viewBox="0 0 364 124" fill="none" xmlns="http://www.w3.org/2000/svg">
    <path d="M18.2097 102.251C12.0423 98.8363 8.20269 112.098 8.15718 115.87C8.10829 119.924 11.6389 121.239 15.1225 120.293C18.3842 119.408 20.7794 117.104 22.6389 114.436"
          stroke="#6A8CFF" stroke-width="6" stroke-linecap="round"/>
    <path d="M36.3795 96.6043C33.1863 97.6181 30.9894 104.035 31.273 107.025C31.8203 112.795 38.5702 116.516 43.6083 113.373C49.3085 109.817 47.9498 102.965 44.1979 98.4811C41.9606 95.8074 40.7408 96.0291 37.2683 96.8213"
          stroke="#6A8CFF" stroke-width="6" stroke-linecap="round"/>
    <path d="M51.6255 78.8225C54.0332 89.3773 56.6547 99.7608 60.0103 110.061" stroke="#6A8CFF" stroke-width="6"
          stroke-linecap="round"/>
    <path d="M75.023 90.0395C72.0672 90.9481 67.9083 94.5814 67.7011 98.0043C67.3861 103.209 75.8565 104.97 79.5252 105.075C84.5947 105.22 90.5527 103.12 88.6806 96.972C86.6112 90.1761 79.709 89.6412 73.8264 90.3125"
          stroke="#6A8CFF" stroke-width="6" stroke-linecap="round"/>
    <path d="M95.2031 80.4937C98.4863 84.7111 100.646 90.3482 102.124 95.4472C102.551 96.9185 103.337 101.397 103.391 99.8648C103.502 96.7163 102.315 93.506 102.345 90.2947C102.378 86.7464 103.083 82.0359 107.574 82.0027C109.501 81.9884 110.348 83.9347 110.705 85.5006"
          stroke="#6A8CFF" stroke-width="6" stroke-linecap="round"/>
    <path d="M124.84 79.7246C121.86 80.497 121.755 84.9464 121.818 87.7343C121.886 90.7678 122.741 95.4784 126.694 94.8048C131.268 94.0254 139.543 91.4111 135.682 85.4575C133.178 81.5959 128.668 78.0121 123.86 79.1088"
          stroke="#6A8CFF" stroke-width="6" stroke-linecap="round"/>
    <path d="M153.708 88.6873C151.713 79.9426 149.946 71.1036 148.101 62.3226C146.802 56.1436 144.434 47.9324 152.423 46.1102"
          stroke="#6A8CFF" stroke-width="6" stroke-linecap="round"/>
    <path d="M141.48 63.9958C145.245 64.8383 149.452 63.8317 153.071 65.0158" stroke="#6A8CFF" stroke-width="6"
          stroke-linecap="round"/>
    <path d="M167.078 64.6558C167.87 68.1275 168.662 71.5993 169.454 75.071C169.715 76.2163 169.806 78.513 170.554 79.4828C170.79 79.7895 170.844 78.7583 170.907 78.3763C171.288 76.0912 171.716 73.9045 172.512 71.7158C172.947 70.5192 176.273 62.287 179.141 64.1888C180.643 65.1845 181.276 70.5056 181.809 72.206C181.905 72.5122 183.563 77.0775 184.374 75.8873C186.102 73.3519 185.29 69.5599 187.223 66.9146C189.202 64.2069 191.519 68.8119 192.534 70.0627C194.904 72.9844 197.803 75.6176 200.746 77.9576"
          stroke="#6A8CFF" stroke-width="6" stroke-linecap="round"/>
    <path d="M215.494 56.9687C214.727 57.0238 212.789 56.3253 212.364 57.1465C210.961 59.854 210.05 63.2907 209.501 66.2623C209.182 67.9879 208.634 72.1483 210.98 72.8489C213.269 73.5325 215.419 72.3549 217.021 70.8181C219.016 68.9042 221.022 66.5194 221.014 63.5894C221.01 62.3531 220.599 60.471 219.175 60.232C218.027 60.0393 222.604 65.3802 222.934 65.6693C225.789 68.1764 229.413 70.3282 233.276 70.5371"
          stroke="#6A8CFF" stroke-width="6" stroke-linecap="round"/>
    <path d="M251.767 31.3499C253.733 41.6543 255.732 51.9976 256.628 62.4612C256.691 63.2027 256.899 65.4171 256.733 64.6914C256.012 61.5297 254.066 58.2763 251.931 55.8532C248.568 52.0345 241.125 57.0988 241.561 61.5727C242.221 68.333 249.19 66.9071 254.018 65.8056"
          stroke="#6A8CFF" stroke-width="6" stroke-linecap="round"/>
    <path d="M266.153 48.7922C267.1 52.9414 267.74 57.3036 269.042 61.3519C269.564 62.9784 269.625 62.1804 269.792 61.0642C270.219 58.2139 271.409 55.8244 273.211 53.57C274.603 51.8287 280.533 46.0595 282.452 49.3172C283.66 51.3673 284.905 53.3265 286.322 55.242C286.851 55.9575 287.44 57.3774 288.302 57.5878"
          stroke="#6A8CFF" stroke-width="6" stroke-linecap="round"/>
    <path d="M297.447 47.3215C302.924 46.2229 308.768 46.3756 308.724 39.0676C308.694 34.1726 304.333 31.7981 300.369 34.7419C295.534 38.3327 293.905 45.6664 298.131 50.3179C302.247 54.8491 308.82 53.3047 314.045 52.1126"
          stroke="#6A8CFF" stroke-width="6" stroke-linecap="round"/>
    <path d="M334.986 29.0424C334.414 26.5356 330.496 25.3439 328.326 24.7802C324.623 23.8186 324.594 29.8478 325.285 32.0947C326.613 36.4149 336.547 41.4218 334.654 46.3931C333.36 49.7933 325.406 46.6948 323.013 46.4609"
          stroke="#6A8CFF" stroke-width="6" stroke-linecap="round"/>
    <path d="M359.892 23.3611C359.321 20.8543 355.402 19.6625 353.232 19.0988C349.529 18.1372 349.5 24.1664 350.191 26.4133C351.519 30.7335 361.453 35.7404 359.561 40.7117C358.266 44.1119 350.312 41.0134 347.92 40.7795"
          stroke="#6A8CFF" stroke-width="6" stroke-linecap="round"/>
</svg>
