<svg width="24" height="24" viewBox="0 0 24 24" fill="none" xmlns="http://www.w3.org/2000/svg">
    <g clip-path="url(#clip0_554_7019)">
        <path d="M23.4327 13.6528C23.1873 13.5914 22.9419 13.6528 22.7272 13.8061C21.9298 14.4809 21.0097 15.033 19.9975 15.401C19.0467 15.7691 18.0039 15.9531 16.8997 15.9531C14.4154 15.9531 12.1457 14.9409 10.5202 13.3154C8.8946 11.6898 7.88245 9.42016 7.88245 6.93581C7.88245 5.89299 8.06648 4.88085 8.37319 3.96072C8.71057 2.97925 9.20131 2.08979 9.8454 1.32301C10.1214 0.985629 10.0601 0.494893 9.72271 0.218854C9.50802 0.0654987 9.26265 0.00415662 9.01728 0.0654987C6.41024 0.770932 4.14059 2.33515 2.51502 4.42078C0.950802 6.47574 0 9.02144 0 11.8125C0 15.1556 1.34953 18.1921 3.55784 20.4004C5.76615 22.6087 8.80258 23.9582 12.1457 23.9582C14.9675 23.9582 17.5745 22.9768 19.6601 21.3512C21.7764 19.695 23.31 17.3333 23.9541 14.6342C24.1074 14.1742 23.8621 13.7448 23.4327 13.6528ZM18.74 20.063C16.9611 21.4739 14.6914 22.3327 12.2071 22.3327C9.29332 22.3327 6.65561 21.1365 4.75401 19.2349C2.85241 17.3333 1.65624 14.6956 1.65624 11.7818C1.65624 9.35882 2.45368 7.15051 3.83388 5.37159C4.78468 4.14474 5.98085 3.1326 7.36105 2.42717C7.20769 2.76455 7.05434 3.10193 6.93165 3.46998C6.53293 4.57414 6.3489 5.73964 6.3489 6.96648C6.3489 9.88023 7.54507 12.5486 9.44668 14.4502C11.3483 16.3518 14.0167 17.548 16.9304 17.548C18.2186 17.548 19.4454 17.3333 20.5803 16.9039C20.979 16.7505 21.3777 16.5972 21.7458 16.4132C21.0097 17.824 19.9975 19.0815 18.74 20.063Z"
              fill="currentColor"/>
    </g>
    <defs>
        <clipPath id="clip0_554_7019">
            <rect width="24" height="24" fill="currentColor"/>
        </clipPath>
    </defs>
</svg>
