<svg data-v-d1e61456="" xmlns="http://www.w3.org/2000/svg" fill="currentColor" viewBox="0 0 16 16" class="icon"
     width="1em" height="1em">
    <path d="M7.44.67q-.53 0-.9.02a2 2 0 0 0-.78.2 2 2 0 0 0-.87.87 2 2 0 0 0-.2.78q-.02.37-.02.9v1.23H3.44q-.53 0-.9.02a2 2 0 0 0-.78.2 2 2 0 0 0-.88.87 2 2 0 0 0-.2.78l-.01.9v5.12q0 .52.02.9a2 2 0 0 0 .2.78 2 2 0 0 0 .87.88 2 2 0 0 0 .78.2l.9.01h5.12q.53 0 .9-.02a2 2 0 0 0 .78-.2 2 2 0 0 0 .88-.87 2 2 0 0 0 .2-.78l.01-.9v-1.23h1.23q.52 0 .9-.02a2 2 0 0 0 .78-.2 2 2 0 0 0 .88-.87 2 2 0 0 0 .2-.78l.01-.9V3.44q0-.52-.02-.9a2 2 0 0 0-.2-.78 2 2 0 0 0-.87-.88 2 2 0 0 0-.78-.2l-.9-.01zM7.47 2h5.06q.56 0 .83.02a1 1 0 0 1 .28.05.7.7 0 0 1 .29.3q.02.03.05.27c.02.2.02.44.02.83v5.06q0 .56-.02.83a1 1 0 0 1-.05.27.7.7 0 0 1-.3.3 1 1 0 0 1-.28.05l-.82.02H7.47q-.57 0-.82-.02a1 1 0 0 1-.29-.05.7.7 0 0 1-.29-.3 1 1 0 0 1-.05-.28L6 8.53V3.47q0-.57.02-.82a1 1 0 0 1 .05-.29.7.7 0 0 1 .3-.29q.03-.02.28-.05Q6.9 2 7.47 2m-4 4h1.2v2.56q0 .52.02.9a2 2 0 0 0 .2.78 2 2 0 0 0 .87.88 2 2 0 0 0 .78.2l.9.01H10v1.2q0 .56-.02.83a1 1 0 0 1-.05.28.7.7 0 0 1-.3.29 1 1 0 0 1-.28.05q-.25.02-.82.02H3.47c-.39 0-.63 0-.82-.02a1 1 0 0 1-.29-.05.7.7 0 0 1-.29-.3 1 1 0 0 1-.05-.28Q2 13.1 2 12.53V7.47q0-.57.02-.82a1 1 0 0 1 .05-.29.7.7 0 0 1 .3-.29q.03-.03.28-.05T3.47 6"/>
</svg>
