<svg width="151" height="150" viewBox="0 0 151 150" fill="none" xmlns="http://www.w3.org/2000/svg">
    <path d="M9.67157 130.614V137.424C9.67157 139.304 11.196 140.829 13.0765 140.829H19.8864C21.7668 140.829 23.2913 139.304 23.2913 137.424V130.614C23.2913 128.734 21.7668 127.209 19.8864 127.209H13.0765C11.196 127.209 9.67157 128.734 9.67157 130.614Z"
          fill="currentColor"/>
    <path d="M0.591553 141.964C0.591553 147.26 3.23983 149.908 8.53639 149.908H24.4261C29.7226 149.908 32.3709 147.26 32.3709 141.964V126.074C32.3709 120.777 29.7226 118.129 24.4261 118.129H8.53639C3.23983 118.129 0.591553 120.777 0.591553 126.074L0.591553 141.964ZM9.10388 145.369C6.4556 145.369 5.13146 144.044 5.13146 141.396L5.13146 126.641C5.13146 123.993 6.4556 122.669 9.10388 122.669H23.8586C26.5068 122.669 27.831 123.993 27.831 126.641V141.396C27.831 144.044 26.5068 145.369 23.8586 145.369H9.10388Z"
          fill="currentColor"/>
    <path d="M141.329 19.3864V12.5765C141.329 10.696 139.804 9.17158 137.924 9.17158H131.114C129.234 9.17158 127.709 10.696 127.709 12.5765V19.3864C127.709 21.2669 129.234 22.7913 131.114 22.7913H137.924C139.804 22.7913 141.329 21.2669 141.329 19.3864Z"
          fill="currentColor"/>
    <path d="M150.408 8.03639C150.408 2.73983 147.76 0.0915527 142.464 0.0915527L126.574 0.0915527C121.277 0.0915527 118.629 2.73983 118.629 8.03639V23.9261C118.629 29.2226 121.277 31.8709 126.574 31.8709H142.464C147.76 31.8709 150.408 29.2226 150.408 23.9261V8.03639ZM141.896 4.63146C144.544 4.63146 145.869 5.9556 145.869 8.60388V23.3586C145.869 26.0068 144.544 27.331 141.896 27.331H127.141C124.493 27.331 123.169 26.0068 123.169 23.3586V8.60388C123.169 5.9556 124.493 4.63146 127.141 4.63146L141.896 4.63146Z"
          fill="currentColor"/>
    <path d="M19.8864 9.17158H13.0765C11.196 9.17158 9.67157 10.696 9.67157 12.5765V19.3864C9.67157 21.2669 11.196 22.7913 13.0765 22.7913H19.8864C21.7668 22.7913 23.2913 21.2669 23.2913 19.3864V12.5765C23.2913 10.696 21.7668 9.17158 19.8864 9.17158Z"
          fill="currentColor"/>
    <path d="M8.53639 0.0915527C3.23983 0.0915527 0.591553 2.73983 0.591553 8.03639V23.9261C0.591553 29.2226 3.23983 31.8709 8.53639 31.8709H24.4261C29.7226 31.8709 32.3709 29.2226 32.3709 23.9261V8.03639C32.3709 2.73983 29.7226 0.0915527 24.4261 0.0915527H8.53639ZM5.13146 8.60388C5.13146 5.9556 6.4556 4.63146 9.10388 4.63146H23.8586C26.5068 4.63146 27.831 5.9556 27.831 8.60388V23.3586C27.831 26.0068 26.5068 27.331 23.8586 27.331H9.10388C6.4556 27.331 5.13146 26.0068 5.13146 23.3586V8.60388Z"
          fill="currentColor"/>
    <path d="M48.2604 4.63146C49.5141 4.63146 50.5304 3.61517 50.5304 2.36151C50.5304 1.10785 49.5141 0.0915527 48.2604 0.0915527C47.0068 0.0915527 45.9905 1.10785 45.9905 2.36151C45.9905 3.61517 47.0068 4.63146 48.2604 4.63146Z"
          fill="currentColor"/>
    <path d="M64.1505 4.63145V0.0915413H61.8806C61.2785 0.0915413 60.7012 0.330696 60.2755 0.756395C59.8498 1.18209 59.6106 1.75947 59.6106 2.36149C59.6106 2.96352 59.8498 3.54089 60.2755 3.96659C60.7012 4.39229 61.2785 4.63145 61.8806 4.63145"
          fill="currentColor"/>
    <path d="M68.6904 0.0915527H64.1505V4.63146H68.6904V0.0915527Z" fill="currentColor"/>
    <path d="M73.2301 0.0915527H68.6902V4.63146H73.2301V0.0915527Z" fill="currentColor"/>
    <path d="M73.23 0.0915527V4.63146H75.5C76.102 4.63146 76.6794 4.3923 77.1051 3.9666C77.5308 3.54091 77.7699 2.96353 77.7699 2.36151C77.7699 1.75948 77.5308 1.1821 77.1051 0.756406C76.6794 0.330707 76.102 0.0915527 75.5 0.0915527"
          fill="currentColor"/>
    <path d="M82.3098 4.63145H86.8497V2.36149C86.8497 1.75947 86.6106 1.18209 86.1849 0.756393C85.7592 0.330695 85.1818 0.0915413 84.5798 0.0915413C83.9777 0.0915413 83.4004 0.330695 82.9747 0.756393C82.549 1.18209 82.3098 1.75947 82.3098 2.36149"
          fill="currentColor"/>
    <path d="M107.279 4.63146C108.533 4.63146 109.549 3.61517 109.549 2.36151C109.549 1.10785 108.533 0.0915527 107.279 0.0915527C106.026 0.0915527 105.01 1.10785 105.01 2.36151C105.01 3.61517 106.026 4.63146 107.279 4.63146Z"
          fill="currentColor"/>
    <path d="M43.7208 9.17135C44.9744 9.17135 45.9907 8.15506 45.9907 6.9014C45.9907 5.64774 44.9744 4.63145 43.7208 4.63145C42.4671 4.63145 41.4508 5.64774 41.4508 6.9014C41.4508 8.15506 42.4671 9.17135 43.7208 9.17135Z"
          fill="currentColor"/>
    <path d="M55.0705 9.17158H59.6104V6.90162C59.6104 6.2996 59.3712 5.72222 58.9455 5.29652C58.5198 4.87083 57.9425 4.63167 57.3404 4.63167C56.7384 4.63167 56.161 4.87083 55.7353 5.29652C55.3097 5.72222 55.0705 6.2996 55.0705 6.90162"
          fill="currentColor"/>
    <path d="M68.6902 4.63145H64.1503V6.9014C64.1503 7.50343 64.3894 8.0808 64.8151 8.5065C65.2408 8.9322 65.8182 9.17135 66.4202 9.17135C67.0223 9.17135 67.5996 8.9322 68.0253 8.5065C68.451 8.0808 68.6902 7.50343 68.6902 6.9014"
          fill="currentColor"/>
    <path d="M86.8497 4.63145H82.3098V9.17135H86.8497V4.63145Z" fill="currentColor"/>
    <path d="M86.8495 4.63145V9.17135H91.3894V6.9014C91.3894 6.29937 91.1502 5.722 90.7245 5.2963C90.2988 4.8706 89.7215 4.63145 89.1194 4.63145"
          fill="currentColor"/>
    <path d="M39.1807 13.7115C40.4343 13.7115 41.4506 12.6952 41.4506 11.4415C41.4506 10.1879 40.4343 9.17158 39.1807 9.17158C37.927 9.17158 36.9107 10.1879 36.9107 11.4415C36.9107 12.6952 37.927 13.7115 39.1807 13.7115Z"
          fill="currentColor"/>
    <path d="M50.5306 13.7112V9.17132H48.2606C47.6586 9.17132 47.0812 9.41048 46.6555 9.83618C46.2298 10.2619 45.9907 10.8392 45.9907 11.4413C45.9907 12.0433 46.2298 12.6207 46.6555 13.0464C47.0812 13.4721 47.6586 13.7112 48.2606 13.7112"
          fill="currentColor"/>
    <path d="M55.0705 9.17158H50.5306V13.7115H55.0705V9.17158Z" fill="currentColor"/>
    <path d="M59.6104 9.17158H55.0705V13.7115H59.6104V9.17158Z" fill="currentColor"/>
    <path d="M68.6902 13.7112H73.2301V11.4413C73.2301 10.8392 72.9909 10.2619 72.5652 9.83617C72.1395 9.41048 71.5622 9.17132 70.9601 9.17132C70.3581 9.17132 69.7807 9.41048 69.355 9.83617C68.9293 10.2619 68.6902 10.8392 68.6902 11.4413"
          fill="currentColor"/>
    <path d="M77.77 13.7112H82.3099V9.17132H80.0399C79.4379 9.17132 78.8605 9.41048 78.4348 9.83617C78.0091 10.2619 77.77 10.8392 77.77 11.4413"
          fill="currentColor"/>
    <path d="M86.8497 9.17158H82.3098V13.7115H86.8497V9.17158Z" fill="currentColor"/>
    <path d="M91.3894 9.17158H86.8495V13.7115H91.3894V9.17158Z" fill="currentColor"/>
    <path d="M95.9298 9.17158H91.3899V13.7115H95.9298V9.17158Z" fill="currentColor"/>
    <path d="M95.9296 9.17158V13.7115H100.469V11.4415C100.469 10.8395 100.23 10.2621 99.8046 9.83643C99.3789 9.41073 98.8015 9.17158 98.1995 9.17158"
          fill="currentColor"/>
    <path d="M105.01 13.7112H109.549V9.17132H107.279C106.677 9.17132 106.1 9.41048 105.674 9.83617C105.249 10.2619 105.01 10.8392 105.01 11.4413"
          fill="currentColor"/>
    <path d="M109.549 9.17158V13.7115H111.819C112.421 13.7115 112.999 13.4723 113.424 13.0466C113.85 12.6209 114.089 12.0436 114.089 11.4415C114.089 10.8395 113.85 10.2621 113.424 9.83643C112.999 9.41073 112.421 9.17158 111.819 9.17158"
          fill="currentColor"/>
    <path d="M41.4508 18.2511H45.9907V15.9812C45.9907 15.3791 45.7516 14.8018 45.3259 14.3761C44.9002 13.9504 44.3228 13.7112 43.7208 13.7112C43.1187 13.7112 42.5414 13.9504 42.1157 14.3761C41.69 14.8018 41.4508 15.3791 41.4508 15.9812"
          fill="currentColor"/>
    <path d="M59.6101 18.2511V13.7112H55.0702V15.9812C55.0702 16.5832 55.3094 17.1606 55.7351 17.5863C56.1608 18.012 56.7381 18.2511 57.3402 18.2511"
          fill="currentColor"/>
    <path d="M64.15 13.7112H59.6101V18.2511H64.15V13.7112Z" fill="currentColor"/>
    <path d="M68.6904 13.7112H64.1505V18.2511H68.6904V13.7112Z" fill="currentColor"/>
    <path d="M73.2301 13.7112H68.6902V18.2511H73.2301V13.7112Z" fill="currentColor"/>
    <path d="M77.7699 13.7112H73.23V18.2511H77.7699V13.7112Z" fill="currentColor"/>
    <path d="M82.3099 13.7112H77.77V18.2511H82.3099V13.7112Z" fill="currentColor"/>
    <path d="M91.3894 13.7112H86.8495V18.2511H91.3894V13.7112Z" fill="currentColor"/>
    <path d="M100.469 18.2511V13.7112H95.9295V15.9812C95.9295 16.5832 96.1686 17.1606 96.5943 17.5863C97.02 18.012 97.5974 18.2511 98.1994 18.2511"
          fill="currentColor"/>
    <path d="M105.009 13.7112H100.469V18.2511H105.009V13.7112Z" fill="currentColor"/>
    <path d="M109.549 13.7112H105.009V18.2511H107.279C107.881 18.2511 108.459 18.012 108.884 17.5863C109.31 17.1606 109.549 16.5832 109.549 15.9812"
          fill="currentColor"/>
    <path d="M36.9107 22.791H41.4506V18.2511H39.1807C38.5786 18.2511 38.0013 18.4903 37.5756 18.916C37.1499 19.3417 36.9107 19.919 36.9107 20.5211"
          fill="currentColor"/>
    <path d="M45.9907 18.2511H41.4508V22.791H45.9907V18.2511Z" fill="currentColor"/>
    <path d="M45.9905 18.2511V22.791H48.2604C48.8625 22.791 49.4398 22.5519 49.8655 22.1262C50.2912 21.7005 50.5304 21.1231 50.5304 20.5211C50.5304 19.919 50.2912 19.3417 49.8655 18.916C49.4398 18.4903 48.8625 18.2511 48.2604 18.2511"
          fill="currentColor"/>
    <path d="M64.15 18.2511H59.6101V22.791H64.15V18.2511Z" fill="currentColor"/>
    <path d="M68.6902 18.2511H64.1503V22.791H66.4202C67.0223 22.791 67.5996 22.5519 68.0253 22.1262C68.451 21.7005 68.6902 21.1231 68.6902 20.5211"
          fill="currentColor"/>
    <path d="M77.7699 18.2511H73.23V22.791H77.7699V18.2511Z" fill="currentColor"/>
    <path d="M82.3098 18.2511H77.7699V22.791H80.0399C80.6419 22.791 81.2193 22.5519 81.645 22.1262C82.0707 21.7005 82.3098 21.1231 82.3098 20.5211"
          fill="currentColor"/>
    <path d="M91.3899 18.2511H86.85V20.5211C86.85 21.1231 87.0891 21.7005 87.5148 22.1262C87.9405 22.5519 88.5179 22.791 89.1199 22.791C89.722 22.791 90.2993 22.5519 90.725 22.1262C91.1507 21.7005 91.3899 21.1231 91.3899 20.5211"
          fill="currentColor"/>
    <path d="M105.01 18.2511H100.47V20.5211C100.47 21.1231 100.709 21.7005 101.134 22.1262C101.56 22.5519 102.138 22.791 102.74 22.791C103.342 22.791 103.919 22.5519 104.345 22.1262C104.77 21.7005 105.01 21.1231 105.01 20.5211"
          fill="currentColor"/>
    <path d="M41.4506 22.791H36.9107V27.3309H41.4506V22.791Z" fill="currentColor"/>
    <path d="M45.9905 22.791H41.4506V27.3309H43.7205C44.3226 27.3309 44.8999 27.0918 45.3256 26.6661C45.7513 26.2404 45.9905 25.663 45.9905 25.061"
          fill="currentColor"/>
    <path d="M64.1505 22.791H59.6106V25.061C59.6106 25.663 59.8498 26.2404 60.2755 26.6661C60.7012 27.0918 61.2785 27.3309 61.8806 27.3309C62.4826 27.3309 63.06 27.0918 63.4857 26.6661C63.9114 26.2404 64.1505 25.663 64.1505 25.061"
          fill="currentColor"/>
    <path d="M77.7699 22.791H73.23V27.3309H77.7699V22.791Z" fill="currentColor"/>
    <path d="M91.3899 27.3309H95.9298V22.791H93.6598C93.0578 22.791 92.4804 23.0301 92.0547 23.4558C91.629 23.8815 91.3899 24.4589 91.3899 25.0609"
          fill="currentColor"/>
    <path d="M95.9296 22.791V27.3309H98.1995C98.8015 27.3309 99.3789 27.0918 99.8046 26.6661C100.23 26.2404 100.469 25.663 100.469 25.061C100.469 24.4589 100.23 23.8816 99.8046 23.4559C99.3789 23.0302 98.8015 22.791 98.1995 22.791"
          fill="currentColor"/>
    <path d="M109.549 27.3309V22.791H107.279C106.677 22.791 106.1 23.0302 105.674 23.4559C105.248 23.8816 105.009 24.4589 105.009 25.0609C105.009 25.663 105.248 26.2403 105.674 26.666C106.1 27.0917 106.677 27.3309 107.279 27.3309"
          fill="currentColor"/>
    <path d="M109.549 22.791V27.3309H114.089V25.061C114.089 24.4589 113.85 23.8816 113.424 23.4559C112.999 23.0302 112.421 22.791 111.819 22.791"
          fill="currentColor"/>
    <path d="M41.4508 27.3309H36.9109V29.6009C36.9109 30.2029 37.1501 30.7803 37.5758 31.206C38.0015 31.6317 38.5788 31.8708 39.1809 31.8708C39.7829 31.8708 40.3603 31.6317 40.786 31.206C41.2116 30.7803 41.4508 30.2029 41.4508 29.6009"
          fill="currentColor"/>
    <path d="M48.2604 31.8708C49.5141 31.8708 50.5304 30.8545 50.5304 29.6009C50.5304 28.3472 49.5141 27.3309 48.2604 27.3309C47.0068 27.3309 45.9905 28.3472 45.9905 29.6009C45.9905 30.8545 47.0068 31.8708 48.2604 31.8708Z"
          fill="currentColor"/>
    <path d="M57.3404 31.8708C58.5941 31.8708 59.6104 30.8545 59.6104 29.6009C59.6104 28.3472 58.5941 27.3309 57.3404 27.3309C56.0868 27.3309 55.0705 28.3472 55.0705 29.6009C55.0705 30.8545 56.0868 31.8708 57.3404 31.8708Z"
          fill="currentColor"/>
    <path d="M64.1505 31.871H68.6904V29.6011C68.6904 28.9991 68.4513 28.4217 68.0256 27.996C67.5999 27.5703 67.0225 27.3311 66.4205 27.3311C65.8184 27.3311 65.2411 27.5703 64.8154 27.996C64.3897 28.4217 64.1505 28.9991 64.1505 29.6011"
          fill="currentColor"/>
    <path d="M77.7699 27.3309H73.23V31.8708H77.7699V27.3309Z" fill="currentColor"/>
    <path d="M84.5798 31.8708C85.8334 31.8708 86.8497 30.8545 86.8497 29.6009C86.8497 28.3472 85.8334 27.3309 84.5798 27.3309C83.3261 27.3309 82.3098 28.3472 82.3098 29.6009C82.3098 30.8545 83.3261 31.8708 84.5798 31.8708Z"
          fill="currentColor"/>
    <path d="M95.9298 27.3309H91.3899V31.8708H95.9298V27.3309Z" fill="currentColor"/>
    <path d="M100.469 31.871H105.009V29.6011C105.009 28.9991 104.77 28.4217 104.344 27.996C103.919 27.5703 103.341 27.3311 102.739 27.3311C102.137 27.3311 101.56 27.5703 101.134 27.996C100.709 28.4217 100.469 28.9991 100.469 29.6011"
          fill="currentColor"/>
    <path d="M114.089 27.3309H109.549V31.8708H114.089V27.3309Z" fill="currentColor"/>
    <path d="M50.5306 36.4107H55.0705V34.1407C55.0705 33.5387 54.8313 32.9613 54.4056 32.5356C53.9799 32.1099 53.4026 31.8708 52.8005 31.8708C52.1985 31.8708 51.6211 32.1099 51.1954 32.5356C50.7697 32.9613 50.5306 33.5387 50.5306 34.1407"
          fill="currentColor"/>
    <path d="M59.6101 36.4107H64.15V31.8708H61.8801C61.278 31.8708 60.7007 32.1099 60.275 32.5356C59.8493 32.9613 59.6101 33.5387 59.6101 34.1407"
          fill="currentColor"/>
    <path d="M68.6904 31.871H64.1505V36.4109H68.6904V31.871Z" fill="currentColor"/>
    <path d="M77.7699 31.871H73.23V36.4109H77.7699V31.871Z" fill="currentColor"/>
    <path d="M77.77 31.871V36.4109H82.3099V34.141C82.3099 33.539 82.0707 32.9616 81.645 32.5359C81.2193 32.1102 80.6419 31.871 80.0399 31.871"
          fill="currentColor"/>
    <path d="M91.3899 36.4107V31.8708H89.1199C88.5179 31.8708 87.9405 32.1099 87.5148 32.5356C87.0891 32.9613 86.85 33.5387 86.85 34.1407C86.85 34.7428 87.0891 35.3201 87.5148 35.7458C87.9405 36.1715 88.5179 36.4107 89.1199 36.4107"
          fill="currentColor"/>
    <path d="M95.9298 31.871H91.3899V36.4109H95.9298V31.871Z" fill="currentColor"/>
    <path d="M100.469 31.871H95.9296V36.4109H100.469V31.871Z" fill="currentColor"/>
    <path d="M105.01 31.871H100.47V36.4109H102.74C103.342 36.4109 103.919 36.1718 104.345 35.7461C104.77 35.3204 105.01 34.743 105.01 34.141"
          fill="currentColor"/>
    <path d="M114.089 31.871H109.549V34.141C109.549 34.743 109.788 35.3204 110.214 35.7461C110.64 36.1718 111.217 36.4109 111.819 36.4109C112.421 36.4109 112.999 36.1718 113.424 35.7461C113.85 35.3204 114.089 34.743 114.089 34.141"
          fill="currentColor"/>
    <path d="M7.40142 40.9506C8.65508 40.9506 9.67138 39.9343 9.67138 38.6806C9.67138 37.427 8.65508 36.4107 7.40142 36.4107C6.14776 36.4107 5.13147 37.427 5.13147 38.6806C5.13147 39.9343 6.14776 40.9506 7.40142 40.9506Z"
          fill="currentColor"/>
    <path d="M21.0211 40.9506C22.2747 40.9506 23.291 39.9343 23.291 38.6806C23.291 37.427 22.2747 36.4107 21.0211 36.4107C19.7674 36.4107 18.7511 37.427 18.7511 38.6806C18.7511 39.9343 19.7674 40.9506 21.0211 40.9506Z"
          fill="currentColor"/>
    <path d="M30.1008 40.9506C31.3545 40.9506 32.3708 39.9343 32.3708 38.6806C32.3708 37.427 31.3545 36.4107 30.1008 36.4107C28.8472 36.4107 27.8309 37.427 27.8309 38.6806C27.8309 39.9343 28.8472 40.9506 30.1008 40.9506Z"
          fill="currentColor"/>
    <path d="M36.9107 40.9506H41.4506V38.6806C41.4506 38.0786 41.2115 37.5012 40.7858 37.0755C40.3601 36.6498 39.7827 36.4107 39.1807 36.4107C38.5786 36.4107 38.0013 36.6498 37.5756 37.0755C37.1499 37.5012 36.9107 38.0786 36.9107 38.6806"
          fill="currentColor"/>
    <path d="M55.0705 36.4107H50.5306V40.9506H55.0705V36.4107Z" fill="currentColor"/>
    <path d="M64.1505 40.9506V36.4107H59.6106V38.6806C59.6106 39.2827 59.8498 39.86 60.2755 40.2857C60.7012 40.7114 61.2785 40.9506 61.8806 40.9506"
          fill="currentColor"/>
    <path d="M68.6904 36.4107H64.1505V40.9506H68.6904V36.4107Z" fill="currentColor"/>
    <path d="M73.2301 36.4107H68.6902V40.9506H73.2301V36.4107Z" fill="currentColor"/>
    <path d="M77.7699 36.4107H73.23V40.9506H77.7699V36.4107Z" fill="currentColor"/>
    <path d="M82.3099 36.4107H77.77V40.9506H82.3099V36.4107Z" fill="currentColor"/>
    <path d="M95.9296 40.9506V36.4107H91.3897V38.6806C91.3897 39.2827 91.6288 39.86 92.0545 40.2857C92.4802 40.7114 93.0576 40.9506 93.6596 40.9506"
          fill="currentColor"/>
    <path d="M100.469 36.4107H95.9296V40.9506H100.469V36.4107Z" fill="currentColor"/>
    <path d="M105.01 40.9506H109.549V38.6806C109.549 38.0786 109.31 37.5012 108.885 37.0755C108.459 36.6498 107.882 36.4107 107.279 36.4107C106.677 36.4107 106.1 36.6498 105.674 37.0755C105.249 37.5012 105.01 38.0786 105.01 38.6806"
          fill="currentColor"/>
    <path d="M114.089 40.9506H118.629V38.6806C118.629 38.0786 118.39 37.5012 117.964 37.0755C117.538 36.6498 116.961 36.4107 116.359 36.4107C115.757 36.4107 115.18 36.6498 114.754 37.0755C114.328 37.5012 114.089 38.0786 114.089 38.6806"
          fill="currentColor"/>
    <path d="M127.709 40.9506V36.4107H125.439C124.837 36.4107 124.26 36.6498 123.834 37.0755C123.408 37.5012 123.169 38.0786 123.169 38.6806C123.169 39.2827 123.408 39.86 123.834 40.2857C124.26 40.7114 124.837 40.9506 125.439 40.9506"
          fill="currentColor"/>
    <path d="M127.709 36.4107V40.9506H129.979C130.581 40.9506 131.158 40.7114 131.584 40.2857C132.01 39.86 132.249 39.2827 132.249 38.6806C132.249 38.0786 132.01 37.5012 131.584 37.0755C131.158 36.6498 130.581 36.4107 129.979 36.4107"
          fill="currentColor"/>
    <path d="M136.789 40.9506H141.329V38.6806C141.329 38.0786 141.09 37.5012 140.664 37.0755C140.238 36.6498 139.661 36.4107 139.059 36.4107C138.457 36.4107 137.879 36.6498 137.454 37.0755C137.028 37.5012 136.789 38.0786 136.789 38.6806"
          fill="currentColor"/>
    <path d="M0.591553 45.491H5.13146V43.221C5.13146 42.619 4.8923 42.0416 4.46661 41.6159C4.04091 41.1902 3.46353 40.951 2.86151 40.951C2.25948 40.951 1.6821 41.1902 1.2564 41.6159C0.830706 42.0416 0.591553 42.619 0.591553 43.221"
          fill="currentColor"/>
    <path d="M9.67157 45.491H14.2115V43.221C14.2115 42.619 13.9723 42.0416 13.5466 41.6159C13.1209 41.1902 12.5436 40.951 11.9415 40.951C11.3395 40.951 10.7621 41.1902 10.3364 41.6159C9.91072 42.0416 9.67157 42.619 9.67157 43.221"
          fill="currentColor"/>
    <path d="M41.4506 40.9506H36.9107V45.4905H41.4506V40.9506Z" fill="currentColor"/>
    <path d="M50.5306 45.491V40.951H48.2606C47.6586 40.951 47.0812 41.1902 46.6555 41.6159C46.2298 42.0416 45.9907 42.619 45.9907 43.221C45.9907 43.823 46.2298 44.4004 46.6555 44.8261C47.0812 45.2518 47.6586 45.491 48.2606 45.491"
          fill="currentColor"/>
    <path d="M55.0705 40.9506H50.5306V45.4905H55.0705V40.9506Z" fill="currentColor"/>
    <path d="M55.0705 40.9506V45.4905H57.3404C57.9425 45.4905 58.5199 45.2513 58.9455 44.8256C59.3712 44.3999 59.6104 43.8226 59.6104 43.2205C59.6104 42.6185 59.3712 42.0411 58.9455 41.6154C58.5199 41.1897 57.9425 40.9506 57.3404 40.9506"
          fill="currentColor"/>
    <path d="M68.6902 40.9506H64.1503V43.2205C64.1503 43.8226 64.3894 44.3999 64.8151 44.8256C65.2408 45.2513 65.8182 45.4905 66.4202 45.4905C67.0223 45.4905 67.5996 45.2513 68.0253 44.8256C68.451 44.3999 68.6902 43.8226 68.6902 43.2205"
          fill="currentColor"/>
    <path d="M82.3098 45.491V40.951H77.7699V43.221C77.7699 43.823 78.0091 44.4004 78.4348 44.8261C78.8605 45.2518 79.4378 45.491 80.0399 45.491"
          fill="currentColor"/>
    <path d="M82.3098 40.9506V45.4905H86.8497V43.2205C86.8497 42.6185 86.6106 42.0411 86.1849 41.6154C85.7592 41.1897 85.1818 40.9506 84.5798 40.9506"
          fill="currentColor"/>
    <path d="M100.469 40.9506H95.9295V43.2205C95.9295 43.8226 96.1686 44.3999 96.5943 44.8256C97.02 45.2513 97.5974 45.4905 98.1994 45.4905C98.8014 45.4905 99.3788 45.2513 99.8045 44.8256C100.23 44.3999 100.469 43.8226 100.469 43.2205"
          fill="currentColor"/>
    <path d="M109.549 40.9506H105.01V45.4905H109.549V40.9506Z" fill="currentColor"/>
    <path d="M118.629 40.9506H114.089V45.4905H118.629V40.9506Z" fill="currentColor"/>
    <path d="M132.249 45.491H136.789V40.951H134.519C133.917 40.951 133.339 41.1902 132.914 41.6159C132.488 42.0416 132.249 42.619 132.249 43.221"
          fill="currentColor"/>
    <path d="M141.329 40.9506H136.789V45.4905H141.329V40.9506Z" fill="currentColor"/>
    <path d="M141.329 40.9506V45.4905H145.869V43.2205C145.869 42.6185 145.63 42.0411 145.204 41.6154C144.778 41.1897 144.201 40.9506 143.599 40.9506"
          fill="currentColor"/>
    <path d="M5.13147 45.491H0.591564V47.7609C0.591564 48.3629 0.830718 48.9403 1.25642 49.366C1.68211 49.7917 2.25949 50.0309 2.86152 50.0309C3.46355 50.0309 4.04092 49.7917 4.46662 49.366C4.89232 48.9403 5.13147 48.3629 5.13147 47.7609"
          fill="currentColor"/>
    <path d="M14.2115 45.491H9.67157V50.0309H14.2115V45.491Z" fill="currentColor"/>
    <path d="M23.291 50.0306V45.4907H21.0211C20.419 45.4907 19.8417 45.7298 19.416 46.1555C18.9903 46.5812 18.7511 47.1586 18.7511 47.7606C18.7511 48.3627 18.9903 48.94 19.416 49.3657C19.8417 49.7914 20.419 50.0306 21.0211 50.0306"
          fill="currentColor"/>
    <path d="M27.8309 45.491H23.291V50.0309H27.8309V45.491Z" fill="currentColor"/>
    <path d="M32.3708 45.491H27.8309V50.0309H32.3708V45.491Z" fill="currentColor"/>
    <path d="M36.9104 45.491H32.3705V50.0309H36.9104V45.491Z" fill="currentColor"/>
    <path d="M41.4506 45.491H36.9107V50.0309H41.4506V45.491Z" fill="currentColor"/>
    <path d="M41.4508 45.491V50.0309H43.7208C44.3228 50.0309 44.9002 49.7917 45.3259 49.366C45.7516 48.9403 45.9907 48.3629 45.9907 47.7609C45.9907 47.1589 45.7516 46.5815 45.3259 46.1558C44.9002 45.7301 44.3228 45.491 43.7208 45.491"
          fill="currentColor"/>
    <path d="M55.0705 45.491H50.5306V47.7609C50.5306 48.3629 50.7697 48.9403 51.1954 49.366C51.6211 49.7917 52.1985 50.0309 52.8005 50.0309C53.4026 50.0309 53.9799 49.7917 54.4056 49.366C54.8313 48.9403 55.0705 48.3629 55.0705 47.7609"
          fill="currentColor"/>
    <path d="M73.23 50.0306H77.7699V47.7606C77.7699 47.1586 77.5308 46.5812 77.1051 46.1555C76.6794 45.7298 76.102 45.4907 75.5 45.4907C74.898 45.4907 74.3206 45.7298 73.8949 46.1555C73.4692 46.5812 73.23 47.1586 73.23 47.7606"
          fill="currentColor"/>
    <path d="M86.8495 45.491H82.3096V47.7609C82.3096 48.3629 82.5487 48.9403 82.9744 49.366C83.4001 49.7917 83.9775 50.0309 84.5795 50.0309C85.1816 50.0309 85.7589 49.7917 86.1846 49.366C86.6103 48.9403 86.8495 48.3629 86.8495 47.7609"
          fill="currentColor"/>
    <path d="M93.6598 50.0309C94.9135 50.0309 95.9298 49.0146 95.9298 47.7609C95.9298 46.5072 94.9135 45.491 93.6598 45.491C92.4062 45.491 91.3899 46.5072 91.3899 47.7609C91.3899 49.0146 92.4062 50.0309 93.6598 50.0309Z"
          fill="currentColor"/>
    <path d="M109.549 45.491H105.01V50.0309H109.549V45.491Z" fill="currentColor"/>
    <path d="M118.629 45.491H114.089V50.0309H118.629V45.491Z" fill="currentColor"/>
    <path d="M136.789 45.491H132.249V47.7609C132.249 48.3629 132.488 48.9403 132.914 49.366C133.339 49.7917 133.917 50.0309 134.519 50.0309C135.121 50.0309 135.698 49.7917 136.124 49.366C136.55 48.9403 136.789 48.3629 136.789 47.7609"
          fill="currentColor"/>
    <path d="M145.869 45.491H141.329V50.0309H145.869V45.491Z" fill="currentColor"/>
    <path d="M5.13147 54.5703H9.67138V50.0303H7.40142C6.79939 50.0303 6.22202 50.2695 5.79632 50.6952C5.37062 51.1209 5.13147 51.6983 5.13147 52.3003"
          fill="currentColor"/>
    <path d="M14.2115 50.0306H9.67157V54.5705H14.2115V50.0306Z" fill="currentColor"/>
    <path d="M14.2112 50.0306V54.5705H18.7511V52.3005C18.7511 51.6985 18.512 51.1211 18.0863 50.6954C17.6606 50.2697 17.0832 50.0306 16.4812 50.0306"
          fill="currentColor"/>
    <path d="M36.9107 50.0306H32.3708V52.3005C32.3708 52.9026 32.61 53.4799 33.0357 53.9056C33.4614 54.3313 34.0387 54.5705 34.6408 54.5705C35.2428 54.5705 35.8202 54.3313 36.2459 53.9056C36.6716 53.4799 36.9107 52.9026 36.9107 52.3005"
          fill="currentColor"/>
    <path d="M59.6101 54.5703V50.0303H57.3402C56.7381 50.0303 56.1608 50.2695 55.7351 50.6952C55.3094 51.1209 55.0702 51.6983 55.0702 52.3003C55.0702 52.9023 55.3094 53.4797 55.7351 53.9054C56.1608 54.3311 56.7381 54.5703 57.3402 54.5703"
          fill="currentColor"/>
    <path d="M64.15 50.0306H59.6101V54.5705H64.15V50.0306Z" fill="currentColor"/>
    <path d="M64.1505 50.0306V54.5705H66.4205C67.0225 54.5705 67.5999 54.3313 68.0256 53.9056C68.4513 53.4799 68.6904 52.9026 68.6904 52.3005C68.6904 51.6985 68.4513 51.1211 68.0256 50.6954C67.5999 50.2697 67.0225 50.0306 66.4205 50.0306"
          fill="currentColor"/>
    <path d="M77.77 50.0306H73.2301V52.3005C73.2301 52.9026 73.4692 53.4799 73.8949 53.9056C74.3206 54.3313 74.898 54.5705 75.5 54.5705C76.102 54.5705 76.6794 54.3313 77.1051 53.9056C77.5308 53.4799 77.77 52.9026 77.77 52.3005"
          fill="currentColor"/>
    <path d="M89.1194 54.5705C90.3731 54.5705 91.3894 53.5542 91.3894 52.3005C91.3894 51.0469 90.3731 50.0306 89.1194 50.0306C87.8658 50.0306 86.8495 51.0469 86.8495 52.3005C86.8495 53.5542 87.8658 54.5705 89.1194 54.5705Z"
          fill="currentColor"/>
    <path d="M100.469 54.5703H105.009V50.0303H102.739C102.137 50.0303 101.56 50.2695 101.134 50.6952C100.709 51.1209 100.469 51.6983 100.469 52.3003"
          fill="currentColor"/>
    <path d="M109.549 50.0306H105.01V54.5705H109.549V50.0306Z" fill="currentColor"/>
    <path d="M118.629 50.0306H114.089V52.3005C114.089 52.9026 114.328 53.4799 114.754 53.9056C115.18 54.3313 115.757 54.5705 116.359 54.5705C116.961 54.5705 117.538 54.3313 117.964 53.9056C118.39 53.4799 118.629 52.9026 118.629 52.3005"
          fill="currentColor"/>
    <path d="M145.869 54.5703V50.0303H141.329V52.3003C141.329 52.9023 141.568 53.4797 141.993 53.9054C142.419 54.3311 142.997 54.5703 143.599 54.5703"
          fill="currentColor"/>
    <path d="M145.869 50.0306V54.5705H148.138C148.741 54.5705 149.318 54.3313 149.744 53.9056C150.169 53.4799 150.408 52.9026 150.408 52.3005C150.408 51.6985 150.169 51.1211 149.744 50.6954C149.318 50.2697 148.741 50.0306 148.138 50.0306"
          fill="currentColor"/>
    <path d="M9.67138 54.5703H5.13147V59.1102H9.67138V54.5703Z" fill="currentColor"/>
    <path d="M14.2115 54.5703H9.67157V59.1102H14.2115V54.5703Z" fill="currentColor"/>
    <path d="M18.7511 54.5703H14.2112V59.1102H16.4811C17.0832 59.1102 17.6605 58.871 18.0862 58.4453C18.5119 58.0196 18.7511 57.4422 18.7511 56.8402"
          fill="currentColor"/>
    <path d="M23.291 59.1104H27.8309V54.5705H25.561C24.9589 54.5705 24.3816 54.8096 23.9559 55.2353C23.5302 55.661 23.291 56.2384 23.291 56.8404"
          fill="currentColor"/>
    <path d="M27.8309 54.5703V59.1102H30.1008C30.7029 59.1102 31.2802 58.871 31.7059 58.4453C32.1316 58.0196 32.3708 57.4422 32.3708 56.8402C32.3708 56.2382 32.1316 55.6608 31.7059 55.2351C31.2802 54.8094 30.7029 54.5703 30.1008 54.5703"
          fill="currentColor"/>
    <path d="M36.9107 59.1104H41.4506V56.8404C41.4506 56.2384 41.2115 55.661 40.7858 55.2353C40.3601 54.8096 39.7827 54.5705 39.1807 54.5705C38.5786 54.5705 38.0013 54.8096 37.5756 55.2353C37.1499 55.661 36.9107 56.2384 36.9107 56.8404"
          fill="currentColor"/>
    <path d="M45.9905 59.1104H50.5304V56.8404C50.5304 56.2384 50.2912 55.661 49.8655 55.2353C49.4398 54.8096 48.8625 54.5705 48.2604 54.5705C47.6584 54.5705 47.081 54.8096 46.6553 55.2353C46.2296 55.661 45.9905 56.2384 45.9905 56.8404"
          fill="currentColor"/>
    <path d="M105.01 59.1104V54.5705H100.47V56.8404C100.47 57.4425 100.709 58.0198 101.134 58.4455C101.56 58.8712 102.138 59.1104 102.74 59.1104"
          fill="currentColor"/>
    <path d="M109.549 54.5703H105.009V59.1102H107.279C107.881 59.1102 108.459 58.871 108.884 58.4453C109.31 58.0196 109.549 57.4422 109.549 56.8402"
          fill="currentColor"/>
    <path d="M120.899 59.1102C122.153 59.1102 123.169 58.0939 123.169 56.8402C123.169 55.5865 122.153 54.5703 120.899 54.5703C119.645 54.5703 118.629 55.5865 118.629 56.8402C118.629 58.0939 119.645 59.1102 120.899 59.1102Z"
          fill="currentColor"/>
    <path d="M132.249 59.1104V54.5705H129.979C129.377 54.5705 128.8 54.8096 128.374 55.2353C127.948 55.661 127.709 56.2384 127.709 56.8404C127.709 57.4425 127.948 58.0198 128.374 58.4455C128.8 58.8712 129.377 59.1104 129.979 59.1104"
          fill="currentColor"/>
    <path d="M132.249 54.5703V59.1102H136.789V56.8402C136.789 56.2382 136.55 55.6608 136.124 55.2351C135.698 54.8094 135.121 54.5703 134.519 54.5703"
          fill="currentColor"/>
    <path d="M9.67138 59.1104H5.13147V63.6503H9.67138V59.1104Z" fill="currentColor"/>
    <path d="M14.2112 59.1104H9.67134V63.6503H11.9413C12.5433 63.6503 13.1207 63.4111 13.5464 62.9854C13.9721 62.5597 14.2112 61.9824 14.2112 61.3803"
          fill="currentColor"/>
    <path d="M27.8309 59.1104H23.291V63.6503H27.8309V59.1104Z" fill="currentColor"/>
    <path d="M41.4508 59.1104H36.9109V61.3803C36.9109 61.9824 37.1501 62.5597 37.5758 62.9854C38.0015 63.4111 38.5788 63.6503 39.1809 63.6503C39.7829 63.6503 40.3603 63.4111 40.786 62.9854C41.2117 62.5597 41.4508 61.9824 41.4508 61.3803"
          fill="currentColor"/>
    <path d="M50.5304 59.1104H45.9905V63.6503H50.5304V59.1104Z" fill="currentColor"/>
    <path d="M109.549 63.6505H114.089V61.3806C114.089 60.7785 113.85 60.2012 113.424 59.7755C112.999 59.3498 112.421 59.1106 111.819 59.1106C111.217 59.1106 110.64 59.3498 110.214 59.7755C109.788 60.2012 109.549 60.7785 109.549 61.3806"
          fill="currentColor"/>
    <path d="M123.169 63.6505H127.709V61.3806C127.709 60.7785 127.47 60.2012 127.044 59.7755C126.618 59.3498 126.041 59.1106 125.439 59.1106C124.837 59.1106 124.259 59.3498 123.834 59.7755C123.408 60.2012 123.169 60.7785 123.169 61.3806"
          fill="currentColor"/>
    <path d="M136.789 59.1104H132.249V63.6503H136.789V59.1104Z" fill="currentColor"/>
    <path d="M136.789 59.1104V63.6503H141.329V61.3803C141.329 60.7783 141.09 60.2009 140.664 59.7752C140.238 59.3495 139.661 59.1104 139.059 59.1104"
          fill="currentColor"/>
    <path d="M0.591553 68.1902H5.13146V63.6502H2.86151C2.25948 63.6502 1.6821 63.8894 1.2564 64.3151C0.830706 64.7408 0.591553 65.3182 0.591553 65.9202"
          fill="currentColor"/>
    <path d="M9.67157 63.6505H5.13166V68.1904H7.40162C8.00365 68.1904 8.58102 67.9513 9.00672 67.5256C9.43242 67.0999 9.67157 66.5225 9.67157 65.9205"
          fill="currentColor"/>
    <path d="M18.7511 68.1902H23.291V63.6502H21.0211C20.419 63.6502 19.8416 63.8894 19.416 64.3151C18.9903 64.7408 18.7511 65.3182 18.7511 65.9202"
          fill="currentColor"/>
    <path d="M27.8309 63.6505H23.291V68.1904H27.8309V63.6505Z" fill="currentColor"/>
    <path d="M27.8309 63.6505V68.1904H30.1008C30.7029 68.1904 31.2802 67.9513 31.7059 67.5256C32.1316 67.0999 32.3708 66.5225 32.3708 65.9205C32.3708 65.3184 32.1316 64.7411 31.7059 64.3154C31.2802 63.8897 30.7029 63.6505 30.1008 63.6505"
          fill="currentColor"/>
    <path d="M41.4508 68.1902H45.9907V63.6502H43.7208C43.1187 63.6502 42.5414 63.8894 42.1157 64.3151C41.69 64.7408 41.4508 65.3182 41.4508 65.9202"
          fill="currentColor"/>
    <path d="M50.5304 63.6505H45.9905V68.1904H50.5304V63.6505Z" fill="currentColor"/>
    <path d="M105.01 68.1902H109.549V63.6502H107.279C106.677 63.6502 106.1 63.8894 105.674 64.3151C105.249 64.7408 105.01 65.3182 105.01 65.9202"
          fill="currentColor"/>
    <path d="M114.089 63.6505H109.549V68.1904H114.089V63.6505Z" fill="currentColor"/>
    <path d="M118.629 63.6505H114.089V68.1904H118.629V63.6505Z" fill="currentColor"/>
    <path d="M123.169 63.6505H118.629V68.1904H123.169V63.6505Z" fill="currentColor"/>
    <path d="M127.709 63.6505H123.169V68.1904H125.439C126.041 68.1904 126.618 67.9513 127.044 67.5256C127.47 67.0999 127.709 66.5225 127.709 65.9205"
          fill="currentColor"/>
    <path d="M136.789 68.1902V63.6502H132.249V65.9202C132.249 66.5222 132.488 67.0996 132.914 67.5253C133.339 67.951 133.917 68.1902 134.519 68.1902"
          fill="currentColor"/>
    <path d="M141.329 63.6505H136.789V68.1904H141.329V63.6505Z" fill="currentColor"/>
    <path d="M141.329 63.6505V68.1904H143.599C144.201 68.1904 144.778 67.9513 145.204 67.5256C145.63 67.0999 145.869 66.5225 145.869 65.9205C145.869 65.3184 145.63 64.7411 145.204 64.3154C144.778 63.8897 144.201 63.6505 143.599 63.6505"
          fill="currentColor"/>
    <path d="M5.13147 68.1902H0.591564V70.4601C0.591564 71.0621 0.830718 71.6395 1.25642 72.0652C1.68211 72.4909 2.25949 72.7301 2.86152 72.7301C3.46355 72.7301 4.04092 72.4909 4.46662 72.0652C4.89232 71.6395 5.13147 71.0621 5.13147 70.4601"
          fill="currentColor"/>
    <path d="M14.2112 72.7301V68.1902H11.9413C11.3393 68.1902 10.7619 68.4293 10.3362 68.855C9.91049 69.2807 9.67134 69.8581 9.67134 70.4601C9.67134 71.0621 9.91049 71.6395 10.3362 72.0652C10.7619 72.4909 11.3393 72.7301 11.9413 72.7301"
          fill="currentColor"/>
    <path d="M18.7511 68.1902H14.2112V72.7301H18.7511V68.1902Z" fill="currentColor"/>
    <path d="M23.291 68.1902H18.7511V72.7301H21.0211C21.6231 72.7301 22.2005 72.4909 22.6262 72.0652C23.0519 71.6395 23.291 71.0621 23.291 70.4601"
          fill="currentColor"/>
    <path d="M45.9905 72.7301V68.1902H41.4506V70.4601C41.4506 71.0621 41.6897 71.6395 42.1154 72.0652C42.5411 72.4909 43.1185 72.7301 43.7205 72.7301"
          fill="currentColor"/>
    <path d="M50.5306 68.1902H45.9907V72.7301H48.2606C48.8627 72.7301 49.44 72.4909 49.8657 72.0652C50.2914 71.6395 50.5306 71.0621 50.5306 70.4601"
          fill="currentColor"/>
    <path d="M100.469 72.7301H105.009V68.1902H102.739C102.137 68.1902 101.56 68.4293 101.134 68.855C100.709 69.2807 100.469 69.8581 100.469 70.4601"
          fill="currentColor"/>
    <path d="M109.549 68.1902H105.009V72.7301H107.279C107.881 72.7301 108.459 72.4909 108.884 72.0652C109.31 71.6395 109.549 71.0621 109.549 70.4601"
          fill="currentColor"/>
    <path d="M118.629 72.7301V68.1902H114.089V70.4601C114.089 71.0621 114.328 71.6395 114.754 72.0652C115.18 72.4909 115.757 72.7301 116.359 72.7301"
          fill="currentColor"/>
    <path d="M123.169 68.1902H118.629V72.7301H123.169V68.1902Z" fill="currentColor"/>
    <path d="M7.40142 77.27C8.65508 77.27 9.67138 76.2537 9.67138 75C9.67138 73.7463 8.65508 72.7301 7.40142 72.7301C6.14776 72.7301 5.13147 73.7463 5.13147 75C5.13147 76.2537 6.14776 77.27 7.40142 77.27Z"
          fill="currentColor"/>
    <path d="M30.1008 77.27C31.3545 77.27 32.3708 76.2537 32.3708 75C32.3708 73.7463 31.3545 72.7301 30.1008 72.7301C28.8472 72.7301 27.8309 73.7463 27.8309 75C27.8309 76.2537 28.8472 77.27 30.1008 77.27Z"
          fill="currentColor"/>
    <path d="M105.01 72.7301H100.47V75C100.47 75.602 100.709 76.1794 101.134 76.6051C101.56 77.0308 102.138 77.27 102.74 77.27C103.342 77.27 103.919 77.0308 104.345 76.6051C104.77 76.1794 105.01 75.602 105.01 75"
          fill="currentColor"/>
    <path d="M111.819 77.27C113.073 77.27 114.089 76.2537 114.089 75C114.089 73.7463 113.073 72.7301 111.819 72.7301C110.565 72.7301 109.549 73.7463 109.549 75C109.549 76.2537 110.565 77.27 111.819 77.27Z"
          fill="currentColor"/>
    <path d="M123.169 72.7301H118.629V75C118.629 75.602 118.868 76.1794 119.294 76.6051C119.719 77.0308 120.297 77.27 120.899 77.27C121.501 77.27 122.078 77.0308 122.504 76.6051C122.93 76.1794 123.169 75.602 123.169 75"
          fill="currentColor"/>
    <path d="M129.979 77.27C131.233 77.27 132.249 76.2537 132.249 75C132.249 73.7463 131.233 72.7301 129.979 72.7301C128.725 72.7301 127.709 73.7463 127.709 75C127.709 76.2537 128.725 77.27 129.979 77.27Z"
          fill="currentColor"/>
    <path d="M141.329 77.2699H145.869V75C145.869 74.398 145.63 73.8206 145.204 73.3949C144.778 72.9692 144.201 72.73 143.599 72.73C142.997 72.73 142.419 72.9692 141.994 73.3949C141.568 73.8206 141.329 74.398 141.329 75"
          fill="currentColor"/>
    <path d="M18.7511 81.8098V77.2699H16.4811C15.8791 77.2699 15.3017 77.5091 14.876 77.9348C14.4503 78.3605 14.2112 78.9379 14.2112 79.5399C14.2112 80.1419 14.4503 80.7193 14.876 81.145C15.3017 81.5707 15.8791 81.8098 16.4811 81.8098"
          fill="currentColor"/>
    <path d="M18.7511 77.2699V81.8098H23.291V79.5399C23.291 78.9379 23.0518 78.3605 22.6261 77.9348C22.2005 77.5091 21.6231 77.2699 21.0211 77.2699"
          fill="currentColor"/>
    <path d="M36.9107 81.8098H41.4506V79.5399C41.4506 78.9379 41.2115 78.3605 40.7858 77.9348C40.3601 77.5091 39.7827 77.2699 39.1807 77.2699C38.5786 77.2699 38.0013 77.5091 37.5756 77.9348C37.1499 78.3605 36.9107 78.9379 36.9107 79.5399"
          fill="currentColor"/>
    <path d="M105.01 81.8098H109.549V79.5399C109.549 78.9379 109.31 78.3605 108.885 77.9348C108.459 77.5091 107.882 77.2699 107.279 77.2699C106.677 77.2699 106.1 77.5091 105.674 77.9348C105.249 78.3605 105.01 78.9379 105.01 79.5399"
          fill="currentColor"/>
    <path d="M116.359 81.8098C117.613 81.8098 118.629 80.7936 118.629 79.5399C118.629 78.2862 117.613 77.2699 116.359 77.2699C115.105 77.2699 114.089 78.2862 114.089 79.5399C114.089 80.7936 115.105 81.8098 116.359 81.8098Z"
          fill="currentColor"/>
    <path d="M132.249 81.8098H136.789V77.2699H134.519C133.917 77.2699 133.339 77.5091 132.914 77.9348C132.488 78.3605 132.249 78.9379 132.249 79.5399"
          fill="currentColor"/>
    <path d="M141.329 77.2699H136.789V81.8098H141.329V77.2699Z" fill="currentColor"/>
    <path d="M145.869 77.2699H141.329V81.8098H145.869V77.2699Z" fill="currentColor"/>
    <path d="M5.13147 86.3495L5.13147 81.8096H2.86152C2.25949 81.8096 1.68212 82.0487 1.25642 82.4744C0.830719 82.9001 0.591564 83.4775 0.591564 84.0795C0.591564 84.6816 0.830719 85.2589 1.25642 85.6846C1.68212 86.1103 2.25949 86.3495 2.86152 86.3495"
          fill="currentColor"/>
    <path d="M9.67138 81.8098H5.13147V86.3498H9.67138V81.8098Z" fill="currentColor"/>
    <path d="M9.67157 81.8098V86.3498H11.9415C12.5436 86.3498 13.1209 86.1106 13.5466 85.6849C13.9723 85.2592 14.2115 84.6818 14.2115 84.0798C14.2115 83.4778 13.9723 82.9004 13.5466 82.4747C13.1209 82.049 12.5436 81.8098 11.9415 81.8098"
          fill="currentColor"/>
    <path d="M23.291 81.8098H18.7511V86.3498H23.291V81.8098Z" fill="currentColor"/>
    <path d="M32.3705 86.3495V81.8096H30.1006C29.4986 81.8096 28.9212 82.0487 28.4955 82.4744C28.0698 82.9001 27.8306 83.4775 27.8306 84.0795C27.8306 84.6816 28.0698 85.2589 28.4955 85.6846C28.9212 86.1103 29.4986 86.3495 30.1006 86.3495"
          fill="currentColor"/>
    <path d="M36.9104 81.8098H32.3705V86.3498H36.9104V81.8098Z" fill="currentColor"/>
    <path d="M41.4508 81.8098H36.9109V86.3498H39.1809C39.7829 86.3498 40.3603 86.1106 40.786 85.6849C41.2117 85.2592 41.4508 84.6818 41.4508 84.0798"
          fill="currentColor"/>
    <path d="M45.9905 86.3495H50.5304V84.0795C50.5304 83.4775 50.2912 82.9001 49.8655 82.4744C49.4398 82.0487 48.8625 81.8096 48.2604 81.8096C47.6584 81.8096 47.081 82.0487 46.6553 82.4744C46.2296 82.9001 45.9905 83.4775 45.9905 84.0795"
          fill="currentColor"/>
    <path d="M105.01 86.3495V81.8096H102.74C102.138 81.8096 101.56 82.0487 101.134 82.4744C100.709 82.9001 100.47 83.4775 100.47 84.0795C100.47 84.6816 100.709 85.2589 101.134 85.6846C101.56 86.1103 102.138 86.3495 102.74 86.3495"
          fill="currentColor"/>
    <path d="M109.549 81.8098H105.01V86.3498H109.549V81.8098Z" fill="currentColor"/>
    <path d="M123.169 86.3495H127.709V84.0795C127.709 83.4775 127.47 82.9001 127.044 82.4744C126.618 82.0487 126.041 81.8096 125.439 81.8096C124.837 81.8096 124.259 82.0487 123.834 82.4744C123.408 82.9001 123.169 83.4775 123.169 84.0795"
          fill="currentColor"/>
    <path d="M136.789 81.8098H132.249V84.0798C132.249 84.6818 132.488 85.2592 132.914 85.6849C133.339 86.1106 133.917 86.3498 134.519 86.3498C135.121 86.3498 135.698 86.1106 136.124 85.6849C136.55 85.2592 136.789 84.6818 136.789 84.0798"
          fill="currentColor"/>
    <path d="M145.869 81.8098H141.329V84.0798C141.329 84.6818 141.568 85.2592 141.993 85.6849C142.419 86.1106 142.997 86.3498 143.599 86.3498C144.201 86.3498 144.778 86.1106 145.204 85.6849C145.629 85.2592 145.869 84.6818 145.869 84.0798"
          fill="currentColor"/>
    <path d="M9.67138 86.3495H5.13147V90.8894H9.67138V86.3495Z" fill="currentColor"/>
    <path d="M23.291 86.3495H18.7511V90.8894H23.291V86.3495Z" fill="currentColor"/>
    <path d="M50.5304 86.3495H45.9905V90.8894H50.5304V86.3495Z" fill="currentColor"/>
    <path d="M109.549 90.8896V86.3497H105.009V88.6197C105.009 89.2217 105.248 89.7991 105.674 90.2248C106.1 90.6505 106.677 90.8896 107.279 90.8896"
          fill="currentColor"/>
    <path d="M114.089 86.3495H109.549V90.8894H114.089V86.3495Z" fill="currentColor"/>
    <path d="M118.629 86.3495H114.089V90.8894H118.629V86.3495Z" fill="currentColor"/>
    <path d="M123.169 86.3495H118.629V90.8894H123.169V86.3495Z" fill="currentColor"/>
    <path d="M127.709 86.3495H123.169V90.8894H125.439C126.041 90.8894 126.618 90.6502 127.044 90.2245C127.47 89.7988 127.709 89.2215 127.709 88.6194"
          fill="currentColor"/>
    <path d="M145.869 90.8896H150.408V88.6197C150.408 88.0176 150.169 87.4403 149.744 87.0146C149.318 86.5889 148.741 86.3497 148.138 86.3497C147.536 86.3497 146.959 86.5889 146.533 87.0146C146.108 87.4403 145.869 88.0176 145.869 88.6197"
          fill="currentColor"/>
    <path d="M9.67157 90.8896H5.13166V93.1596C5.13166 93.7616 5.37082 94.339 5.79652 94.7647C6.22221 95.1904 6.79959 95.4295 7.40162 95.4295C8.00365 95.4295 8.58102 95.1904 9.00672 94.7647C9.43242 94.339 9.67157 93.7616 9.67157 93.1596"
          fill="currentColor"/>
    <path d="M23.291 90.8896H18.7511V93.1596C18.7511 93.7616 18.9903 94.339 19.416 94.7647C19.8417 95.1904 20.419 95.4295 21.0211 95.4295C21.6231 95.4295 22.2005 95.1904 22.6262 94.7647C23.0519 94.339 23.291 93.7616 23.291 93.1596"
          fill="currentColor"/>
    <path d="M32.3705 95.4295V90.8896H30.1006C29.4986 90.8896 28.9212 91.1288 28.4955 91.5545C28.0698 91.9801 27.8306 92.5575 27.8306 93.1596C27.8306 93.7616 28.0698 94.339 28.4955 94.7647C28.9212 95.1904 29.4986 95.4295 30.1006 95.4295"
          fill="currentColor"/>
    <path d="M36.9104 90.8896H32.3705V95.4295H36.9104V90.8896Z" fill="currentColor"/>
    <path d="M41.4506 90.8896H36.9107V95.4295H41.4506V90.8896Z" fill="currentColor"/>
    <path d="M45.9907 90.8896H41.4508V95.4295H45.9907V90.8896Z" fill="currentColor"/>
    <path d="M50.5304 90.8896H45.9905V95.4295H50.5304V90.8896Z" fill="currentColor"/>
    <path d="M114.089 90.8896H109.549V93.1596C109.549 93.7616 109.788 94.339 110.214 94.7647C110.64 95.1904 111.217 95.4295 111.819 95.4295C112.421 95.4295 112.999 95.1904 113.424 94.7647C113.85 94.339 114.089 93.7616 114.089 93.1596"
          fill="currentColor"/>
    <path d="M123.169 90.8896H118.629V93.1596C118.629 93.7616 118.868 94.339 119.294 94.7647C119.719 95.1904 120.297 95.4295 120.899 95.4295C121.501 95.4295 122.078 95.1904 122.504 94.7647C122.93 94.339 123.169 93.7616 123.169 93.1596"
          fill="currentColor"/>
    <path d="M132.249 95.4295V90.8896H129.979C129.377 90.8896 128.8 91.1288 128.374 91.5545C127.948 91.9801 127.709 92.5575 127.709 93.1596C127.709 93.7616 127.948 94.339 128.374 94.7647C128.8 95.1904 129.377 95.4295 129.979 95.4295"
          fill="currentColor"/>
    <path d="M132.249 90.8896V95.4295H136.789V93.1596C136.789 92.5575 136.55 91.9802 136.124 91.5545C135.698 91.1288 135.121 90.8896 134.519 90.8896"
          fill="currentColor"/>
    <path d="M141.329 95.4295H145.869V90.8896H143.599C142.997 90.8896 142.419 91.1288 141.994 91.5545C141.568 91.9801 141.329 92.5575 141.329 93.1596"
          fill="currentColor"/>
    <path d="M150.408 90.8896H145.869V95.4295H148.138C148.741 95.4295 149.318 95.1904 149.744 94.7647C150.169 94.339 150.408 93.7616 150.408 93.1596"
          fill="currentColor"/>
    <path d="M2.86151 99.9694C4.11517 99.9694 5.13146 98.9531 5.13146 97.6995C5.13146 96.4458 4.11517 95.4295 2.86151 95.4295C1.60785 95.4295 0.591553 96.4458 0.591553 97.6995C0.591553 98.9531 1.60785 99.9694 2.86151 99.9694Z"
          fill="currentColor"/>
    <path d="M9.67157 99.9694H14.2115V97.6994C14.2115 97.0974 13.9723 96.52 13.5466 96.0943C13.1209 95.6686 12.5436 95.4295 11.9415 95.4295C11.3395 95.4295 10.7621 95.6686 10.3364 96.0943C9.91072 96.52 9.67157 97.0974 9.67157 97.6994"
          fill="currentColor"/>
    <path d="M23.291 99.9694H27.8309V97.6994C27.8309 97.0974 27.5918 96.52 27.1661 96.0943C26.7404 95.6686 26.163 95.4295 25.561 95.4295C24.9589 95.4295 24.3816 95.6686 23.9559 96.0943C23.5302 96.52 23.291 97.0974 23.291 97.6994"
          fill="currentColor"/>
    <path d="M36.9107 99.9694V95.4295H32.3708V97.6994C32.3708 98.3015 32.61 98.8788 33.0357 99.3045C33.4614 99.7302 34.0387 99.9694 34.6408 99.9694"
          fill="currentColor"/>
    <path d="M41.4506 95.4295H36.9107V99.9694H41.4506V95.4295Z" fill="currentColor"/>
    <path d="M45.9907 95.4295H41.4508V99.9694H45.9907V95.4295Z" fill="currentColor"/>
    <path d="M50.5306 95.4295H45.9907V99.9694H48.2606C48.8627 99.9694 49.44 99.7303 49.8657 99.3046C50.2914 98.8789 50.5306 98.3015 50.5306 97.6995"
          fill="currentColor"/>
    <path d="M55.0705 99.9694H59.6104V95.4295H57.3404C56.7384 95.4295 56.161 95.6686 55.7353 96.0943C55.3096 96.52 55.0705 97.0974 55.0705 97.6994"
          fill="currentColor"/>
    <path d="M59.6101 95.4295V99.9694H64.15V97.6995C64.15 97.0974 63.9109 96.5201 63.4852 96.0944C63.0595 95.6687 62.4821 95.4295 61.8801 95.4295"
          fill="currentColor"/>
    <path d="M73.23 99.9694H77.7699V97.6994C77.7699 97.0974 77.5308 96.52 77.1051 96.0943C76.6794 95.6686 76.102 95.4295 75.5 95.4295C74.898 95.4295 74.3206 95.6686 73.8949 96.0943C73.4692 96.52 73.23 97.0974 73.23 97.6994"
          fill="currentColor"/>
    <path d="M82.3098 99.9694H86.8497V95.4295H84.5798C83.9777 95.4295 83.4004 95.6686 82.9747 96.0943C82.549 96.52 82.3098 97.0974 82.3098 97.6994"
          fill="currentColor"/>
    <path d="M86.8495 95.4295V99.9694H91.3894V97.6995C91.3894 97.0974 91.1502 96.5201 90.7245 96.0944C90.2988 95.6687 89.7215 95.4295 89.1194 95.4295"
          fill="currentColor"/>
    <path d="M100.469 99.9694H105.009V97.6994C105.009 97.0974 104.77 96.52 104.344 96.0943C103.919 95.6686 103.341 95.4295 102.739 95.4295C102.137 95.4295 101.56 95.6686 101.134 96.0943C100.709 96.52 100.469 97.0974 100.469 97.6994"
          fill="currentColor"/>
    <path d="M123.169 99.9694H127.709V97.6994C127.709 97.0974 127.47 96.52 127.044 96.0943C126.618 95.6686 126.041 95.4295 125.439 95.4295C124.837 95.4295 124.259 95.6686 123.834 96.0943C123.408 96.52 123.169 97.0974 123.169 97.6994"
          fill="currentColor"/>
    <path d="M136.789 95.4295H132.249V97.6995C132.249 98.3015 132.488 98.8789 132.914 99.3046C133.339 99.7303 133.917 99.9694 134.519 99.9694C135.121 99.9694 135.698 99.7303 136.124 99.3046C136.55 98.8789 136.789 98.3015 136.789 97.6995"
          fill="currentColor"/>
    <path d="M145.869 95.4295H141.329V99.9694H145.869V95.4295Z" fill="currentColor"/>
    <path d="M14.2115 99.9694H9.67157V104.509H14.2115V99.9694Z" fill="currentColor"/>
    <path d="M14.2112 99.9694V104.509H18.7511V102.239C18.7511 101.637 18.512 101.06 18.0863 100.634C17.6606 100.209 17.0832 99.9694 16.4812 99.9694"
          fill="currentColor"/>
    <path d="M27.8309 104.51V99.9696H23.291V102.24C23.291 102.842 23.5301 103.419 23.9558 103.845C24.3815 104.27 24.9589 104.51 25.5609 104.51"
          fill="currentColor"/>
    <path d="M27.8309 99.9694V104.509H30.1008C30.7029 104.509 31.2802 104.27 31.7059 103.844C32.1316 103.419 32.3708 102.841 32.3708 102.239C32.3708 101.637 32.1316 101.06 31.7059 100.634C31.2802 100.209 30.7029 99.9694 30.1008 99.9694"
          fill="currentColor"/>
    <path d="M55.0705 104.51V99.9696H52.8005C52.1985 99.9696 51.6211 100.209 51.1954 100.634C50.7697 101.06 50.5306 101.638 50.5306 102.24C50.5306 102.842 50.7697 103.419 51.1954 103.845C51.6211 104.27 52.1985 104.51 52.8005 104.51"
          fill="currentColor"/>
    <path d="M59.6104 99.9694H55.0705V104.509H59.6104V99.9694Z" fill="currentColor"/>
    <path d="M64.1505 99.9694H59.6106V104.509H61.8806C62.4826 104.509 63.06 104.27 63.4857 103.844C63.9114 103.419 64.1505 102.841 64.1505 102.239"
          fill="currentColor"/>
    <path d="M77.7699 99.9694H73.23V104.509H77.7699V99.9694Z" fill="currentColor"/>
    <path d="M86.8495 104.51V99.9696H82.3096V102.24C82.3096 102.842 82.5487 103.419 82.9744 103.845C83.4001 104.27 83.9775 104.51 84.5795 104.51"
          fill="currentColor"/>
    <path d="M91.3894 99.9694H86.8495V104.509H91.3894V99.9694Z" fill="currentColor"/>
    <path d="M105.01 99.9694H100.47V102.239C100.47 102.841 100.709 103.419 101.134 103.844C101.56 104.27 102.138 104.509 102.74 104.509C103.342 104.509 103.919 104.27 104.345 103.844C104.77 103.419 105.01 102.841 105.01 102.239"
          fill="currentColor"/>
    <path d="M114.089 104.51H118.629V102.24C118.629 101.638 118.39 101.06 117.964 100.634C117.538 100.209 116.961 99.9696 116.359 99.9696C115.757 99.9696 115.18 100.209 114.754 100.634C114.328 101.06 114.089 101.638 114.089 102.24"
          fill="currentColor"/>
    <path d="M127.709 104.51V99.9696H123.169V102.24C123.169 102.842 123.408 103.419 123.834 103.845C124.26 104.27 124.837 104.51 125.439 104.51"
          fill="currentColor"/>
    <path d="M127.709 99.9694V104.509H132.249V102.239C132.249 101.637 132.01 101.06 131.584 100.634C131.158 100.209 130.581 99.9694 129.979 99.9694"
          fill="currentColor"/>
    <path d="M145.869 99.9694H141.329V104.509H145.869V99.9694Z" fill="currentColor"/>
    <path d="M14.2115 104.51H9.67157V109.049H14.2115V104.51Z" fill="currentColor"/>
    <path d="M18.7511 104.51H14.2112V109.049H18.7511V104.51Z" fill="currentColor"/>
    <path d="M18.7511 104.51V109.049H21.0211C21.6231 109.049 22.2005 108.81 22.6261 108.385C23.0518 107.959 23.291 107.382 23.291 106.779C23.291 106.177 23.0518 105.6 22.6261 105.174C22.2005 104.749 21.6231 104.51 21.0211 104.51"
          fill="currentColor"/>
    <path d="M36.9107 109.049V104.509H34.6408C34.0387 104.509 33.4614 104.748 33.0357 105.174C32.61 105.6 32.3708 106.177 32.3708 106.779C32.3708 107.381 32.61 107.959 33.0357 108.384C33.4614 108.81 34.0387 109.049 34.6408 109.049"
          fill="currentColor"/>
    <path d="M36.9107 104.51V109.049H41.4506V106.779C41.4506 106.177 41.2115 105.6 40.7858 105.174C40.3601 104.749 39.7827 104.51 39.1807 104.51"
          fill="currentColor"/>
    <path d="M45.9905 109.049H50.5304V106.779C50.5304 106.177 50.2912 105.6 49.8655 105.174C49.4398 104.748 48.8625 104.509 48.2604 104.509C47.6584 104.509 47.081 104.748 46.6553 105.174C46.2296 105.6 45.9905 106.177 45.9905 106.779"
          fill="currentColor"/>
    <path d="M68.6902 109.049V104.509H66.4202C65.8182 104.509 65.2408 104.748 64.8151 105.174C64.3894 105.6 64.1503 106.177 64.1503 106.779C64.1503 107.381 64.3894 107.959 64.8151 108.384C65.2408 108.81 65.8182 109.049 66.4202 109.049"
          fill="currentColor"/>
    <path d="M73.2301 104.51H68.6902V109.049H73.2301V104.51Z" fill="currentColor"/>
    <path d="M77.7699 104.51H73.23V109.049H77.7699V104.51Z" fill="currentColor"/>
    <path d="M77.77 104.51V109.049H82.3099V106.779C82.3099 106.177 82.0707 105.6 81.645 105.174C81.2193 104.749 80.6419 104.51 80.0399 104.51"
          fill="currentColor"/>
    <path d="M91.3899 109.049V104.509H86.85V106.779C86.85 107.381 87.0891 107.959 87.5148 108.384C87.9405 108.81 88.5179 109.049 89.1199 109.049"
          fill="currentColor"/>
    <path d="M95.9298 104.51H91.3899V109.049H95.9298V104.51Z" fill="currentColor"/>
    <path d="M95.9296 104.51V109.049H100.469V106.779C100.469 106.177 100.23 105.6 99.8046 105.174C99.3789 104.749 98.8015 104.51 98.1995 104.51"
          fill="currentColor"/>
    <path d="M109.549 109.049H114.089V104.509H111.819C111.217 104.509 110.64 104.748 110.214 105.174C109.788 105.6 109.549 106.177 109.549 106.779"
          fill="currentColor"/>
    <path d="M118.629 104.51H114.089V109.049H118.629V104.51Z" fill="currentColor"/>
    <path d="M118.629 104.51V109.049H123.169V106.779C123.169 106.177 122.93 105.6 122.504 105.174C122.078 104.749 121.501 104.51 120.899 104.51"
          fill="currentColor"/>
    <path d="M132.249 104.51H127.709V109.049H132.249V104.51Z" fill="currentColor"/>
    <path d="M145.869 104.51H141.329V109.049H145.869V104.51Z" fill="currentColor"/>
    <path d="M5.13147 113.589L5.13147 109.049H2.86152C2.25949 109.049 1.68212 109.288 1.25642 109.714C0.830719 110.14 0.591564 110.717 0.591564 111.319C0.591564 111.921 0.830719 112.499 1.25642 112.924C1.68212 113.35 2.25949 113.589 2.86152 113.589"
          fill="currentColor"/>
    <path d="M9.67138 109.049H5.13147V113.589H9.67138V109.049Z" fill="currentColor"/>
    <path d="M14.2112 109.049H9.67134V113.589H11.9413C12.5433 113.589 13.1207 113.35 13.5464 112.924C13.9721 112.499 14.2112 111.921 14.2112 111.319"
          fill="currentColor"/>
    <path d="M30.1008 113.589C31.3545 113.589 32.3708 112.573 32.3708 111.319C32.3708 110.065 31.3545 109.049 30.1008 109.049C28.8472 109.049 27.8309 110.065 27.8309 111.319C27.8309 112.573 28.8472 113.589 30.1008 113.589Z"
          fill="currentColor"/>
    <path d="M41.4506 109.049H36.9107V113.589H41.4506V109.049Z" fill="currentColor"/>
    <path d="M50.5304 109.049H45.9905V113.589H50.5304V109.049Z" fill="currentColor"/>
    <path d="M55.0705 109.049H50.5306V113.589H55.0705V109.049Z" fill="currentColor"/>
    <path d="M59.6104 109.049H55.0705V113.589H59.6104V109.049Z" fill="currentColor"/>
    <path d="M59.6101 109.049V113.589H64.15V111.319C64.15 110.717 63.9109 110.14 63.4852 109.714C63.0595 109.288 62.4821 109.049 61.8801 109.049"
          fill="currentColor"/>
    <path d="M77.77 113.589V109.049H73.2301V111.319C73.2301 111.921 73.4692 112.499 73.8949 112.924C74.3206 113.35 74.898 113.589 75.5 113.589"
          fill="currentColor"/>
    <path d="M82.3099 109.049H77.77V113.589H82.3099V109.049Z" fill="currentColor"/>
    <path d="M82.3098 109.049V113.589H84.5798C85.1818 113.589 85.7592 113.35 86.1849 112.924C86.6106 112.499 86.8497 111.921 86.8497 111.319C86.8497 110.717 86.6106 110.14 86.1849 109.714C85.7592 109.288 85.1818 109.049 84.5798 109.049"
          fill="currentColor"/>
    <path d="M95.9298 109.049H91.3899V113.589H95.9298V109.049Z" fill="currentColor"/>
    <path d="M100.469 109.049H95.9296V113.589H100.469V109.049Z" fill="currentColor"/>
    <path d="M105.009 109.049H100.469V113.589H105.009V109.049Z" fill="currentColor"/>
    <path d="M109.549 109.049H105.01V113.589H109.549V109.049Z" fill="currentColor"/>
    <path d="M114.089 109.049H109.549V113.589H114.089V109.049Z" fill="currentColor"/>
    <path d="M118.629 109.049H114.089V113.589H118.629V109.049Z" fill="currentColor"/>
    <path d="M123.169 109.049H118.629V113.589H123.169V109.049Z" fill="currentColor"/>
    <path d="M127.709 109.049H123.169V113.589H127.709V109.049Z" fill="currentColor"/>
    <path d="M132.249 109.049H127.709V113.589H132.249V109.049Z" fill="currentColor"/>
    <path d="M145.869 113.589V109.049H141.329V111.319C141.329 111.921 141.568 112.499 141.993 112.924C142.419 113.35 142.997 113.589 143.599 113.589"
          fill="currentColor"/>
    <path d="M145.869 109.049V113.589H148.138C148.741 113.589 149.318 113.35 149.744 112.924C150.169 112.499 150.408 111.921 150.408 111.319C150.408 110.717 150.169 110.14 149.744 109.714C149.318 109.288 148.741 109.049 148.138 109.049"
          fill="currentColor"/>
    <path d="M41.4508 113.589H36.9109V115.859C36.9109 116.461 37.1501 117.038 37.5758 117.464C38.0015 117.89 38.5788 118.129 39.1809 118.129C39.7829 118.129 40.3603 117.89 40.786 117.464C41.2117 117.038 41.4508 116.461 41.4508 115.859"
          fill="currentColor"/>
    <path d="M50.5306 118.129V113.59H45.9907V115.86C45.9907 116.462 46.2298 117.039 46.6555 117.465C47.0812 117.89 47.6586 118.129 48.2606 118.129"
          fill="currentColor"/>
    <path d="M55.0705 113.589H50.5306V118.129H52.8005C53.4026 118.129 53.9799 117.89 54.4056 117.464C54.8313 117.038 55.0705 116.461 55.0705 115.859"
          fill="currentColor"/>
    <path d="M64.1505 113.589H59.6106V115.859C59.6106 116.461 59.8498 117.038 60.2755 117.464C60.7012 117.89 61.2785 118.129 61.8806 118.129C62.4826 118.129 63.06 117.89 63.4857 117.464C63.9114 117.038 64.1505 116.461 64.1505 115.859"
          fill="currentColor"/>
    <path d="M68.6902 118.129H73.2301V115.86C73.2301 115.257 72.9909 114.68 72.5652 114.254C72.1395 113.829 71.5622 113.59 70.9601 113.59C70.3581 113.59 69.7807 113.829 69.355 114.254C68.9293 114.68 68.6902 115.257 68.6902 115.86"
          fill="currentColor"/>
    <path d="M82.3099 113.589H77.77V118.129H82.3099V113.589Z" fill="currentColor"/>
    <path d="M95.9298 113.589H91.3899V118.129H95.9298V113.589Z" fill="currentColor"/>
    <path d="M100.469 113.589H95.9295V118.129H98.1994C98.8014 118.129 99.3788 117.89 99.8045 117.464C100.23 117.038 100.469 116.461 100.469 115.859"
          fill="currentColor"/>
    <path d="M109.549 118.129V113.59H105.009V115.86C105.009 116.462 105.248 117.039 105.674 117.465C106.1 117.89 106.677 118.129 107.279 118.129"
          fill="currentColor"/>
    <path d="M114.089 113.589H109.549V118.129H114.089V113.589Z" fill="currentColor"/>
    <path d="M132.249 113.589H127.709V118.129H132.249V113.589Z" fill="currentColor"/>
    <path d="M139.059 118.129C140.312 118.129 141.329 117.113 141.329 115.859C141.329 114.605 140.312 113.589 139.059 113.589C137.805 113.589 136.789 114.605 136.789 115.859C136.789 117.113 137.805 118.129 139.059 118.129Z"
          fill="currentColor"/>
    <path d="M73.23 122.669V118.129H68.6901V120.399C68.6901 121.001 68.9293 121.578 69.355 122.004C69.7807 122.429 70.3581 122.669 70.9601 122.669"
          fill="currentColor"/>
    <path d="M77.7699 118.129H73.23V122.669H77.7699V118.129Z" fill="currentColor"/>
    <path d="M82.3099 118.129H77.77V122.669H82.3099V118.129Z" fill="currentColor"/>
    <path d="M82.3098 118.129V122.669H84.5798C85.1818 122.669 85.7592 122.43 86.1849 122.005C86.6106 121.579 86.8497 121.001 86.8497 120.399C86.8497 119.797 86.6106 119.22 86.1849 118.794C85.7592 118.369 85.1818 118.129 84.5798 118.129"
          fill="currentColor"/>
    <path d="M95.9298 118.129H91.3899V122.669H95.9298V118.129Z" fill="currentColor"/>
    <path d="M114.089 118.129H109.549V122.669H114.089V118.129Z" fill="currentColor"/>
    <path d="M120.899 122.669C122.153 122.669 123.169 121.653 123.169 120.399C123.169 119.146 122.153 118.129 120.899 118.129C119.645 118.129 118.629 119.146 118.629 120.399C118.629 121.653 119.645 122.669 120.899 122.669Z"
          fill="currentColor"/>
    <path d="M132.249 118.129H127.709V122.669H132.249V118.129Z" fill="currentColor"/>
    <path d="M132.249 118.129V122.669H134.519C135.121 122.669 135.698 122.43 136.124 122.005C136.55 121.579 136.789 121.001 136.789 120.399C136.789 119.797 136.55 119.22 136.124 118.794C135.698 118.369 135.121 118.129 134.519 118.129"
          fill="currentColor"/>
    <path d="M141.329 122.669H145.869V120.399C145.869 119.797 145.63 119.219 145.204 118.794C144.778 118.368 144.201 118.129 143.599 118.129C142.997 118.129 142.419 118.368 141.994 118.794C141.568 119.219 141.329 119.797 141.329 120.399"
          fill="currentColor"/>
    <path d="M43.7208 127.209C44.9744 127.209 45.9907 126.192 45.9907 124.939C45.9907 123.685 44.9744 122.669 43.7208 122.669C42.4671 122.669 41.4508 123.685 41.4508 124.939C41.4508 126.192 42.4671 127.209 43.7208 127.209Z"
          fill="currentColor"/>
    <path d="M52.8005 127.209C54.0542 127.209 55.0705 126.192 55.0705 124.939C55.0705 123.685 54.0542 122.669 52.8005 122.669C51.5469 122.669 50.5306 123.685 50.5306 124.939C50.5306 126.192 51.5469 127.209 52.8005 127.209Z"
          fill="currentColor"/>
    <path d="M59.6101 127.209H64.15V122.669H61.8801C61.278 122.669 60.7007 122.908 60.275 123.334C59.8493 123.76 59.6101 124.337 59.6101 124.939"
          fill="currentColor"/>
    <path d="M64.1505 122.669V127.209H66.4205C67.0225 127.209 67.5999 126.969 68.0256 126.544C68.4513 126.118 68.6904 125.541 68.6904 124.939C68.6904 124.337 68.4513 123.759 68.0256 123.333C67.5999 122.908 67.0225 122.669 66.4205 122.669"
          fill="currentColor"/>
    <path d="M82.3098 122.669H77.7699V124.939C77.7699 125.541 78.0091 126.118 78.4348 126.544C78.8605 126.969 79.4378 127.209 80.0399 127.209C80.6419 127.209 81.2193 126.969 81.645 126.544C82.0707 126.118 82.3098 125.541 82.3098 124.939"
          fill="currentColor"/>
    <path d="M95.9296 122.669H91.3897V124.939C91.3897 125.541 91.6288 126.118 92.0545 126.544C92.4802 126.969 93.0576 127.209 93.6596 127.209C94.2616 127.209 94.839 126.969 95.2647 126.544C95.6904 126.118 95.9296 125.541 95.9296 124.939"
          fill="currentColor"/>
    <path d="M100.469 127.209H105.009V124.939C105.009 124.337 104.77 123.76 104.344 123.334C103.919 122.908 103.341 122.669 102.739 122.669C102.137 122.669 101.56 122.908 101.134 123.334C100.709 123.76 100.469 124.337 100.469 124.939"
          fill="currentColor"/>
    <path d="M114.089 122.669H109.549V127.209H114.089V122.669Z" fill="currentColor"/>
    <path d="M132.249 122.669H127.709V127.209H132.249V122.669Z" fill="currentColor"/>
    <path d="M145.869 127.209V122.669H141.329V124.939C141.329 125.541 141.568 126.118 141.993 126.544C142.419 126.97 142.997 127.209 143.599 127.209"
          fill="currentColor"/>
    <path d="M145.869 122.669V127.209H148.138C148.741 127.209 149.318 126.969 149.744 126.544C150.169 126.118 150.408 125.541 150.408 124.939C150.408 124.337 150.169 123.759 149.744 123.333C149.318 122.908 148.741 122.669 148.138 122.669"
          fill="currentColor"/>
    <path d="M39.1807 131.749C40.4343 131.749 41.4506 130.733 41.4506 129.479C41.4506 128.225 40.4343 127.209 39.1807 127.209C37.927 127.209 36.9107 128.225 36.9107 129.479C36.9107 130.733 37.927 131.749 39.1807 131.749Z"
          fill="currentColor"/>
    <path d="M45.9905 131.749H50.5304V129.479C50.5304 128.877 50.2912 128.3 49.8655 127.874C49.4398 127.448 48.8625 127.209 48.2604 127.209C47.6584 127.209 47.081 127.448 46.6553 127.874C46.2296 128.3 45.9905 128.877 45.9905 129.479"
          fill="currentColor"/>
    <path d="M64.15 127.209H59.6101V131.749H64.15V127.209Z" fill="currentColor"/>
    <path d="M105.01 127.209H100.47V129.479C100.47 130.081 100.709 130.658 101.134 131.084C101.56 131.51 102.138 131.749 102.74 131.749C103.342 131.749 103.919 131.51 104.345 131.084C104.77 130.658 105.01 130.081 105.01 129.479"
          fill="currentColor"/>
    <path d="M114.089 127.209H109.549V131.749H114.089V127.209Z" fill="currentColor"/>
    <path d="M118.629 127.209H114.089V131.749H118.629V127.209Z" fill="currentColor"/>
    <path d="M123.169 127.209H118.629V131.749H123.169V127.209Z" fill="currentColor"/>
    <path d="M127.709 127.209H123.169V131.749H127.709V127.209Z" fill="currentColor"/>
    <path d="M132.249 127.209H127.709V131.749H132.249V127.209Z" fill="currentColor"/>
    <path d="M132.249 127.209V131.749H134.519C135.121 131.749 135.698 131.51 136.124 131.084C136.55 130.658 136.789 130.081 136.789 129.479C136.789 128.877 136.55 128.3 136.124 127.874C135.698 127.448 135.121 127.209 134.519 127.209"
          fill="currentColor"/>
    <path d="M45.9905 136.289V131.749H43.7205C43.1185 131.749 42.5411 131.988 42.1154 132.413C41.6897 132.839 41.4506 133.417 41.4506 134.019C41.4506 134.621 41.6897 135.198 42.1154 135.624C42.5411 136.049 43.1185 136.289 43.7205 136.289"
          fill="currentColor"/>
    <path d="M50.5304 131.749H45.9905V136.289H50.5304V131.749Z" fill="currentColor"/>
    <path d="M50.5306 131.749V136.289H55.0705V134.019C55.0705 133.417 54.8313 132.839 54.4056 132.414C53.9799 131.988 53.4026 131.749 52.8005 131.749"
          fill="currentColor"/>
    <path d="M64.15 131.749H59.6101V136.289H64.15V131.749Z" fill="currentColor"/>
    <path d="M68.6904 131.749H64.1505V136.289H68.6904V131.749Z" fill="currentColor"/>
    <path d="M73.2301 131.749H68.6902V136.289H73.2301V131.749Z" fill="currentColor"/>
    <path d="M77.7699 131.749H73.23V136.289H77.7699V131.749Z" fill="currentColor"/>
    <path d="M82.3099 131.749H77.77V136.289H82.3099V131.749Z" fill="currentColor"/>
    <path d="M86.8497 131.749H82.3098V136.289H86.8497V131.749Z" fill="currentColor"/>
    <path d="M91.3894 131.749H86.8495V136.289H91.3894V131.749Z" fill="currentColor"/>
    <path d="M95.9298 131.749H91.3899V136.289H95.9298V131.749Z" fill="currentColor"/>
    <path d="M95.9296 131.749V136.289H98.1995C98.8015 136.289 99.3789 136.05 99.8046 135.624C100.23 135.198 100.469 134.621 100.469 134.019C100.469 133.417 100.23 132.839 99.8046 132.414C99.3789 131.988 98.8015 131.749 98.1995 131.749"
          fill="currentColor"/>
    <path d="M105.01 136.289H109.549V131.749H107.279C106.677 131.749 106.1 131.988 105.674 132.413C105.249 132.839 105.01 133.417 105.01 134.019"
          fill="currentColor"/>
    <path d="M114.089 131.749H109.549V136.289H114.089V131.749Z" fill="currentColor"/>
    <path d="M123.169 131.749H118.629V136.289H123.169V131.749Z" fill="currentColor"/>
    <path d="M127.709 131.749H123.169V136.289H127.709V131.749Z" fill="currentColor"/>
    <path d="M132.249 131.749H127.709V136.289H132.249V131.749Z" fill="currentColor"/>
    <path d="M141.329 136.289V131.749H139.059C138.457 131.749 137.88 131.988 137.454 132.413C137.028 132.839 136.789 133.417 136.789 134.019C136.789 134.621 137.028 135.198 137.454 135.624C137.88 136.049 138.457 136.289 139.059 136.289"
          fill="currentColor"/>
    <path d="M141.329 131.749V136.289H143.599C144.201 136.289 144.778 136.05 145.204 135.624C145.63 135.198 145.869 134.621 145.869 134.019C145.869 133.417 145.63 132.839 145.204 132.414C144.778 131.988 144.201 131.749 143.599 131.749"
          fill="currentColor"/>
    <path d="M55.0705 136.289H50.5306V140.828H55.0705V136.289Z" fill="currentColor"/>
    <path d="M59.6104 136.289H55.0705V140.828H59.6104V136.289Z" fill="currentColor"/>
    <path d="M64.1505 136.289H59.6106V140.828H61.8806C62.4826 140.828 63.06 140.589 63.4857 140.164C63.9114 139.738 64.1505 139.161 64.1505 138.558"
          fill="currentColor"/>
    <path d="M73.2301 136.289H68.6902V140.828H73.2301V136.289Z" fill="currentColor"/>
    <path d="M82.3099 136.289H77.77V140.828H82.3099V136.289Z" fill="currentColor"/>
    <path d="M95.9296 136.289H91.3897V138.558C91.3897 139.161 91.6288 139.738 92.0545 140.164C92.4802 140.589 93.0576 140.828 93.6596 140.828C94.2616 140.828 94.839 140.589 95.2647 140.164C95.6904 139.738 95.9296 139.161 95.9296 138.558"
          fill="currentColor"/>
    <path d="M109.549 136.289H105.01V140.828H109.549V136.289Z" fill="currentColor"/>
    <path d="M114.089 136.289H109.549V140.828H111.819C112.421 140.828 112.999 140.589 113.424 140.164C113.85 139.738 114.089 139.161 114.089 138.558"
          fill="currentColor"/>
    <path d="M123.169 140.829V136.289H118.629V138.559C118.629 139.161 118.868 139.738 119.294 140.164C119.719 140.59 120.297 140.829 120.899 140.829"
          fill="currentColor"/>
    <path d="M127.709 136.289H123.169V140.828H127.709V136.289Z" fill="currentColor"/>
    <path d="M132.249 136.289H127.709V140.828H129.979C130.581 140.828 131.158 140.589 131.584 140.164C132.01 139.738 132.249 139.161 132.249 138.558"
          fill="currentColor"/>
    <path d="M41.4508 145.369V140.829H39.1809C38.5788 140.829 38.0015 141.068 37.5758 141.494C37.1501 141.919 36.9109 142.497 36.9109 143.099C36.9109 143.701 37.1501 144.278 37.5758 144.704C38.0015 145.129 38.5788 145.369 39.1809 145.369"
          fill="currentColor"/>
    <path d="M41.4508 140.829V145.369H45.9907V143.099C45.9907 142.497 45.7516 141.919 45.3259 141.494C44.9002 141.068 44.3228 140.829 43.7208 140.829"
          fill="currentColor"/>
    <path d="M55.0705 140.829H50.5306V145.369H55.0705V140.829Z" fill="currentColor"/>
    <path d="M68.6902 145.369V140.829H66.4202C65.8182 140.829 65.2408 141.068 64.8151 141.494C64.3894 141.919 64.1503 142.497 64.1503 143.099C64.1503 143.701 64.3894 144.278 64.8151 144.704C65.2408 145.129 65.8182 145.369 66.4202 145.369"
          fill="currentColor"/>
    <path d="M73.2301 140.829H68.6902V145.369H73.2301V140.829Z" fill="currentColor"/>
    <path d="M77.7699 140.829H73.23V145.369H77.7699V140.829Z" fill="currentColor"/>
    <path d="M82.3099 140.829H77.77V145.369H82.3099V140.829Z" fill="currentColor"/>
    <path d="M82.3098 140.829V145.369H86.8497V143.099C86.8497 142.497 86.6106 141.919 86.1849 141.494C85.7592 141.068 85.1818 140.829 84.5798 140.829"
          fill="currentColor"/>
    <path d="M95.9296 145.369H100.469V143.099C100.469 142.497 100.23 141.919 99.8046 141.494C99.3789 141.068 98.8015 140.829 98.1995 140.829C97.5975 140.829 97.0201 141.068 96.5944 141.494C96.1687 141.919 95.9296 142.497 95.9296 143.099"
          fill="currentColor"/>
    <path d="M109.549 140.829H105.009V143.099C105.009 143.701 105.248 144.278 105.674 144.704C106.1 145.13 106.677 145.369 107.279 145.369C107.881 145.369 108.459 145.13 108.884 144.704C109.31 144.278 109.549 143.701 109.549 143.099"
          fill="currentColor"/>
    <path d="M45.9905 145.369H41.4506V147.639C41.4506 148.241 41.6897 148.818 42.1154 149.244C42.5411 149.669 43.1185 149.908 43.7205 149.908C44.3226 149.908 44.8999 149.669 45.3256 149.244C45.7513 148.818 45.9905 148.241 45.9905 147.639"
          fill="currentColor"/>
    <path d="M55.0705 149.908V145.369H50.5306V147.638C50.5306 148.241 50.7697 148.818 51.1954 149.244C51.6211 149.669 52.1985 149.908 52.8005 149.908"
          fill="currentColor"/>
    <path d="M55.0705 145.369V149.908H57.3404C57.9425 149.908 58.5199 149.669 58.9455 149.244C59.3712 148.818 59.6104 148.241 59.6104 147.639C59.6104 147.036 59.3712 146.459 58.9455 146.033C58.5199 145.608 57.9425 145.369 57.3404 145.369"
          fill="currentColor"/>
    <path d="M73.23 149.908V145.369H68.6901V147.638C68.6901 148.241 68.9293 148.818 69.355 149.244C69.7807 149.669 70.3581 149.908 70.9601 149.908"
          fill="currentColor"/>
    <path d="M77.77 145.369H73.2301V149.908H75.5C76.102 149.908 76.6794 149.669 77.1051 149.244C77.5308 148.818 77.77 148.241 77.77 147.639"
          fill="currentColor"/>
    <path d="M86.8495 149.908V145.369H82.3096V147.638C82.3096 148.241 82.5487 148.818 82.9744 149.244C83.4001 149.669 83.9775 149.908 84.5795 149.908"
          fill="currentColor"/>
    <path d="M91.3894 145.369H86.8495V149.908H91.3894V145.369Z" fill="currentColor"/>
    <path d="M95.9298 145.369H91.3899V149.908H95.9298V145.369Z" fill="currentColor"/>
    <path d="M100.469 145.369H95.9296V149.908H100.469V145.369Z" fill="currentColor"/>
    <path d="M100.469 145.369V149.908H102.739C103.341 149.908 103.919 149.669 104.344 149.244C104.77 148.818 105.009 148.241 105.009 147.639C105.009 147.036 104.77 146.459 104.344 146.033C103.919 145.608 103.341 145.369 102.739 145.369"
          fill="currentColor"/>
    <path d="M111.819 149.908C113.073 149.908 114.089 148.892 114.089 147.639C114.089 146.385 113.073 145.369 111.819 145.369C110.565 145.369 109.549 146.385 109.549 147.639C109.549 148.892 110.565 149.908 111.819 149.908Z"
          fill="currentColor"/>
    <path d="M148.138 149.908C149.392 149.908 150.408 148.892 150.408 147.639C150.408 146.385 149.392 145.369 148.138 145.369C146.885 145.369 145.869 146.385 145.869 147.639C145.869 148.892 146.885 149.908 148.138 149.908Z"
          fill="currentColor"/>
    <g clip-path="url(#clip0_461_2166)">
        <path fill-rule="evenodd" clip-rule="evenodd"
              d="M75.5679 55.0736C64.5271 55.0736 55.5742 64.0218 55.5742 75.061C55.5742 83.892 61.303 91.3838 69.2471 94.027C70.2463 94.2121 70.6132 93.5931 70.6132 93.0655C70.6132 92.5892 70.5946 91.0144 70.586 89.3443C65.0237 90.5534 63.85 86.986 63.85 86.986C62.9405 84.6761 61.6301 84.0615 61.6301 84.0615C59.8161 82.8209 61.7668 82.8464 61.7668 82.8464C63.7742 82.9874 64.8317 84.9065 64.8317 84.9065C66.615 87.9618 69.509 87.0784 70.6499 86.568C70.8294 85.2765 71.3472 84.3944 71.9193 83.8953C67.4784 83.3902 62.8098 81.6761 62.8098 74.0175C62.8098 71.8353 63.5908 70.0523 64.8701 68.6525C64.6625 68.1491 63.9782 66.1162 65.0638 63.3628C65.0638 63.3628 66.7428 62.8259 70.5632 65.4119C72.158 64.969 73.8684 64.7469 75.5676 64.739C77.2667 64.7469 78.9784 64.9687 80.5763 65.4119C84.3924 62.8259 86.069 63.3628 86.069 63.3628C87.1573 66.1159 86.4729 68.1488 86.2654 68.6525C87.5473 70.0523 88.3231 71.8353 88.3231 74.0175C88.3231 81.6943 83.6458 83.3846 79.1936 83.8794C79.9108 84.4997 80.5498 85.716 80.5498 87.5808C80.5498 90.2551 80.5269 92.4075 80.5269 93.0659C80.5269 93.5977 80.8868 94.221 81.9 94.0247C89.8398 91.3788 95.5616 83.8894 95.5616 75.0614C95.5613 64.0218 86.6097 55.0736 75.5679 55.0736Z"
              fill="currentColor"/>
        <path d="M63.1468 83.7709C63.1028 83.8705 62.9465 83.9003 62.8041 83.8318C62.6588 83.7666 62.5777 83.6312 62.6247 83.5316C62.6677 83.4293 62.8243 83.4008 62.969 83.4693C63.114 83.5345 63.1968 83.6712 63.1468 83.7709ZM63.9567 84.6741C63.8613 84.7625 63.6746 84.7214 63.5484 84.5818C63.4173 84.4424 63.3931 84.2561 63.4898 84.1664C63.5882 84.078 63.7689 84.1194 63.8997 84.2587C64.0308 84.3997 64.0563 84.5844 63.9567 84.6741ZM64.745 85.8249C64.6225 85.9103 64.4218 85.8306 64.298 85.6525C64.1755 85.4748 64.1755 85.2613 64.301 85.1762C64.4248 85.0908 64.6225 85.1679 64.748 85.344C64.8701 85.5247 64.8701 85.7382 64.745 85.8249ZM65.825 86.9374C65.7154 87.0582 65.482 87.0258 65.3111 86.8609C65.1363 86.7001 65.0877 86.471 65.1972 86.3502C65.3085 86.2294 65.5432 86.2632 65.7151 86.4267C65.8889 86.5875 65.9415 86.8176 65.825 86.9374ZM67.3149 87.5831C67.2665 87.7397 67.0417 87.8108 66.8153 87.744C66.5888 87.6755 66.4411 87.4921 66.4868 87.3342C66.5338 87.1764 66.7596 87.1025 66.9878 87.1737C67.2136 87.2419 67.3619 87.4236 67.3149 87.5831ZM68.9511 87.7026C68.9568 87.8674 68.7644 88.0041 68.527 88.0071C68.288 88.0127 68.0943 87.879 68.0919 87.7168C68.0919 87.5504 68.2797 87.4153 68.5187 87.411C68.7561 87.4067 68.9511 87.5391 68.9511 87.7026ZM70.4738 87.4438C70.5023 87.6043 70.3371 87.7695 70.101 87.8135C69.8689 87.8562 69.654 87.7566 69.6246 87.5974C69.5958 87.4325 69.7639 87.2674 69.9957 87.2247C70.2318 87.1836 70.4437 87.2803 70.4738 87.4438Z"
              fill="currentColor"/>
    </g>
    <defs>
        <clipPath id="clip0_461_2166">
            <rect width="39.9872" height="38.9875" fill="white" transform="translate(55.5742 55.0736)"/>
        </clipPath>
    </defs>
</svg>
