<svg width="149" height="150" viewBox="0 0 149 150" fill="none" xmlns="http://www.w3.org/2000/svg">
    <path d="M9.03027 130.311V137.083C9.03027 138.954 10.5464 140.47 12.4166 140.47H19.1894C21.0596 140.47 22.5757 138.954 22.5757 137.083V130.311C22.5757 128.44 21.0596 126.924 19.1894 126.924H12.4166C10.5464 126.924 9.03027 128.44 9.03027 130.311Z"
          fill="currentColor"/>
    <path d="M0 141.598C0 146.866 2.63384 149.5 7.90151 149.5H23.7045C28.9722 149.5 31.6061 146.866 31.6061 141.598V125.795C31.6061 120.528 28.9722 117.894 23.7045 117.894H7.90151C2.63384 117.894 0 120.528 0 125.795L0 141.598ZM8.46591 144.985C5.83207 144.985 4.51515 143.668 4.51515 141.034L4.51515 126.36C4.51515 123.726 5.83207 122.409 8.46591 122.409H23.1402C25.774 122.409 27.0909 123.726 27.0909 126.36V141.034C27.0909 143.668 25.774 144.985 23.1402 144.985H8.46591Z"
          fill="currentColor"/>
    <path d="M139.97 19.6894V12.9167C139.97 11.0464 138.454 9.5303 136.583 9.5303H129.811C127.94 9.5303 126.424 11.0464 126.424 12.9167V19.6894C126.424 21.5596 127.94 23.0758 129.811 23.0758H136.583C138.454 23.0758 139.97 21.5596 139.97 19.6894Z"
          fill="currentColor"/>
    <path d="M149 8.40151C149 3.13384 146.366 0.5 141.098 0.5L125.295 0.5C120.028 0.5 117.394 3.13384 117.394 8.40151V24.2045C117.394 29.4722 120.028 32.1061 125.295 32.1061H141.098C146.366 32.1061 149 29.4722 149 24.2045V8.40151ZM140.534 5.01515C143.168 5.01515 144.485 6.33207 144.485 8.96591V23.6402C144.485 26.274 143.168 27.5909 140.534 27.5909H125.86C123.226 27.5909 121.909 26.274 121.909 23.6402V8.96591C121.909 6.33207 123.226 5.01515 125.86 5.01515L140.534 5.01515Z"
          fill="currentColor"/>
    <path d="M19.1894 9.5303H12.4166C10.5464 9.5303 9.03027 11.0464 9.03027 12.9167V19.6894C9.03027 21.5596 10.5464 23.0758 12.4166 23.0758H19.1894C21.0596 23.0758 22.5757 21.5596 22.5757 19.6894V12.9167C22.5757 11.0464 21.0596 9.5303 19.1894 9.5303Z"
          fill="currentColor"/>
    <path d="M7.90151 0.5C2.63384 0.5 0 3.13384 0 8.40151V24.2045C0 29.4722 2.63384 32.1061 7.90151 32.1061H23.7045C28.9722 32.1061 31.6061 29.4722 31.6061 24.2045V8.40151C31.6061 3.13384 28.9722 0.5 23.7045 0.5H7.90151ZM4.51515 8.96591C4.51515 6.33207 5.83207 5.01515 8.46591 5.01515H23.1402C25.774 5.01515 27.0909 6.33207 27.0909 8.96591V23.6402C27.0909 26.274 25.774 27.5909 23.1402 27.5909H8.46591C5.83207 27.5909 4.51515 26.274 4.51515 23.6402V8.96591Z"
          fill="currentColor"/>
    <path d="M42.8939 5.01515C44.1408 5.01515 45.1515 4.0044 45.1515 2.75758C45.1515 1.51075 44.1408 0.5 42.8939 0.5C41.6471 0.5 40.6364 1.51075 40.6364 2.75758C40.6364 4.0044 41.6471 5.01515 42.8939 5.01515Z"
          fill="currentColor"/>
    <path d="M58.697 5.01515V0.5H56.4394C55.8407 0.5 55.2665 0.737851 54.8431 1.16123C54.4197 1.58461 54.1819 2.15883 54.1819 2.75758C54.1819 3.35632 54.4197 3.93055 54.8431 4.35392C55.2665 4.7773 55.8407 5.01515 56.4394 5.01515"
          fill="currentColor"/>
    <path d="M63.2122 0.5H58.697V5.01515H63.2122V0.5Z" fill="currentColor"/>
    <path d="M67.7273 0.5H63.2122V5.01515H67.7273V0.5Z" fill="currentColor"/>
    <path d="M67.7273 0.5V5.01515H69.9849C70.5836 5.01515 71.1578 4.7773 71.5812 4.35392C72.0046 3.93055 72.2424 3.35632 72.2424 2.75758C72.2424 2.15883 72.0046 1.58461 71.5812 1.16123C71.1578 0.737851 70.5836 0.5 69.9849 0.5"
          fill="currentColor"/>
    <path d="M83.5303 5.01515C84.7771 5.01515 85.7879 4.0044 85.7879 2.75758C85.7879 1.51075 84.7771 0.5 83.5303 0.5C82.2835 0.5 81.2727 1.51075 81.2727 2.75758C81.2727 4.0044 82.2835 5.01515 83.5303 5.01515Z"
          fill="currentColor"/>
    <path d="M94.8182 5.01515H99.3334V0.5H97.0758C96.4771 0.5 95.9028 0.737849 95.4795 1.16123C95.0561 1.5846 94.8182 2.15883 94.8182 2.75758"
          fill="currentColor"/>
    <path d="M99.3334 0.5V5.01515H101.591C102.19 5.01515 102.764 4.7773 103.187 4.35392C103.611 3.93055 103.849 3.35632 103.849 2.75758C103.849 2.15883 103.611 1.58461 103.187 1.16123C102.764 0.737851 102.19 0.5 101.591 0.5"
          fill="currentColor"/>
    <path d="M38.3788 9.5303C39.6256 9.5303 40.6364 8.51955 40.6364 7.27273C40.6364 6.0259 39.6256 5.01515 38.3788 5.01515C37.132 5.01515 36.1212 6.0259 36.1212 7.27273C36.1212 8.51955 37.132 9.5303 38.3788 9.5303Z"
          fill="currentColor"/>
    <path d="M45.1515 9.5303H49.6666V5.01515H47.4091C46.8103 5.01515 46.2361 5.253 45.8127 5.67638C45.3893 6.09976 45.1515 6.67398 45.1515 7.27273"
          fill="currentColor"/>
    <path d="M49.6666 5.01515V9.5303H51.9242C52.5229 9.5303 53.0972 9.29245 53.5206 8.86908C53.9439 8.4457 54.1818 7.87147 54.1818 7.27273C54.1818 6.67398 53.9439 6.09976 53.5206 5.67638C53.0972 5.253 52.5229 5.01515 51.9242 5.01515"
          fill="currentColor"/>
    <path d="M74.5 9.5303C75.7468 9.5303 76.7576 8.51955 76.7576 7.27273C76.7576 6.0259 75.7468 5.01515 74.5 5.01515C73.2532 5.01515 72.2424 6.0259 72.2424 7.27273C72.2424 8.51955 73.2532 9.5303 74.5 9.5303Z"
          fill="currentColor"/>
    <path d="M85.7878 9.5303H90.303V5.01515H88.0454C87.4467 5.01515 86.8724 5.253 86.4491 5.67638C86.0257 6.09976 85.7878 6.67398 85.7878 7.27273"
          fill="currentColor"/>
    <path d="M94.8181 5.01515H90.303V9.5303H94.8181V5.01515Z" fill="currentColor"/>
    <path d="M99.3334 5.01515H94.8182V9.5303H99.3334V5.01515Z" fill="currentColor"/>
    <path d="M110.621 9.5303C111.868 9.5303 112.879 8.51955 112.879 7.27273C112.879 6.0259 111.868 5.01515 110.621 5.01515C109.374 5.01515 108.364 6.0259 108.364 7.27273C108.364 8.51955 109.374 9.5303 110.621 9.5303Z"
          fill="currentColor"/>
    <path d="M40.6364 14.0455H45.1515V9.5303H42.8939C42.2952 9.5303 41.721 9.76815 41.2976 10.1915C40.8742 10.6149 40.6364 11.1891 40.6364 11.7879"
          fill="currentColor"/>
    <path d="M49.6666 9.5303H45.1515V14.0455H49.6666V9.5303Z" fill="currentColor"/>
    <path d="M58.697 14.0455H63.2122V11.7879C63.2122 11.1891 62.9743 10.6149 62.5509 10.1915C62.1276 9.76815 61.5533 9.5303 60.9546 9.5303C60.3559 9.5303 59.7816 9.76815 59.3582 10.1915C58.9349 10.6149 58.697 11.1891 58.697 11.7879"
          fill="currentColor"/>
    <path d="M90.303 9.5303H85.7878V11.7879C85.7878 12.3866 86.0257 12.9609 86.4491 13.3842C86.8724 13.8076 87.4467 14.0455 88.0454 14.0455C88.6441 14.0455 89.2184 13.8076 89.6418 13.3842C90.0651 12.9609 90.303 12.3866 90.303 11.7879"
          fill="currentColor"/>
    <path d="M99.3334 9.5303H94.8182V14.0455H99.3334V9.5303Z" fill="currentColor"/>
    <path d="M103.849 14.0455H108.364V11.7879C108.364 11.1891 108.126 10.6149 107.702 10.1915C107.279 9.76815 106.705 9.5303 106.106 9.5303C105.507 9.5303 104.933 9.76815 104.51 10.1915C104.086 10.6149 103.849 11.1891 103.849 11.7879"
          fill="currentColor"/>
    <path d="M36.1212 18.5606H40.6364V14.0455H38.3788C37.78 14.0455 37.2058 14.2833 36.7824 14.7067C36.3591 15.1301 36.1212 15.7043 36.1212 16.303"
          fill="currentColor"/>
    <path d="M45.1515 14.0455H40.6364V18.5606H45.1515V14.0455Z" fill="currentColor"/>
    <path d="M49.6666 14.0455H45.1515V18.5606H49.6666V14.0455Z" fill="currentColor"/>
    <path d="M49.6666 14.0455V18.5606H51.9242C52.5229 18.5606 53.0972 18.3228 53.5206 17.8994C53.9439 17.476 54.1818 16.9018 54.1818 16.303C54.1818 15.7043 53.9439 15.1301 53.5206 14.7067C53.0972 14.2833 52.5229 14.0455 51.9242 14.0455"
          fill="currentColor"/>
    <path d="M63.2122 14.0455H58.697V18.5606H63.2122V14.0455Z" fill="currentColor"/>
    <path d="M67.7273 18.5606H72.2424V16.303C72.2424 15.7043 72.0046 15.1301 71.5812 14.7067C71.1578 14.2833 70.5836 14.0455 69.9849 14.0455C69.3861 14.0455 68.8119 14.2833 68.3885 14.7067C67.9651 15.1301 67.7273 15.7043 67.7273 16.303"
          fill="currentColor"/>
    <path d="M81.2727 18.5606H85.7879V16.303C85.7879 15.7043 85.55 15.1301 85.1266 14.7067C84.7032 14.2833 84.129 14.0455 83.5303 14.0455C82.9315 14.0455 82.3573 14.2833 81.9339 14.7067C81.5106 15.1301 81.2727 15.7043 81.2727 16.303"
          fill="currentColor"/>
    <path d="M99.3334 14.0455H94.8182V18.5606H99.3334V14.0455Z" fill="currentColor"/>
    <path d="M108.364 18.5606V14.0455H103.848V16.303C103.848 16.9018 104.086 17.476 104.51 17.8994C104.933 18.3228 105.507 18.5606 106.106 18.5606"
          fill="currentColor"/>
    <path d="M108.364 14.0455V18.5606H110.621C111.22 18.5606 111.794 18.3228 112.218 17.8994C112.641 17.476 112.879 16.9018 112.879 16.303C112.879 15.7043 112.641 15.1301 112.218 14.7067C111.794 14.2833 111.22 14.0455 110.621 14.0455"
          fill="currentColor"/>
    <path d="M40.6364 23.0758V18.5606H36.1212V20.8182C36.1212 21.4169 36.359 21.9912 36.7824 22.4145C37.2058 22.8379 37.78 23.0758 38.3788 23.0758"
          fill="currentColor"/>
    <path d="M45.1515 18.5606H40.6364V23.0758H45.1515V18.5606Z" fill="currentColor"/>
    <path d="M49.6666 18.5606H45.1515V23.0758H47.409C48.0078 23.0758 48.582 22.8379 49.0054 22.4145C49.4288 21.9912 49.6666 21.4169 49.6666 20.8182"
          fill="currentColor"/>
    <path d="M63.2122 18.5606H58.697V20.8182C58.697 21.4169 58.9349 21.9912 59.3582 22.4145C59.7816 22.8379 60.3558 23.0758 60.9546 23.0758C61.5533 23.0758 62.1276 22.8379 62.5509 22.4145C62.9743 21.9912 63.2122 21.4169 63.2122 20.8182"
          fill="currentColor"/>
    <path d="M72.2424 18.5606H67.7273V23.0758H72.2424V18.5606Z" fill="currentColor"/>
    <path d="M76.7576 18.5606H72.2424V23.0758H76.7576V18.5606Z" fill="currentColor"/>
    <path d="M81.2727 18.5606H76.7576V23.0758H81.2727V18.5606Z" fill="currentColor"/>
    <path d="M85.7879 18.5606H81.2727V23.0758H85.7879V18.5606Z" fill="currentColor"/>
    <path d="M90.303 18.5606H85.7878V23.0758H90.303V18.5606Z" fill="currentColor"/>
    <path d="M94.8181 18.5606H90.303V23.0758H94.8181V18.5606Z" fill="currentColor"/>
    <path d="M99.3334 18.5606H94.8182V23.0758H99.3334V18.5606Z" fill="currentColor"/>
    <path d="M99.3334 18.5606V23.0758H101.591C102.19 23.0758 102.764 22.8379 103.187 22.4145C103.611 21.9912 103.849 21.4169 103.849 20.8182C103.849 20.2194 103.611 19.6452 103.187 19.2218C102.764 18.7985 102.19 18.5606 101.591 18.5606"
          fill="currentColor"/>
    <path d="M54.1818 27.5909V23.0758H51.9242C51.3254 23.0758 50.7512 23.3136 50.3278 23.737C49.9045 24.1604 49.6666 24.7346 49.6666 25.3333C49.6666 25.9321 49.9045 26.5063 50.3278 26.9297C50.7512 27.3531 51.3254 27.5909 51.9242 27.5909"
          fill="currentColor"/>
    <path d="M54.1818 23.0758V27.5909H58.6969V25.3333C58.6969 24.7346 58.4591 24.1604 58.0357 23.737C57.6123 23.3136 57.0381 23.0758 56.4393 23.0758"
          fill="currentColor"/>
    <path d="M63.2122 27.5909H67.7273V23.0758H65.4697C64.871 23.0758 64.2968 23.3136 63.8734 23.737C63.45 24.1604 63.2122 24.7346 63.2122 25.3333"
          fill="currentColor"/>
    <path d="M72.2424 23.0758H67.7273V27.5909H72.2424V23.0758Z" fill="currentColor"/>
    <path d="M76.7576 23.0758H72.2424V27.5909H76.7576V23.0758Z" fill="currentColor"/>
    <path d="M94.8181 23.0758H90.303V27.5909H94.8181V23.0758Z" fill="currentColor"/>
    <path d="M106.106 27.5909C107.353 27.5909 108.364 26.5802 108.364 25.3333C108.364 24.0865 107.353 23.0758 106.106 23.0758C104.859 23.0758 103.849 24.0865 103.849 25.3333C103.849 26.5802 104.859 27.5909 106.106 27.5909Z"
          fill="currentColor"/>
    <path d="M36.1212 32.1061H40.6364V29.8485C40.6364 29.2497 40.3985 28.6755 39.9751 28.2521C39.5518 27.8288 38.9775 27.5909 38.3788 27.5909C37.78 27.5909 37.2058 27.8288 36.7824 28.2521C36.3591 28.6755 36.1212 29.2497 36.1212 29.8485"
          fill="currentColor"/>
    <path d="M45.1515 32.1061H49.6666V29.8485C49.6666 29.2497 49.4288 28.6755 49.0054 28.2521C48.582 27.8288 48.0078 27.5909 47.4091 27.5909C46.8103 27.5909 46.2361 27.8288 45.8127 28.2521C45.3893 28.6755 45.1515 29.2497 45.1515 29.8485"
          fill="currentColor"/>
    <path d="M58.6969 27.5909H54.1818V32.1061H58.6969V27.5909Z" fill="currentColor"/>
    <path d="M67.7273 27.5909H63.2122V32.1061H67.7273V27.5909Z" fill="currentColor"/>
    <path d="M76.7576 27.5909H72.2424V29.8485C72.2424 30.4472 72.4803 31.0215 72.9036 31.4448C73.327 31.8682 73.9012 32.1061 74.5 32.1061C75.0987 32.1061 75.673 31.8682 76.0963 31.4448C76.5197 31.0215 76.7576 30.4472 76.7576 29.8485"
          fill="currentColor"/>
    <path d="M83.5303 32.1061C84.7771 32.1061 85.7879 31.0953 85.7879 29.8485C85.7879 28.6017 84.7771 27.5909 83.5303 27.5909C82.2835 27.5909 81.2727 28.6017 81.2727 29.8485C81.2727 31.0953 82.2835 32.1061 83.5303 32.1061Z"
          fill="currentColor"/>
    <path d="M94.8181 27.5909H90.303V32.1061H94.8181V27.5909Z" fill="currentColor"/>
    <path d="M101.591 32.1061C102.838 32.1061 103.849 31.0953 103.849 29.8485C103.849 28.6017 102.838 27.5909 101.591 27.5909C100.344 27.5909 99.3334 28.6017 99.3334 29.8485C99.3334 31.0953 100.344 32.1061 101.591 32.1061Z"
          fill="currentColor"/>
    <path d="M110.621 32.1061C111.868 32.1061 112.879 31.0953 112.879 29.8485C112.879 28.6017 111.868 27.5909 110.621 27.5909C109.374 27.5909 108.364 28.6017 108.364 29.8485C108.364 31.0953 109.374 32.1061 110.621 32.1061Z"
          fill="currentColor"/>
    <path d="M40.6364 32.1061H36.1212V36.6212H40.6364V32.1061Z" fill="currentColor"/>
    <path d="M49.6666 36.6212V32.1061H45.1515V34.3636C45.1515 34.9624 45.3893 35.5366 45.8127 35.96C46.2361 36.3834 46.8103 36.6212 47.409 36.6212"
          fill="currentColor"/>
    <path d="M54.1818 32.1061H49.6666V36.6212H54.1818V32.1061Z" fill="currentColor"/>
    <path d="M58.6969 32.1061H54.1818V36.6212H58.6969V32.1061Z" fill="currentColor"/>
    <path d="M63.2122 32.1061H58.697V36.6212H63.2122V32.1061Z" fill="currentColor"/>
    <path d="M67.7273 32.1061H63.2122V36.6212H67.7273V32.1061Z" fill="currentColor"/>
    <path d="M67.7273 32.1061V36.6212H72.2424V34.3636C72.2424 33.7649 72.0046 33.1907 71.5812 32.7673C71.1578 32.3439 70.5836 32.1061 69.9849 32.1061"
          fill="currentColor"/>
    <path d="M90.303 36.6212V32.1061H88.0454C87.4467 32.1061 86.8724 32.3439 86.4491 32.7673C86.0257 33.1907 85.7878 33.7649 85.7878 34.3636C85.7878 34.9624 86.0257 35.5366 86.4491 35.96C86.8724 36.3834 87.4467 36.6212 88.0454 36.6212"
          fill="currentColor"/>
    <path d="M94.8182 32.1061H90.3031V36.6212H92.5607C93.1594 36.6212 93.7336 36.3834 94.157 35.96C94.5804 35.5366 94.8182 34.9624 94.8182 34.3636"
          fill="currentColor"/>
    <path d="M6.77271 41.1364C8.01954 41.1364 9.03029 40.1256 9.03029 38.8788C9.03029 37.632 8.01954 36.6212 6.77271 36.6212C5.52589 36.6212 4.51514 37.632 4.51514 38.8788C4.51514 40.1256 5.52589 41.1364 6.77271 41.1364Z"
          fill="currentColor"/>
    <path d="M18.0605 41.1364V36.6212H15.803C15.2042 36.6212 14.63 36.8591 14.2066 37.2824C13.7832 37.7058 13.5454 38.28 13.5454 38.8788C13.5454 39.4775 13.7832 40.0518 14.2066 40.4751C14.63 40.8985 15.2042 41.1364 15.803 41.1364"
          fill="currentColor"/>
    <path d="M22.5757 36.6212H18.0605V41.1364H22.5757V36.6212Z" fill="currentColor"/>
    <path d="M27.091 36.6212H22.5758V41.1364H27.091V36.6212Z" fill="currentColor"/>
    <path d="M27.0909 36.6212V41.1364H29.3485C29.9473 41.1364 30.5215 40.8985 30.9449 40.4751C31.3682 40.0518 31.6061 39.4775 31.6061 38.8788C31.6061 38.28 31.3682 37.7058 30.9449 37.2824C30.5215 36.8591 29.9473 36.6212 29.3485 36.6212"
          fill="currentColor"/>
    <path d="M40.6364 36.6212H36.1212V38.8788C36.1212 39.4775 36.359 40.0518 36.7824 40.4751C37.2058 40.8985 37.78 41.1364 38.3788 41.1364C38.9775 41.1364 39.5517 40.8985 39.9751 40.4751C40.3985 40.0518 40.6364 39.4775 40.6364 38.8788"
          fill="currentColor"/>
    <path d="M54.1818 36.6212H49.6666V41.1364H54.1818V36.6212Z" fill="currentColor"/>
    <path d="M67.7273 41.1364V36.6212H63.2121V38.8788C63.2121 39.4775 63.45 40.0518 63.8734 40.4751C64.2967 40.8985 64.871 41.1364 65.4697 41.1364"
          fill="currentColor"/>
    <path d="M72.2424 36.6212H67.7273V41.1364H69.9849C70.5836 41.1364 71.1578 40.8985 71.5812 40.4751C72.0046 40.0518 72.2424 39.4775 72.2424 38.8788"
          fill="currentColor"/>
    <path d="M76.7576 41.1364H81.2727V38.8788C81.2727 38.28 81.0349 37.7058 80.6115 37.2824C80.1881 36.8591 79.6139 36.6212 79.0151 36.6212C78.4164 36.6212 77.8422 36.8591 77.4188 37.2824C76.9954 37.7058 76.7576 38.28 76.7576 38.8788"
          fill="currentColor"/>
    <path d="M112.879 41.1364V36.6212H110.621C110.022 36.6212 109.448 36.8591 109.025 37.2824C108.601 37.7058 108.364 38.28 108.364 38.8788C108.364 39.4775 108.601 40.0518 109.025 40.4751C109.448 40.8985 110.022 41.1364 110.621 41.1364"
          fill="currentColor"/>
    <path d="M117.394 36.6212H112.879V41.1364H117.394V36.6212Z" fill="currentColor"/>
    <path d="M117.394 36.6212V41.1364H119.651C120.25 41.1364 120.824 40.8985 121.248 40.4751C121.671 40.0518 121.909 39.4775 121.909 38.8788C121.909 38.28 121.671 37.7058 121.248 37.2824C120.824 36.8591 120.25 36.6212 119.651 36.6212"
          fill="currentColor"/>
    <path d="M126.424 41.1364H130.939V36.6212H128.682C128.083 36.6212 127.509 36.8591 127.085 37.2824C126.662 37.7058 126.424 38.28 126.424 38.8788"
          fill="currentColor"/>
    <path d="M130.939 36.6212V41.1364H133.197C133.796 41.1364 134.37 40.8985 134.793 40.4751C135.217 40.0518 135.455 39.4775 135.455 38.8788C135.455 38.28 135.217 37.7058 134.793 37.2824C134.37 36.8591 133.796 36.6212 133.197 36.6212"
          fill="currentColor"/>
    <path d="M142.227 41.1364C143.474 41.1364 144.485 40.1256 144.485 38.8788C144.485 37.632 143.474 36.6212 142.227 36.6212C140.98 36.6212 139.97 37.632 139.97 38.8788C139.97 40.1256 140.98 41.1364 142.227 41.1364Z"
          fill="currentColor"/>
    <path d="M33.8637 45.6515C35.1105 45.6515 36.1212 44.6408 36.1212 43.3939C36.1212 42.1471 35.1105 41.1364 33.8637 41.1364C32.6168 41.1364 31.6061 42.1471 31.6061 43.3939C31.6061 44.6408 32.6168 45.6515 33.8637 45.6515Z"
          fill="currentColor"/>
    <path d="M42.8939 45.6515C44.1408 45.6515 45.1515 44.6408 45.1515 43.3939C45.1515 42.1471 44.1408 41.1364 42.8939 41.1364C41.6471 41.1364 40.6364 42.1471 40.6364 43.3939C40.6364 44.6408 41.6471 45.6515 42.8939 45.6515Z"
          fill="currentColor"/>
    <path d="M54.1818 41.1364H49.6666V45.6515H54.1818V41.1364Z" fill="currentColor"/>
    <path d="M58.697 45.6515H63.2122V43.3939C63.2122 42.7952 62.9743 42.221 62.5509 41.7976C62.1276 41.3742 61.5533 41.1364 60.9546 41.1364C60.3559 41.1364 59.7816 41.3742 59.3582 41.7976C58.9349 42.221 58.697 42.7952 58.697 43.3939"
          fill="currentColor"/>
    <path d="M81.2727 45.6515V41.1364H76.7576V43.3939C76.7576 43.9927 76.9954 44.5669 77.4188 44.9903C77.8422 45.4137 78.4164 45.6515 79.0151 45.6515"
          fill="currentColor"/>
    <path d="M81.2727 41.1364V45.6515H83.5303C84.129 45.6515 84.7033 45.4137 85.1266 44.9903C85.55 44.5669 85.7879 43.9927 85.7879 43.3939C85.7879 42.7952 85.55 42.221 85.1266 41.7976C84.7033 41.3742 84.129 41.1364 83.5303 41.1364"
          fill="currentColor"/>
    <path d="M99.3334 45.6515H103.849V41.1364H101.591C100.992 41.1364 100.418 41.3742 99.9946 41.7976C99.5712 42.221 99.3334 42.7952 99.3334 43.3939"
          fill="currentColor"/>
    <path d="M103.849 41.1364V45.6515H108.364V43.3939C108.364 42.7952 108.126 42.221 107.702 41.7976C107.279 41.3742 106.705 41.1364 106.106 41.1364"
          fill="currentColor"/>
    <path d="M117.394 41.1364H112.879V45.6515H117.394V41.1364Z" fill="currentColor"/>
    <path d="M121.909 45.6515H126.424V41.1364H124.167C123.568 41.1364 122.994 41.3742 122.57 41.7976C122.147 42.221 121.909 42.7952 121.909 43.3939"
          fill="currentColor"/>
    <path d="M130.939 41.1364H126.424V45.6515H130.939V41.1364Z" fill="currentColor"/>
    <path d="M135.455 45.6515H139.97V43.3939C139.97 42.7952 139.732 42.221 139.309 41.7976C138.885 41.3742 138.311 41.1364 137.712 41.1364C137.113 41.1364 136.539 41.3742 136.116 41.7976C135.692 42.221 135.455 42.7952 135.455 43.3939"
          fill="currentColor"/>
    <path d="M4.51514 50.1667H9.03029V47.9091C9.03029 47.3103 8.79244 46.7361 8.36906 46.3127C7.94568 45.8894 7.37146 45.6515 6.77271 45.6515C6.17397 45.6515 5.59974 45.8894 5.17636 46.3127C4.75299 46.7361 4.51514 47.3103 4.51514 47.9091"
          fill="currentColor"/>
    <path d="M18.0605 50.1667V45.6515H15.803C15.2042 45.6515 14.63 45.8894 14.2066 46.3127C13.7832 46.7361 13.5454 47.3103 13.5454 47.9091C13.5454 48.5078 13.7832 49.0821 14.2066 49.5054C14.63 49.9288 15.2042 50.1667 15.803 50.1667"
          fill="currentColor"/>
    <path d="M22.5757 45.6515H18.0605V50.1667H22.5757V45.6515Z" fill="currentColor"/>
    <path d="M27.091 45.6515H22.5758V50.1667H27.091V45.6515Z" fill="currentColor"/>
    <path d="M27.0909 45.6515V50.1667H29.3485C29.9473 50.1667 30.5215 49.9288 30.9449 49.5054C31.3682 49.0821 31.6061 48.5078 31.6061 47.9091C31.6061 47.3103 31.3682 46.7361 30.9449 46.3127C30.5215 45.8894 29.9473 45.6515 29.3485 45.6515"
          fill="currentColor"/>
    <path d="M49.6666 50.1667V45.6515H47.409C46.8103 45.6515 46.2361 45.8894 45.8127 46.3127C45.3893 46.7361 45.1515 47.3103 45.1515 47.9091C45.1515 48.5078 45.3893 49.0821 45.8127 49.5054C46.2361 49.9288 46.8103 50.1667 47.409 50.1667"
          fill="currentColor"/>
    <path d="M54.1818 45.6515H49.6666V50.1667H54.1818V45.6515Z" fill="currentColor"/>
    <path d="M63.2122 45.6515H58.697V47.9091C58.697 48.5078 58.9349 49.0821 59.3582 49.5054C59.7816 49.9288 60.3558 50.1667 60.9546 50.1667C61.5533 50.1667 62.1276 49.9288 62.5509 49.5054C62.9743 49.0821 63.2122 48.5078 63.2122 47.9091"
          fill="currentColor"/>
    <path d="M99.3334 50.1667V45.6515H97.0758C96.4771 45.6515 95.9028 45.8894 95.4794 46.3127C95.0561 46.7361 94.8182 47.3103 94.8182 47.9091C94.8182 48.5078 95.0561 49.0821 95.4794 49.5054C95.9028 49.9288 96.4771 50.1667 97.0758 50.1667"
          fill="currentColor"/>
    <path d="M103.849 45.6515H99.3334V50.1667H103.849V45.6515Z" fill="currentColor"/>
    <path d="M108.364 45.6515H103.849V50.1667H108.364V45.6515Z" fill="currentColor"/>
    <path d="M117.394 45.6515H112.879V50.1667H117.394V45.6515Z" fill="currentColor"/>
    <path d="M126.424 50.1667V45.6515H121.909V47.9091C121.909 48.5078 122.147 49.0821 122.57 49.5054C122.994 49.9288 123.568 50.1667 124.167 50.1667"
          fill="currentColor"/>
    <path d="M130.939 45.6515H126.424V50.1667H128.682C129.281 50.1667 129.855 49.9288 130.278 49.5054C130.702 49.0821 130.939 48.5078 130.939 47.9091"
          fill="currentColor"/>
    <path d="M139.97 45.6515H135.455V50.1667H139.97V45.6515Z" fill="currentColor"/>
    <path d="M144.485 45.6515H139.97V50.1667H144.485V45.6515Z" fill="currentColor"/>
    <path d="M144.485 45.6515V50.1667H146.742C147.341 50.1667 147.915 49.9288 148.339 49.5054C148.762 49.0821 149 48.5078 149 47.9091C149 47.3103 148.762 46.7361 148.339 46.3127C147.915 45.8894 147.341 45.6515 146.742 45.6515"
          fill="currentColor"/>
    <path d="M9.03029 50.1667H4.51514V54.6818H9.03029V50.1667Z" fill="currentColor"/>
    <path d="M9.03027 50.1667V54.6818H11.2878C11.8866 54.6818 12.4608 54.444 12.8842 54.0206C13.3076 53.5972 13.5454 53.023 13.5454 52.4242C13.5454 51.8255 13.3076 51.2513 12.8842 50.8279C12.4608 50.4045 11.8866 50.1667 11.2878 50.1667"
          fill="currentColor"/>
    <path d="M33.8637 54.6818C35.1105 54.6818 36.1212 53.6711 36.1212 52.4242C36.1212 51.1774 35.1105 50.1667 33.8637 50.1667C32.6168 50.1667 31.6061 51.1774 31.6061 52.4242C31.6061 53.6711 32.6168 54.6818 33.8637 54.6818Z"
          fill="currentColor"/>
    <path d="M54.1818 54.6818V50.1667H49.6666V52.4242C49.6666 53.023 49.9045 53.5972 50.3278 54.0206C50.7512 54.444 51.3254 54.6818 51.9242 54.6818"
          fill="currentColor"/>
    <path d="M54.1818 50.1667V54.6818H56.4393C57.0381 54.6818 57.6123 54.444 58.0357 54.0206C58.4591 53.5972 58.6969 53.023 58.6969 52.4242C58.6969 51.8255 58.4591 51.2513 58.0357 50.8279C57.6123 50.4045 57.0381 50.1667 56.4393 50.1667"
          fill="currentColor"/>
    <path d="M67.7273 54.6818V50.1667H65.4697C64.871 50.1667 64.2967 50.4045 63.8734 50.8279C63.45 51.2513 63.2121 51.8255 63.2121 52.4242C63.2121 53.023 63.45 53.5972 63.8734 54.0206C64.2967 54.444 64.871 54.6818 65.4697 54.6818"
          fill="currentColor"/>
    <path d="M67.7273 50.1667V54.6818H69.9849C70.5836 54.6818 71.1578 54.444 71.5812 54.0206C72.0046 53.5972 72.2424 53.023 72.2424 52.4242C72.2424 51.8255 72.0046 51.2513 71.5812 50.8279C71.1578 50.4045 70.5836 50.1667 69.9849 50.1667"
          fill="currentColor"/>
    <path d="M83.5303 54.6818C84.7771 54.6818 85.7879 53.6711 85.7879 52.4242C85.7879 51.1774 84.7771 50.1667 83.5303 50.1667C82.2835 50.1667 81.2727 51.1774 81.2727 52.4242C81.2727 53.6711 82.2835 54.6818 83.5303 54.6818Z"
          fill="currentColor"/>
    <path d="M103.849 50.1667H99.3334V54.6818H103.849V50.1667Z" fill="currentColor"/>
    <path d="M108.364 50.1667H103.849V54.6818H108.364V50.1667Z" fill="currentColor"/>
    <path d="M112.879 50.1667H108.364V54.6818H112.879V50.1667Z" fill="currentColor"/>
    <path d="M117.394 50.1667H112.879V54.6818H117.394V50.1667Z" fill="currentColor"/>
    <path d="M117.394 50.1667V54.6818H121.909V52.4242C121.909 51.8255 121.671 51.2513 121.248 50.8279C120.824 50.4045 120.25 50.1667 119.651 50.1667"
          fill="currentColor"/>
    <path d="M139.97 54.6818V50.1667H135.455V52.4242C135.455 53.023 135.692 53.5972 136.116 54.0206C136.539 54.444 137.113 54.6818 137.712 54.6818"
          fill="currentColor"/>
    <path d="M144.485 50.1667H139.97V54.6818H144.485V50.1667Z" fill="currentColor"/>
    <path d="M0 59.197H4.51515V54.6818H2.25758C1.65883 54.6818 1.0846 54.9197 0.661227 55.3431C0.237849 55.7664 0 56.3407 0 56.9394"
          fill="currentColor"/>
    <path d="M9.03027 54.6818H4.51512V59.197H6.7727C7.37144 59.197 7.94567 58.9591 8.36905 58.5357C8.79242 58.1124 9.03027 57.5381 9.03027 56.9394"
          fill="currentColor"/>
    <path d="M29.3485 59.197C30.5953 59.197 31.6061 58.1862 31.6061 56.9394C31.6061 55.6926 30.5953 54.6818 29.3485 54.6818C28.1017 54.6818 27.0909 55.6926 27.0909 56.9394C27.0909 58.1862 28.1017 59.197 29.3485 59.197Z"
          fill="currentColor"/>
    <path d="M36.1212 59.197H40.6364V56.9394C40.6364 56.3407 40.3985 55.7664 39.9751 55.3431C39.5518 54.9197 38.9775 54.6818 38.3788 54.6818C37.78 54.6818 37.2058 54.9197 36.7824 55.3431C36.3591 55.7664 36.1212 56.3407 36.1212 56.9394"
          fill="currentColor"/>
    <path d="M45.1515 59.197H49.6666V56.9394C49.6666 56.3407 49.4288 55.7664 49.0054 55.3431C48.582 54.9197 48.0078 54.6818 47.4091 54.6818C46.8103 54.6818 46.2361 54.9197 45.8127 55.3431C45.3893 55.7664 45.1515 56.3407 45.1515 56.9394"
          fill="currentColor"/>
    <path d="M103.849 54.6818H99.3334V59.197H103.849V54.6818Z" fill="currentColor"/>
    <path d="M108.364 54.6818H103.849V59.197H108.364V54.6818Z" fill="currentColor"/>
    <path d="M112.879 54.6818H108.364V59.197H110.621C111.22 59.197 111.794 58.9591 112.218 58.5357C112.641 58.1124 112.879 57.5381 112.879 56.9394"
          fill="currentColor"/>
    <path d="M121.909 54.6818H117.394V56.9394C117.394 57.5381 117.632 58.1124 118.055 58.5357C118.479 58.9591 119.053 59.197 119.651 59.197C120.25 59.197 120.824 58.9591 121.248 58.5357C121.671 58.1124 121.909 57.5381 121.909 56.9394"
          fill="currentColor"/>
    <path d="M130.939 59.197H135.455V56.9394C135.455 56.3407 135.217 55.7664 134.793 55.3431C134.37 54.9197 133.796 54.6818 133.197 54.6818C132.598 54.6818 132.024 54.9197 131.601 55.3431C131.177 55.7664 130.939 56.3407 130.939 56.9394"
          fill="currentColor"/>
    <path d="M144.485 54.6818H139.97V59.197H144.485V54.6818Z" fill="currentColor"/>
    <path d="M4.51514 59.197H-1.52588e-05V61.4546C-1.52588e-05 62.0533 0.237834 62.6275 0.661212 63.0509C1.08459 63.4743 1.65881 63.7121 2.25756 63.7121C2.85631 63.7121 3.43053 63.4743 3.85391 63.0509C4.27729 62.6275 4.51514 62.0533 4.51514 61.4546"
          fill="currentColor"/>
    <path d="M15.803 63.7121C17.0498 63.7121 18.0606 62.7014 18.0606 61.4546C18.0606 60.2077 17.0498 59.197 15.803 59.197C14.5562 59.197 13.5454 60.2077 13.5454 61.4546C13.5454 62.7014 14.5562 63.7121 15.803 63.7121Z"
          fill="currentColor"/>
    <path d="M24.8334 63.7121C26.0802 63.7121 27.091 62.7014 27.091 61.4546C27.091 60.2077 26.0802 59.197 24.8334 59.197C23.5866 59.197 22.5758 60.2077 22.5758 61.4546C22.5758 62.7014 23.5866 63.7121 24.8334 63.7121Z"
          fill="currentColor"/>
    <path d="M36.1212 63.7121V59.197H33.8636C33.2649 59.197 32.6907 59.4348 32.2673 59.8582C31.8439 60.2816 31.6061 60.8558 31.6061 61.4545C31.6061 62.0533 31.8439 62.6275 32.2673 63.0509C32.6907 63.4743 33.2649 63.7121 33.8636 63.7121"
          fill="currentColor"/>
    <path d="M40.6364 59.197H36.1212V63.7121H40.6364V59.197Z" fill="currentColor"/>
    <path d="M49.6666 59.197H45.1515V63.7121H49.6666V59.197Z" fill="currentColor"/>
    <path d="M103.849 63.7121V59.197H99.3334V61.4545C99.3334 62.0533 99.5712 62.6275 99.9946 63.0509C100.418 63.4743 100.992 63.7121 101.591 63.7121"
          fill="currentColor"/>
    <path d="M108.364 59.197H103.848V63.7121H106.106C106.705 63.7121 107.279 63.4743 107.702 63.0509C108.126 62.6275 108.364 62.0533 108.364 61.4546"
          fill="currentColor"/>
    <path d="M135.455 59.197H130.939V61.4546C130.939 62.0533 131.177 62.6275 131.601 63.0509C132.024 63.4743 132.598 63.7121 133.197 63.7121C133.796 63.7121 134.37 63.4743 134.793 63.0509C135.217 62.6275 135.455 62.0533 135.455 61.4546"
          fill="currentColor"/>
    <path d="M144.485 59.197H139.97V61.4546C139.97 62.0533 140.208 62.6275 140.631 63.0509C141.054 63.4743 141.629 63.7121 142.227 63.7121C142.826 63.7121 143.4 63.4743 143.824 63.0509C144.247 62.6275 144.485 62.0533 144.485 61.4546"
          fill="currentColor"/>
    <path d="M11.2878 68.2273C12.5347 68.2273 13.5454 67.2165 13.5454 65.9697C13.5454 64.7229 12.5347 63.7121 11.2878 63.7121C10.041 63.7121 9.03027 64.7229 9.03027 65.9697C9.03027 67.2165 10.041 68.2273 11.2878 68.2273Z"
          fill="currentColor"/>
    <path d="M29.3485 68.2273C30.5953 68.2273 31.6061 67.2165 31.6061 65.9697C31.6061 64.7229 30.5953 63.7121 29.3485 63.7121C28.1017 63.7121 27.0909 64.7229 27.0909 65.9697C27.0909 67.2165 28.1017 68.2273 29.3485 68.2273Z"
          fill="currentColor"/>
    <path d="M40.6364 63.7121H36.1212V68.2273H40.6364V63.7121Z" fill="currentColor"/>
    <path d="M45.1515 63.7121H40.6364V68.2273H45.1515V63.7121Z" fill="currentColor"/>
    <path d="M49.6666 63.7121H45.1515V68.2273H49.6666V63.7121Z" fill="currentColor"/>
    <path d="M108.364 68.2273H112.879V65.9697C112.879 65.3709 112.641 64.7967 112.218 64.3733C111.794 63.95 111.22 63.7121 110.621 63.7121C110.022 63.7121 109.448 63.95 109.025 64.3733C108.601 64.7967 108.364 65.3709 108.364 65.9697"
          fill="currentColor"/>
    <path d="M128.682 68.2273C129.929 68.2273 130.939 67.2165 130.939 65.9697C130.939 64.7229 129.929 63.7121 128.682 63.7121C127.435 63.7121 126.424 64.7229 126.424 65.9697C126.424 67.2165 127.435 68.2273 128.682 68.2273Z"
          fill="currentColor"/>
    <path d="M135.455 68.2273H139.97V65.9697C139.97 65.3709 139.732 64.7967 139.309 64.3733C138.885 63.95 138.311 63.7121 137.712 63.7121C137.113 63.7121 136.539 63.95 136.116 64.3733C135.692 64.7967 135.455 65.3709 135.455 65.9697"
          fill="currentColor"/>
    <path d="M2.25758 72.7424C3.5044 72.7424 4.51515 71.7317 4.51515 70.4848C4.51515 69.238 3.5044 68.2273 2.25758 68.2273C1.01075 68.2273 0 69.238 0 70.4848C0 71.7317 1.01075 72.7424 2.25758 72.7424Z"
          fill="currentColor"/>
    <path d="M13.5454 72.7424H18.0606V68.2273H15.803C15.2042 68.2273 14.63 68.4651 14.2066 68.8885C13.7833 69.3119 13.5454 69.8861 13.5454 70.4849"
          fill="currentColor"/>
    <path d="M18.0605 68.2273V72.7424H20.3181C20.9169 72.7424 21.4911 72.5046 21.9145 72.0812C22.3378 71.6578 22.5757 71.0836 22.5757 70.4848C22.5757 69.8861 22.3378 69.3119 21.9145 68.8885C21.4911 68.4651 20.9169 68.2273 20.3181 68.2273"
          fill="currentColor"/>
    <path d="M40.6364 68.2273H36.1212V72.7424H40.6364V68.2273Z" fill="currentColor"/>
    <path d="M45.1515 68.2273H40.6364V72.7424H45.1515V68.2273Z" fill="currentColor"/>
    <path d="M49.6666 68.2273H45.1515V72.7424H49.6666V68.2273Z" fill="currentColor"/>
    <path d="M108.364 72.7424V68.2273H106.106C105.507 68.2273 104.933 68.4651 104.51 68.8885C104.086 69.3119 103.848 69.8861 103.848 70.4849C103.848 71.0836 104.086 71.6578 104.51 72.0812C104.933 72.5046 105.507 72.7424 106.106 72.7424"
          fill="currentColor"/>
    <path d="M112.879 68.2273H108.364V72.7424H112.879V68.2273Z" fill="currentColor"/>
    <path d="M124.167 72.7424C125.413 72.7424 126.424 71.7317 126.424 70.4848C126.424 69.238 125.413 68.2273 124.167 68.2273C122.92 68.2273 121.909 69.238 121.909 70.4848C121.909 71.7317 122.92 72.7424 124.167 72.7424Z"
          fill="currentColor"/>
    <path d="M139.97 72.7424V68.2273H135.455V70.4849C135.455 71.0836 135.692 71.6578 136.116 72.0812C136.539 72.5046 137.113 72.7424 137.712 72.7424"
          fill="currentColor"/>
    <path d="M144.485 68.2273H139.97V72.7424H144.485V68.2273Z" fill="currentColor"/>
    <path d="M144.485 68.2273V72.7424H146.742C147.341 72.7424 147.915 72.5046 148.339 72.0812C148.762 71.6578 149 71.0836 149 70.4848C149 69.8861 148.762 69.3119 148.339 68.8885C147.915 68.4651 147.341 68.2273 146.742 68.2273"
          fill="currentColor"/>
    <path d="M18.0606 72.7424H13.5454V77.2576H18.0606V72.7424Z" fill="currentColor"/>
    <path d="M27.0909 77.2576V72.7424H24.8334C24.2346 72.7424 23.6604 72.9803 23.237 73.4037C22.8136 73.827 22.5758 74.4013 22.5758 75C22.5758 75.5987 22.8136 76.173 23.237 76.5963C23.6604 77.0197 24.2346 77.2576 24.8334 77.2576"
          fill="currentColor"/>
    <path d="M31.6061 72.7424H27.0909V77.2576H31.6061V72.7424Z" fill="currentColor"/>
    <path d="M36.1212 72.7424H31.6061V77.2576H36.1212V72.7424Z" fill="currentColor"/>
    <path d="M40.6364 72.7424H36.1212V77.2576H40.6364V72.7424Z" fill="currentColor"/>
    <path d="M49.6666 72.7424H45.1515V77.2576H49.6666V72.7424Z" fill="currentColor"/>
    <path d="M99.3334 77.2576H103.849V75C103.849 74.4013 103.611 73.827 103.187 73.4037C102.764 72.9803 102.19 72.7424 101.591 72.7424C100.992 72.7424 100.418 72.9803 99.9946 73.4037C99.5712 73.827 99.3334 74.4013 99.3334 75"
          fill="currentColor"/>
    <path d="M112.879 77.2576V72.7424H108.364V75C108.364 75.5987 108.601 76.173 109.025 76.5963C109.448 77.0197 110.022 77.2576 110.621 77.2576"
          fill="currentColor"/>
    <path d="M117.394 72.7424H112.879V77.2576H117.394V72.7424Z" fill="currentColor"/>
    <path d="M117.394 72.7424V77.2576H121.909V75C121.909 74.4013 121.671 73.827 121.248 73.4037C120.824 72.9803 120.25 72.7424 119.651 72.7424"
          fill="currentColor"/>
    <path d="M126.424 77.2576H130.939V72.7424H128.682C128.083 72.7424 127.509 72.9803 127.085 73.4037C126.662 73.827 126.424 74.4013 126.424 75"
          fill="currentColor"/>
    <path d="M130.939 72.7424V77.2576H135.455V75C135.455 74.4013 135.217 73.827 134.793 73.4037C134.37 72.9803 133.796 72.7424 133.197 72.7424"
          fill="currentColor"/>
    <path d="M144.485 72.7424H139.97V75C139.97 75.5988 140.208 76.173 140.631 76.5964C141.054 77.0197 141.629 77.2576 142.227 77.2576C142.826 77.2576 143.4 77.0197 143.824 76.5964C144.247 76.173 144.485 75.5988 144.485 75"
          fill="currentColor"/>
    <path d="M0 81.7727H4.51515V77.2576H2.25758C1.65883 77.2576 1.0846 77.4954 0.661227 77.9188C0.237849 78.3422 0 78.9164 0 79.5152"
          fill="currentColor"/>
    <path d="M9.03029 77.2576H4.51514V81.7727H9.03029V77.2576Z" fill="currentColor"/>
    <path d="M13.5454 77.2576H9.03027V81.7727H13.5454V77.2576Z" fill="currentColor"/>
    <path d="M18.0606 77.2576H13.5454V81.7727H18.0606V77.2576Z" fill="currentColor"/>
    <path d="M18.0605 77.2576V81.7727H22.5757V79.5152C22.5757 78.9164 22.3378 78.3422 21.9145 77.9188C21.4911 77.4954 20.9169 77.2576 20.3181 77.2576"
          fill="currentColor"/>
    <path d="M40.6364 81.7727V77.2576H36.1212V79.5152C36.1212 80.1139 36.359 80.6881 36.7824 81.1115C37.2058 81.5349 37.78 81.7727 38.3788 81.7727"
          fill="currentColor"/>
    <path d="M45.1515 77.2576H40.6364V81.7727H45.1515V77.2576Z" fill="currentColor"/>
    <path d="M49.6666 77.2576H45.1515V81.7727H49.6666V77.2576Z" fill="currentColor"/>
    <path d="M103.849 77.2576H99.3334V79.5152C99.3334 80.1139 99.5712 80.6881 99.9946 81.1115C100.418 81.5349 100.992 81.7727 101.591 81.7727C102.19 81.7727 102.764 81.5349 103.187 81.1115C103.611 80.6881 103.849 80.1139 103.849 79.5152"
          fill="currentColor"/>
    <path d="M121.909 77.2576H117.394V81.7727H121.909V77.2576Z" fill="currentColor"/>
    <path d="M130.939 81.7727V77.2576H126.424V79.5152C126.424 80.1139 126.662 80.6881 127.086 81.1115C127.509 81.5349 128.083 81.7727 128.682 81.7727"
          fill="currentColor"/>
    <path d="M135.455 77.2576H130.939V81.7727H133.197C133.796 81.7727 134.37 81.5349 134.793 81.1115C135.217 80.6881 135.455 80.1139 135.455 79.5152"
          fill="currentColor"/>
    <path d="M144.485 81.7727H149V79.5152C149 78.9164 148.762 78.3422 148.339 77.9188C147.915 77.4954 147.341 77.2576 146.742 77.2576C146.144 77.2576 145.569 77.4954 145.146 77.9188C144.723 78.3422 144.485 78.9164 144.485 79.5152"
          fill="currentColor"/>
    <path d="M4.51514 81.7727H-1.52588e-05V84.0303C-1.52588e-05 84.6291 0.237834 85.2033 0.661212 85.6267C1.08459 86.05 1.65881 86.2879 2.25756 86.2879C2.85631 86.2879 3.43053 86.05 3.85391 85.6267C4.27729 85.2033 4.51514 84.6291 4.51514 84.0303"
          fill="currentColor"/>
    <path d="M18.0606 81.7727H13.5454V86.2879H18.0606V81.7727Z" fill="currentColor"/>
    <path d="M22.5758 81.7727H18.0607V86.2879H20.3182C20.917 86.2879 21.4912 86.05 21.9146 85.6267C22.338 85.2033 22.5758 84.6291 22.5758 84.0303"
          fill="currentColor"/>
    <path d="M29.3485 86.2879C30.5953 86.2879 31.6061 85.2771 31.6061 84.0303C31.6061 82.7835 30.5953 81.7727 29.3485 81.7727C28.1017 81.7727 27.0909 82.7835 27.0909 84.0303C27.0909 85.2771 28.1017 86.2879 29.3485 86.2879Z"
          fill="currentColor"/>
    <path d="M45.1515 86.2879V81.7727H40.6363V84.0303C40.6363 84.6291 40.8742 85.2033 41.2976 85.6267C41.7209 86.05 42.2952 86.2879 42.8939 86.2879"
          fill="currentColor"/>
    <path d="M49.6666 81.7727H45.1515V86.2879H49.6666V81.7727Z" fill="currentColor"/>
    <path d="M108.364 86.2879V81.7727H106.106C105.507 81.7727 104.933 82.0106 104.51 82.434C104.086 82.8573 103.848 83.4316 103.848 84.0303C103.848 84.6291 104.086 85.2033 104.51 85.6267C104.933 86.05 105.507 86.2879 106.106 86.2879"
          fill="currentColor"/>
    <path d="M112.879 81.7727H108.364V86.2879H112.879V81.7727Z" fill="currentColor"/>
    <path d="M117.394 81.7727H112.879V86.2879H117.394V81.7727Z" fill="currentColor"/>
    <path d="M121.909 81.7727H117.394V86.2879H119.651C120.25 86.2879 120.824 86.05 121.248 85.6267C121.671 85.2033 121.909 84.6291 121.909 84.0303"
          fill="currentColor"/>
    <path d="M135.455 86.2879H139.97V84.0303C139.97 83.4316 139.732 82.8573 139.309 82.434C138.885 82.0106 138.311 81.7727 137.712 81.7727C137.113 81.7727 136.539 82.0106 136.116 82.434C135.692 82.8573 135.455 83.4316 135.455 84.0303"
          fill="currentColor"/>
    <path d="M149 81.7727H144.485V86.2879H149V81.7727Z" fill="currentColor"/>
    <path d="M18.0605 86.2879H13.5454V88.5455C13.5454 89.1442 13.7832 89.7184 14.2066 90.1418C14.63 90.5652 15.2042 90.803 15.803 90.803C16.4017 90.803 16.9759 90.5652 17.3993 90.1418C17.8227 89.7184 18.0605 89.1442 18.0605 88.5455"
          fill="currentColor"/>
    <path d="M22.5758 90.803H27.091V88.5455C27.091 87.9467 26.8531 87.3725 26.4297 86.9491C26.0064 86.5257 25.4321 86.2879 24.8334 86.2879C24.2346 86.2879 23.6604 86.5257 23.237 86.9491C22.8137 87.3725 22.5758 87.9467 22.5758 88.5455"
          fill="currentColor"/>
    <path d="M33.8637 90.803C35.1105 90.803 36.1212 89.7923 36.1212 88.5455C36.1212 87.2986 35.1105 86.2879 33.8637 86.2879C32.6168 86.2879 31.6061 87.2986 31.6061 88.5455C31.6061 89.7923 32.6168 90.803 33.8637 90.803Z"
          fill="currentColor"/>
    <path d="M49.6666 86.2879H45.1515V90.803H49.6666V86.2879Z" fill="currentColor"/>
    <path d="M99.3334 90.803H103.849V88.5455C103.849 87.9467 103.611 87.3725 103.187 86.9491C102.764 86.5257 102.19 86.2879 101.591 86.2879C100.992 86.2879 100.418 86.5257 99.9946 86.9491C99.5712 87.3725 99.3334 87.9467 99.3334 88.5455"
          fill="currentColor"/>
    <path d="M121.909 90.803H126.424V86.2879H124.167C123.568 86.2879 122.994 86.5257 122.57 86.9491C122.147 87.3725 121.909 87.9467 121.909 88.5455"
          fill="currentColor"/>
    <path d="M130.939 86.2879H126.424V90.803H130.939V86.2879Z" fill="currentColor"/>
    <path d="M135.455 86.2879H130.939V90.803H135.455V86.2879Z" fill="currentColor"/>
    <path d="M139.97 86.2879H135.455V90.803H137.712C138.311 90.803 138.885 90.5652 139.308 90.1418C139.732 89.7184 139.97 89.1442 139.97 88.5455"
          fill="currentColor"/>
    <path d="M149 86.2879H144.485V88.5455C144.485 89.1442 144.723 89.7184 145.146 90.1418C145.569 90.5652 146.144 90.803 146.742 90.803C147.341 90.803 147.915 90.5652 148.339 90.1418C148.762 89.7184 149 89.1442 149 88.5455"
          fill="currentColor"/>
    <path d="M0 95.3182H4.51515V93.0606C4.51515 92.4619 4.2773 91.8876 3.85392 91.4643C3.43055 91.0409 2.85632 90.803 2.25758 90.803C1.65883 90.803 1.0846 91.0409 0.661227 91.4643C0.237849 91.8876 0 92.4619 0 93.0606"
          fill="currentColor"/>
    <path d="M11.2878 95.3182C12.5347 95.3182 13.5454 94.3074 13.5454 93.0606C13.5454 91.8138 12.5347 90.803 11.2878 90.803C10.041 90.803 9.03027 91.8138 9.03027 93.0606C9.03027 94.3074 10.041 95.3182 11.2878 95.3182Z"
          fill="currentColor"/>
    <path d="M27.091 90.803H22.5758V95.3182H27.091V90.803Z" fill="currentColor"/>
    <path d="M27.0909 90.803V95.3182H29.3485C29.9473 95.3182 30.5215 95.0803 30.9449 94.657C31.3682 94.2336 31.6061 93.6594 31.6061 93.0606C31.6061 92.4619 31.3682 91.8876 30.9449 91.4643C30.5215 91.0409 29.9473 90.803 29.3485 90.803"
          fill="currentColor"/>
    <path d="M45.1515 95.3182V90.803H42.8939C42.2952 90.803 41.7209 91.0409 41.2976 91.4643C40.8742 91.8876 40.6363 92.4619 40.6363 93.0606C40.6363 93.6594 40.8742 94.2336 41.2976 94.657C41.7209 95.0803 42.2952 95.3182 42.8939 95.3182"
          fill="currentColor"/>
    <path d="M49.6666 90.803H45.1515V95.3182H47.409C48.0078 95.3182 48.582 95.0803 49.0054 94.657C49.4288 94.2336 49.6666 93.6594 49.6666 93.0606"
          fill="currentColor"/>
    <path d="M103.849 90.803H99.3334V95.3182H103.849V90.803Z" fill="currentColor"/>
    <path d="M110.621 95.3182C111.868 95.3182 112.879 94.3074 112.879 93.0606C112.879 91.8138 111.868 90.803 110.621 90.803C109.374 90.803 108.364 91.8138 108.364 93.0606C108.364 94.3074 109.374 95.3182 110.621 95.3182Z"
          fill="currentColor"/>
    <path d="M126.424 90.803H121.909V95.3182H126.424V90.803Z" fill="currentColor"/>
    <path d="M142.227 95.3182C143.474 95.3182 144.485 94.3074 144.485 93.0606C144.485 91.8138 143.474 90.803 142.227 90.803C140.98 90.803 139.97 91.8138 139.97 93.0606C139.97 94.3074 140.98 95.3182 142.227 95.3182Z"
          fill="currentColor"/>
    <path d="M4.51515 95.3182H0V99.8333H4.51515V95.3182Z" fill="currentColor"/>
    <path d="M4.51514 95.3182V99.8333H6.77271C7.37146 99.8333 7.94568 99.5955 8.36906 99.1721C8.79244 98.7487 9.03029 98.1745 9.03029 97.5758C9.03029 96.977 8.79244 96.4028 8.36906 95.9794C7.94568 95.556 7.37146 95.3182 6.77271 95.3182"
          fill="currentColor"/>
    <path d="M27.091 95.3182H22.5758V99.8333H27.091V95.3182Z" fill="currentColor"/>
    <path d="M36.1212 99.8333H40.6364V97.5758C40.6364 96.977 40.3985 96.4028 39.9751 95.9794C39.5518 95.556 38.9775 95.3182 38.3788 95.3182C37.78 95.3182 37.2058 95.556 36.7824 95.9794C36.3591 96.4028 36.1212 96.977 36.1212 97.5758"
          fill="currentColor"/>
    <path d="M54.1818 99.8333H58.6969V97.5758C58.6969 96.977 58.4591 96.4028 58.0357 95.9794C57.6123 95.556 57.0381 95.3182 56.4393 95.3182C55.8406 95.3182 55.2664 95.556 54.843 95.9794C54.4196 96.4028 54.1818 96.977 54.1818 97.5758"
          fill="currentColor"/>
    <path d="M88.0454 99.8333C89.2922 99.8333 90.303 98.8226 90.303 97.5758C90.303 96.3289 89.2922 95.3182 88.0454 95.3182C86.7986 95.3182 85.7878 96.3289 85.7878 97.5758C85.7878 98.8226 86.7986 99.8333 88.0454 99.8333Z"
          fill="currentColor"/>
    <path d="M94.8182 99.8333H99.3334V95.3182H97.0758C96.4771 95.3182 95.9028 95.556 95.4795 95.9794C95.0561 96.4028 94.8182 96.977 94.8182 97.5758"
          fill="currentColor"/>
    <path d="M103.849 95.3182H99.3334V99.8333H103.849V95.3182Z" fill="currentColor"/>
    <path d="M103.849 95.3182V99.8333H108.364V97.5758C108.364 96.977 108.126 96.4028 107.702 95.9794C107.279 95.556 106.705 95.3182 106.106 95.3182"
          fill="currentColor"/>
    <path d="M112.879 99.8333H117.394V97.5758C117.394 96.977 117.156 96.4028 116.733 95.9794C116.309 95.556 115.735 95.3182 115.136 95.3182C114.538 95.3182 113.963 95.556 113.54 95.9794C113.117 96.4028 112.879 96.977 112.879 97.5758"
          fill="currentColor"/>
    <path d="M126.424 99.8333V95.3182H121.909V97.5758C121.909 98.1745 122.147 98.7487 122.57 99.1721C122.994 99.5955 123.568 99.8333 124.167 99.8333"
          fill="currentColor"/>
    <path d="M130.939 95.3182H126.424V99.8333H130.939V95.3182Z" fill="currentColor"/>
    <path d="M130.939 95.3182V99.8333H135.455V97.5758C135.455 96.977 135.217 96.4028 134.793 95.9794C134.37 95.556 133.796 95.3182 133.197 95.3182"
          fill="currentColor"/>
    <path d="M4.51515 99.8333H0V104.348H4.51515V99.8333Z" fill="currentColor"/>
    <path d="M11.2878 104.348C12.5347 104.348 13.5454 103.338 13.5454 102.091C13.5454 100.844 12.5347 99.8333 11.2878 99.8333C10.041 99.8333 9.03027 100.844 9.03027 102.091C9.03027 103.338 10.041 104.348 11.2878 104.348Z"
          fill="currentColor"/>
    <path d="M27.091 99.8333H22.5758V104.348H27.091V99.8333Z" fill="currentColor"/>
    <path d="M27.0909 99.8333V104.348H29.3485C29.9473 104.348 30.5215 104.111 30.9449 103.687C31.3682 103.264 31.6061 102.69 31.6061 102.091C31.6061 101.492 31.3682 100.918 30.9449 100.495C30.5215 100.071 29.9473 99.8333 29.3485 99.8333"
          fill="currentColor"/>
    <path d="M40.6364 99.8333H36.1212V102.091C36.1212 102.69 36.359 103.264 36.7824 103.687C37.2058 104.111 37.78 104.348 38.3788 104.348C38.9775 104.348 39.5517 104.111 39.9751 103.687C40.3985 103.264 40.6364 102.69 40.6364 102.091"
          fill="currentColor"/>
    <path d="M49.6666 104.348H54.1818V99.8333H51.9242C51.3255 99.8333 50.7512 100.071 50.3279 100.495C49.9045 100.918 49.6666 101.492 49.6666 102.091"
          fill="currentColor"/>
    <path d="M58.6969 99.8333H54.1818V104.348H58.6969V99.8333Z" fill="currentColor"/>
    <path d="M72.2424 104.348V99.8333H69.9849C69.3861 99.8333 68.8119 100.071 68.3885 100.495C67.9651 100.918 67.7273 101.492 67.7273 102.091C67.7273 102.69 67.9651 103.264 68.3885 103.687C68.8119 104.111 69.3861 104.348 69.9849 104.348"
          fill="currentColor"/>
    <path d="M76.7576 99.8333H72.2424V104.348H76.7576V99.8333Z" fill="currentColor"/>
    <path d="M81.2727 99.8333H76.7576V104.348H81.2727V99.8333Z" fill="currentColor"/>
    <path d="M81.2727 99.8333V104.348H83.5303C84.129 104.348 84.7033 104.111 85.1266 103.687C85.55 103.264 85.7879 102.69 85.7879 102.091C85.7879 101.492 85.55 100.918 85.1266 100.495C84.7033 100.071 84.129 99.8333 83.5303 99.8333"
          fill="currentColor"/>
    <path d="M99.3334 99.8333H94.8182V102.091C94.8182 102.69 95.0561 103.264 95.4794 103.687C95.9028 104.111 96.4771 104.348 97.0758 104.348C97.6745 104.348 98.2488 104.111 98.6721 103.687C99.0955 103.264 99.3334 102.69 99.3334 102.091"
          fill="currentColor"/>
    <path d="M108.364 104.348V99.8333H103.848V102.091C103.848 102.69 104.086 103.264 104.51 103.687C104.933 104.111 105.507 104.348 106.106 104.348"
          fill="currentColor"/>
    <path d="M112.879 99.8333H108.364V104.348H112.879V99.8333Z" fill="currentColor"/>
    <path d="M117.394 99.8333H112.879V104.348H115.136C115.735 104.348 116.309 104.111 116.733 103.687C117.156 103.264 117.394 102.69 117.394 102.091"
          fill="currentColor"/>
    <path d="M130.939 104.348V99.8333H126.424V102.091C126.424 102.69 126.662 103.264 127.086 103.687C127.509 104.111 128.083 104.348 128.682 104.348"
          fill="currentColor"/>
    <path d="M135.455 99.8333H130.939V104.348H133.197C133.796 104.348 134.37 104.111 134.793 103.687C135.217 103.264 135.455 102.69 135.455 102.091"
          fill="currentColor"/>
    <path d="M139.97 104.348H144.485V99.8333H142.227C141.629 99.8333 141.054 100.071 140.631 100.495C140.208 100.918 139.97 101.492 139.97 102.091"
          fill="currentColor"/>
    <path d="M144.485 99.8333V104.348H146.742C147.341 104.348 147.915 104.111 148.339 103.687C148.762 103.264 149 102.69 149 102.091C149 101.492 148.762 100.918 148.339 100.495C147.915 100.071 147.341 99.8333 146.742 99.8333"
          fill="currentColor"/>
    <path d="M4.51515 104.348H0V108.864H4.51515V104.348Z" fill="currentColor"/>
    <path d="M13.5454 108.864H18.0606V106.606C18.0606 106.007 17.8227 105.433 17.3993 105.01C16.976 104.586 16.4017 104.348 15.803 104.348C15.2042 104.348 14.63 104.586 14.2066 105.01C13.7833 105.433 13.5454 106.007 13.5454 106.606"
          fill="currentColor"/>
    <path d="M27.091 104.348H22.5758V108.864H27.091V104.348Z" fill="currentColor"/>
    <path d="M33.8637 108.864C35.1105 108.864 36.1212 107.853 36.1212 106.606C36.1212 105.359 35.1105 104.348 33.8637 104.348C32.6168 104.348 31.6061 105.359 31.6061 106.606C31.6061 107.853 32.6168 108.864 33.8637 108.864Z"
          fill="currentColor"/>
    <path d="M45.1515 108.864H49.6666V104.348H47.4091C46.8103 104.348 46.2361 104.586 45.8127 105.01C45.3893 105.433 45.1515 106.007 45.1515 106.606"
          fill="currentColor"/>
    <path d="M54.1818 104.348H49.6666V108.864H54.1818V104.348Z" fill="currentColor"/>
    <path d="M58.6969 104.348H54.1818V108.864H58.6969V104.348Z" fill="currentColor"/>
    <path d="M58.697 104.348V108.864H63.2122V106.606C63.2122 106.007 62.9743 105.433 62.5509 105.01C62.1276 104.586 61.5533 104.348 60.9546 104.348"
          fill="currentColor"/>
    <path d="M81.2727 104.348H76.7576V106.606C76.7576 107.205 76.9954 107.779 77.4188 108.202C77.8422 108.626 78.4164 108.864 79.0151 108.864C79.6139 108.864 80.1881 108.626 80.6115 108.202C81.0349 107.779 81.2727 107.205 81.2727 106.606"
          fill="currentColor"/>
    <path d="M90.303 108.864V104.348H88.0454C87.4467 104.348 86.8724 104.586 86.4491 105.01C86.0257 105.433 85.7878 106.007 85.7878 106.606C85.7878 107.205 86.0257 107.779 86.4491 108.202C86.8724 108.626 87.4467 108.864 88.0454 108.864"
          fill="currentColor"/>
    <path d="M90.303 104.348V108.864H92.5606C93.1593 108.864 93.7335 108.626 94.1569 108.202C94.5803 107.779 94.8181 107.205 94.8181 106.606C94.8181 106.007 94.5803 105.433 94.1569 105.01C93.7335 104.586 93.1593 104.348 92.5606 104.348"
          fill="currentColor"/>
    <path d="M112.879 104.348H108.364V108.864H112.879V104.348Z" fill="currentColor"/>
    <path d="M121.909 108.864H126.424V106.606C126.424 106.007 126.186 105.433 125.763 105.01C125.34 104.586 124.765 104.348 124.167 104.348C123.568 104.348 122.994 104.586 122.57 105.01C122.147 105.433 121.909 106.007 121.909 106.606"
          fill="currentColor"/>
    <path d="M139.97 108.864V104.348H137.712C137.113 104.348 136.539 104.586 136.116 105.01C135.692 105.433 135.455 106.007 135.455 106.606C135.455 107.205 135.692 107.779 136.116 108.202C136.539 108.626 137.113 108.864 137.712 108.864"
          fill="currentColor"/>
    <path d="M144.485 104.348H139.97V108.864H142.227C142.826 108.864 143.4 108.626 143.824 108.202C144.247 107.779 144.485 107.205 144.485 106.606"
          fill="currentColor"/>
    <path d="M4.51514 113.379L4.51514 108.864H-1.52588e-05L-1.52588e-05 111.121C-1.52588e-05 111.72 0.237835 112.294 0.661213 112.718C1.08459 113.141 1.65881 113.379 2.25756 113.379"
          fill="currentColor"/>
    <path d="M4.51514 108.864V113.379H6.77271C7.37146 113.379 7.94568 113.141 8.36906 112.718C8.79244 112.294 9.03029 111.72 9.03029 111.121C9.03029 110.522 8.79244 109.948 8.36906 109.525C7.94568 109.101 7.37146 108.864 6.77271 108.864"
          fill="currentColor"/>
    <path d="M18.0605 113.379V108.864H13.5454V111.121C13.5454 111.72 13.7832 112.294 14.2066 112.718C14.63 113.141 15.2042 113.379 15.803 113.379"
          fill="currentColor"/>
    <path d="M22.5757 108.864H18.0605V113.379H22.5757V108.864Z" fill="currentColor"/>
    <path d="M27.091 108.864H22.5758V113.379H27.091V108.864Z" fill="currentColor"/>
    <path d="M27.0909 108.864V113.379H29.3485C29.9473 113.379 30.5215 113.141 30.9449 112.718C31.3682 112.294 31.6061 111.72 31.6061 111.121C31.6061 110.522 31.3682 109.948 30.9449 109.525C30.5215 109.101 29.9473 108.864 29.3485 108.864"
          fill="currentColor"/>
    <path d="M36.1212 113.379H40.6364V111.121C40.6364 110.522 40.3985 109.948 39.9751 109.525C39.5518 109.101 38.9775 108.864 38.3788 108.864C37.78 108.864 37.2058 109.101 36.7824 109.525C36.3591 109.948 36.1212 110.522 36.1212 111.121"
          fill="currentColor"/>
    <path d="M49.6666 108.864H45.1515V113.379H49.6666V108.864Z" fill="currentColor"/>
    <path d="M58.697 113.379V108.864H54.1819V111.121C54.1819 111.72 54.4197 112.294 54.8431 112.718C55.2665 113.141 55.8407 113.379 56.4394 113.379"
          fill="currentColor"/>
    <path d="M63.2122 108.864H58.697V113.379H60.9546C61.5533 113.379 62.1276 113.141 62.5509 112.718C62.9743 112.294 63.2122 111.72 63.2122 111.121"
          fill="currentColor"/>
    <path d="M74.5 113.379C75.7468 113.379 76.7576 112.368 76.7576 111.121C76.7576 109.874 75.7468 108.864 74.5 108.864C73.2532 108.864 72.2424 109.874 72.2424 111.121C72.2424 112.368 73.2532 113.379 74.5 113.379Z"
          fill="currentColor"/>
    <path d="M108.364 113.379V108.864H106.106C105.507 108.864 104.933 109.101 104.51 109.525C104.086 109.948 103.848 110.522 103.848 111.121C103.848 111.72 104.086 112.294 104.51 112.718C104.933 113.141 105.507 113.379 106.106 113.379"
          fill="currentColor"/>
    <path d="M112.879 108.864H108.364V113.379H112.879V108.864Z" fill="currentColor"/>
    <path d="M117.394 108.864H112.879V113.379H117.394V108.864Z" fill="currentColor"/>
    <path d="M121.909 108.864H117.394V113.379H121.909V108.864Z" fill="currentColor"/>
    <path d="M126.424 108.864H121.909V113.379H126.424V108.864Z" fill="currentColor"/>
    <path d="M130.939 108.864H126.424V113.379H130.939V108.864Z" fill="currentColor"/>
    <path d="M130.939 108.864V113.379H135.455V111.121C135.455 110.522 135.217 109.948 134.793 109.525C134.37 109.101 133.796 108.864 133.197 108.864"
          fill="currentColor"/>
    <path d="M40.6364 113.379H36.1212V115.636C36.1212 116.235 36.359 116.809 36.7824 117.233C37.2058 117.656 37.78 117.894 38.3788 117.894C38.9775 117.894 39.5517 117.656 39.9751 117.233C40.3985 116.809 40.6364 116.235 40.6364 115.636"
          fill="currentColor"/>
    <path d="M49.6666 117.894V113.379H45.1515V115.636C45.1515 116.235 45.3893 116.809 45.8127 117.233C46.2361 117.656 46.8103 117.894 47.409 117.894"
          fill="currentColor"/>
    <path d="M49.6666 113.379V117.894H51.9242C52.5229 117.894 53.0972 117.656 53.5206 117.233C53.9439 116.809 54.1818 116.235 54.1818 115.636C54.1818 115.038 53.9439 114.463 53.5206 114.04C53.0972 113.617 52.5229 113.379 51.9242 113.379"
          fill="currentColor"/>
    <path d="M69.9849 117.894C71.2317 117.894 72.2424 116.883 72.2424 115.636C72.2424 114.39 71.2317 113.379 69.9849 113.379C68.738 113.379 67.7273 114.39 67.7273 115.636C67.7273 116.883 68.738 117.894 69.9849 117.894Z"
          fill="currentColor"/>
    <path d="M76.7576 117.894H81.2727V113.379H79.0151C78.4164 113.379 77.8422 113.617 77.4188 114.04C76.9954 114.463 76.7576 115.038 76.7576 115.636"
          fill="currentColor"/>
    <path d="M81.2727 113.379V117.894H83.5303C84.129 117.894 84.7033 117.656 85.1266 117.233C85.55 116.809 85.7879 116.235 85.7879 115.636C85.7879 115.038 85.55 114.463 85.1266 114.04C84.7033 113.617 84.129 113.379 83.5303 113.379"
          fill="currentColor"/>
    <path d="M101.591 117.894C102.838 117.894 103.849 116.883 103.849 115.636C103.849 114.39 102.838 113.379 101.591 113.379C100.344 113.379 99.3334 114.39 99.3334 115.636C99.3334 116.883 100.344 117.894 101.591 117.894Z"
          fill="currentColor"/>
    <path d="M112.879 113.379H108.364V117.894H112.879V113.379Z" fill="currentColor"/>
    <path d="M130.939 113.379H126.424V117.894H130.939V113.379Z" fill="currentColor"/>
    <path d="M135.455 113.379H130.939V117.894H133.197C133.796 117.894 134.37 117.656 134.793 117.233C135.217 116.809 135.455 116.235 135.455 115.636"
          fill="currentColor"/>
    <path d="M142.227 117.894C143.474 117.894 144.485 116.883 144.485 115.636C144.485 114.39 143.474 113.379 142.227 113.379C140.98 113.379 139.97 114.39 139.97 115.636C139.97 116.883 140.98 117.894 142.227 117.894Z"
          fill="currentColor"/>
    <path d="M42.8939 122.409C44.1408 122.409 45.1515 121.398 45.1515 120.152C45.1515 118.905 44.1408 117.894 42.8939 117.894C41.6471 117.894 40.6364 118.905 40.6364 120.152C40.6364 121.398 41.6471 122.409 42.8939 122.409Z"
          fill="currentColor"/>
    <path d="M58.697 122.409H63.2122V120.152C63.2122 119.553 62.9743 118.979 62.5509 118.555C62.1276 118.132 61.5533 117.894 60.9546 117.894C60.3559 117.894 59.7816 118.132 59.3582 118.555C58.9349 118.979 58.697 119.553 58.697 120.152"
          fill="currentColor"/>
    <path d="M72.2424 122.409H76.7576V117.894H74.5C73.9013 117.894 73.327 118.132 72.9037 118.555C72.4803 118.979 72.2424 119.553 72.2424 120.152"
          fill="currentColor"/>
    <path d="M81.2727 117.894H76.7576V122.409H81.2727V117.894Z" fill="currentColor"/>
    <path d="M85.7878 122.409H90.303V120.152C90.303 119.553 90.0651 118.979 89.6418 118.555C89.2184 118.132 88.6442 117.894 88.0454 117.894C87.4467 117.894 86.8724 118.132 86.4491 118.555C86.0257 118.979 85.7878 119.553 85.7878 120.152"
          fill="currentColor"/>
    <path d="M103.849 122.409H108.364V117.894H106.106C105.507 117.894 104.933 118.132 104.51 118.555C104.086 118.979 103.849 119.553 103.849 120.152"
          fill="currentColor"/>
    <path d="M112.879 117.894H108.364V122.409H112.879V117.894Z" fill="currentColor"/>
    <path d="M119.651 122.409C120.898 122.409 121.909 121.398 121.909 120.152C121.909 118.905 120.898 117.894 119.651 117.894C118.405 117.894 117.394 118.905 117.394 120.152C117.394 121.398 118.405 122.409 119.651 122.409Z"
          fill="currentColor"/>
    <path d="M130.939 117.894H126.424V122.409H130.939V117.894Z" fill="currentColor"/>
    <path d="M135.455 122.409H139.97V120.152C139.97 119.553 139.732 118.979 139.309 118.555C138.885 118.132 138.311 117.894 137.712 117.894C137.113 117.894 136.539 118.132 136.116 118.555C135.692 118.979 135.455 119.553 135.455 120.152"
          fill="currentColor"/>
    <path d="M36.1212 126.924H40.6364V124.667C40.6364 124.068 40.3985 123.494 39.9751 123.07C39.5518 122.647 38.9775 122.409 38.3788 122.409C37.78 122.409 37.2058 122.647 36.7824 123.07C36.3591 123.494 36.1212 124.068 36.1212 124.667"
          fill="currentColor"/>
    <path d="M51.9242 126.924C53.171 126.924 54.1818 125.913 54.1818 124.667C54.1818 123.42 53.171 122.409 51.9242 122.409C50.6774 122.409 49.6666 123.42 49.6666 124.667C49.6666 125.913 50.6774 126.924 51.9242 126.924Z"
          fill="currentColor"/>
    <path d="M63.2122 126.924V122.409H58.697V124.667C58.697 125.265 58.9349 125.84 59.3582 126.263C59.7816 126.686 60.3558 126.924 60.9546 126.924"
          fill="currentColor"/>
    <path d="M67.7273 122.409H63.2122V126.924H67.7273V122.409Z" fill="currentColor"/>
    <path d="M72.2424 122.409H67.7273V126.924H72.2424V122.409Z" fill="currentColor"/>
    <path d="M76.7576 122.409H72.2424V126.924H76.7576V122.409Z" fill="currentColor"/>
    <path d="M81.2727 122.409H76.7576V126.924H81.2727V122.409Z" fill="currentColor"/>
    <path d="M85.7879 122.409H81.2727V126.924H85.7879V122.409Z" fill="currentColor"/>
    <path d="M90.303 122.409H85.7878V126.924H90.303V122.409Z" fill="currentColor"/>
    <path d="M99.3334 126.924H103.849V122.409H101.591C100.992 122.409 100.418 122.647 99.9946 123.07C99.5712 123.494 99.3334 124.068 99.3334 124.667"
          fill="currentColor"/>
    <path d="M108.364 122.409H103.849V126.924H108.364V122.409Z" fill="currentColor"/>
    <path d="M112.879 122.409H108.364V126.924H112.879V122.409Z" fill="currentColor"/>
    <path d="M130.939 122.409H126.424V126.924H130.939V122.409Z" fill="currentColor"/>
    <path d="M135.455 122.409H130.939V126.924H135.455V122.409Z" fill="currentColor"/>
    <path d="M139.97 122.409H135.455V126.924H139.97V122.409Z" fill="currentColor"/>
    <path d="M144.485 122.409H139.97V126.924H144.485V122.409Z" fill="currentColor"/>
    <path d="M144.485 122.409V126.924H146.742C147.341 126.924 147.915 126.686 148.339 126.263C148.762 125.84 149 125.265 149 124.667C149 124.068 148.762 123.494 148.339 123.07C147.915 122.647 147.341 122.409 146.742 122.409"
          fill="currentColor"/>
    <path d="M40.6364 126.924H36.1212V131.439H40.6364V126.924Z" fill="currentColor"/>
    <path d="M67.7273 126.924H63.2121V129.182C63.2121 129.781 63.45 130.355 63.8734 130.778C64.2967 131.202 64.871 131.439 65.4697 131.439C66.0685 131.439 66.6427 131.202 67.0661 130.778C67.4894 130.355 67.7273 129.781 67.7273 129.182"
          fill="currentColor"/>
    <path d="M76.7576 126.924H72.2424V131.439H76.7576V126.924Z" fill="currentColor"/>
    <path d="M81.2727 126.924H76.7576V131.439H81.2727V126.924Z" fill="currentColor"/>
    <path d="M90.303 126.924H85.7878V131.439H90.303V126.924Z" fill="currentColor"/>
    <path d="M90.303 126.924V131.439H94.8181V129.182C94.8181 128.583 94.5803 128.009 94.1569 127.585C93.7335 127.162 93.1593 126.924 92.5606 126.924"
          fill="currentColor"/>
    <path d="M103.849 126.924H99.3334V131.439H103.849V126.924Z" fill="currentColor"/>
    <path d="M108.364 126.924H103.849V131.439H108.364V126.924Z" fill="currentColor"/>
    <path d="M112.879 126.924H108.364V131.439H112.879V126.924Z" fill="currentColor"/>
    <path d="M117.394 126.924H112.879V131.439H117.394V126.924Z" fill="currentColor"/>
    <path d="M121.909 126.924H117.394V131.439H121.909V126.924Z" fill="currentColor"/>
    <path d="M126.424 126.924H121.909V131.439H126.424V126.924Z" fill="currentColor"/>
    <path d="M130.939 126.924H126.424V131.439H128.682C129.281 131.439 129.855 131.202 130.278 130.778C130.702 130.355 130.939 129.781 130.939 129.182"
          fill="currentColor"/>
    <path d="M144.485 126.924H139.97V129.182C139.97 129.781 140.208 130.355 140.631 130.778C141.054 131.202 141.629 131.439 142.227 131.439C142.826 131.439 143.4 131.202 143.824 130.778C144.247 130.355 144.485 129.781 144.485 129.182"
          fill="currentColor"/>
    <path d="M40.6364 135.955V131.439H36.1212V133.697C36.1212 134.296 36.359 134.87 36.7824 135.293C37.2058 135.717 37.78 135.955 38.3788 135.955"
          fill="currentColor"/>
    <path d="M40.6364 131.439V135.955H45.1515V133.697C45.1515 133.098 44.9137 132.524 44.4903 132.101C44.0669 131.677 43.4927 131.439 42.8939 131.439"
          fill="currentColor"/>
    <path d="M58.697 135.955H63.2122V133.697C63.2122 133.098 62.9743 132.524 62.5509 132.101C62.1276 131.677 61.5533 131.439 60.9546 131.439C60.3559 131.439 59.7816 131.677 59.3582 132.101C58.9349 132.524 58.697 133.098 58.697 133.697"
          fill="currentColor"/>
    <path d="M76.7576 135.955V131.439H72.2424V133.697C72.2424 134.296 72.4803 134.87 72.9036 135.293C73.327 135.717 73.9012 135.955 74.5 135.955"
          fill="currentColor"/>
    <path d="M81.2727 131.439H76.7576V135.955H79.0151C79.6139 135.955 80.1881 135.717 80.6115 135.293C81.0349 134.87 81.2727 134.296 81.2727 133.697"
          fill="currentColor"/>
    <path d="M90.303 131.439H85.7878V135.955H90.303V131.439Z" fill="currentColor"/>
    <path d="M94.8181 131.439H90.303V135.955H94.8181V131.439Z" fill="currentColor"/>
    <path d="M103.849 131.439H99.3334V135.955H103.849V131.439Z" fill="currentColor"/>
    <path d="M112.879 131.439H108.364V135.955H112.879V131.439Z" fill="currentColor"/>
    <path d="M117.394 131.439H112.879V135.955H117.394V131.439Z" fill="currentColor"/>
    <path d="M135.455 135.955V131.439H133.197C132.598 131.439 132.024 131.677 131.601 132.101C131.177 132.524 130.939 133.098 130.939 133.697C130.939 134.296 131.177 134.87 131.601 135.293C132.024 135.717 132.598 135.955 133.197 135.955"
          fill="currentColor"/>
    <path d="M135.455 131.439V135.955H137.712C138.311 135.955 138.885 135.717 139.309 135.293C139.732 134.87 139.97 134.296 139.97 133.697C139.97 133.098 139.732 132.524 139.309 132.101C138.885 131.677 138.311 131.439 137.712 131.439"
          fill="currentColor"/>
    <path d="M144.485 135.955H149V133.697C149 133.098 148.762 132.524 148.339 132.101C147.915 131.677 147.341 131.439 146.742 131.439C146.144 131.439 145.569 131.677 145.146 132.101C144.723 132.524 144.485 133.098 144.485 133.697"
          fill="currentColor"/>
    <path d="M45.1515 140.47V135.955H40.6363V138.212C40.6363 138.811 40.8742 139.385 41.2976 139.808C41.7209 140.232 42.2952 140.47 42.8939 140.47"
          fill="currentColor"/>
    <path d="M49.6666 135.955H45.1515V140.47H49.6666V135.955Z" fill="currentColor"/>
    <path d="M49.6666 135.955V140.47H51.9242C52.5229 140.47 53.0972 140.232 53.5206 139.808C53.9439 139.385 54.1818 138.811 54.1818 138.212C54.1818 137.613 53.9439 137.039 53.5206 136.616C53.0972 136.192 52.5229 135.955 51.9242 135.955"
          fill="currentColor"/>
    <path d="M63.2122 135.955H58.697V140.47H63.2122V135.955Z" fill="currentColor"/>
    <path d="M63.2122 135.955V140.47H67.7273V138.212C67.7273 137.613 67.4895 137.039 67.0661 136.616C66.6427 136.192 66.0685 135.955 65.4697 135.955"
          fill="currentColor"/>
    <path d="M85.7878 140.47V135.955H83.5303C82.9315 135.955 82.3573 136.192 81.9339 136.616C81.5105 137.039 81.2727 137.613 81.2727 138.212C81.2727 138.811 81.5105 139.385 81.9339 139.808C82.3573 140.232 82.9315 140.47 83.5303 140.47"
          fill="currentColor"/>
    <path d="M90.303 135.955H85.7878V140.47H90.303V135.955Z" fill="currentColor"/>
    <path d="M94.8181 135.955H90.303V140.47H94.8181V135.955Z" fill="currentColor"/>
    <path d="M103.849 140.47V135.955H99.3334V138.212C99.3334 138.811 99.5712 139.385 99.9946 139.808C100.418 140.232 100.992 140.47 101.591 140.47"
          fill="currentColor"/>
    <path d="M108.364 135.955H103.849V140.47H108.364V135.955Z" fill="currentColor"/>
    <path d="M112.879 135.955H108.364V140.47H112.879V135.955Z" fill="currentColor"/>
    <path d="M117.394 135.955H112.879V140.47H115.136C115.735 140.47 116.309 140.232 116.733 139.808C117.156 139.385 117.394 138.811 117.394 138.212"
          fill="currentColor"/>
    <path d="M128.682 140.47C129.929 140.47 130.939 139.459 130.939 138.212C130.939 136.965 129.929 135.955 128.682 135.955C127.435 135.955 126.424 136.965 126.424 138.212C126.424 139.459 127.435 140.47 128.682 140.47Z"
          fill="currentColor"/>
    <path d="M139.97 140.47H144.485V135.955H142.227C141.629 135.955 141.054 136.192 140.631 136.616C140.208 137.039 139.97 137.613 139.97 138.212"
          fill="currentColor"/>
    <path d="M149 135.955H144.485V140.47H149V135.955Z" fill="currentColor"/>
    <path d="M38.3788 144.985C39.6256 144.985 40.6364 143.974 40.6364 142.727C40.6364 141.48 39.6256 140.47 38.3788 140.47C37.132 140.47 36.1212 141.48 36.1212 142.727C36.1212 143.974 37.132 144.985 38.3788 144.985Z"
          fill="currentColor"/>
    <path d="M49.6666 140.47H45.1515V142.727C45.1515 143.326 45.3893 143.9 45.8127 144.324C46.2361 144.747 46.8103 144.985 47.409 144.985C48.0078 144.985 48.582 144.747 49.0054 144.324C49.4288 143.9 49.6666 143.326 49.6666 142.727"
          fill="currentColor"/>
    <path d="M63.2122 144.985V140.47H58.697V142.727C58.697 143.326 58.9349 143.9 59.3582 144.324C59.7816 144.747 60.3558 144.985 60.9546 144.985"
          fill="currentColor"/>
    <path d="M67.7273 140.47H63.2122V144.985H67.7273V140.47Z" fill="currentColor"/>
    <path d="M67.7273 140.47V144.985H69.9849C70.5836 144.985 71.1578 144.747 71.5812 144.324C72.0046 143.9 72.2424 143.326 72.2424 142.727C72.2424 142.129 72.0046 141.554 71.5812 141.131C71.1578 140.708 70.5836 140.47 69.9849 140.47"
          fill="currentColor"/>
    <path d="M76.7576 144.985H81.2727V142.727C81.2727 142.129 81.0349 141.554 80.6115 141.131C80.1881 140.708 79.6139 140.47 79.0151 140.47C78.4164 140.47 77.8422 140.708 77.4188 141.131C76.9954 141.554 76.7576 142.129 76.7576 142.727"
          fill="currentColor"/>
    <path d="M94.8182 140.47H90.3031V142.727C90.3031 143.326 90.5409 143.9 90.9643 144.324C91.3877 144.747 91.9619 144.985 92.5607 144.985C93.1594 144.985 93.7336 144.747 94.157 144.324C94.5804 143.9 94.8182 143.326 94.8182 142.727"
          fill="currentColor"/>
    <path d="M119.651 144.985C120.898 144.985 121.909 143.974 121.909 142.727C121.909 141.48 120.898 140.47 119.651 140.47C118.405 140.47 117.394 141.48 117.394 142.727C117.394 143.974 118.405 144.985 119.651 144.985Z"
          fill="currentColor"/>
    <path d="M135.455 144.985V140.47H133.197C132.598 140.47 132.024 140.708 131.601 141.131C131.177 141.554 130.939 142.129 130.939 142.727C130.939 143.326 131.177 143.9 131.601 144.324C132.024 144.747 132.598 144.985 133.197 144.985"
          fill="currentColor"/>
    <path d="M139.97 140.47H135.455V144.985H139.97V140.47Z" fill="currentColor"/>
    <path d="M144.485 140.47H139.97V144.985H144.485V140.47Z" fill="currentColor"/>
    <path d="M149 140.47H144.485V144.985H146.742C147.341 144.985 147.915 144.747 148.339 144.324C148.762 143.9 149 143.326 149 142.727"
          fill="currentColor"/>
    <path d="M42.8939 149.5C44.1408 149.5 45.1515 148.489 45.1515 147.242C45.1515 145.996 44.1408 144.985 42.8939 144.985C41.6471 144.985 40.6364 145.996 40.6364 147.242C40.6364 148.489 41.6471 149.5 42.8939 149.5Z"
          fill="currentColor"/>
    <path d="M54.1818 149.5V144.985H51.9242C51.3254 144.985 50.7512 145.223 50.3278 145.646C49.9045 146.069 49.6666 146.644 49.6666 147.242C49.6666 147.841 49.9045 148.415 50.3278 148.839C50.7512 149.262 51.3254 149.5 51.9242 149.5"
          fill="currentColor"/>
    <path d="M54.1818 144.985V149.5H56.4393C57.0381 149.5 57.6123 149.262 58.0357 148.839C58.4591 148.415 58.6969 147.841 58.6969 147.242C58.6969 146.644 58.4591 146.069 58.0357 145.646C57.6123 145.223 57.0381 144.985 56.4393 144.985"
          fill="currentColor"/>
    <path d="M67.7273 144.985H63.2121V147.242C63.2121 147.841 63.45 148.415 63.8734 148.839C64.2967 149.262 64.871 149.5 65.4697 149.5C66.0685 149.5 66.6427 149.262 67.0661 148.839C67.4894 148.415 67.7273 147.841 67.7273 147.242"
          fill="currentColor"/>
    <path d="M76.7576 149.5V144.985H74.5C73.9012 144.985 73.327 145.223 72.9036 145.646C72.4803 146.069 72.2424 146.644 72.2424 147.242C72.2424 147.841 72.4803 148.415 72.9036 148.839C73.327 149.262 73.9012 149.5 74.5 149.5"
          fill="currentColor"/>
    <path d="M81.2727 144.985H76.7576V149.5H79.0151C79.6139 149.5 80.1881 149.262 80.6115 148.839C81.0349 148.415 81.2727 147.841 81.2727 147.242"
          fill="currentColor"/>
    <path d="M88.0454 149.5C89.2922 149.5 90.303 148.489 90.303 147.242C90.303 145.996 89.2922 144.985 88.0454 144.985C86.7986 144.985 85.7878 145.996 85.7878 147.242C85.7878 148.489 86.7986 149.5 88.0454 149.5Z"
          fill="currentColor"/>
    <path d="M103.849 149.5V144.985H101.591C100.992 144.985 100.418 145.223 99.9946 145.646C99.5712 146.069 99.3334 146.644 99.3334 147.242C99.3334 147.841 99.5712 148.415 99.9946 148.839C100.418 149.262 100.992 149.5 101.591 149.5"
          fill="currentColor"/>
    <path d="M108.364 144.985H103.849V149.5H108.364V144.985Z" fill="currentColor"/>
    <path d="M108.364 144.985V149.5H110.621C111.22 149.5 111.794 149.262 112.218 148.839C112.641 148.415 112.879 147.841 112.879 147.242C112.879 146.644 112.641 146.069 112.218 145.646C111.794 145.223 111.22 144.985 110.621 144.985"
          fill="currentColor"/>
    <path d="M128.682 149.5C129.929 149.5 130.939 148.489 130.939 147.242C130.939 145.996 129.929 144.985 128.682 144.985C127.435 144.985 126.424 145.996 126.424 147.242C126.424 148.489 127.435 149.5 128.682 149.5Z"
          fill="currentColor"/>
    <g clip-path="url(#clip0_461_2580)">
        <path d="M53.7727 94.7119H61.4091V74.621L50.5 65.7574V91.1665C50.5 93.1283 51.9673 94.7119 53.7727 94.7119Z"
              fill="#4285F4"/>
        <path d="M87.5909 94.7119H95.2273C97.0382 94.7119 98.5 93.1224 98.5 91.1665V65.7574L87.5909 74.621"
              fill="#34A853"/>
        <path d="M87.5909 59.2574V74.621L98.5 65.7574V61.0301C98.5 56.6456 93.88 54.146 90.6455 56.7756"
              fill="#FBBC04"/>
        <path d="M61.4091 74.621V59.2574L74.5 69.8937L87.5909 59.2574V74.621L74.5 85.2574" fill="#EA4335"/>
        <path d="M50.5 61.03V65.7573L61.4091 74.6209V59.2573L58.3545 56.7755C55.1145 54.1459 50.5 56.6455 50.5 61.03Z"
              fill="#C5221F"/>
    </g>
    <defs>
        <clipPath id="clip0_461_2580">
            <rect width="48" height="39" fill="white" transform="translate(50.5 55.7119)"/>
        </clipPath>
    </defs>
</svg>
