<svg width="151" height="150" viewBox="0 0 151 150" fill="none" xmlns="http://www.w3.org/2000/svg">
    <path d="M10.9362 127.942V135.69C10.9362 137.829 12.6706 139.564 14.81 139.564H22.5577C24.6972 139.564 26.4315 137.829 26.4315 135.69V127.942C26.4315 125.803 24.6972 124.068 22.5577 124.068H14.81C12.6706 124.068 10.9362 125.803 10.9362 127.942Z"
          fill="currentColor"/>
    <path d="M0.605957 140.855C0.605957 146.881 3.61893 149.894 9.64488 149.894H27.7227C33.7487 149.894 36.7617 146.881 36.7617 140.855V122.777C36.7617 116.751 33.7487 113.738 27.7227 113.738H9.64488C3.61893 113.738 0.605957 116.751 0.605957 122.777L0.605957 140.855ZM10.2905 144.729C7.27755 144.729 5.77106 143.222 5.77106 140.209L5.77106 123.423C5.77106 120.41 7.27755 118.903 10.2905 118.903H27.0771C30.0901 118.903 31.5966 120.41 31.5966 123.423V140.209C31.5966 143.222 30.0901 144.729 27.0771 144.729H10.2905Z"
          fill="currentColor"/>
    <path d="M140.064 22.0577V14.31C140.064 12.1706 138.329 10.4362 136.19 10.4362H128.442C126.303 10.4362 124.568 12.1706 124.568 14.31V22.0577C124.568 24.1971 126.303 25.9315 128.442 25.9315H136.19C138.329 25.9315 140.064 24.1971 140.064 22.0577Z"
          fill="currentColor"/>
    <path d="M150.394 9.14488C150.394 3.11893 147.381 0.105957 141.355 0.105957L123.277 0.105957C117.251 0.105957 114.238 3.11893 114.238 9.14488V27.2227C114.238 33.2487 117.251 36.2617 123.277 36.2617H141.355C147.381 36.2617 150.394 33.2487 150.394 27.2227V9.14488ZM140.709 5.27106C143.722 5.27106 145.229 6.77755 145.229 9.79052V26.5771C145.229 29.5901 143.722 31.0966 140.709 31.0966H123.923C120.91 31.0966 119.403 29.5901 119.403 26.5771V9.79052C119.403 6.77755 120.91 5.27106 123.923 5.27106L140.709 5.27106Z"
          fill="currentColor"/>
    <path d="M22.5577 10.4362H14.81C12.6706 10.4362 10.9362 12.1706 10.9362 14.31V22.0577C10.9362 24.1971 12.6706 25.9315 14.81 25.9315H22.5577C24.6972 25.9315 26.4315 24.1971 26.4315 22.0577V14.31C26.4315 12.1706 24.6972 10.4362 22.5577 10.4362Z"
          fill="currentColor"/>
    <path d="M9.64488 0.105957C3.61893 0.105957 0.605957 3.11893 0.605957 9.14488V27.2227C0.605957 33.2487 3.61893 36.2617 9.64488 36.2617H27.7227C33.7487 36.2617 36.7617 33.2487 36.7617 27.2227V9.14488C36.7617 3.11893 33.7487 0.105957 27.7227 0.105957H9.64488ZM5.77106 9.79052C5.77106 6.77755 7.27755 5.27106 10.2905 5.27106H27.0771C30.0901 5.27106 31.5966 6.77755 31.5966 9.79052V26.5771C31.5966 29.5901 30.0901 31.0966 27.0771 31.0966H10.2905C7.27755 31.0966 5.77106 29.5901 5.77106 26.5771V9.79052Z"
          fill="currentColor"/>
    <path d="M47.0919 5.27094H52.257V2.68839C52.257 2.00345 51.9849 1.34657 51.5006 0.862244C51.0163 0.377922 50.3594 0.105835 49.6745 0.105835C48.9895 0.105835 48.3327 0.377922 47.8483 0.862244C47.364 1.34657 47.0919 2.00345 47.0919 2.68839"
          fill="currentColor"/>
    <path d="M78.0825 5.27094H83.2476V2.68839C83.2476 2.00345 82.9755 1.34657 82.4912 0.862244C82.0069 0.377922 81.35 0.105835 80.6651 0.105835C79.9801 0.105835 79.3233 0.377922 78.8389 0.862244C78.3546 1.34657 78.0825 2.00345 78.0825 2.68839"
          fill="currentColor"/>
    <path d="M93.5778 5.27094H98.7429V0.105835H96.1603C95.4754 0.105835 94.8185 0.377928 94.3342 0.86225C93.8498 1.34657 93.5778 2.00345 93.5778 2.68839"
          fill="currentColor"/>
    <path d="M98.7428 0.105957V5.27106H101.325C102.01 5.27106 102.667 4.99897 103.151 4.51465C103.636 4.03032 103.908 3.37344 103.908 2.68851C103.908 2.00357 103.636 1.34669 103.151 0.862369C102.667 0.378047 102.01 0.105957 101.325 0.105957"
          fill="currentColor"/>
    <path d="M52.2569 10.4362V5.2711L47.0918 5.2711V7.85365C47.0918 8.53859 47.3639 9.19547 47.8482 9.67979C48.3325 10.1641 48.9894 10.4362 49.6743 10.4362"
          fill="currentColor"/>
    <path d="M57.422 5.27094H52.2569V10.436H57.422V5.27094Z" fill="currentColor"/>
    <path d="M57.4222 5.27094V10.436H60.0047C60.6897 10.436 61.3465 10.1639 61.8309 9.67962C62.3152 9.1953 62.5873 8.53842 62.5873 7.85349C62.5873 7.16855 62.3152 6.51167 61.8309 6.02735C61.3465 5.54302 60.6897 5.27094 60.0047 5.27094"
          fill="currentColor"/>
    <path d="M78.0825 10.4362V5.2711H75.5C74.815 5.2711 74.1582 5.54319 73.6738 6.02751C73.1895 6.51184 72.9174 7.16872 72.9174 7.85365C72.9174 8.53859 73.1895 9.19547 73.6738 9.67979C74.1582 10.1641 74.815 10.4362 75.5 10.4362"
          fill="currentColor"/>
    <path d="M83.2476 5.27094H78.0825V10.436H80.6651C81.35 10.436 82.0069 10.1639 82.4912 9.67963C82.9755 9.1953 83.2476 8.53842 83.2476 7.85349"
          fill="currentColor"/>
    <path d="M88.4126 10.4362H93.5777V5.2711H90.9951C90.3102 5.2711 89.6533 5.5432 89.169 6.02752C88.6847 6.51184 88.4126 7.16872 88.4126 7.85365"
          fill="currentColor"/>
    <path d="M98.7428 5.27094H93.5777V10.436H96.1602C96.8452 10.436 97.5021 10.1639 97.9864 9.67962C98.4707 9.1953 98.7428 8.53842 98.7428 7.85349"
          fill="currentColor"/>
    <path d="M103.908 10.4362H109.073V7.85365C109.073 7.16872 108.801 6.51184 108.317 6.02752C107.832 5.5432 107.175 5.2711 106.491 5.2711C105.806 5.2711 105.149 5.5432 104.664 6.02752C104.18 6.51184 103.908 7.16872 103.908 7.85365"
          fill="currentColor"/>
    <path d="M44.5092 15.6013C45.9355 15.6013 47.0917 14.4451 47.0917 13.0188C47.0917 11.5925 45.9355 10.4362 44.5092 10.4362C43.0829 10.4362 41.9266 11.5925 41.9266 13.0188C41.9266 14.4451 43.0829 15.6013 44.5092 15.6013Z"
          fill="currentColor"/>
    <path d="M67.7523 15.6012V10.4361H65.1697C64.4848 10.4361 63.8279 10.7082 63.3436 11.1925C62.8592 11.6768 62.5872 12.3337 62.5872 13.0186C62.5872 13.7036 62.8592 14.3604 63.3436 14.8448C63.8279 15.3291 64.4848 15.6012 65.1697 15.6012"
          fill="currentColor"/>
    <path d="M67.7523 10.4362V15.6013H70.3348C71.0197 15.6013 71.6766 15.3292 72.1609 14.8449C72.6453 14.3606 72.9174 13.7037 72.9174 13.0188C72.9174 12.3338 72.6453 11.6769 72.1609 11.1926C71.6766 10.7083 71.0197 10.4362 70.3348 10.4362"
          fill="currentColor"/>
    <path d="M93.5778 10.4362H88.4127V13.0188C88.4127 13.7037 88.6847 14.3606 89.1691 14.8449C89.6534 15.3292 90.3103 15.6013 90.9952 15.6013C91.6801 15.6013 92.337 15.3292 92.8213 14.8449C93.3057 14.3606 93.5778 13.7037 93.5778 13.0188"
          fill="currentColor"/>
    <path d="M98.7428 15.6012H103.908V10.4361H101.325C100.64 10.4361 99.9835 10.7082 99.4992 11.1925C99.0149 11.6768 98.7428 12.3337 98.7428 13.0186"
          fill="currentColor"/>
    <path d="M109.073 10.4362H103.908V15.6013H109.073V10.4362Z" fill="currentColor"/>
    <path d="M47.0919 20.7664H52.257V18.1839C52.257 17.499 51.9849 16.8421 51.5006 16.3578C51.0163 15.8734 50.3594 15.6013 49.6745 15.6013C48.9895 15.6013 48.3327 15.8734 47.8483 16.3578C47.364 16.8421 47.0919 17.499 47.0919 18.1839"
          fill="currentColor"/>
    <path d="M57.4222 20.7664H62.5873V18.1839C62.5873 17.499 62.3152 16.8421 61.8309 16.3578C61.3465 15.8734 60.6897 15.6013 60.0047 15.6013C59.3198 15.6013 58.6629 15.8734 58.1786 16.3578C57.6943 16.8421 57.4222 17.499 57.4222 18.1839"
          fill="currentColor"/>
    <path d="M75.4999 20.7663C76.9262 20.7663 78.0825 19.61 78.0825 18.1837C78.0825 16.7574 76.9262 15.6012 75.4999 15.6012C74.0736 15.6012 72.9174 16.7574 72.9174 18.1837C72.9174 19.61 74.0736 20.7663 75.4999 20.7663Z"
          fill="currentColor"/>
    <path d="M83.2476 20.7664H88.4127V18.1839C88.4127 17.499 88.1406 16.8421 87.6563 16.3578C87.172 15.8734 86.5151 15.6013 85.8302 15.6013C85.1452 15.6013 84.4884 15.8734 84.004 16.3578C83.5197 16.8421 83.2476 17.499 83.2476 18.1839"
          fill="currentColor"/>
    <path d="M103.908 20.7664V15.6013H98.7429V18.1839C98.7429 18.8688 99.015 19.5257 99.4993 20.01C99.9836 20.4944 100.64 20.7664 101.325 20.7664"
          fill="currentColor"/>
    <path d="M109.073 15.6012H103.908V20.7663H109.073V15.6012Z" fill="currentColor"/>
    <path d="M41.9266 25.9314H47.0917V20.7663H44.5092C43.8243 20.7663 43.1674 21.0384 42.683 21.5227C42.1987 22.0071 41.9266 22.6639 41.9266 23.3489"
          fill="currentColor"/>
    <path d="M52.257 20.7664H47.0919V25.9315H52.257V20.7664Z" fill="currentColor"/>
    <path d="M57.422 20.7664H52.2569V25.9315H57.422V20.7664Z" fill="currentColor"/>
    <path d="M62.5872 20.7664H57.4221V25.9315H60.0046C60.6895 25.9315 61.3464 25.6595 61.8307 25.1751C62.3151 24.6908 62.5872 24.0339 62.5872 23.349"
          fill="currentColor"/>
    <path d="M88.4127 20.7664H83.2476V25.9315H88.4127V20.7664Z" fill="currentColor"/>
    <path d="M93.5778 25.9314H98.7429V23.3489C98.7429 22.6639 98.4708 22.0071 97.9864 21.5227C97.5021 21.0384 96.8452 20.7663 96.1603 20.7663C95.4754 20.7663 94.8185 21.0384 94.3342 21.5227C93.8498 22.0071 93.5778 22.6639 93.5778 23.3489"
          fill="currentColor"/>
    <path d="M109.073 20.7664H103.908V25.9315H109.073V20.7664Z" fill="currentColor"/>
    <path d="M47.0917 25.9314H41.9266V31.0965H47.0917V25.9314Z" fill="currentColor"/>
    <path d="M52.257 25.9314H47.0919V31.0965H52.257V25.9314Z" fill="currentColor"/>
    <path d="M57.422 25.9314H52.2569V31.0965H57.422V25.9314Z" fill="currentColor"/>
    <path d="M83.2476 31.0967V25.9316H80.6651C79.9801 25.9316 79.3233 26.2037 78.8389 26.688C78.3546 27.1723 78.0825 27.8292 78.0825 28.5141C78.0825 29.1991 78.3546 29.8559 78.8389 30.3403C79.3233 30.8246 79.9801 31.0967 80.6651 31.0967"
          fill="currentColor"/>
    <path d="M88.4127 25.9314H83.2476V31.0965H88.4127V25.9314Z" fill="currentColor"/>
    <path d="M98.7429 25.9314H93.5778V31.0965H98.7429V25.9314Z" fill="currentColor"/>
    <path d="M103.908 25.9314H98.7428V31.0965H103.908V25.9314Z" fill="currentColor"/>
    <path d="M109.073 25.9314H103.908V31.0965H109.073V25.9314Z" fill="currentColor"/>
    <path d="M47.0919 31.0967H41.9268V33.6792C41.9268 34.3642 42.1989 35.021 42.6832 35.5054C43.1676 35.9897 43.8244 36.2618 44.5094 36.2618C45.1943 36.2618 45.8512 35.9897 46.3355 35.5054C46.8198 35.021 47.0919 34.3642 47.0919 33.6792"
          fill="currentColor"/>
    <path d="M57.422 31.0967H52.2569V36.2618H57.422V31.0967Z" fill="currentColor"/>
    <path d="M65.1697 36.2618C66.596 36.2618 67.7523 35.1055 67.7523 33.6792C67.7523 32.2529 66.596 31.0967 65.1697 31.0967C63.7434 31.0967 62.5872 32.2529 62.5872 33.6792C62.5872 35.1055 63.7434 36.2618 65.1697 36.2618Z"
          fill="currentColor"/>
    <path d="M72.9174 36.2617H78.0825V33.6791C78.0825 32.9942 77.8104 32.3373 77.326 31.853C76.8417 31.3687 76.1848 31.0966 75.4999 31.0966C74.815 31.0966 74.1581 31.3687 73.6738 31.853C73.1894 32.3373 72.9174 32.9942 72.9174 33.6791"
          fill="currentColor"/>
    <path d="M88.4127 31.0967H83.2476V36.2618H88.4127V31.0967Z" fill="currentColor"/>
    <path d="M98.7429 31.0967H93.5778V36.2618H98.7429V31.0967Z" fill="currentColor"/>
    <path d="M109.073 31.0967H103.908V33.6792C103.908 34.3642 104.18 35.021 104.664 35.5054C105.149 35.9897 105.806 36.2618 106.491 36.2618C107.176 36.2618 107.832 35.9897 108.317 35.5054C108.801 35.021 109.073 34.3642 109.073 33.6792"
          fill="currentColor"/>
    <path d="M52.2569 41.4267V36.2616H49.6743C48.9894 36.2616 48.3325 36.5336 47.8482 37.018C47.3639 37.5023 47.0918 38.1592 47.0918 38.8441C47.0918 39.529 47.3639 40.1859 47.8482 40.6702C48.3325 41.1546 48.9894 41.4267 49.6743 41.4267"
          fill="currentColor"/>
    <path d="M57.422 36.2617H52.2569V41.4268H57.422V36.2617Z" fill="currentColor"/>
    <path d="M57.4222 36.2617V41.4268H60.0047C60.6897 41.4268 61.3465 41.1547 61.8309 40.6704C62.3152 40.186 62.5873 39.5292 62.5873 38.8442C62.5873 38.1593 62.3152 37.5024 61.8309 37.0181C61.3465 36.5338 60.6897 36.2617 60.0047 36.2617"
          fill="currentColor"/>
    <path d="M78.0825 36.2617H72.9174V38.8442C72.9174 39.5292 73.1895 40.186 73.6738 40.6704C74.1582 41.1547 74.815 41.4268 75.5 41.4268C76.1849 41.4268 76.8418 41.1547 77.3261 40.6704C77.8104 40.186 78.0825 39.5292 78.0825 38.8442"
          fill="currentColor"/>
    <path d="M88.4126 41.4267V36.2616H83.2475V38.8441C83.2475 39.529 83.5196 40.1859 84.0039 40.6702C84.4882 41.1546 85.1451 41.4267 85.83 41.4267"
          fill="currentColor"/>
    <path d="M93.5777 36.2617H88.4126V41.4268H93.5777V36.2617Z" fill="currentColor"/>
    <path d="M98.7429 36.2617H93.5778V41.4268H98.7429V36.2617Z" fill="currentColor"/>
    <path d="M8.35349 46.5918C9.77979 46.5918 10.936 45.4355 10.936 44.0092C10.936 42.5829 9.77979 41.4267 8.35349 41.4267C6.92718 41.4267 5.77094 42.5829 5.77094 44.0092C5.77094 45.4355 6.92718 46.5918 8.35349 46.5918Z"
          fill="currentColor"/>
    <path d="M21.2664 46.5919H26.4315V44.0094C26.4315 43.3244 26.1594 42.6676 25.6751 42.1832C25.1908 41.6989 24.5339 41.4268 23.849 41.4268C23.164 41.4268 22.5072 41.6989 22.0228 42.1832C21.5385 42.6676 21.2664 43.3244 21.2664 44.0094"
          fill="currentColor"/>
    <path d="M34.1792 46.5918C35.6055 46.5918 36.7618 45.4355 36.7618 44.0092C36.7618 42.5829 35.6055 41.4267 34.1792 41.4267C32.7529 41.4267 31.5967 42.5829 31.5967 44.0092C31.5967 45.4355 32.7529 46.5918 34.1792 46.5918Z"
          fill="currentColor"/>
    <path d="M44.5092 46.5918C45.9355 46.5918 47.0917 45.4355 47.0917 44.0092C47.0917 42.5829 45.9355 41.4267 44.5092 41.4267C43.0829 41.4267 41.9266 42.5829 41.9266 44.0092C41.9266 45.4355 43.0829 46.5918 44.5092 46.5918Z"
          fill="currentColor"/>
    <path d="M98.7428 46.5919V41.4268H93.5777V44.0094C93.5777 44.6943 93.8498 45.3512 94.3341 45.8355C94.8184 46.3198 95.4753 46.5919 96.1602 46.5919"
          fill="currentColor"/>
    <path d="M98.7428 41.4267V46.5918H103.908V44.0092C103.908 43.3243 103.636 42.6674 103.151 42.1831C102.667 41.6987 102.01 41.4267 101.325 41.4267"
          fill="currentColor"/>
    <path d="M111.656 46.5918C113.082 46.5918 114.238 45.4355 114.238 44.0092C114.238 42.5829 113.082 41.4267 111.656 41.4267C110.229 41.4267 109.073 42.5829 109.073 44.0092C109.073 45.4355 110.229 46.5918 111.656 46.5918Z"
          fill="currentColor"/>
    <path d="M124.568 46.5919V41.4268H121.986C121.301 41.4268 120.644 41.6989 120.16 42.1832C119.675 42.6676 119.403 43.3244 119.403 44.0094C119.403 44.6943 119.675 45.3512 120.16 45.8355C120.644 46.3198 121.301 46.5919 121.986 46.5919"
          fill="currentColor"/>
    <path d="M124.568 41.4267V46.5918H129.733V44.0092C129.733 43.3243 129.461 42.6674 128.977 42.1831C128.493 41.6987 127.836 41.4267 127.151 41.4267"
          fill="currentColor"/>
    <path d="M134.899 46.5919H140.064V44.0094C140.064 43.3244 139.792 42.6676 139.307 42.1832C138.823 41.6989 138.166 41.4268 137.481 41.4268C136.796 41.4268 136.139 41.6989 135.655 42.1832C135.171 42.6676 134.899 43.3244 134.899 44.0094"
          fill="currentColor"/>
    <path d="M3.18851 51.757C4.61481 51.757 5.77106 50.6008 5.77106 49.1745C5.77106 47.7482 4.61481 46.5919 3.18851 46.5919C1.7622 46.5919 0.605957 47.7482 0.605957 49.1745C0.605957 50.6008 1.7622 51.757 3.18851 51.757Z"
          fill="currentColor"/>
    <path d="M16.1012 51.7569V46.5918H13.5186C12.8337 46.5918 12.1768 46.8639 11.6925 47.3482C11.2082 47.8325 10.9361 48.4894 10.9361 49.1743C10.9361 49.8593 11.2082 50.5162 11.6925 51.0005C12.1768 51.4848 12.8337 51.7569 13.5186 51.7569"
          fill="currentColor"/>
    <path d="M21.2663 46.5919H16.1012V51.757H21.2663V46.5919Z" fill="currentColor"/>
    <path d="M26.4315 46.5919H21.2664V51.757H26.4315V46.5919Z" fill="currentColor"/>
    <path d="M49.6745 51.757C51.1008 51.757 52.257 50.6008 52.257 49.1745C52.257 47.7482 51.1008 46.5919 49.6745 46.5919C48.2482 46.5919 47.0919 47.7482 47.0919 49.1745C47.0919 50.6008 48.2482 51.757 49.6745 51.757Z"
          fill="currentColor"/>
    <path d="M62.5872 51.7569V46.5918H60.0046C59.3197 46.5918 58.6628 46.8639 58.1785 47.3482C57.6941 47.8325 57.4221 48.4894 57.4221 49.1743C57.4221 49.8593 57.6941 50.5162 58.1785 51.0005C58.6628 51.4848 59.3197 51.7569 60.0046 51.7569"
          fill="currentColor"/>
    <path d="M67.7523 46.5919H62.5872V51.757H67.7523V46.5919Z" fill="currentColor"/>
    <path d="M67.7523 46.5919V51.757H70.3348C71.0197 51.757 71.6766 51.4849 72.1609 51.0006C72.6453 50.5163 72.9174 49.8594 72.9174 49.1745C72.9174 48.4895 72.6453 47.8327 72.1609 47.3483C71.6766 46.864 71.0197 46.5919 70.3348 46.5919"
          fill="currentColor"/>
    <path d="M90.9951 51.757C92.4215 51.757 93.5777 50.6008 93.5777 49.1745C93.5777 47.7482 92.4215 46.5919 90.9951 46.5919C89.5688 46.5919 88.4126 47.7482 88.4126 49.1745C88.4126 50.6008 89.5688 51.757 90.9951 51.757Z"
          fill="currentColor"/>
    <path d="M103.908 51.7569V46.5918H98.7429V49.1743C98.7429 49.8593 99.015 50.5162 99.4993 51.0005C99.9836 51.4848 100.64 51.7569 101.325 51.7569"
          fill="currentColor"/>
    <path d="M103.908 46.5919V51.757H109.073V49.1745C109.073 48.4895 108.801 47.8327 108.317 47.3483C107.832 46.864 107.175 46.5919 106.491 46.5919"
          fill="currentColor"/>
    <path d="M129.733 46.5919H124.568V51.757H129.733V46.5919Z" fill="currentColor"/>
    <path d="M134.898 46.5919H129.733V51.757H134.898V46.5919Z" fill="currentColor"/>
    <path d="M140.064 46.5919H134.899V51.757H140.064V46.5919Z" fill="currentColor"/>
    <path d="M145.229 51.7569H150.394V49.1743C150.394 48.4894 150.122 47.8325 149.637 47.3482C149.153 46.8639 148.496 46.5918 147.811 46.5918C147.126 46.5918 146.469 46.8639 145.985 47.3482C145.501 47.8325 145.229 48.4894 145.229 49.1743"
          fill="currentColor"/>
    <path d="M5.77094 56.9221H10.936V54.3396C10.936 53.6547 10.6639 52.9978 10.1796 52.5135C9.6953 52.0291 9.03842 51.757 8.35349 51.757C7.66855 51.757 7.01167 52.0291 6.52734 52.5135C6.04302 52.9978 5.77094 53.6547 5.77094 54.3396"
          fill="currentColor"/>
    <path d="M26.4314 56.9221V51.757H21.2663V54.3396C21.2663 55.0245 21.5384 55.6814 22.0227 56.1657C22.507 56.6501 23.1639 56.9221 23.8488 56.9221"
          fill="currentColor"/>
    <path d="M31.5965 51.7569H26.4314V56.922H31.5965V51.7569Z" fill="currentColor"/>
    <path d="M36.7618 51.7569H31.5967V56.922H36.7618V51.7569Z" fill="currentColor"/>
    <path d="M36.7617 51.7569V56.922H41.9268V54.3394C41.9268 53.6545 41.6547 52.9976 41.1703 52.5133C40.686 52.029 40.0291 51.7569 39.3442 51.7569"
          fill="currentColor"/>
    <path d="M109.073 51.7569H103.908V54.3394C103.908 55.0244 104.18 55.6813 104.664 56.1656C105.149 56.6499 105.806 56.922 106.491 56.922C107.176 56.922 107.832 56.6499 108.317 56.1656C108.801 55.6813 109.073 55.0244 109.073 54.3394"
          fill="currentColor"/>
    <path d="M116.821 56.922C118.247 56.922 119.403 55.7658 119.403 54.3394C119.403 52.9131 118.247 51.7569 116.821 51.7569C115.394 51.7569 114.238 52.9131 114.238 54.3394C114.238 55.7658 115.394 56.922 116.821 56.922Z"
          fill="currentColor"/>
    <path d="M129.733 56.9221V51.757H124.568V54.3396C124.568 55.0245 124.84 55.6814 125.325 56.1657C125.809 56.6501 126.466 56.9221 127.151 56.9221"
          fill="currentColor"/>
    <path d="M134.898 51.7569H129.733V56.922H134.898V51.7569Z" fill="currentColor"/>
    <path d="M140.064 51.7569H134.899V56.922H137.481C138.166 56.922 138.823 56.6499 139.307 56.1656C139.792 55.6813 140.064 55.0244 140.064 54.3394"
          fill="currentColor"/>
    <path d="M150.394 51.7569H145.229V56.922H150.394V51.7569Z" fill="currentColor"/>
    <path d="M10.936 56.9221H5.77094V62.0872H10.936V56.9221Z" fill="currentColor"/>
    <path d="M41.9268 56.9221H36.7617V62.0872H41.9268V56.9221Z" fill="currentColor"/>
    <path d="M41.9266 56.9221V62.0872H47.0917V59.5047C47.0917 58.8198 46.8196 58.1629 46.3353 57.6786C45.851 57.1942 45.1941 56.9221 44.5092 56.9221"
          fill="currentColor"/>
    <path d="M140.064 62.0871H145.229V56.922H142.646C141.961 56.922 141.304 57.1941 140.82 57.6785C140.336 58.1628 140.064 58.8197 140.064 59.5046"
          fill="currentColor"/>
    <path d="M150.394 56.9221H145.229V62.0872H147.811C148.496 62.0872 149.153 61.8152 149.637 61.3308C150.122 60.8465 150.394 60.1896 150.394 59.5047"
          fill="currentColor"/>
    <path d="M0.605957 67.2521H5.77106V62.087H3.18851C2.50357 62.087 1.84669 62.3591 1.36237 62.8434C0.878044 63.3278 0.605957 63.9846 0.605957 64.6696"
          fill="currentColor"/>
    <path d="M10.936 62.0871H5.77094V67.2522H10.936V62.0871Z" fill="currentColor"/>
    <path d="M18.6837 67.2522C20.11 67.2522 21.2663 66.096 21.2663 64.6697C21.2663 63.2434 20.11 62.0871 18.6837 62.0871C17.2574 62.0871 16.1012 63.2434 16.1012 64.6697C16.1012 66.096 17.2574 67.2522 18.6837 67.2522Z"
          fill="currentColor"/>
    <path d="M26.4314 67.2521H31.5965V62.087H29.0139C28.329 62.087 27.6721 62.3591 27.1878 62.8434C26.7035 63.3278 26.4314 63.9846 26.4314 64.6696"
          fill="currentColor"/>
    <path d="M36.7618 62.0871H31.5967V67.2522H36.7618V62.0871Z" fill="currentColor"/>
    <path d="M41.9268 62.0871H36.7617V67.2522H41.9268V62.0871Z" fill="currentColor"/>
    <path d="M47.0917 62.0871H41.9266V67.2522H47.0917V62.0871Z" fill="currentColor"/>
    <path d="M47.0919 62.0871V67.2522H49.6745C50.3594 67.2522 51.0163 66.9802 51.5006 66.4958C51.9849 66.0115 52.257 65.3546 52.257 64.6697C52.257 63.9848 51.9849 63.3279 51.5006 62.8436C51.0163 62.3592 50.3594 62.0871 49.6745 62.0871"
          fill="currentColor"/>
    <path d="M101.325 67.2522C102.752 67.2522 103.908 66.096 103.908 64.6697C103.908 63.2434 102.752 62.0871 101.325 62.0871C99.899 62.0871 98.7428 63.2434 98.7428 64.6697C98.7428 66.096 99.899 67.2522 101.325 67.2522Z"
          fill="currentColor"/>
    <path d="M121.986 67.2522C123.412 67.2522 124.568 66.096 124.568 64.6697C124.568 63.2434 123.412 62.0871 121.986 62.0871C120.56 62.0871 119.403 63.2434 119.403 64.6697C119.403 66.096 120.56 67.2522 121.986 67.2522Z"
          fill="currentColor"/>
    <path d="M145.229 62.0871H140.064V67.2522H145.229V62.0871Z" fill="currentColor"/>
    <path d="M5.77106 67.2521H0.605957V72.4172H5.77106V67.2521Z" fill="currentColor"/>
    <path d="M10.936 67.2521H5.77094V72.4172H10.936V67.2521Z" fill="currentColor"/>
    <path d="M10.9362 67.2521V72.4172H13.5188C14.2037 72.4172 14.8606 72.1451 15.3449 71.6608C15.8292 71.1765 16.1013 70.5196 16.1013 69.8347C16.1013 69.1497 15.8292 68.4929 15.3449 68.0085C14.8606 67.5242 14.2037 67.2521 13.5188 67.2521"
          fill="currentColor"/>
    <path d="M31.5967 67.2521H26.4316V69.8347C26.4316 70.5196 26.7037 71.1765 27.188 71.6608C27.6723 72.1451 28.3292 72.4172 29.0141 72.4172C29.6991 72.4172 30.3559 72.1451 30.8403 71.6608C31.3246 71.1765 31.5967 70.5196 31.5967 69.8347"
          fill="currentColor"/>
    <path d="M41.9268 67.2521H36.7617V72.4172H41.9268V67.2521Z" fill="currentColor"/>
    <path d="M47.0919 67.2521H41.9268V72.4172H44.5094C45.1943 72.4172 45.8512 72.1451 46.3355 71.6608C46.8198 71.1765 47.0919 70.5196 47.0919 69.8347"
          fill="currentColor"/>
    <path d="M103.908 72.4174H109.073V69.8348C109.073 69.1499 108.801 68.493 108.317 68.0087C107.832 67.5244 107.175 67.2523 106.491 67.2523C105.806 67.2523 105.149 67.5244 104.664 68.0087C104.18 68.493 103.908 69.1499 103.908 69.8348"
          fill="currentColor"/>
    <path d="M116.821 72.4172C118.247 72.4172 119.403 71.261 119.403 69.8347C119.403 68.4084 118.247 67.2521 116.821 67.2521C115.394 67.2521 114.238 68.4084 114.238 69.8347C114.238 71.261 115.394 72.4172 116.821 72.4172Z"
          fill="currentColor"/>
    <path d="M124.568 72.4174H129.733V69.8348C129.733 69.1499 129.461 68.493 128.977 68.0087C128.493 67.5244 127.836 67.2523 127.151 67.2523C126.466 67.2523 125.809 67.5244 125.325 68.0087C124.84 68.493 124.568 69.1499 124.568 69.8348"
          fill="currentColor"/>
    <path d="M140.064 72.4174V67.2523H137.481C136.796 67.2523 136.139 67.5244 135.655 68.0087C135.171 68.493 134.899 69.1499 134.899 69.8348C134.899 70.5198 135.171 71.1767 135.655 71.661C136.139 72.1453 136.796 72.4174 137.481 72.4174"
          fill="currentColor"/>
    <path d="M145.229 67.2521H140.064V72.4172H145.229V67.2521Z" fill="currentColor"/>
    <path d="M145.229 67.2521V72.4172H150.394V69.8347C150.394 69.1497 150.122 68.4929 149.637 68.0085C149.153 67.5242 148.496 67.2521 147.811 67.2521"
          fill="currentColor"/>
    <path d="M5.77094 72.4174H0.605835V74.9999C0.605835 75.6849 0.877922 76.3418 1.36224 76.8261C1.84657 77.3104 2.50345 77.5825 3.18839 77.5825C3.87332 77.5825 4.5302 77.3104 5.01453 76.8261C5.49885 76.3418 5.77094 75.6849 5.77094 74.9999"
          fill="currentColor"/>
    <path d="M18.6837 77.5825C20.11 77.5825 21.2663 76.4262 21.2663 74.9999C21.2663 73.5736 20.11 72.4174 18.6837 72.4174C17.2574 72.4174 16.1012 73.5736 16.1012 74.9999C16.1012 76.4262 17.2574 77.5825 18.6837 77.5825Z"
          fill="currentColor"/>
    <path d="M36.7617 77.5824V72.4173H34.1791C33.4942 72.4173 32.8373 72.6894 32.353 73.1737C31.8686 73.658 31.5966 74.3149 31.5966 74.9998C31.5966 75.6848 31.8686 76.3416 32.353 76.826C32.8373 77.3103 33.4942 77.5824 34.1791 77.5824"
          fill="currentColor"/>
    <path d="M41.9268 72.4174H36.7617V77.5825H41.9268V72.4174Z" fill="currentColor"/>
    <path d="M109.073 72.4174H103.908V74.9999C103.908 75.6849 104.18 76.3418 104.664 76.8261C105.149 77.3104 105.806 77.5825 106.491 77.5825C107.176 77.5825 107.832 77.3104 108.317 76.8261C108.801 76.3418 109.073 75.6849 109.073 74.9999"
          fill="currentColor"/>
    <path d="M129.733 72.4174H124.568V77.5825H129.733V72.4174Z" fill="currentColor"/>
    <path d="M129.733 72.4174V77.5825H134.898V74.9999C134.898 74.315 134.626 73.6581 134.142 73.1738C133.658 72.6895 133.001 72.4174 132.316 72.4174"
          fill="currentColor"/>
    <path d="M145.229 77.5824V72.4173H140.064V74.9998C140.064 75.6848 140.336 76.3416 140.82 76.826C141.304 77.3103 141.961 77.5824 142.646 77.5824"
          fill="currentColor"/>
    <path d="M150.394 72.4174H145.229V77.5825H150.394V72.4174Z" fill="currentColor"/>
    <path d="M5.77094 82.7476H10.936V80.1651C10.936 79.4801 10.6639 78.8233 10.1796 78.3389C9.6953 77.8546 9.03842 77.5825 8.35349 77.5825C7.66855 77.5825 7.01167 77.8546 6.52734 78.3389C6.04302 78.8233 5.77094 79.4801 5.77094 80.1651"
          fill="currentColor"/>
    <path d="M21.2664 82.7476H26.4315V80.1651C26.4315 79.4801 26.1594 78.8233 25.6751 78.3389C25.1908 77.8546 24.5339 77.5825 23.849 77.5825C23.164 77.5825 22.5072 77.8546 22.0228 78.3389C21.5385 78.8233 21.2664 79.4801 21.2664 80.1651"
          fill="currentColor"/>
    <path d="M41.9266 82.7476V77.5825H36.7615V80.1651C36.7615 80.85 37.0336 81.5069 37.5179 81.9912C38.0023 82.4755 38.6592 82.7476 39.3441 82.7476"
          fill="currentColor"/>
    <path d="M41.9266 77.5824V82.7475H47.0917V80.1649C47.0917 79.48 46.8196 78.8231 46.3353 78.3388C45.851 77.8545 45.1941 77.5824 44.5092 77.5824"
          fill="currentColor"/>
    <path d="M109.073 82.7476H114.238V80.1651C114.238 79.4801 113.966 78.8233 113.482 78.3389C112.997 77.8546 112.341 77.5825 111.656 77.5825C110.971 77.5825 110.314 77.8546 109.83 78.3389C109.345 78.8233 109.073 79.4801 109.073 80.1651"
          fill="currentColor"/>
    <path d="M119.403 82.7476H124.568V77.5825H121.986C121.301 77.5825 120.644 77.8546 120.16 78.3389C119.675 78.8233 119.403 79.4801 119.403 80.1651"
          fill="currentColor"/>
    <path d="M129.733 77.5824H124.568V82.7475H129.733V77.5824Z" fill="currentColor"/>
    <path d="M134.898 77.5824H129.733V82.7475H134.898V77.5824Z" fill="currentColor"/>
    <path d="M150.394 77.5824H145.229V82.7475H150.394V77.5824Z" fill="currentColor"/>
    <path d="M10.936 82.7476H5.77094V87.9127H10.936V82.7476Z" fill="currentColor"/>
    <path d="M16.1013 82.7476H10.9362V87.9127H16.1013V82.7476Z" fill="currentColor"/>
    <path d="M21.2663 82.7476H16.1012V87.9127H21.2663V82.7476Z" fill="currentColor"/>
    <path d="M26.4314 82.7476H21.2663V87.9127H23.8488C24.5338 87.9127 25.1907 87.6406 25.675 87.1563C26.1593 86.672 26.4314 86.0151 26.4314 85.3302"
          fill="currentColor"/>
    <path d="M34.1792 87.9127C35.6055 87.9127 36.7618 86.7565 36.7618 85.3302C36.7618 83.9039 35.6055 82.7476 34.1792 82.7476C32.7529 82.7476 31.5967 83.9039 31.5967 85.3302C31.5967 86.7565 32.7529 87.9127 34.1792 87.9127Z"
          fill="currentColor"/>
    <path d="M47.0919 82.7476H41.9268V85.3302C41.9268 86.0151 42.1989 86.672 42.6832 87.1563C43.1676 87.6406 43.8244 87.9127 44.5094 87.9127C45.1943 87.9127 45.8512 87.6406 46.3355 87.1563C46.8198 86.672 47.0919 86.0151 47.0919 85.3302"
          fill="currentColor"/>
    <path d="M109.073 87.9126V82.7475H106.491C105.806 82.7475 105.149 83.0196 104.664 83.5039C104.18 83.9882 103.908 84.6451 103.908 85.33C103.908 86.015 104.18 86.6719 104.664 87.1562C105.149 87.6405 105.806 87.9126 106.491 87.9126"
          fill="currentColor"/>
    <path d="M114.238 82.7476H109.073V87.9127H114.238V82.7476Z" fill="currentColor"/>
    <path d="M119.403 82.7476H114.238V87.9127H119.403V82.7476Z" fill="currentColor"/>
    <path d="M124.568 82.7476H119.403V87.9127H121.986C122.671 87.9127 123.328 87.6406 123.812 87.1563C124.296 86.672 124.568 86.0151 124.568 85.3302"
          fill="currentColor"/>
    <path d="M134.899 82.7476H129.733V85.3302C129.733 86.0151 130.006 86.672 130.49 87.1563C130.974 87.6406 131.631 87.9127 132.316 87.9127C133.001 87.9127 133.658 87.6406 134.142 87.1563C134.626 86.672 134.899 86.0151 134.899 85.3302"
          fill="currentColor"/>
    <path d="M140.064 87.9126H145.229V82.7475H142.646C141.961 82.7475 141.304 83.0196 140.82 83.5039C140.336 83.9882 140.064 84.6451 140.064 85.33"
          fill="currentColor"/>
    <path d="M150.394 82.7476H145.229V87.9127H150.394V82.7476Z" fill="currentColor"/>
    <path d="M5.77094 93.0779L5.77094 87.9128H3.18839C2.50345 87.9128 1.84657 88.1849 1.36225 88.6692C0.877923 89.1535 0.605835 89.8104 0.605835 90.4953C0.605835 91.1803 0.877923 91.8371 1.36225 92.3215C1.84657 92.8058 2.50345 93.0779 3.18839 93.0779"
          fill="currentColor"/>
    <path d="M10.9362 87.9126H5.77112V93.0777H8.35367C9.0386 93.0777 9.69548 92.8056 10.1798 92.3213C10.6641 91.837 10.9362 91.1801 10.9362 90.4951"
          fill="currentColor"/>
    <path d="M21.2664 87.9126H16.1013V90.4951C16.1013 91.1801 16.3734 91.837 16.8577 92.3213C17.3421 92.8056 17.9989 93.0777 18.6839 93.0777C19.3688 93.0777 20.0257 92.8056 20.51 92.3213C20.9943 91.837 21.2664 91.1801 21.2664 90.4951"
          fill="currentColor"/>
    <path d="M29.0139 93.0777C30.4402 93.0777 31.5965 91.9215 31.5965 90.4951C31.5965 89.0688 30.4402 87.9126 29.0139 87.9126C27.5876 87.9126 26.4314 89.0688 26.4314 90.4951C26.4314 91.9215 27.5876 93.0777 29.0139 93.0777Z"
          fill="currentColor"/>
    <path d="M98.7428 93.0779H103.908V90.4953C103.908 89.8104 103.636 89.1535 103.151 88.6692C102.667 88.1849 102.01 87.9128 101.325 87.9128C100.64 87.9128 99.9835 88.1849 99.4992 88.6692C99.0149 89.1535 98.7428 89.8104 98.7428 90.4953"
          fill="currentColor"/>
    <path d="M124.568 93.0779H129.733V90.4953C129.733 89.8104 129.461 89.1535 128.977 88.6692C128.493 88.1849 127.836 87.9128 127.151 87.9128C126.466 87.9128 125.809 88.1849 125.325 88.6692C124.84 89.1535 124.568 89.8104 124.568 90.4953"
          fill="currentColor"/>
    <path d="M140.064 93.0779V87.9128H137.481C136.796 87.9128 136.139 88.1849 135.655 88.6692C135.171 89.1535 134.899 89.8104 134.899 90.4953C134.899 91.1803 135.171 91.8371 135.655 92.3215C136.139 92.8058 136.796 93.0779 137.481 93.0779"
          fill="currentColor"/>
    <path d="M145.229 87.9126H140.064V93.0777H145.229V87.9126Z" fill="currentColor"/>
    <path d="M150.394 87.9126H145.229V93.0777H150.394V87.9126Z" fill="currentColor"/>
    <path d="M34.1792 98.243C35.6055 98.243 36.7618 97.0867 36.7618 95.6604C36.7618 94.2341 35.6055 93.0779 34.1792 93.0779C32.7529 93.0779 31.5967 94.2341 31.5967 95.6604C31.5967 97.0867 32.7529 98.243 34.1792 98.243Z"
          fill="currentColor"/>
    <path d="M47.0919 98.2429V93.0778H44.5094C43.8244 93.0778 43.1676 93.3499 42.6832 93.8342C42.1989 94.3185 41.9268 94.9754 41.9268 95.6603C41.9268 96.3452 42.1989 97.0021 42.6832 97.4864C43.1676 97.9708 43.8244 98.2429 44.5094 98.2429"
          fill="currentColor"/>
    <path d="M47.0919 93.0779V98.243H52.257V95.6604C52.257 94.9755 51.9849 94.3186 51.5006 93.8343C51.0163 93.35 50.3594 93.0779 49.6745 93.0779"
          fill="currentColor"/>
    <path d="M103.908 93.0779H98.7428V98.243H103.908V93.0779Z" fill="currentColor"/>
    <path d="M109.073 98.2429H114.238V93.0778H111.656C110.971 93.0778 110.314 93.3499 109.83 93.8342C109.345 94.3185 109.073 94.9754 109.073 95.6603"
          fill="currentColor"/>
    <path d="M119.403 93.0779H114.238V98.243H119.403V93.0779Z" fill="currentColor"/>
    <path d="M124.568 93.0779H119.403V98.243H124.568V93.0779Z" fill="currentColor"/>
    <path d="M129.733 93.0779H124.568V98.243H127.151C127.836 98.243 128.493 97.9709 128.977 97.4866C129.461 97.0022 129.733 96.3454 129.733 95.6604"
          fill="currentColor"/>
    <path d="M150.394 93.0779H145.229V95.6604C145.229 96.3454 145.501 97.0022 145.985 97.4866C146.469 97.9709 147.126 98.243 147.811 98.243C148.496 98.243 149.153 97.9709 149.637 97.4866C150.122 97.0022 150.394 96.3454 150.394 95.6604"
          fill="currentColor"/>
    <path d="M13.5188 103.408C14.9451 103.408 16.1013 102.252 16.1013 100.825C16.1013 99.3991 14.9451 98.2429 13.5188 98.2429C12.0925 98.2429 10.9362 99.3991 10.9362 100.825C10.9362 102.252 12.0925 103.408 13.5188 103.408Z"
          fill="currentColor"/>
    <path d="M21.2664 103.408H26.4315V98.243H23.849C23.164 98.243 22.5072 98.5151 22.0228 98.9994C21.5385 99.4837 21.2664 100.141 21.2664 100.826"
          fill="currentColor"/>
    <path d="M26.4314 98.2429V103.408H29.0139C29.6989 103.408 30.3558 103.136 30.8401 102.652C31.3244 102.167 31.5965 101.51 31.5965 100.825C31.5965 100.14 31.3244 99.4836 30.8401 98.9993C30.3558 98.515 29.6989 98.2429 29.0139 98.2429"
          fill="currentColor"/>
    <path d="M52.257 98.2429H47.0919V103.408H52.257V98.2429Z" fill="currentColor"/>
    <path d="M57.422 98.2429H52.2569V103.408H57.422V98.2429Z" fill="currentColor"/>
    <path d="M62.5873 98.2429H57.4222V103.408H62.5873V98.2429Z" fill="currentColor"/>
    <path d="M62.5872 98.2429V103.408H65.1697C65.8546 103.408 66.5115 103.136 66.9958 102.652C67.4802 102.167 67.7523 101.51 67.7523 100.825C67.7523 100.14 67.4802 99.4836 66.9958 98.9993C66.5115 98.515 65.8546 98.2429 65.1697 98.2429"
          fill="currentColor"/>
    <path d="M78.0825 103.408V98.243H75.5C74.815 98.243 74.1582 98.5151 73.6738 98.9994C73.1895 99.4837 72.9174 100.141 72.9174 100.826C72.9174 101.51 73.1895 102.167 73.6738 102.652C74.1582 103.136 74.815 103.408 75.5 103.408"
          fill="currentColor"/>
    <path d="M83.2476 98.2429H78.0825V103.408H83.2476V98.2429Z" fill="currentColor"/>
    <path d="M88.4127 98.2429H83.2476V103.408H88.4127V98.2429Z" fill="currentColor"/>
    <path d="M88.4126 98.2429V103.408H93.5777V100.825C93.5777 100.14 93.3056 99.4836 92.8213 98.9993C92.337 98.515 91.6801 98.2429 90.9951 98.2429"
          fill="currentColor"/>
    <path d="M103.908 103.408V98.243H98.7429V100.826C98.7429 101.51 99.015 102.167 99.4993 102.652C99.9836 103.136 100.64 103.408 101.325 103.408"
          fill="currentColor"/>
    <path d="M109.073 98.2429H103.908V103.408H109.073V98.2429Z" fill="currentColor"/>
    <path d="M114.238 98.2429H109.073V103.408H114.238V98.2429Z" fill="currentColor"/>
    <path d="M119.403 98.2429H114.238V103.408H119.403V98.2429Z" fill="currentColor"/>
    <path d="M140.064 103.408H145.229V100.826C145.229 100.141 144.957 99.4837 144.472 98.9994C143.988 98.5151 143.331 98.243 142.646 98.243C141.961 98.243 141.304 98.5151 140.82 98.9994C140.336 99.4837 140.064 100.141 140.064 100.826"
          fill="currentColor"/>
    <path d="M5.77094 108.573L5.77094 103.408H3.18839C2.50345 103.408 1.84657 103.68 1.36225 104.164C0.877923 104.649 0.605835 105.306 0.605835 105.991C0.605835 106.675 0.877923 107.332 1.36225 107.817C1.84657 108.301 2.50345 108.573 3.18839 108.573"
          fill="currentColor"/>
    <path d="M5.77094 103.408V108.573H8.35349C9.03842 108.573 9.6953 108.301 10.1796 107.817C10.6639 107.332 10.936 106.676 10.936 105.991C10.936 105.306 10.6639 104.649 10.1796 104.165C9.6953 103.68 9.03842 103.408 8.35349 103.408"
          fill="currentColor"/>
    <path d="M21.2664 108.573V103.408H18.6839C17.9989 103.408 17.3421 103.68 16.8577 104.164C16.3734 104.649 16.1013 105.306 16.1013 105.991C16.1013 106.675 16.3734 107.332 16.8577 107.817C17.3421 108.301 17.9989 108.573 18.6839 108.573"
          fill="currentColor"/>
    <path d="M26.4314 103.408H21.2663V108.573H23.8488C24.5338 108.573 25.1907 108.301 25.675 107.817C26.1593 107.332 26.4314 106.676 26.4314 105.991"
          fill="currentColor"/>
    <path d="M36.7617 108.573V103.408H34.1791C33.4942 103.408 32.8373 103.68 32.353 104.164C31.8686 104.649 31.5966 105.306 31.5966 105.991C31.5966 106.675 31.8686 107.332 32.353 107.817C32.8373 108.301 33.4942 108.573 34.1791 108.573"
          fill="currentColor"/>
    <path d="M36.7617 103.408V108.573H39.3442C40.0291 108.573 40.686 108.301 41.1703 107.817C41.6547 107.332 41.9268 106.676 41.9268 105.991C41.9268 105.306 41.6547 104.649 41.1703 104.165C40.686 103.68 40.0291 103.408 39.3442 103.408"
          fill="currentColor"/>
    <path d="M52.257 103.408H47.0919V108.573H52.257V103.408Z" fill="currentColor"/>
    <path d="M57.422 103.408H52.2569V108.573H57.422V103.408Z" fill="currentColor"/>
    <path d="M70.3348 108.573C71.7611 108.573 72.9174 107.417 72.9174 105.991C72.9174 104.564 71.7611 103.408 70.3348 103.408C68.9085 103.408 67.7523 104.564 67.7523 105.991C67.7523 107.417 68.9085 108.573 70.3348 108.573Z"
          fill="currentColor"/>
    <path d="M88.4126 108.573V103.408H83.2475V105.991C83.2475 106.675 83.5196 107.332 84.0039 107.817C84.4882 108.301 85.1451 108.573 85.83 108.573"
          fill="currentColor"/>
    <path d="M93.5777 103.408H88.4126V108.573H93.5777V103.408Z" fill="currentColor"/>
    <path d="M93.5778 103.408V108.573H96.1603C96.8452 108.573 97.5021 108.301 97.9864 107.817C98.4708 107.332 98.7429 106.676 98.7429 105.991C98.7429 105.306 98.4708 104.649 97.9864 104.165C97.5021 103.68 96.8452 103.408 96.1603 103.408"
          fill="currentColor"/>
    <path d="M109.073 103.408H103.908V108.573H109.073V103.408Z" fill="currentColor"/>
    <path d="M114.238 103.408H109.073V108.573H114.238V103.408Z" fill="currentColor"/>
    <path d="M119.403 103.408H114.238V108.573H119.403V103.408Z" fill="currentColor"/>
    <path d="M124.568 103.408H119.403V108.573H124.568V103.408Z" fill="currentColor"/>
    <path d="M129.733 103.408H124.568V108.573H129.733V103.408Z" fill="currentColor"/>
    <path d="M129.733 103.408V108.573H132.316C133.001 108.573 133.658 108.301 134.142 107.817C134.626 107.332 134.898 106.676 134.898 105.991C134.898 105.306 134.626 104.649 134.142 104.165C133.658 103.68 133.001 103.408 132.316 103.408"
          fill="currentColor"/>
    <path d="M145.229 103.408H140.064V105.991C140.064 106.676 140.336 107.332 140.82 107.817C141.304 108.301 141.961 108.573 142.646 108.573C143.331 108.573 143.988 108.301 144.472 107.817C144.957 107.332 145.229 106.676 145.229 105.991"
          fill="currentColor"/>
    <path d="M47.0919 113.738V108.573H44.5094C43.8244 108.573 43.1676 108.845 42.6832 109.329C42.1989 109.814 41.9268 110.471 41.9268 111.156C41.9268 111.84 42.1989 112.497 42.6832 112.982C43.1676 113.466 43.8244 113.738 44.5094 113.738"
          fill="currentColor"/>
    <path d="M52.257 108.573H47.0919V113.738H52.257V108.573Z" fill="currentColor"/>
    <path d="M57.422 108.573H52.2569V113.738H57.422V108.573Z" fill="currentColor"/>
    <path d="M57.4222 108.573V113.738H60.0047C60.6897 113.738 61.3465 113.466 61.8309 112.982C62.3152 112.497 62.5873 111.841 62.5873 111.156C62.5873 110.471 62.3152 109.814 61.8309 109.33C61.3465 108.845 60.6897 108.573 60.0047 108.573"
          fill="currentColor"/>
    <path d="M72.9174 113.738H78.0825V108.573H75.4999C74.815 108.573 74.1581 108.845 73.6738 109.329C73.1895 109.814 72.9174 110.471 72.9174 111.156"
          fill="currentColor"/>
    <path d="M78.0825 108.573V113.738H83.2476V111.156C83.2476 110.471 82.9755 109.814 82.4912 109.33C82.0069 108.845 81.35 108.573 80.6651 108.573"
          fill="currentColor"/>
    <path d="M109.073 108.573H103.908V113.738H109.073V108.573Z" fill="currentColor"/>
    <path d="M129.733 108.573H124.568V113.738H129.733V108.573Z" fill="currentColor"/>
    <path d="M145.229 113.738H150.394V111.156C150.394 110.471 150.122 109.814 149.637 109.329C149.153 108.845 148.496 108.573 147.811 108.573C147.126 108.573 146.469 108.845 145.985 109.329C145.501 109.814 145.229 110.471 145.229 111.156"
          fill="currentColor"/>
    <path d="M57.4222 113.738H52.2571V116.321C52.2571 117.006 52.5292 117.662 53.0135 118.147C53.4978 118.631 54.1547 118.903 54.8396 118.903C55.5246 118.903 56.1814 118.631 56.6658 118.147C57.1501 117.662 57.4222 117.006 57.4222 116.321"
          fill="currentColor"/>
    <path d="M65.1697 118.903C66.596 118.903 67.7523 117.747 67.7523 116.321C67.7523 114.894 66.596 113.738 65.1697 113.738C63.7434 113.738 62.5872 114.894 62.5872 116.321C62.5872 117.747 63.7434 118.903 65.1697 118.903Z"
          fill="currentColor"/>
    <path d="M78.0825 113.738H72.9174V118.903H78.0825V113.738Z" fill="currentColor"/>
    <path d="M83.2476 113.738H78.0825V118.903H83.2476V113.738Z" fill="currentColor"/>
    <path d="M88.4127 113.738H83.2476V118.903H88.4127V113.738Z" fill="currentColor"/>
    <path d="M88.4126 113.738V118.903H93.5777V116.321C93.5777 115.636 93.3056 114.979 92.8213 114.494C92.337 114.01 91.6801 113.738 90.9951 113.738"
          fill="currentColor"/>
    <path d="M103.908 118.903V113.738H101.325C100.64 113.738 99.9836 114.01 99.4993 114.495C99.015 114.979 98.7429 115.636 98.7429 116.321C98.7429 117.006 99.015 117.663 99.4993 118.147C99.9836 118.631 100.64 118.903 101.325 118.903"
          fill="currentColor"/>
    <path d="M109.073 113.738H103.908V118.903H109.073V113.738Z" fill="currentColor"/>
    <path d="M116.821 118.903C118.247 118.903 119.403 117.747 119.403 116.321C119.403 114.894 118.247 113.738 116.821 113.738C115.394 113.738 114.238 114.894 114.238 116.321C114.238 117.747 115.394 118.903 116.821 118.903Z"
          fill="currentColor"/>
    <path d="M129.733 113.738H124.568V118.903H129.733V113.738Z" fill="currentColor"/>
    <path d="M140.064 118.903H145.229V113.738H142.646C141.961 113.738 141.304 114.01 140.82 114.495C140.336 114.979 140.064 115.636 140.064 116.321"
          fill="currentColor"/>
    <path d="M150.394 113.738H145.229V118.903H147.811C148.496 118.903 149.153 118.631 149.637 118.147C150.122 117.662 150.394 117.006 150.394 116.321"
          fill="currentColor"/>
    <path d="M47.0919 124.068H52.257V121.486C52.257 120.801 51.9849 120.144 51.5006 119.66C51.0163 119.175 50.3594 118.903 49.6745 118.903C48.9895 118.903 48.3327 119.175 47.8483 119.66C47.364 120.144 47.0919 120.801 47.0919 121.486"
          fill="currentColor"/>
    <path d="M72.9174 124.068V118.903H70.3348C69.6499 118.903 68.993 119.175 68.5087 119.66C68.0243 120.144 67.7523 120.801 67.7523 121.486C67.7523 122.171 68.0243 122.828 68.5087 123.312C68.993 123.796 69.6499 124.068 70.3348 124.068"
          fill="currentColor"/>
    <path d="M78.0825 118.903H72.9174V124.068H78.0825V118.903Z" fill="currentColor"/>
    <path d="M83.2476 118.903H78.0825V124.068H80.6651C81.35 124.068 82.0069 123.796 82.4912 123.312C82.9755 122.828 83.2476 122.171 83.2476 121.486"
          fill="currentColor"/>
    <path d="M93.5778 124.068V118.903H88.4127V121.486C88.4127 122.171 88.6848 122.828 89.1691 123.312C89.6534 123.796 90.3103 124.068 90.9952 124.068"
          fill="currentColor"/>
    <path d="M93.5778 118.903V124.068H98.7429V121.486C98.7429 120.801 98.4708 120.144 97.9864 119.66C97.5021 119.175 96.8452 118.903 96.1603 118.903"
          fill="currentColor"/>
    <path d="M109.073 118.903H103.908V124.068H109.073V118.903Z" fill="currentColor"/>
    <path d="M129.733 118.903H124.568V124.068H129.733V118.903Z" fill="currentColor"/>
    <path d="M145.229 118.903H140.064V121.486C140.064 122.171 140.336 122.828 140.82 123.312C141.304 123.796 141.961 124.068 142.646 124.068C143.331 124.068 143.988 123.796 144.472 123.312C144.957 122.828 145.229 122.171 145.229 121.486"
          fill="currentColor"/>
    <path d="M47.0919 129.234V124.068H44.5094C43.8244 124.068 43.1676 124.341 42.6832 124.825C42.1989 125.309 41.9268 125.966 41.9268 126.651C41.9268 127.336 42.1989 127.993 42.6832 128.477C43.1676 128.961 43.8244 129.234 44.5094 129.234"
          fill="currentColor"/>
    <path d="M52.257 124.068H47.0919V129.233H52.257V124.068Z" fill="currentColor"/>
    <path d="M57.422 124.068H52.2569V129.233H57.422V124.068Z" fill="currentColor"/>
    <path d="M57.4222 124.068V129.233H62.5873V126.651C62.5873 125.966 62.3152 125.309 61.8309 124.825C61.3465 124.34 60.6897 124.068 60.0047 124.068"
          fill="currentColor"/>
    <path d="M98.7428 129.234V124.068H93.5777V126.651C93.5777 127.336 93.8498 127.993 94.3341 128.477C94.8184 128.961 95.4753 129.234 96.1602 129.234"
          fill="currentColor"/>
    <path d="M103.908 124.068H98.7428V129.233H103.908V124.068Z" fill="currentColor"/>
    <path d="M109.073 124.068H103.908V129.233H109.073V124.068Z" fill="currentColor"/>
    <path d="M114.238 124.068H109.073V129.233H114.238V124.068Z" fill="currentColor"/>
    <path d="M119.403 124.068H114.238V129.233H119.403V124.068Z" fill="currentColor"/>
    <path d="M124.568 124.068H119.403V129.233H124.568V124.068Z" fill="currentColor"/>
    <path d="M129.733 124.068H124.568V129.233H127.151C127.836 129.233 128.493 128.961 128.977 128.477C129.461 127.993 129.733 127.336 129.733 126.651"
          fill="currentColor"/>
    <path d="M62.5872 129.234H57.4221V131.816C57.4221 132.501 57.6942 133.158 58.1785 133.642C58.6628 134.127 59.3197 134.399 60.0046 134.399C60.6895 134.399 61.3464 134.127 61.8307 133.642C62.3151 133.158 62.5872 132.501 62.5872 131.816"
          fill="currentColor"/>
    <path d="M83.2476 134.399H88.4127V131.816C88.4127 131.131 88.1406 130.474 87.6563 129.99C87.172 129.506 86.5151 129.233 85.8302 129.233C85.1452 129.233 84.4884 129.506 84.004 129.99C83.5197 130.474 83.2476 131.131 83.2476 131.816"
          fill="currentColor"/>
    <path d="M103.908 134.399V129.233H98.7429V131.816C98.7429 132.501 99.015 133.158 99.4993 133.642C99.9836 134.126 100.64 134.399 101.325 134.399"
          fill="currentColor"/>
    <path d="M109.073 129.234H103.908V134.399H109.073V129.234Z" fill="currentColor"/>
    <path d="M140.064 134.399H145.229V131.816C145.229 131.131 144.957 130.474 144.472 129.99C143.988 129.506 143.331 129.233 142.646 129.233C141.961 129.233 141.304 129.506 140.82 129.99C140.336 130.474 140.064 131.131 140.064 131.816"
          fill="currentColor"/>
    <path d="M47.0919 139.564H52.257V136.981C52.257 136.296 51.9849 135.639 51.5006 135.155C51.0163 134.671 50.3594 134.398 49.6745 134.398C48.9895 134.398 48.3327 134.671 47.8483 135.155C47.364 135.639 47.0919 136.296 47.0919 136.981"
          fill="currentColor"/>
    <path d="M62.5872 139.564H67.7523V136.981C67.7523 136.296 67.4802 135.639 66.9958 135.155C66.5115 134.671 65.8546 134.398 65.1697 134.398C64.4848 134.398 63.8279 134.671 63.3436 135.155C62.8593 135.639 62.5872 136.296 62.5872 136.981"
          fill="currentColor"/>
    <path d="M88.4126 134.399H83.2475V136.981C83.2475 137.666 83.5196 138.323 84.0039 138.807C84.4882 139.292 85.1451 139.564 85.83 139.564C86.515 139.564 87.1719 139.292 87.6562 138.807C88.1405 138.323 88.4126 137.666 88.4126 136.981"
          fill="currentColor"/>
    <path d="M96.1603 139.564C97.5866 139.564 98.7429 138.407 98.7429 136.981C98.7429 135.555 97.5866 134.399 96.1603 134.399C94.734 134.399 93.5778 135.555 93.5778 136.981C93.5778 138.407 94.734 139.564 96.1603 139.564Z"
          fill="currentColor"/>
    <path d="M109.073 139.564V134.398H103.908V136.981C103.908 137.666 104.18 138.323 104.664 138.807C105.149 139.291 105.806 139.564 106.491 139.564"
          fill="currentColor"/>
    <path d="M109.073 134.399V139.564H114.238V136.981C114.238 136.296 113.966 135.639 113.482 135.155C112.997 134.671 112.341 134.399 111.656 134.399"
          fill="currentColor"/>
    <path d="M119.403 139.564H124.568V136.981C124.568 136.296 124.296 135.639 123.812 135.155C123.328 134.671 122.671 134.398 121.986 134.398C121.301 134.398 120.644 134.671 120.16 135.155C119.675 135.639 119.403 136.296 119.403 136.981"
          fill="currentColor"/>
    <path d="M132.316 139.564C133.742 139.564 134.898 138.407 134.898 136.981C134.898 135.555 133.742 134.399 132.316 134.399C130.89 134.399 129.733 135.555 129.733 136.981C129.733 138.407 130.89 139.564 132.316 139.564Z"
          fill="currentColor"/>
    <path d="M145.229 134.399H140.064V139.564H145.229V134.399Z" fill="currentColor"/>
    <path d="M145.229 134.399V139.564H150.394V136.981C150.394 136.296 150.122 135.639 149.637 135.155C149.153 134.671 148.496 134.399 147.811 134.399"
          fill="currentColor"/>
    <path d="M47.0919 144.729V139.564H44.5094C43.8244 139.564 43.1676 139.836 42.6832 140.32C42.1989 140.804 41.9268 141.461 41.9268 142.146C41.9268 142.831 42.1989 143.488 42.6832 143.972C43.1676 144.457 43.8244 144.729 44.5094 144.729"
          fill="currentColor"/>
    <path d="M52.257 139.564H47.0919V144.729H52.257V139.564Z" fill="currentColor"/>
    <path d="M52.2569 139.564V144.729H54.8394C55.5244 144.729 56.1813 144.457 56.6656 143.972C57.1499 143.488 57.422 142.831 57.422 142.146C57.422 141.461 57.1499 140.804 56.6656 140.32C56.1813 139.836 55.5244 139.564 54.8394 139.564"
          fill="currentColor"/>
    <path d="M67.7523 144.729V139.564H62.5872V142.146C62.5872 142.831 62.8592 143.488 63.3436 143.972C63.8279 144.457 64.4848 144.729 65.1697 144.729"
          fill="currentColor"/>
    <path d="M72.9174 139.564H67.7523V144.729H72.9174V139.564Z" fill="currentColor"/>
    <path d="M72.9174 139.564V144.729H78.0825V142.146C78.0825 141.461 77.8104 140.804 77.326 140.32C76.8417 139.836 76.1848 139.564 75.4999 139.564"
          fill="currentColor"/>
    <path d="M88.4126 144.729H93.5777V142.146C93.5777 141.461 93.3056 140.804 92.8213 140.32C92.337 139.836 91.6801 139.564 90.9951 139.564C90.3102 139.564 89.6533 139.836 89.169 140.32C88.6847 140.804 88.4126 141.461 88.4126 142.146"
          fill="currentColor"/>
    <path d="M98.7428 144.729H103.908V142.146C103.908 141.461 103.636 140.804 103.151 140.32C102.667 139.836 102.01 139.564 101.325 139.564C100.64 139.564 99.9835 139.836 99.4992 140.32C99.0149 140.804 98.7428 141.461 98.7428 142.146"
          fill="currentColor"/>
    <path d="M114.238 139.564H109.073V144.729H114.238V139.564Z" fill="currentColor"/>
    <path d="M119.403 139.564H114.238V144.729H119.403V139.564Z" fill="currentColor"/>
    <path d="M124.568 139.564H119.403V144.729H124.568V139.564Z" fill="currentColor"/>
    <path d="M124.568 139.564V144.729H127.151C127.836 144.729 128.493 144.457 128.977 143.972C129.461 143.488 129.733 142.831 129.733 142.146C129.733 141.461 129.461 140.804 128.977 140.32C128.493 139.836 127.836 139.564 127.151 139.564"
          fill="currentColor"/>
    <path d="M145.229 139.564H140.064V144.729H145.229V139.564Z" fill="currentColor"/>
    <path d="M150.394 139.564H145.229V144.729H147.811C148.496 144.729 149.153 144.457 149.637 143.972C150.122 143.488 150.394 142.831 150.394 142.146"
          fill="currentColor"/>
    <path d="M52.2569 144.729H47.0918V147.311C47.0918 147.996 47.3639 148.653 47.8482 149.137C48.3325 149.622 48.9894 149.894 49.6743 149.894C50.3593 149.894 51.0162 149.622 51.5005 149.137C51.9848 148.653 52.2569 147.996 52.2569 147.311"
          fill="currentColor"/>
    <path d="M60.0047 149.894C61.431 149.894 62.5873 148.738 62.5873 147.311C62.5873 145.885 61.431 144.729 60.0047 144.729C58.5784 144.729 57.4222 145.885 57.4222 147.311C57.4222 148.738 58.5784 149.894 60.0047 149.894Z"
          fill="currentColor"/>
    <path d="M72.9174 149.894V144.729H67.7523V147.311C67.7523 147.996 68.0243 148.653 68.5087 149.137C68.993 149.622 69.6499 149.894 70.3348 149.894"
          fill="currentColor"/>
    <path d="M78.0825 144.729H72.9174V149.894H78.0825V144.729Z" fill="currentColor"/>
    <path d="M83.2476 144.729H78.0825V149.894H83.2476V144.729Z" fill="currentColor"/>
    <path d="M88.4127 144.729H83.2476V149.894H88.4127V144.729Z" fill="currentColor"/>
    <path d="M93.5777 144.729H88.4126V149.894H93.5777V144.729Z" fill="currentColor"/>
    <path d="M98.7429 144.729H93.5778V149.894H98.7429V144.729Z" fill="currentColor"/>
    <path d="M103.908 144.729H98.7428V149.894H103.908V144.729Z" fill="currentColor"/>
    <path d="M109.073 144.729H103.908V149.894H109.073V144.729Z" fill="currentColor"/>
    <path d="M114.238 144.729H109.073V149.894H111.656C112.341 149.894 112.997 149.622 113.482 149.137C113.966 148.653 114.238 147.996 114.238 147.311"
          fill="currentColor"/>
    <path d="M145.229 144.729H140.064V147.311C140.064 147.996 140.336 148.653 140.82 149.137C141.304 149.622 141.961 149.894 142.646 149.894C143.331 149.894 143.988 149.622 144.472 149.137C144.957 148.653 145.229 147.996 145.229 147.311"
          fill="currentColor"/>
    <g clip-path="url(#clip0_461_1868)">
        <path d="M86.4667 53.106H63.5333C57.9921 53.106 53.5 57.598 53.5 63.1393V86.0726C53.5 91.6139 57.9921 96.106 63.5333 96.106H86.4667C92.0079 96.106 96.5 91.6139 96.5 86.0726V63.1393C96.5 57.598 92.0079 53.106 86.4667 53.106Z"
              fill="url(#paint0_linear_461_1868)"/>
        <path fill-rule="evenodd" clip-rule="evenodd"
              d="M69.5602 79.7992L72.8541 76.5052L75.3879 79.039C76.931 80.5821 78.1751 81.0661 80.4555 79.2924C80.9623 78.7857 81.8491 78.1522 82.8626 78.659L87.6769 81.9529C89.0705 83.0931 89.1842 83.7157 88.8171 84.6134C86.5382 90.1837 79.3153 89.3009 69.5602 79.7992ZM69.5602 79.7992C60.0585 70.0441 59.1757 62.8212 64.746 60.5423C65.6437 60.1752 66.2663 60.2889 67.4065 61.6825L70.7004 66.4967C71.2072 67.5103 70.5737 68.3971 70.067 68.9038C68.2933 71.1843 68.7773 72.4284 70.3203 73.9714L72.8541 76.5052L69.5602 79.7992Z"
              fill="white"/>
    </g>
    <defs>
        <linearGradient id="paint0_linear_461_1868" x1="2203.5" y1="53.106" x2="2203.5" y2="4353.11"
                        gradientUnits="userSpaceOnUse">
            <stop stop-color="#00DD35"/>
            <stop offset="1" stop-color="#91FC8A"/>
        </linearGradient>
        <clipPath id="clip0_461_1868">
            <rect width="43" height="43" fill="currentColor" transform="translate(53.5 53.106)"/>
        </clipPath>
    </defs>
</svg>
