<svg width="150" height="150" viewBox="0 0 150 150" fill="none" xmlns="http://www.w3.org/2000/svg">
    <path d="M10.3448 128.017V135.776C10.3448 137.918 12.0817 139.655 14.2242 139.655H21.9828C24.1253 139.655 25.8621 137.918 25.8621 135.776V128.017C25.8621 125.875 24.1253 124.138 21.9828 124.138H14.2242C12.0817 124.138 10.3448 125.875 10.3448 128.017Z"
          fill="currentColor"/>
    <path d="M0 140.948C0 146.983 3.01724 150 9.05172 150H27.1552C33.1897 150 36.2069 146.983 36.2069 140.948V122.845C36.2069 116.81 33.1897 113.793 27.1552 113.793H9.05172C3.01724 113.793 0 116.81 0 122.845L0 140.948ZM9.69828 144.828C6.68103 144.828 5.17241 143.319 5.17241 140.302L5.17241 123.491C5.17241 120.474 6.68103 118.966 9.69828 118.966H26.5086C29.5259 118.966 31.0345 120.474 31.0345 123.491V140.302C31.0345 143.319 29.5259 144.828 26.5086 144.828H9.69828Z"
          fill="currentColor"/>
    <path d="M139.655 21.9828V14.2241C139.655 12.0817 137.918 10.3448 135.776 10.3448H128.017C125.875 10.3448 124.138 12.0817 124.138 14.2241V21.9828C124.138 24.1252 125.875 25.8621 128.017 25.8621H135.776C137.918 25.8621 139.655 24.1252 139.655 21.9828Z"
          fill="currentColor"/>
    <path d="M150 9.05172C150 3.01724 146.983 0 140.948 0L122.845 0C116.81 0 113.793 3.01724 113.793 9.05172V27.1552C113.793 33.1897 116.81 36.2069 122.845 36.2069H140.948C146.983 36.2069 150 33.1897 150 27.1552V9.05172ZM140.302 5.17241C143.319 5.17241 144.828 6.68103 144.828 9.69828V26.5086C144.828 29.5259 143.319 31.0345 140.302 31.0345H123.491C120.474 31.0345 118.966 29.5259 118.966 26.5086V9.69828C118.966 6.68103 120.474 5.17241 123.491 5.17241L140.302 5.17241Z"
          fill="currentColor"/>
    <path d="M21.9828 10.3448H14.2242C12.0817 10.3448 10.3448 12.0817 10.3448 14.2241V21.9828C10.3448 24.1252 12.0817 25.8621 14.2242 25.8621H21.9828C24.1253 25.8621 25.8621 24.1252 25.8621 21.9828V14.2241C25.8621 12.0817 24.1253 10.3448 21.9828 10.3448Z"
          fill="currentColor"/>
    <path d="M9.05172 0C3.01724 0 0 3.01724 0 9.05172V27.1552C0 33.1897 3.01724 36.2069 9.05172 36.2069H27.1552C33.1897 36.2069 36.2069 33.1897 36.2069 27.1552V9.05172C36.2069 3.01724 33.1897 0 27.1552 0H9.05172ZM5.17241 9.69828C5.17241 6.68103 6.68103 5.17241 9.69828 5.17241H26.5086C29.5259 5.17241 31.0345 6.68103 31.0345 9.69828V26.5086C31.0345 29.5259 29.5259 31.0345 26.5086 31.0345H9.69828C6.68103 31.0345 5.17241 29.5259 5.17241 26.5086V9.69828Z"
          fill="currentColor"/>
    <path d="M49.1379 5.17241C50.5662 5.17241 51.7241 4.01453 51.7241 2.58621C51.7241 1.15788 50.5662 0 49.1379 0C47.7096 0 46.5517 1.15788 46.5517 2.58621C46.5517 4.01453 47.7096 5.17241 49.1379 5.17241Z"
          fill="currentColor"/>
    <path d="M62.069 5.17242V2.86102e-06H59.4828C58.7969 2.86102e-06 58.139 0.272477 57.654 0.757484C57.169 1.24249 56.8966 1.90031 56.8966 2.58621C56.8966 3.27211 57.169 3.92993 57.654 4.41493C58.139 4.89994 58.7969 5.17242 59.4828 5.17242"
          fill="currentColor"/>
    <path d="M67.2414 0H62.069V5.17241H67.2414V0Z" fill="currentColor"/>
    <path d="M67.2414 0V5.17241H69.8276C70.5135 5.17241 71.1713 4.89994 71.6563 4.41493C72.1413 3.92992 72.4138 3.27211 72.4138 2.58621C72.4138 1.9003 72.1413 1.24249 71.6563 0.757483C71.1713 0.272475 70.5135 0 69.8276 0"
          fill="currentColor"/>
    <path d="M77.5862 5.17242H82.7586V2.58621C82.7586 1.90031 82.4861 1.24249 82.0011 0.757483C81.5161 0.272475 80.8583 2.86102e-06 80.1724 2.86102e-06C79.4865 2.86102e-06 78.8287 0.272475 78.3437 0.757483C77.8587 1.24249 77.5862 1.90031 77.5862 2.58621"
          fill="currentColor"/>
    <path d="M93.1035 5.17242V2.86102e-06H90.5172C89.8313 2.86102e-06 89.1735 0.272477 88.6885 0.757484C88.2035 1.24249 87.931 1.90031 87.931 2.58621C87.931 3.27211 88.2035 3.92993 88.6885 4.41493C89.1735 4.89994 89.8313 5.17242 90.5172 5.17242"
          fill="currentColor"/>
    <path d="M98.2759 0H93.1035V5.17241H98.2759V0Z" fill="currentColor"/>
    <path d="M103.448 0H98.2759V5.17241H103.448V0Z" fill="currentColor"/>
    <path d="M103.448 0V5.17241H106.034C106.72 5.17241 107.378 4.89994 107.863 4.41493C108.348 3.92992 108.621 3.27211 108.621 2.58621C108.621 1.9003 108.348 1.24249 107.863 0.757483C107.378 0.272475 106.72 0 106.034 0"
          fill="currentColor"/>
    <path d="M67.2414 5.17242H62.069V7.75862C62.069 8.44453 62.3415 9.10234 62.8265 9.58735C63.3115 10.0724 63.9693 10.3448 64.6552 10.3448C65.3411 10.3448 65.9989 10.0724 66.4839 9.58735C66.9689 9.10234 67.2414 8.44453 67.2414 7.75862"
          fill="currentColor"/>
    <path d="M82.7586 5.17242H77.5862V7.75862C77.5862 8.44453 77.8587 9.10234 78.3437 9.58735C78.8287 10.0724 79.4865 10.3448 80.1724 10.3448C80.8583 10.3448 81.5161 10.0724 82.0011 9.58735C82.4861 9.10234 82.7586 8.44453 82.7586 7.75862"
          fill="currentColor"/>
    <path d="M103.448 5.17242H98.2759V10.3448H103.448V5.17242Z" fill="currentColor"/>
    <path d="M46.5517 15.5172V10.3448H43.9655C43.2796 10.3448 42.6218 10.6173 42.1368 11.1023C41.6518 11.5873 41.3793 12.2451 41.3793 12.931C41.3793 13.6169 41.6518 14.2748 42.1368 14.7598C42.6218 15.2448 43.2796 15.5172 43.9655 15.5172"
          fill="currentColor"/>
    <path d="M46.5517 10.3448V15.5172H51.7241V12.931C51.7241 12.2451 51.4516 11.5873 50.9666 11.1023C50.4816 10.6173 49.8238 10.3448 49.1379 10.3448"
          fill="currentColor"/>
    <path d="M56.8965 15.5172H62.069V12.931C62.069 12.2451 61.7965 11.5873 61.3115 11.1023C60.8265 10.6173 60.1687 10.3448 59.4828 10.3448C58.7968 10.3448 58.139 10.6173 57.654 11.1023C57.169 11.5873 56.8965 12.2451 56.8965 12.931"
          fill="currentColor"/>
    <path d="M93.1035 15.5172V10.3448H90.5172C89.8313 10.3448 89.1735 10.6173 88.6885 11.1023C88.2035 11.5873 87.931 12.2451 87.931 12.931C87.931 13.6169 88.2035 14.2748 88.6885 14.7598C89.1735 15.2448 89.8313 15.5172 90.5172 15.5172"
          fill="currentColor"/>
    <path d="M98.2759 10.3448H93.1035V15.5172H98.2759V10.3448Z" fill="currentColor"/>
    <path d="M103.448 10.3448H98.2758V15.5172H100.862C101.548 15.5172 102.206 15.2448 102.691 14.7598C103.176 14.2747 103.448 13.6169 103.448 12.931"
          fill="currentColor"/>
    <path d="M51.7241 15.5172H46.5517V20.6897H51.7241V15.5172Z" fill="currentColor"/>
    <path d="M56.8965 15.5172H51.7241V20.6897H56.8965V15.5172Z" fill="currentColor"/>
    <path d="M62.069 15.5172H56.8965V20.6897H62.069V15.5172Z" fill="currentColor"/>
    <path d="M62.069 15.5172V20.6897H67.2414V18.1034C67.2414 17.4175 66.9689 16.7597 66.4839 16.2747C65.9989 15.7897 65.3411 15.5172 64.6552 15.5172"
          fill="currentColor"/>
    <path d="M72.4138 20.6897H77.5862V15.5172H75C74.3141 15.5172 73.6562 15.7897 73.1712 16.2747C72.6862 16.7597 72.4138 17.4175 72.4138 18.1034"
          fill="currentColor"/>
    <path d="M77.5862 15.5172V20.6897H82.7586V18.1034C82.7586 17.4175 82.4861 16.7597 82.0011 16.2747C81.5161 15.7897 80.8583 15.5172 80.1724 15.5172"
          fill="currentColor"/>
    <path d="M98.2759 15.5172H93.1035V20.6897H98.2759V15.5172Z" fill="currentColor"/>
    <path d="M41.3793 25.8621H46.5517V20.6897H43.9655C43.2796 20.6897 42.6218 20.9621 42.1368 21.4471C41.6518 21.9321 41.3793 22.59 41.3793 23.2759"
          fill="currentColor"/>
    <path d="M51.7241 20.6897H46.5517V25.8621H49.1379C49.8238 25.8621 50.4816 25.5896 50.9666 25.1046C51.4516 24.6196 51.7241 23.9618 51.7241 23.2759"
          fill="currentColor"/>
    <path d="M62.069 20.6897H56.8965V25.8621H62.069V20.6897Z" fill="currentColor"/>
    <path d="M67.2414 20.6897H62.069V25.8621H67.2414V20.6897Z" fill="currentColor"/>
    <path d="M72.4138 20.6897H67.2414V25.8621H72.4138V20.6897Z" fill="currentColor"/>
    <path d="M77.5862 20.6897H72.4138V25.8621H77.5862V20.6897Z" fill="currentColor"/>
    <path d="M82.7586 20.6897H77.5862V25.8621H82.7586V20.6897Z" fill="currentColor"/>
    <path d="M87.931 20.6897H82.7586V25.8621H87.931V20.6897Z" fill="currentColor"/>
    <path d="M93.1034 20.6897H87.931V25.8621H93.1034V20.6897Z" fill="currentColor"/>
    <path d="M98.2759 20.6897H93.1035V25.8621H95.6897C96.3756 25.8621 97.0334 25.5896 97.5184 25.1046C98.0034 24.6196 98.2759 23.9618 98.2759 23.2759"
          fill="currentColor"/>
    <path d="M46.5517 25.8621H41.3793V31.0345H46.5517V25.8621Z" fill="currentColor"/>
    <path d="M51.7241 31.0345H56.8965V25.8621H54.3103C53.6244 25.8621 52.9666 26.1345 52.4816 26.6195C51.9966 27.1046 51.7241 27.7624 51.7241 28.4483"
          fill="currentColor"/>
    <path d="M62.069 25.8621H56.8966V31.0345H59.4828C60.1687 31.0345 60.8265 30.762 61.3115 30.277C61.7965 29.792 62.069 29.1342 62.069 28.4483"
          fill="currentColor"/>
    <path d="M72.4138 25.8621H67.2413V28.4483C67.2413 29.1342 67.5138 29.792 67.9988 30.277C68.4838 30.762 69.1416 31.0345 69.8276 31.0345C70.5135 31.0345 71.1713 30.762 71.6563 30.277C72.1413 29.792 72.4138 29.1342 72.4138 28.4483"
          fill="currentColor"/>
    <path d="M82.7586 25.8621H77.5862V28.4483C77.5862 29.1342 77.8587 29.792 78.3437 30.277C78.8287 30.762 79.4865 31.0345 80.1724 31.0345C80.8583 31.0345 81.5161 30.762 82.0011 30.277C82.4861 29.792 82.7586 29.1342 82.7586 28.4483"
          fill="currentColor"/>
    <path d="M93.1035 25.8621H87.931V28.4483C87.931 29.1342 88.2035 29.792 88.6885 30.277C89.1735 30.762 89.8313 31.0345 90.5172 31.0345C91.2032 31.0345 91.861 30.762 92.346 30.277C92.831 29.792 93.1035 29.1342 93.1035 28.4483"
          fill="currentColor"/>
    <path d="M103.448 31.0345V25.8621H100.862C100.176 25.8621 99.5183 26.1345 99.0333 26.6196C98.5483 27.1046 98.2758 27.7624 98.2758 28.4483C98.2758 29.1342 98.5483 29.792 99.0333 30.277C99.5183 30.762 100.176 31.0345 100.862 31.0345"
          fill="currentColor"/>
    <path d="M103.448 25.8621V31.0345H108.621V28.4483C108.621 27.7624 108.348 27.1046 107.863 26.6196C107.378 26.1345 106.72 25.8621 106.034 25.8621"
          fill="currentColor"/>
    <path d="M46.5517 31.0345H41.3793V33.6207C41.3793 34.3066 41.6518 34.9644 42.1368 35.4494C42.6218 35.9344 43.2796 36.2069 43.9655 36.2069C44.6514 36.2069 45.3092 35.9344 45.7942 35.4494C46.2792 34.9644 46.5517 34.3066 46.5517 33.6207"
          fill="currentColor"/>
    <path d="M56.8965 31.0345H51.7241V33.6207C51.7241 34.3066 51.9966 34.9644 52.4816 35.4494C52.9666 35.9344 53.6244 36.2069 54.3103 36.2069C54.9962 36.2069 55.6541 35.9344 56.1391 35.4494C56.6241 34.9644 56.8965 34.3066 56.8965 33.6207"
          fill="currentColor"/>
    <path d="M64.6552 36.2069C66.0835 36.2069 67.2414 35.049 67.2414 33.6207C67.2414 32.1924 66.0835 31.0345 64.6552 31.0345C63.2269 31.0345 62.069 32.1924 62.069 33.6207C62.069 35.049 63.2269 36.2069 64.6552 36.2069Z"
          fill="currentColor"/>
    <path d="M72.4138 36.2069H77.5862V33.6207C77.5862 32.9348 77.3137 32.277 76.8287 31.792C76.3437 31.307 75.6859 31.0345 75 31.0345C74.3141 31.0345 73.6562 31.307 73.1712 31.792C72.6862 32.277 72.4138 32.9348 72.4138 33.6207"
          fill="currentColor"/>
    <path d="M85.3448 36.2069C86.7731 36.2069 87.931 35.049 87.931 33.6207C87.931 32.1924 86.7731 31.0345 85.3448 31.0345C83.9165 31.0345 82.7586 32.1924 82.7586 33.6207C82.7586 35.049 83.9165 36.2069 85.3448 36.2069Z"
          fill="currentColor"/>
    <path d="M95.6897 36.2069C97.118 36.2069 98.2759 35.049 98.2759 33.6207C98.2759 32.1924 97.118 31.0345 95.6897 31.0345C94.2613 31.0345 93.1035 32.1924 93.1035 33.6207C93.1035 35.049 94.2613 36.2069 95.6897 36.2069Z"
          fill="currentColor"/>
    <path d="M108.621 31.0345H103.448V36.2069H108.621V31.0345Z" fill="currentColor"/>
    <path d="M46.5517 41.3793H51.7241V38.7931C51.7241 38.1072 51.4516 37.4494 50.9666 36.9644C50.4816 36.4794 49.8238 36.2069 49.1379 36.2069C48.452 36.2069 47.7942 36.4794 47.3092 36.9644C46.8242 37.4494 46.5517 38.1072 46.5517 38.7931"
          fill="currentColor"/>
    <path d="M59.4828 41.3793C60.9111 41.3793 62.069 40.2214 62.069 38.7931C62.069 37.3648 60.9111 36.2069 59.4828 36.2069C58.0544 36.2069 56.8965 37.3648 56.8965 38.7931C56.8965 40.2214 58.0544 41.3793 59.4828 41.3793Z"
          fill="currentColor"/>
    <path d="M67.2414 41.3793H72.4138V36.2069H69.8276C69.1417 36.2069 68.4839 36.4794 67.9989 36.9644C67.5139 37.4494 67.2414 38.1072 67.2414 38.7931"
          fill="currentColor"/>
    <path d="M77.5862 36.2069H72.4138V41.3793H77.5862V36.2069Z" fill="currentColor"/>
    <path d="M103.448 41.3793V36.2069H100.862C100.176 36.2069 99.5183 36.4794 99.0333 36.9644C98.5483 37.4494 98.2758 38.1072 98.2758 38.7931C98.2758 39.479 98.5483 40.1368 99.0333 40.6218C99.5183 41.1068 100.176 41.3793 100.862 41.3793"
          fill="currentColor"/>
    <path d="M108.621 36.2069H103.448V41.3793H106.035C106.72 41.3793 107.378 41.1068 107.863 40.6218C108.348 40.1368 108.621 39.479 108.621 38.7931"
          fill="currentColor"/>
    <path d="M7.75863 46.5517C9.18695 46.5517 10.3448 45.3938 10.3448 43.9655C10.3448 42.5372 9.18695 41.3793 7.75863 41.3793C6.33031 41.3793 5.17242 42.5372 5.17242 43.9655C5.17242 45.3938 6.33031 46.5517 7.75863 46.5517Z"
          fill="currentColor"/>
    <path d="M23.2758 46.5517C24.7042 46.5517 25.8621 45.3938 25.8621 43.9655C25.8621 42.5372 24.7042 41.3793 23.2758 41.3793C21.8475 41.3793 20.6896 42.5372 20.6896 43.9655C20.6896 45.3938 21.8475 46.5517 23.2758 46.5517Z"
          fill="currentColor"/>
    <path d="M33.6207 46.5517C35.049 46.5517 36.2069 45.3938 36.2069 43.9655C36.2069 42.5372 35.049 41.3793 33.6207 41.3793C32.1924 41.3793 31.0345 42.5372 31.0345 43.9655C31.0345 45.3938 32.1924 46.5517 33.6207 46.5517Z"
          fill="currentColor"/>
    <path d="M46.5517 46.5517V41.3793H43.9655C43.2796 41.3793 42.6218 41.6518 42.1368 42.1368C41.6518 42.6218 41.3793 43.2796 41.3793 43.9655C41.3793 44.6514 41.6518 45.3092 42.1368 45.7942C42.6218 46.2793 43.2796 46.5517 43.9655 46.5517"
          fill="currentColor"/>
    <path d="M51.7241 41.3793H46.5517V46.5517H49.1379C49.8238 46.5517 50.4816 46.2793 50.9666 45.7942C51.4516 45.3092 51.7241 44.6514 51.7241 43.9655"
          fill="currentColor"/>
    <path d="M67.2414 46.5517V41.3793H64.6552C63.9693 41.3793 63.3115 41.6518 62.8265 42.1368C62.3415 42.6218 62.069 43.2796 62.069 43.9655C62.069 44.6514 62.3415 45.3092 62.8265 45.7942C63.3115 46.2793 63.9693 46.5517 64.6552 46.5517"
          fill="currentColor"/>
    <path d="M72.4138 41.3793H67.2414V46.5517H72.4138V41.3793Z" fill="currentColor"/>
    <path d="M77.5862 41.3793H72.4138V46.5517H77.5862V41.3793Z" fill="currentColor"/>
    <path d="M82.7586 41.3793H77.5862V46.5517H82.7586V41.3793Z" fill="currentColor"/>
    <path d="M82.7586 41.3793V46.5517H87.931V43.9655C87.931 43.2796 87.6585 42.6218 87.1735 42.1368C86.6885 41.6518 86.0307 41.3793 85.3448 41.3793"
          fill="currentColor"/>
    <path d="M111.207 46.5517C112.635 46.5517 113.793 45.3938 113.793 43.9655C113.793 42.5372 112.635 41.3793 111.207 41.3793C109.779 41.3793 108.621 42.5372 108.621 43.9655C108.621 45.3938 109.779 46.5517 111.207 46.5517Z"
          fill="currentColor"/>
    <path d="M118.966 46.5517H124.138V41.3793H121.552C120.866 41.3793 120.208 41.6518 119.723 42.1368C119.238 42.6218 118.966 43.2796 118.966 43.9655"
          fill="currentColor"/>
    <path d="M124.138 41.3793V46.5517H129.31V43.9655C129.31 43.2796 129.038 42.6218 128.553 42.1368C128.068 41.6518 127.41 41.3793 126.724 41.3793"
          fill="currentColor"/>
    <path d="M134.483 46.5517H139.655V43.9655C139.655 43.2796 139.383 42.6218 138.898 42.1368C138.413 41.6518 137.755 41.3793 137.069 41.3793C136.383 41.3793 135.725 41.6518 135.24 42.1368C134.755 42.6218 134.483 43.2796 134.483 43.9655"
          fill="currentColor"/>
    <path d="M28.4483 51.7241C29.8766 51.7241 31.0345 50.5663 31.0345 49.1379C31.0345 47.7096 29.8766 46.5517 28.4483 46.5517C27.0199 46.5517 25.8621 47.7096 25.8621 49.1379C25.8621 50.5663 27.0199 51.7241 28.4483 51.7241Z"
          fill="currentColor"/>
    <path d="M54.3103 51.7241C55.7387 51.7241 56.8965 50.5663 56.8965 49.1379C56.8965 47.7096 55.7387 46.5517 54.3103 46.5517C52.882 46.5517 51.7241 47.7096 51.7241 49.1379C51.7241 50.5663 52.882 51.7241 54.3103 51.7241Z"
          fill="currentColor"/>
    <path d="M72.4138 46.5517H67.2413V49.1379C67.2413 49.8238 67.5138 50.4816 67.9988 50.9667C68.4838 51.4517 69.1416 51.7241 69.8276 51.7241C70.5135 51.7241 71.1713 51.4517 71.6563 50.9667C72.1413 50.4816 72.4138 49.8238 72.4138 49.1379"
          fill="currentColor"/>
    <path d="M82.7586 51.7241V46.5517H77.5862V49.1379C77.5862 49.8238 77.8587 50.4816 78.3437 50.9667C78.8287 51.4517 79.4865 51.7241 80.1724 51.7241"
          fill="currentColor"/>
    <path d="M87.931 46.5517H82.7586V51.7241H85.3448C86.0307 51.7241 86.6885 51.4517 87.1735 50.9667C87.6586 50.4816 87.931 49.8238 87.931 49.1379"
          fill="currentColor"/>
    <path d="M95.6897 51.7241C97.118 51.7241 98.2759 50.5663 98.2759 49.1379C98.2759 47.7096 97.118 46.5517 95.6897 46.5517C94.2613 46.5517 93.1035 47.7096 93.1035 49.1379C93.1035 50.5663 94.2613 51.7241 95.6897 51.7241Z"
          fill="currentColor"/>
    <path d="M118.966 51.7241V46.5517H116.379C115.693 46.5517 115.036 46.8242 114.551 47.3092C114.066 47.7942 113.793 48.452 113.793 49.1379C113.793 49.8238 114.066 50.4816 114.551 50.9667C115.036 51.4517 115.693 51.7241 116.379 51.7241"
          fill="currentColor"/>
    <path d="M124.138 46.5517H118.966V51.7241H124.138V46.5517Z" fill="currentColor"/>
    <path d="M129.31 46.5517H124.138V51.7241H129.31V46.5517Z" fill="currentColor"/>
    <path d="M134.483 46.5517H129.31V51.7241H134.483V46.5517Z" fill="currentColor"/>
    <path d="M139.655 46.5517H134.483V51.7241H139.655V46.5517Z" fill="currentColor"/>
    <path d="M144.828 46.5517H139.655V51.7241H144.828V46.5517Z" fill="currentColor"/>
    <path d="M144.828 46.5517V51.7241H150V49.1379C150 48.452 149.728 47.7942 149.243 47.3092C148.757 46.8242 148.1 46.5517 147.414 46.5517"
          fill="currentColor"/>
    <path d="M5.17242 56.8966H10.3448V51.7241H7.75863C7.07273 51.7241 6.41491 51.9966 5.9299 52.4816C5.4449 52.9666 5.17242 53.6244 5.17242 54.3103"
          fill="currentColor"/>
    <path d="M10.3448 51.7241V56.8965H12.9311C13.617 56.8965 14.2748 56.6241 14.7598 56.1391C15.2448 55.6541 15.5173 54.9962 15.5173 54.3103C15.5173 53.6244 15.2448 52.9666 14.7598 52.4816C14.2748 51.9966 13.617 51.7241 12.9311 51.7241"
          fill="currentColor"/>
    <path d="M20.6896 56.8966H25.8621V54.3103C25.8621 53.6244 25.5896 52.9666 25.1046 52.4816C24.6196 51.9966 23.9617 51.7241 23.2758 51.7241C22.5899 51.7241 21.9321 51.9966 21.4471 52.4816C20.9621 52.9666 20.6896 53.6244 20.6896 54.3103"
          fill="currentColor"/>
    <path d="M36.2069 56.8966V51.7241H33.6207C32.9348 51.7241 32.277 51.9966 31.792 52.4816C31.307 52.9666 31.0345 53.6244 31.0345 54.3103C31.0345 54.9963 31.307 55.6541 31.792 56.1391C32.277 56.6241 32.9348 56.8966 33.6207 56.8966"
          fill="currentColor"/>
    <path d="M36.2069 51.7241V56.8965H38.7931C39.479 56.8965 40.1368 56.6241 40.6218 56.1391C41.1069 55.6541 41.3793 54.9962 41.3793 54.3103C41.3793 53.6244 41.1069 52.9666 40.6218 52.4816C40.1368 51.9966 39.479 51.7241 38.7931 51.7241"
          fill="currentColor"/>
    <path d="M108.621 56.8966V51.7241H106.035C105.349 51.7241 104.691 51.9966 104.206 52.4816C103.721 52.9666 103.448 53.6244 103.448 54.3103C103.448 54.9963 103.721 55.6541 104.206 56.1391C104.691 56.6241 105.349 56.8966 106.035 56.8966"
          fill="currentColor"/>
    <path d="M108.621 51.7241V56.8965H113.793V54.3103C113.793 53.6244 113.521 52.9666 113.036 52.4816C112.551 51.9966 111.893 51.7241 111.207 51.7241"
          fill="currentColor"/>
    <path d="M139.655 51.7241H134.483V54.3103C134.483 54.9962 134.755 55.6541 135.24 56.1391C135.725 56.6241 136.383 56.8965 137.069 56.8965C137.755 56.8965 138.413 56.6241 138.898 56.1391C139.383 55.6541 139.655 54.9962 139.655 54.3103"
          fill="currentColor"/>
    <path d="M150 51.7241H144.828V56.8965H150V51.7241Z" fill="currentColor"/>
    <path d="M10.3448 56.8966H5.17243V59.4828C5.17243 60.1687 5.44491 60.8265 5.92992 61.3115C6.41492 61.7965 7.07274 62.069 7.75864 62.069C8.44455 62.069 9.10236 61.7965 9.58737 61.3115C10.0724 60.8265 10.3448 60.1687 10.3448 59.4828"
          fill="currentColor"/>
    <path d="M25.8621 62.069V56.8965H20.6896V59.4828C20.6896 60.1687 20.9621 60.8265 21.4471 61.3115C21.9321 61.7965 22.5899 62.069 23.2759 62.069"
          fill="currentColor"/>
    <path d="M25.8621 56.8966V62.069H28.4483C29.1342 62.069 29.792 61.7965 30.277 61.3115C30.762 60.8265 31.0345 60.1687 31.0345 59.4828C31.0345 58.7969 30.762 58.139 30.277 57.654C29.792 57.169 29.1342 56.8966 28.4483 56.8966"
          fill="currentColor"/>
    <path d="M49.1379 62.069C50.5662 62.069 51.7241 60.9111 51.7241 59.4828C51.7241 58.0544 50.5662 56.8966 49.1379 56.8966C47.7096 56.8966 46.5517 58.0544 46.5517 59.4828C46.5517 60.9111 47.7096 62.069 49.1379 62.069Z"
          fill="currentColor"/>
    <path d="M98.2759 62.069H103.448V59.4828C103.448 58.7969 103.176 58.139 102.691 57.654C102.206 57.169 101.548 56.8965 100.862 56.8965C100.176 56.8965 99.5184 57.169 99.0334 57.654C98.5484 58.139 98.2759 58.7969 98.2759 59.4828"
          fill="currentColor"/>
    <path d="M113.793 56.8966H108.621V59.4828C108.621 60.1687 108.893 60.8265 109.378 61.3115C109.863 61.7965 110.521 62.069 111.207 62.069C111.893 62.069 112.551 61.7965 113.036 61.3115C113.521 60.8265 113.793 60.1687 113.793 59.4828"
          fill="currentColor"/>
    <path d="M118.966 62.069H124.138V59.4828C124.138 58.7969 123.865 58.139 123.38 57.654C122.895 57.169 122.238 56.8965 121.552 56.8965C120.866 56.8965 120.208 57.169 119.723 57.654C119.238 58.139 118.966 58.7969 118.966 59.4828"
          fill="currentColor"/>
    <path d="M129.31 62.069H134.483V59.4828C134.483 58.7969 134.21 58.139 133.725 57.654C133.24 57.169 132.582 56.8965 131.897 56.8965C131.211 56.8965 130.553 57.169 130.068 57.654C129.583 58.139 129.31 58.7969 129.31 59.4828"
          fill="currentColor"/>
    <path d="M144.828 62.069V56.8965H142.241C141.555 56.8965 140.898 57.169 140.413 57.654C139.928 58.139 139.655 58.7969 139.655 59.4828C139.655 60.1687 139.928 60.8265 140.413 61.3115C140.898 61.7965 141.555 62.069 142.241 62.069"
          fill="currentColor"/>
    <path d="M150 56.8966H144.828V62.069H150V56.8966Z" fill="currentColor"/>
    <path d="M0 67.2414H5.17241V64.6552C5.17241 63.9693 4.89994 63.3114 4.41493 62.8264C3.92993 62.3414 3.27211 62.069 2.58621 62.069C1.9003 62.069 1.24249 62.3414 0.757481 62.8264C0.272473 63.3114 0 63.9693 0 64.6552"
          fill="currentColor"/>
    <path d="M15.5172 67.2414H20.6896V64.6552C20.6896 63.9693 20.4172 63.3114 19.9321 62.8264C19.4471 62.3414 18.7893 62.069 18.1034 62.069C17.4175 62.069 16.7597 62.3414 16.2747 62.8264C15.7897 63.3114 15.5172 63.9693 15.5172 64.6552"
          fill="currentColor"/>
    <path d="M33.6207 67.2414C35.049 67.2414 36.2069 66.0835 36.2069 64.6552C36.2069 63.2268 35.049 62.069 33.6207 62.069C32.1924 62.069 31.0345 63.2268 31.0345 64.6552C31.0345 66.0835 32.1924 67.2414 33.6207 67.2414Z"
          fill="currentColor"/>
    <path d="M43.9655 67.2414C45.3939 67.2414 46.5517 66.0835 46.5517 64.6552C46.5517 63.2268 45.3939 62.069 43.9655 62.069C42.5372 62.069 41.3793 63.2268 41.3793 64.6552C41.3793 66.0835 42.5372 67.2414 43.9655 67.2414Z"
          fill="currentColor"/>
    <path d="M103.448 67.2414V62.069H98.2758V64.6552C98.2758 65.3411 98.5483 65.9989 99.0333 66.4839C99.5183 66.9689 100.176 67.2414 100.862 67.2414"
          fill="currentColor"/>
    <path d="M103.448 62.069V67.2414H108.621V64.6552C108.621 63.9693 108.348 63.3115 107.863 62.8264C107.378 62.3414 106.72 62.069 106.034 62.069"
          fill="currentColor"/>
    <path d="M124.138 62.069H118.966V64.6552C118.966 65.3411 119.238 65.9989 119.723 66.4839C120.208 66.9689 120.866 67.2414 121.552 67.2414C122.238 67.2414 122.895 66.9689 123.38 66.4839C123.865 65.9989 124.138 65.3411 124.138 64.6552"
          fill="currentColor"/>
    <path d="M134.483 62.069H129.31V64.6552C129.31 65.3411 129.583 65.9989 130.068 66.4839C130.553 66.9689 131.211 67.2414 131.897 67.2414C132.582 67.2414 133.24 66.9689 133.725 66.4839C134.21 65.9989 134.483 65.3411 134.483 64.6552"
          fill="currentColor"/>
    <path d="M150 62.069H144.828V67.2414H150V62.069Z" fill="currentColor"/>
    <path d="M5.17241 67.2414H0V72.4138H5.17241V67.2414Z" fill="currentColor"/>
    <path d="M15.5172 72.4138V67.2414H12.931C12.2451 67.2414 11.5873 67.5138 11.1023 67.9988C10.6173 68.4839 10.3448 69.1417 10.3448 69.8276C10.3448 70.5135 10.6173 71.1713 11.1023 71.6563C11.5873 72.1413 12.2451 72.4138 12.931 72.4138"
          fill="currentColor"/>
    <path d="M20.6896 67.2414H15.5172V72.4138H18.1034C18.7893 72.4138 19.4471 72.1413 19.9322 71.6563C20.4172 71.1713 20.6896 70.5135 20.6896 69.8276"
          fill="currentColor"/>
    <path d="M25.8621 72.4138H31.0345V69.8276C31.0345 69.1417 30.762 68.4839 30.277 67.9988C29.792 67.5138 29.1342 67.2414 28.4483 67.2414C27.7624 67.2414 27.1045 67.5138 26.6195 67.9988C26.1345 68.4839 25.8621 69.1417 25.8621 69.8276"
          fill="currentColor"/>
    <path d="M36.2069 72.4138H41.3793V69.8276C41.3793 69.1417 41.1069 68.4839 40.6218 67.9988C40.1368 67.5138 39.479 67.2414 38.7931 67.2414C38.1072 67.2414 37.4494 67.5138 36.9644 67.9988C36.4794 68.4839 36.2069 69.1417 36.2069 69.8276"
          fill="currentColor"/>
    <path d="M46.5517 72.4138H51.7241V69.8276C51.7241 69.1417 51.4516 68.4839 50.9666 67.9988C50.4816 67.5138 49.8238 67.2414 49.1379 67.2414C48.452 67.2414 47.7942 67.5138 47.3092 67.9988C46.8242 68.4839 46.5517 69.1417 46.5517 69.8276"
          fill="currentColor"/>
    <path d="M108.621 67.2414H103.448V69.8276C103.448 70.5135 103.721 71.1713 104.206 71.6563C104.691 72.1413 105.349 72.4138 106.035 72.4138C106.72 72.4138 107.378 72.1413 107.863 71.6563C108.348 71.1713 108.621 70.5135 108.621 69.8276"
          fill="currentColor"/>
    <path d="M113.793 72.4138H118.966V69.8276C118.966 69.1417 118.693 68.4839 118.208 67.9989C117.723 67.5138 117.065 67.2414 116.379 67.2414C115.693 67.2414 115.036 67.5138 114.551 67.9989C114.066 68.4839 113.793 69.1417 113.793 69.8276"
          fill="currentColor"/>
    <path d="M124.138 72.4138H129.31V69.8276C129.31 69.1417 129.038 68.4839 128.553 67.9989C128.068 67.5138 127.41 67.2414 126.724 67.2414C126.038 67.2414 125.38 67.5138 124.895 67.9989C124.41 68.4839 124.138 69.1417 124.138 69.8276"
          fill="currentColor"/>
    <path d="M139.655 72.4138V67.2414H137.069C136.383 67.2414 135.725 67.5138 135.24 67.9988C134.755 68.4839 134.483 69.1417 134.483 69.8276C134.483 70.5135 134.755 71.1713 135.24 71.6563C135.725 72.1413 136.383 72.4138 137.069 72.4138"
          fill="currentColor"/>
    <path d="M144.828 67.2414H139.655V72.4138H144.828V67.2414Z" fill="currentColor"/>
    <path d="M150 67.2414H144.828V72.4138H150V67.2414Z" fill="currentColor"/>
    <path d="M5.17242 77.5862L5.17242 72.4138H1.04904e-05L1.04904e-05 75C1.04904e-05 75.6859 0.272484 76.3437 0.757492 76.8287C1.2425 77.3137 1.90031 77.5862 2.58622 77.5862"
          fill="currentColor"/>
    <path d="M5.17242 72.4138V77.5862H10.3448V75C10.3448 74.3141 10.0724 73.6563 9.58736 73.1713C9.10235 72.6863 8.44454 72.4138 7.75863 72.4138"
          fill="currentColor"/>
    <path d="M31.0345 77.5862V72.4138H25.8621V75C25.8621 75.6859 26.1345 76.3437 26.6196 76.8287C27.1046 77.3137 27.7624 77.5862 28.4483 77.5862"
          fill="currentColor"/>
    <path d="M36.2069 72.4138H31.0345V77.5862H36.2069V72.4138Z" fill="currentColor"/>
    <path d="M41.3793 72.4138H36.2069V77.5862H41.3793V72.4138Z" fill="currentColor"/>
    <path d="M46.5517 72.4138H41.3793V77.5862H46.5517V72.4138Z" fill="currentColor"/>
    <path d="M51.7241 72.4138H46.5517V77.5862H51.7241V72.4138Z" fill="currentColor"/>
    <path d="M118.966 72.4138H113.793V77.5862H118.966V72.4138Z" fill="currentColor"/>
    <path d="M129.31 72.4138H124.138V75C124.138 75.6859 124.41 76.3437 124.895 76.8287C125.38 77.3137 126.038 77.5862 126.724 77.5862C127.41 77.5862 128.068 77.3137 128.553 76.8287C129.038 76.3437 129.31 75.6859 129.31 75"
          fill="currentColor"/>
    <path d="M150 72.4138H144.828V75C144.828 75.6859 145.1 76.3437 145.585 76.8287C146.07 77.3137 146.728 77.5862 147.414 77.5862C148.1 77.5862 148.758 77.3137 149.243 76.8287C149.728 76.3437 150 75.6859 150 75"
          fill="currentColor"/>
    <path d="M10.3448 82.7586V77.5862H5.17243L5.17243 80.1724C5.17243 80.8583 5.44491 81.5161 5.92992 82.0011C6.41492 82.4861 7.07274 82.7586 7.75864 82.7586"
          fill="currentColor"/>
    <path d="M10.3448 77.5862V82.7586H12.9311C13.617 82.7586 14.2748 82.4861 14.7598 82.0011C15.2448 81.5161 15.5173 80.8583 15.5173 80.1724C15.5173 79.4865 15.2448 78.8287 14.7598 78.3437C14.2748 77.8587 13.617 77.5862 12.9311 77.5862"
          fill="currentColor"/>
    <path d="M23.2758 82.7586C24.7042 82.7586 25.8621 81.6007 25.8621 80.1724C25.8621 78.7441 24.7042 77.5862 23.2758 77.5862C21.8475 77.5862 20.6896 78.7441 20.6896 80.1724C20.6896 81.6007 21.8475 82.7586 23.2758 82.7586Z"
          fill="currentColor"/>
    <path d="M41.3793 77.5862H36.2069V80.1724C36.2069 80.8583 36.4794 81.5161 36.9644 82.0011C37.4494 82.4861 38.1072 82.7586 38.7931 82.7586C39.479 82.7586 40.1368 82.4861 40.6219 82.0011C41.1069 81.5161 41.3793 80.8583 41.3793 80.1724"
          fill="currentColor"/>
    <path d="M51.7241 77.5862H46.5517V80.1724C46.5517 80.8583 46.8242 81.5161 47.3092 82.0011C47.7942 82.4861 48.452 82.7586 49.1379 82.7586C49.8238 82.7586 50.4816 82.4861 50.9666 82.0011C51.4516 81.5161 51.7241 80.8583 51.7241 80.1724"
          fill="currentColor"/>
    <path d="M108.621 82.7586V77.5862H106.035C105.349 77.5862 104.691 77.8587 104.206 78.3437C103.721 78.8287 103.448 79.4865 103.448 80.1724C103.448 80.8583 103.721 81.5161 104.206 82.0011C104.691 82.4861 105.349 82.7586 106.035 82.7586"
          fill="currentColor"/>
    <path d="M113.793 77.5862H108.621V82.7586H113.793V77.5862Z" fill="currentColor"/>
    <path d="M118.966 77.5862H113.793V82.7586H118.966V77.5862Z" fill="currentColor"/>
    <path d="M118.966 77.5862V82.7586H121.552C122.238 82.7586 122.895 82.4861 123.38 82.0011C123.865 81.5161 124.138 80.8583 124.138 80.1724C124.138 79.4865 123.865 78.8287 123.38 78.3437C122.895 77.8587 122.238 77.5862 121.552 77.5862"
          fill="currentColor"/>
    <path d="M131.897 82.7586C133.325 82.7586 134.483 81.6007 134.483 80.1724C134.483 78.7441 133.325 77.5862 131.897 77.5862C130.468 77.5862 129.31 78.7441 129.31 80.1724C129.31 81.6007 130.468 82.7586 131.897 82.7586Z"
          fill="currentColor"/>
    <path d="M0 87.931H5.17241V85.3448C5.17241 84.6589 4.89994 84.0011 4.41493 83.5161C3.92992 83.0311 3.27211 82.7586 2.58621 82.7586C1.9003 82.7586 1.24249 83.0311 0.757481 83.5161C0.272473 84.0011 0 84.6589 0 85.3448"
          fill="currentColor"/>
    <path d="M18.1034 87.931C19.5317 87.931 20.6896 86.7732 20.6896 85.3448C20.6896 83.9165 19.5317 82.7586 18.1034 82.7586C16.6751 82.7586 15.5172 83.9165 15.5172 85.3448C15.5172 86.7732 16.6751 87.931 18.1034 87.931Z"
          fill="currentColor"/>
    <path d="M25.8621 87.931H31.0345V82.7586H28.4483C27.7624 82.7586 27.1045 83.0311 26.6195 83.5161C26.1345 84.0011 25.8621 84.6589 25.8621 85.3448"
          fill="currentColor"/>
    <path d="M31.0345 82.7586V87.931H33.6207C34.3066 87.931 34.9644 87.6586 35.4494 87.1735C35.9344 86.6885 36.2069 86.0307 36.2069 85.3448C36.2069 84.6589 35.9344 84.0011 35.4494 83.5161C34.9644 83.0311 34.3066 82.7586 33.6207 82.7586"
          fill="currentColor"/>
    <path d="M43.9655 87.931C45.3939 87.931 46.5517 86.7732 46.5517 85.3448C46.5517 83.9165 45.3939 82.7586 43.9655 82.7586C42.5372 82.7586 41.3793 83.9165 41.3793 85.3448C41.3793 86.7732 42.5372 87.931 43.9655 87.931Z"
          fill="currentColor"/>
    <path d="M100.862 87.931C102.29 87.931 103.448 86.7732 103.448 85.3448C103.448 83.9165 102.29 82.7586 100.862 82.7586C99.4338 82.7586 98.2759 83.9165 98.2759 85.3448C98.2759 86.7732 99.4338 87.931 100.862 87.931Z"
          fill="currentColor"/>
    <path d="M113.793 82.7586H108.621V85.3448C108.621 86.0307 108.893 86.6885 109.378 87.1735C109.863 87.6586 110.521 87.931 111.207 87.931C111.893 87.931 112.551 87.6586 113.036 87.1735C113.521 86.6885 113.793 86.0307 113.793 85.3448"
          fill="currentColor"/>
    <path d="M144.828 87.931V82.7586H142.241C141.555 82.7586 140.898 83.0311 140.413 83.5161C139.928 84.0011 139.655 84.6589 139.655 85.3448C139.655 86.0307 139.928 86.6885 140.413 87.1735C140.898 87.6586 141.555 87.931 142.241 87.931"
          fill="currentColor"/>
    <path d="M144.828 82.7586V87.931H150V85.3448C150 84.6589 149.728 84.0011 149.243 83.5161C148.757 83.0311 148.1 82.7586 147.414 82.7586"
          fill="currentColor"/>
    <path d="M5.17242 87.931H1.04904e-05V90.5172C1.04904e-05 91.2031 0.272489 91.8609 0.757496 92.346C1.2425 92.831 1.90031 93.1034 2.58622 93.1034C3.27212 93.1034 3.92993 92.831 4.41494 92.346C4.89995 91.8609 5.17242 91.2031 5.17242 90.5172"
          fill="currentColor"/>
    <path d="M12.9311 93.1034C14.3594 93.1034 15.5173 91.9456 15.5173 90.5172C15.5173 89.0889 14.3594 87.931 12.9311 87.931C11.5027 87.931 10.3448 89.0889 10.3448 90.5172C10.3448 91.9456 11.5027 93.1034 12.9311 93.1034Z"
          fill="currentColor"/>
    <path d="M25.8621 93.1034V87.931H23.2759C22.5899 87.931 21.9321 88.2035 21.4471 88.6885C20.9621 89.1735 20.6896 89.8313 20.6896 90.5172C20.6896 91.2031 20.9621 91.8609 21.4471 92.346C21.9321 92.831 22.5899 93.1034 23.2759 93.1034"
          fill="currentColor"/>
    <path d="M31.0345 87.931H25.8621V93.1034H28.4483C29.1342 93.1034 29.792 92.831 30.277 92.346C30.762 91.8609 31.0345 91.2031 31.0345 90.5172"
          fill="currentColor"/>
    <path d="M36.2069 93.1034H41.3793V90.5172C41.3793 89.8313 41.1068 89.1735 40.6218 88.6885C40.1368 88.2035 39.479 87.931 38.7931 87.931C38.1072 87.931 37.4494 88.2035 36.9644 88.6885C36.4794 89.1735 36.2069 89.8313 36.2069 90.5172"
          fill="currentColor"/>
    <path d="M118.966 93.1034V87.931H116.379C115.693 87.931 115.036 88.2035 114.551 88.6885C114.066 89.1735 113.793 89.8313 113.793 90.5172C113.793 91.2031 114.066 91.8609 114.551 92.346C115.036 92.831 115.693 93.1034 116.379 93.1034"
          fill="currentColor"/>
    <path d="M124.138 87.931H118.966V93.1034H124.138V87.931Z" fill="currentColor"/>
    <path d="M124.138 87.931V93.1034H126.724C127.41 93.1034 128.068 92.831 128.553 92.346C129.038 91.8609 129.31 91.2031 129.31 90.5172C129.31 89.8313 129.038 89.1735 128.553 88.6885C128.068 88.2035 127.41 87.931 126.724 87.931"
          fill="currentColor"/>
    <path d="M150 87.931H144.828V93.1034H150V87.931Z" fill="currentColor"/>
    <path d="M36.2069 98.2759V93.1034H33.6207C32.9348 93.1034 32.277 93.3759 31.792 93.8609C31.307 94.3459 31.0345 95.0037 31.0345 95.6896C31.0345 96.3756 31.307 97.0334 31.792 97.5184C32.277 98.0034 32.9348 98.2759 33.6207 98.2759"
          fill="currentColor"/>
    <path d="M41.3793 93.1034H36.2069V98.2759H41.3793V93.1034Z" fill="currentColor"/>
    <path d="M103.448 98.2759H108.621V95.6896C108.621 95.0037 108.348 94.3459 107.863 93.8609C107.378 93.3759 106.72 93.1034 106.034 93.1034C105.349 93.1034 104.691 93.3759 104.206 93.8609C103.721 94.3459 103.448 95.0037 103.448 95.6896"
          fill="currentColor"/>
    <path d="M129.31 98.2759H134.483V93.1034H131.897C131.211 93.1034 130.553 93.3759 130.068 93.8609C129.583 94.3459 129.31 95.0037 129.31 95.6896"
          fill="currentColor"/>
    <path d="M134.483 93.1034V98.2759H137.069C137.755 98.2759 138.413 98.0034 138.898 97.5184C139.383 97.0334 139.655 96.3756 139.655 95.6896C139.655 95.0037 139.383 94.3459 138.898 93.8609C138.413 93.3759 137.755 93.1034 137.069 93.1034"
          fill="currentColor"/>
    <path d="M150 93.1034H144.828V95.6896C144.828 96.3756 145.1 97.0334 145.585 97.5184C146.07 98.0034 146.728 98.2759 147.414 98.2759C148.1 98.2759 148.758 98.0034 149.243 97.5184C149.728 97.0334 150 96.3756 150 95.6896"
          fill="currentColor"/>
    <path d="M15.5172 103.448H20.6896V100.862C20.6896 100.176 20.4171 99.5183 19.9321 99.0333C19.4471 98.5483 18.7893 98.2759 18.1034 98.2759C17.4175 98.2759 16.7597 98.5483 16.2747 99.0333C15.7897 99.5183 15.5172 100.176 15.5172 100.862"
          fill="currentColor"/>
    <path d="M25.8621 103.448H31.0345V100.862C31.0345 100.176 30.762 99.5183 30.277 99.0333C29.792 98.5483 29.1342 98.2759 28.4483 98.2759C27.7624 98.2759 27.1046 98.5483 26.6195 99.0333C26.1345 99.5183 25.8621 100.176 25.8621 100.862"
          fill="currentColor"/>
    <path d="M41.3793 98.2759H36.2069V103.448H41.3793V98.2759Z" fill="currentColor"/>
    <path d="M41.3793 98.2759V103.448H43.9655C44.6514 103.448 45.3093 103.176 45.7943 102.691C46.2793 102.206 46.5517 101.548 46.5517 100.862C46.5517 100.176 46.2793 99.5184 45.7943 99.0333C45.3093 98.5483 44.6514 98.2759 43.9655 98.2759"
          fill="currentColor"/>
    <path d="M56.8965 103.448V98.2759H54.3103C53.6244 98.2759 52.9666 98.5483 52.4816 99.0333C51.9966 99.5183 51.7241 100.176 51.7241 100.862C51.7241 101.548 51.9966 102.206 52.4816 102.691C52.9666 103.176 53.6244 103.448 54.3103 103.448"
          fill="currentColor"/>
    <path d="M62.069 98.2759H56.8965V103.448H62.069V98.2759Z" fill="currentColor"/>
    <path d="M62.069 98.2759V103.448H64.6552C65.3411 103.448 65.9989 103.176 66.4839 102.691C66.9689 102.206 67.2414 101.548 67.2414 100.862C67.2414 100.176 66.9689 99.5184 66.4839 99.0333C65.9989 98.5483 65.3411 98.2759 64.6552 98.2759"
          fill="currentColor"/>
    <path d="M87.931 103.448H93.1034V98.2759H90.5172C89.8313 98.2759 89.1735 98.5483 88.6885 99.0333C88.2035 99.5183 87.931 100.176 87.931 100.862"
          fill="currentColor"/>
    <path d="M93.1035 98.2759V103.448H95.6897C96.3756 103.448 97.0334 103.176 97.5184 102.691C98.0034 102.206 98.2759 101.548 98.2759 100.862C98.2759 100.176 98.0034 99.5184 97.5184 99.0333C97.0334 98.5483 96.3756 98.2759 95.6897 98.2759"
          fill="currentColor"/>
    <path d="M108.621 98.2759H103.448V103.448H108.621V98.2759Z" fill="currentColor"/>
    <path d="M124.138 103.448H129.31V98.2759H126.724C126.038 98.2759 125.38 98.5483 124.895 99.0333C124.41 99.5183 124.138 100.176 124.138 100.862"
          fill="currentColor"/>
    <path d="M134.483 98.2759H129.31V103.448H134.483V98.2759Z" fill="currentColor"/>
    <path d="M5.17242 108.621L5.17242 103.448H2.58622C1.90031 103.448 1.2425 103.721 0.757492 104.206C0.272484 104.691 1.04904e-05 105.349 1.04904e-05 106.034C1.04904e-05 106.72 0.272484 107.378 0.757492 107.863C1.2425 108.348 1.90031 108.621 2.58622 108.621"
          fill="currentColor"/>
    <path d="M5.17242 103.448V108.621H7.75863C8.44454 108.621 9.10235 108.348 9.58736 107.863C10.0724 107.378 10.3448 106.72 10.3448 106.034C10.3448 105.349 10.0724 104.691 9.58736 104.206C9.10235 103.721 8.44454 103.448 7.75863 103.448"
          fill="currentColor"/>
    <path d="M20.6896 103.448H15.5172V106.034C15.5172 106.72 15.7897 107.378 16.2747 107.863C16.7597 108.348 17.4175 108.621 18.1034 108.621C18.7893 108.621 19.4471 108.348 19.9322 107.863C20.4172 107.378 20.6896 106.72 20.6896 106.034"
          fill="currentColor"/>
    <path d="M31.0345 108.621V103.448H25.8621V106.034C25.8621 106.72 26.1345 107.378 26.6196 107.863C27.1046 108.348 27.7624 108.621 28.4483 108.621"
          fill="currentColor"/>
    <path d="M36.2069 103.448H31.0345V108.621H36.2069V103.448Z" fill="currentColor"/>
    <path d="M41.3793 103.448H36.2069V108.621H38.7931C39.479 108.621 40.1368 108.348 40.6218 107.863C41.1069 107.378 41.3793 106.72 41.3793 106.034"
          fill="currentColor"/>
    <path d="M46.5517 108.621H51.7241V106.034C51.7241 105.349 51.4516 104.691 50.9666 104.206C50.4816 103.721 49.8238 103.448 49.1379 103.448C48.452 103.448 47.7942 103.721 47.3092 104.206C46.8242 104.691 46.5517 105.349 46.5517 106.034"
          fill="currentColor"/>
    <path d="M62.069 103.448H56.8965V108.621H62.069V103.448Z" fill="currentColor"/>
    <path d="M72.4138 108.621H77.5862V103.448H75C74.3141 103.448 73.6563 103.721 73.1712 104.206C72.6862 104.691 72.4138 105.349 72.4138 106.034"
          fill="currentColor"/>
    <path d="M77.5862 103.448V108.621H82.7586V106.034C82.7586 105.349 82.4861 104.691 82.0011 104.206C81.5161 103.721 80.8583 103.448 80.1724 103.448"
          fill="currentColor"/>
    <path d="M93.1034 103.448H87.931V108.621H93.1034V103.448Z" fill="currentColor"/>
    <path d="M103.448 108.621V103.448H100.862C100.176 103.448 99.5183 103.721 99.0333 104.206C98.5483 104.691 98.2758 105.349 98.2758 106.034C98.2758 106.72 98.5483 107.378 99.0333 107.863C99.5183 108.348 100.176 108.621 100.862 108.621"
          fill="currentColor"/>
    <path d="M108.621 103.448H103.448V108.621H108.621V103.448Z" fill="currentColor"/>
    <path d="M113.793 103.448H108.621V108.621H113.793V103.448Z" fill="currentColor"/>
    <path d="M118.966 103.448H113.793V108.621H118.966V103.448Z" fill="currentColor"/>
    <path d="M124.138 103.448H118.966V108.621H124.138V103.448Z" fill="currentColor"/>
    <path d="M129.31 103.448H124.138V108.621H129.31V103.448Z" fill="currentColor"/>
    <path d="M134.483 103.448H129.31V108.621H131.897C132.582 108.621 133.24 108.348 133.725 107.863C134.21 107.378 134.483 106.72 134.483 106.034"
          fill="currentColor"/>
    <path d="M144.828 108.621H150V106.034C150 105.349 149.728 104.691 149.243 104.206C148.757 103.721 148.1 103.448 147.414 103.448C146.728 103.448 146.07 103.721 145.585 104.206C145.1 104.691 144.828 105.349 144.828 106.034"
          fill="currentColor"/>
    <path d="M46.5517 113.793V108.621H43.9655C43.2796 108.621 42.6218 108.893 42.1368 109.378C41.6518 109.863 41.3793 110.521 41.3793 111.207C41.3793 111.893 41.6518 112.551 42.1368 113.036C42.6218 113.521 43.2796 113.793 43.9655 113.793"
          fill="currentColor"/>
    <path d="M51.7241 108.621H46.5517V113.793H49.1379C49.8238 113.793 50.4816 113.521 50.9666 113.036C51.4516 112.551 51.7241 111.893 51.7241 111.207"
          fill="currentColor"/>
    <path d="M62.069 108.621H56.8965V113.793H62.069V108.621Z" fill="currentColor"/>
    <path d="M67.2414 108.621H62.069V113.793H67.2414V108.621Z" fill="currentColor"/>
    <path d="M72.4138 108.621H67.2414V113.793H72.4138V108.621Z" fill="currentColor"/>
    <path d="M77.5862 108.621H72.4138V113.793H77.5862V108.621Z" fill="currentColor"/>
    <path d="M82.7586 108.621H77.5862V113.793H82.7586V108.621Z" fill="currentColor"/>
    <path d="M87.931 108.621H82.7586V113.793H87.931V108.621Z" fill="currentColor"/>
    <path d="M93.1034 108.621H87.931V113.793H93.1034V108.621Z" fill="currentColor"/>
    <path d="M93.1035 108.621V113.793H98.2759V111.207C98.2759 110.521 98.0034 109.863 97.5184 109.378C97.0334 108.893 96.3756 108.621 95.6897 108.621"
          fill="currentColor"/>
    <path d="M108.621 108.621H103.448V113.793H108.621V108.621Z" fill="currentColor"/>
    <path d="M129.31 108.621H124.138V113.793H129.31V108.621Z" fill="currentColor"/>
    <path d="M137.069 113.793C138.497 113.793 139.655 112.635 139.655 111.207C139.655 109.779 138.497 108.621 137.069 108.621C135.641 108.621 134.483 109.779 134.483 111.207C134.483 112.635 135.641 113.793 137.069 113.793Z"
          fill="currentColor"/>
    <path d="M150 108.621H144.828V113.793H150V108.621Z" fill="currentColor"/>
    <path d="M62.069 113.793H56.8966V116.379C56.8966 117.065 57.169 117.723 57.654 118.208C58.139 118.693 58.7969 118.966 59.4828 118.966C60.1687 118.966 60.8265 118.693 61.3115 118.208C61.7965 117.723 62.069 117.065 62.069 116.379"
          fill="currentColor"/>
    <path d="M82.7586 113.793H77.5862V116.379C77.5862 117.065 77.8587 117.723 78.3437 118.208C78.8287 118.693 79.4865 118.966 80.1724 118.966C80.8583 118.966 81.5161 118.693 82.0011 118.208C82.4861 117.723 82.7586 117.065 82.7586 116.379"
          fill="currentColor"/>
    <path d="M98.2759 118.966V113.793H93.1035V116.379C93.1035 117.065 93.3759 117.723 93.861 118.208C94.346 118.693 95.0038 118.966 95.6897 118.966"
          fill="currentColor"/>
    <path d="M103.448 113.793H98.2759V118.966H103.448V113.793Z" fill="currentColor"/>
    <path d="M108.621 113.793H103.448V118.966H108.621V113.793Z" fill="currentColor"/>
    <path d="M116.379 118.966C117.808 118.966 118.966 117.808 118.966 116.379C118.966 114.951 117.808 113.793 116.379 113.793C114.951 113.793 113.793 114.951 113.793 116.379C113.793 117.808 114.951 118.966 116.379 118.966Z"
          fill="currentColor"/>
    <path d="M129.31 113.793H124.138V118.966H129.31V113.793Z" fill="currentColor"/>
    <path d="M150 113.793H144.828V118.966H150V113.793Z" fill="currentColor"/>
    <path d="M46.5517 124.138H51.7241V118.966H49.1379C48.452 118.966 47.7942 119.238 47.3092 119.723C46.8242 120.208 46.5517 120.866 46.5517 121.552"
          fill="currentColor"/>
    <path d="M51.7241 118.966V124.138H56.8965V121.552C56.8965 120.866 56.6241 120.208 56.1391 119.723C55.654 119.238 54.9962 118.966 54.3103 118.966"
          fill="currentColor"/>
    <path d="M64.6552 124.138C66.0835 124.138 67.2414 122.98 67.2414 121.552C67.2414 120.123 66.0835 118.966 64.6552 118.966C63.2269 118.966 62.069 120.123 62.069 121.552C62.069 122.98 63.2269 124.138 64.6552 124.138Z"
          fill="currentColor"/>
    <path d="M72.4138 124.138H77.5862V121.552C77.5862 120.866 77.3137 120.208 76.8287 119.723C76.3437 119.238 75.6859 118.966 75 118.966C74.3141 118.966 73.6563 119.238 73.1712 119.723C72.6862 120.208 72.4138 120.866 72.4138 121.552"
          fill="currentColor"/>
    <path d="M103.448 118.966H98.2759V124.138H103.448V118.966Z" fill="currentColor"/>
    <path d="M108.621 118.966H103.448V124.138H108.621V118.966Z" fill="currentColor"/>
    <path d="M129.31 118.966H124.138V124.138H129.31V118.966Z" fill="currentColor"/>
    <path d="M129.31 118.966V124.138H131.897C132.582 124.138 133.24 123.865 133.725 123.38C134.21 122.895 134.483 122.238 134.483 121.552C134.483 120.866 134.21 120.208 133.725 119.723C133.24 119.238 132.582 118.966 131.897 118.966"
          fill="currentColor"/>
    <path d="M139.655 124.138H144.828V118.966H142.241C141.555 118.966 140.898 119.238 140.413 119.723C139.928 120.208 139.655 120.866 139.655 121.552"
          fill="currentColor"/>
    <path d="M150 118.966H144.828V124.138H150V118.966Z" fill="currentColor"/>
    <path d="M46.5517 129.31V124.138H43.9655C43.2796 124.138 42.6218 124.41 42.1368 124.895C41.6518 125.38 41.3793 126.038 41.3793 126.724C41.3793 127.41 41.6518 128.068 42.1368 128.553C42.6218 129.038 43.2796 129.31 43.9655 129.31"
          fill="currentColor"/>
    <path d="M51.7241 124.138H46.5517V129.31H51.7241V124.138Z" fill="currentColor"/>
    <path d="M56.8965 124.138H51.7241V129.31H54.3103C54.9962 129.31 55.6541 129.038 56.1391 128.553C56.6241 128.068 56.8965 127.41 56.8965 126.724"
          fill="currentColor"/>
    <path d="M77.5862 129.31V124.138H72.4138V126.724C72.4138 127.41 72.6862 128.068 73.1712 128.553C73.6563 129.038 74.3141 129.31 75 129.31"
          fill="currentColor"/>
    <path d="M82.7586 124.138H77.5862V129.31H82.7586V124.138Z" fill="currentColor"/>
    <path d="M82.7586 124.138V129.31H85.3448C86.0307 129.31 86.6885 129.038 87.1735 128.553C87.6585 128.068 87.931 127.41 87.931 126.724C87.931 126.038 87.6585 125.38 87.1735 124.895C86.6885 124.41 86.0307 124.138 85.3448 124.138"
          fill="currentColor"/>
    <path d="M103.448 129.31V124.138H98.2758V126.724C98.2758 127.41 98.5483 128.068 99.0333 128.553C99.5183 129.038 100.176 129.31 100.862 129.31"
          fill="currentColor"/>
    <path d="M108.621 124.138H103.448V129.31H108.621V124.138Z" fill="currentColor"/>
    <path d="M113.793 124.138H108.621V129.31H113.793V124.138Z" fill="currentColor"/>
    <path d="M118.966 124.138H113.793V129.31H118.966V124.138Z" fill="currentColor"/>
    <path d="M124.138 124.138H118.966V129.31H124.138V124.138Z" fill="currentColor"/>
    <path d="M129.31 124.138H124.138V129.31H126.724C127.41 129.31 128.068 129.038 128.553 128.553C129.038 128.068 129.31 127.41 129.31 126.724"
          fill="currentColor"/>
    <path d="M144.828 124.138H139.655V129.31H144.828V124.138Z" fill="currentColor"/>
    <path d="M150 124.138H144.828V129.31H147.414C148.1 129.31 148.758 129.038 149.243 128.553C149.728 128.068 150 127.41 150 126.724"
          fill="currentColor"/>
    <path d="M62.069 134.483H67.2414V131.897C67.2414 131.211 66.9689 130.553 66.4839 130.068C65.9989 129.583 65.3411 129.31 64.6552 129.31C63.9693 129.31 63.3115 129.583 62.8265 130.068C62.3414 130.553 62.069 131.211 62.069 131.897"
          fill="currentColor"/>
    <path d="M95.6897 134.483C97.118 134.483 98.2759 133.325 98.2759 131.897C98.2759 130.468 97.118 129.31 95.6897 129.31C94.2613 129.31 93.1035 130.468 93.1035 131.897C93.1035 133.325 94.2613 134.483 95.6897 134.483Z"
          fill="currentColor"/>
    <path d="M124.138 129.31H118.966V131.897C118.966 132.582 119.238 133.24 119.723 133.725C120.208 134.21 120.866 134.483 121.552 134.483C122.238 134.483 122.895 134.21 123.38 133.725C123.865 133.24 124.138 132.582 124.138 131.897"
          fill="currentColor"/>
    <path d="M134.483 134.483H139.655V129.31H137.069C136.383 129.31 135.725 129.583 135.24 130.068C134.755 130.553 134.483 131.211 134.483 131.897"
          fill="currentColor"/>
    <path d="M144.828 129.31H139.655V134.483H144.828V129.31Z" fill="currentColor"/>
    <path d="M51.7241 139.655H56.8965V134.483H54.3103C53.6244 134.483 52.9666 134.755 52.4816 135.24C51.9966 135.725 51.7241 136.383 51.7241 137.069"
          fill="currentColor"/>
    <path d="M62.069 134.483H56.8965V139.655H62.069V134.483Z" fill="currentColor"/>
    <path d="M67.2414 134.483H62.069V139.655H67.2414V134.483Z" fill="currentColor"/>
    <path d="M72.4138 134.483H67.2414V139.655H72.4138V134.483Z" fill="currentColor"/>
    <path d="M77.5862 134.483H72.4138V139.655H77.5862V134.483Z" fill="currentColor"/>
    <path d="M77.5862 134.483V139.655H82.7586V137.069C82.7586 136.383 82.4861 135.725 82.0011 135.24C81.5161 134.755 80.8583 134.483 80.1724 134.483"
          fill="currentColor"/>
    <path d="M103.448 139.655V134.483H100.862C100.176 134.483 99.5183 134.755 99.0333 135.24C98.5483 135.725 98.2758 136.383 98.2758 137.069C98.2758 137.755 98.5483 138.413 99.0333 138.898C99.5183 139.383 100.176 139.655 100.862 139.655"
          fill="currentColor"/>
    <path d="M108.621 134.483H103.448V139.655H108.621V134.483Z" fill="currentColor"/>
    <path d="M108.621 134.483V139.655H111.207C111.893 139.655 112.551 139.383 113.036 138.898C113.521 138.413 113.793 137.755 113.793 137.069C113.793 136.383 113.521 135.725 113.036 135.24C112.551 134.755 111.893 134.483 111.207 134.483"
          fill="currentColor"/>
    <path d="M139.655 139.655V134.483H134.483V137.069C134.483 137.755 134.755 138.413 135.24 138.898C135.725 139.383 136.383 139.655 137.069 139.655"
          fill="currentColor"/>
    <path d="M144.828 134.483H139.655V139.655H144.828V134.483Z" fill="currentColor"/>
    <path d="M144.828 134.483V139.655H150V137.069C150 136.383 149.728 135.725 149.243 135.24C148.757 134.755 148.1 134.483 147.414 134.483"
          fill="currentColor"/>
    <path d="M46.5517 144.828V139.655H43.9655C43.2796 139.655 42.6218 139.928 42.1368 140.413C41.6518 140.898 41.3793 141.555 41.3793 142.241C41.3793 142.927 41.6518 143.585 42.1368 144.07C42.6218 144.555 43.2796 144.828 43.9655 144.828"
          fill="currentColor"/>
    <path d="M51.7241 139.655H46.5517V144.828H51.7241V139.655Z" fill="currentColor"/>
    <path d="M56.8965 139.655H51.7241V144.828H56.8965V139.655Z" fill="currentColor"/>
    <path d="M62.069 139.655H56.8965V144.828H62.069V139.655Z" fill="currentColor"/>
    <path d="M82.7586 144.828V139.655H77.5862V142.241C77.5862 142.927 77.8587 143.585 78.3437 144.07C78.8287 144.555 79.4865 144.828 80.1724 144.828"
          fill="currentColor"/>
    <path d="M87.931 139.655H82.7586V144.828H87.931V139.655Z" fill="currentColor"/>
    <path d="M93.1034 139.655H87.931V144.828H93.1034V139.655Z" fill="currentColor"/>
    <path d="M93.1035 139.655V144.828H95.6897C96.3756 144.828 97.0334 144.555 97.5184 144.07C98.0034 143.585 98.2759 142.927 98.2759 142.241C98.2759 141.555 98.0034 140.898 97.5184 140.413C97.0334 139.928 96.3756 139.655 95.6897 139.655"
          fill="currentColor"/>
    <path d="M108.621 139.655H103.448V144.828H108.621V139.655Z" fill="currentColor"/>
    <path d="M121.552 144.828C122.98 144.828 124.138 143.67 124.138 142.241C124.138 140.813 122.98 139.655 121.552 139.655C120.123 139.655 118.966 140.813 118.966 142.241C118.966 143.67 120.123 144.828 121.552 144.828Z"
          fill="currentColor"/>
    <path d="M129.31 144.828H134.483V142.241C134.483 141.555 134.21 140.898 133.725 140.413C133.24 139.928 132.582 139.655 131.897 139.655C131.211 139.655 130.553 139.928 130.068 140.413C129.583 140.898 129.31 141.555 129.31 142.241"
          fill="currentColor"/>
    <path d="M144.828 139.655H139.655V144.828H144.828V139.655Z" fill="currentColor"/>
    <path d="M150 139.655H144.828V144.828H147.414C148.1 144.828 148.758 144.555 149.243 144.07C149.728 143.585 150 142.927 150 142.241"
          fill="currentColor"/>
    <path d="M56.8965 150V144.828H51.7241V147.414C51.7241 148.1 51.9966 148.758 52.4816 149.243C52.9666 149.728 53.6244 150 54.3103 150"
          fill="currentColor"/>
    <path d="M62.069 144.828H56.8966V150H59.4828C60.1687 150 60.8265 149.728 61.3115 149.243C61.7965 148.758 62.069 148.1 62.069 147.414"
          fill="currentColor"/>
    <path d="M69.8276 150C71.2559 150 72.4138 148.842 72.4138 147.414C72.4138 145.985 71.2559 144.828 69.8276 144.828C68.3993 144.828 67.2414 145.985 67.2414 147.414C67.2414 148.842 68.3993 150 69.8276 150Z"
          fill="currentColor"/>
    <path d="M93.1035 144.828H87.931V147.414C87.931 148.1 88.2035 148.757 88.6885 149.243C89.1735 149.728 89.8313 150 90.5172 150C91.2032 150 91.861 149.728 92.346 149.243C92.831 148.757 93.1035 148.1 93.1035 147.414"
          fill="currentColor"/>
    <path d="M108.621 144.828H103.448V147.414C103.448 148.1 103.721 148.757 104.206 149.243C104.691 149.728 105.349 150 106.035 150C106.72 150 107.378 149.728 107.863 149.243C108.348 148.757 108.621 148.1 108.621 147.414"
          fill="currentColor"/>
    <path d="M116.379 150C117.808 150 118.966 148.842 118.966 147.414C118.966 145.985 117.808 144.828 116.379 144.828C114.951 144.828 113.793 145.985 113.793 147.414C113.793 148.842 114.951 150 116.379 150Z"
          fill="currentColor"/>
    <path d="M129.31 150V144.828H126.724C126.038 144.828 125.38 145.1 124.895 145.585C124.41 146.07 124.138 146.728 124.138 147.414C124.138 148.1 124.41 148.758 124.895 149.243C125.38 149.728 126.038 150 126.724 150"
          fill="currentColor"/>
    <path d="M134.483 144.828H129.31V150H131.897C132.582 150 133.24 149.728 133.725 149.243C134.21 148.757 134.483 148.1 134.483 147.414"
          fill="currentColor"/>
    <path d="M144.828 144.828H139.655V147.414C139.655 148.1 139.928 148.757 140.413 149.243C140.898 149.728 141.555 150 142.241 150C142.927 150 143.585 149.728 144.07 149.243C144.555 148.757 144.828 148.1 144.828 147.414"
          fill="currentColor"/>
    <g clip-path="url(#clip0_461_1569)">
        <path d="M76 97.6357C88.1503 97.6357 98 87.786 98 75.6357C98 63.4855 88.1503 53.6357 76 53.6357C63.8497 53.6357 54 63.4855 54 75.6357C54 87.786 63.8497 97.6357 76 97.6357Z"
              fill="url(#paint0_linear_461_1569)"/>
        <path fill-rule="evenodd" clip-rule="evenodd"
              d="M63.9584 75.4035C70.3719 72.6093 74.6486 70.7671 76.7884 69.8771C82.898 67.3359 84.1675 66.8945 84.995 66.8799C85.177 66.8767 85.5839 66.9218 85.8475 67.1357C86.0701 67.3163 86.1313 67.5602 86.1606 67.7315C86.1899 67.9027 86.2264 68.2928 86.1974 68.5975C85.8663 72.0762 84.4337 80.5182 83.7049 84.4144C83.3965 86.0631 82.7893 86.6159 82.2014 86.6699C80.9238 86.7875 79.9537 85.8256 78.7163 85.0145C76.78 83.7452 75.6861 82.9551 73.8066 81.7165C71.6345 80.2852 73.0426 79.4985 74.2805 78.2128C74.6044 77.8762 80.2334 72.7562 80.3424 72.2917C80.356 72.2337 80.3686 72.0171 80.24 71.9028C80.1114 71.7885 79.9215 71.8275 79.7845 71.8587C79.5903 71.9027 76.4971 73.9472 70.5048 77.9923C69.6268 78.5951 68.8315 78.8889 68.119 78.8735C67.3335 78.8565 65.8225 78.4293 64.6992 78.0642C63.3214 77.6164 62.2264 77.3796 62.3218 76.619C62.3714 76.2228 62.917 75.8177 63.9584 75.4035H63.9584Z"
              fill="white"/>
    </g>
    <defs>
        <linearGradient id="paint0_linear_461_1569" x1="2254" y1="53.6357" x2="2254" y2="4420.99"
                        gradientUnits="userSpaceOnUse">
            <stop stop-color="#2AABEE"/>
            <stop offset="1" stop-color="#229ED9"/>
        </linearGradient>
        <clipPath id="clip0_461_1569">
            <rect width="44" height="44" fill="white" transform="translate(54 53.6357)"/>
        </clipPath>
    </defs>
</svg>
