<svg width="128" height="129" viewBox="0 0 128 129" fill="none" xmlns="http://www.w3.org/2000/svg">
    <g clip-path="url(#clip0_389_7032)">
        <path d="M62.1309 70.7939H115.464" stroke="url(about-gradient)" stroke-width="4" stroke-miterlimit="10"
              stroke-linecap="round" stroke-linejoin="round"/>
        <path d="M62.1309 80.6592H115.464" stroke="url(about-gradient)" stroke-width="4" stroke-miterlimit="10"
              stroke-linecap="round" stroke-linejoin="round"/>
        <path d="M62.1309 90.5244H88.7975" stroke="url(about-gradient)" stroke-width="4" stroke-miterlimit="10"
              stroke-linecap="round" stroke-linejoin="round"/>
        <path d="M102.625 22.3789H113.603" stroke="url(about-gradient)" stroke-width="4" stroke-miterlimit="10"
              stroke-linecap="round" stroke-linejoin="round"/>
        <path d="M126.125 85.0763V109.613C126.125 113.76 122.789 117.122 118.674 117.122H9.32573C5.21074 117.122 1.875 113.76 1.875 109.613V19.387C1.875 15.2401 5.21074 11.8783 9.32573 11.8783H118.674C122.789 11.8783 126.125 15.2401 126.125 19.387V76.2421"
              stroke="url(about-gradient)" stroke-width="4" stroke-miterlimit="10" stroke-linecap="round"
              stroke-linejoin="round"/>
        <path d="M20.6492 32.8801H126.125" stroke="url(about-gradient)" stroke-width="4" stroke-miterlimit="10"
              stroke-linecap="round" stroke-linejoin="round"/>
        <path d="M1.875 32.8801H11.8835" stroke="url(about-gradient)" stroke-width="4" stroke-miterlimit="10"
              stroke-linecap="round" stroke-linejoin="round"/>
        <path d="M64.3526 58.6611C63.7633 58.6611 63.1981 58.4252 62.7814 58.0052C62.3647 57.5853 62.1306 57.0157 62.1306 56.4218V51.0353C62.1306 50.4414 62.3647 49.8718 62.7814 49.4518C63.1981 49.0319 63.7633 48.7959 64.3526 48.7959H113.242C113.534 48.7959 113.823 48.8539 114.092 48.9664C114.362 49.0789 114.607 49.2439 114.813 49.4518C115.019 49.6598 115.183 49.9067 115.295 50.1783C115.406 50.45 115.464 50.7412 115.464 51.0353V56.4218C115.464 56.7158 115.406 57.007 115.295 57.2787C115.183 57.5504 115.019 57.7973 114.813 58.0052C114.607 58.2132 114.362 58.3781 114.092 58.4907C113.823 58.6032 113.534 58.6611 113.242 58.6611H64.3526Z"
              stroke="url(about-gradient)" stroke-width="4" stroke-miterlimit="10" stroke-linecap="round"
              stroke-linejoin="round"/>
        <path d="M44.2291 55.2935C44.2291 53.7586 42.9943 52.5142 41.4713 52.5142H41.3783C40.8678 52.5142 40.4448 52.1005 40.4468 51.5863C40.4526 50.0461 39.2156 48.7959 37.6891 48.7959H28.9114C25.0049 48.7959 21.8381 51.9874 21.8381 55.9244L21.8456 65.9705C21.8491 66.8841 22.5784 67.6215 23.4739 67.6177C23.6368 67.6176 23.7939 67.6791 23.9139 67.7901C24.034 67.9011 24.1083 68.0535 24.1221 68.2171C24.3209 70.3973 25.2966 72.453 26.9394 73.8836C28.3826 75.1405 30.4091 76.2348 33.0799 76.2534C35.7506 76.2116 37.7678 75.1002 39.2011 73.8306C40.8316 72.3862 41.7903 70.3222 41.9711 68.1403C41.9835 67.9766 42.0565 67.8236 42.1756 67.7116C42.2947 67.5995 42.4512 67.5366 42.6141 67.5354C43.5096 67.5316 44.2328 66.7878 44.2291 65.8742V55.2935Z"
              stroke="url(about-gradient)" stroke-width="4" stroke-miterlimit="10" stroke-linecap="round"
              stroke-linejoin="round"/>
        <path d="M28.463 74.9848V77.2559C28.463 78.4361 27.618 79.4104 26.5237 79.6223C19.8752 80.9115 12.536 85.6742 12.536 94.0896V98.7832C12.536 99.2945 12.7375 99.7848 13.0962 100.146C13.4549 100.508 13.9415 100.711 14.4488 100.711H51.6186C51.8698 100.711 52.1186 100.661 52.3507 100.564C52.5827 100.467 52.7936 100.325 52.9712 100.146C53.1489 99.9674 53.2897 99.7549 53.3859 99.521C53.482 99.2871 53.5314 99.0364 53.5314 98.7832V94.0896C53.5314 85.6742 46.1919 80.9115 39.5437 79.6223C38.4494 79.4104 37.6044 78.4361 37.6044 77.2559V74.9924"
              stroke="url(about-gradient)" stroke-width="4" stroke-miterlimit="10" stroke-linecap="round"
              stroke-linejoin="round"/>
        <path d="M16.1683 22.3025C16.1455 22.3254 16.1355 22.3533 16.1355 22.3791C16.1355 22.4049 16.1455 22.4328 16.1683 22.4557C16.175 22.4625 16.1827 22.4687 16.1913 22.474C16.2122 22.4871 16.238 22.4952 16.2662 22.4952C16.2944 22.4952 16.3202 22.4871 16.3412 22.474C16.3497 22.4687 16.3574 22.4625 16.3642 22.4557C16.3869 22.4328 16.397 22.4049 16.397 22.3791C16.397 22.3533 16.3869 22.3254 16.3642 22.3025C16.3574 22.2957 16.3497 22.2895 16.3412 22.2842C16.3202 22.271 16.2944 22.2629 16.2662 22.2629C16.238 22.2629 16.2122 22.271 16.1913 22.2842C16.1827 22.2895 16.175 22.2957 16.1683 22.3025Z"
              fill="url(#about-gradient)" stroke="url(#about-gradient)" stroke-width="4"/>
        <path d="M24.9782 22.3025C24.9554 22.3254 24.9454 22.3533 24.9454 22.3791C24.9454 22.4049 24.9554 22.4328 24.9782 22.4557C24.985 22.4625 24.9927 22.4687 25.0012 22.474C25.0221 22.4871 25.0479 22.4952 25.0762 22.4952C25.1044 22.4952 25.1302 22.4871 25.1511 22.474C25.1596 22.4687 25.1674 22.4625 25.1741 22.4557C25.1969 22.4328 25.2069 22.4049 25.2069 22.3791C25.2069 22.3533 25.1969 22.3254 25.1741 22.3025C25.1674 22.2957 25.1596 22.2895 25.1511 22.2842C25.1302 22.271 25.1044 22.2629 25.0762 22.2629C25.0479 22.2629 25.0221 22.271 25.0012 22.2842C24.9927 22.2895 24.985 22.2957 24.9782 22.3025Z"
              fill="url(#about-gradient)" stroke="url(#about-gradient)" stroke-width="4"/>
        <path d="M33.7885 22.3025C33.7657 22.3254 33.7557 22.3533 33.7557 22.3791C33.7557 22.4049 33.7657 22.4328 33.7885 22.4557C33.7953 22.4625 33.803 22.4687 33.8115 22.474C33.8324 22.4871 33.8582 22.4952 33.8865 22.4952C33.9147 22.4952 33.9405 22.4871 33.9614 22.474C33.9699 22.4687 33.9777 22.4625 33.9844 22.4557C34.0072 22.4328 34.0172 22.4049 34.0172 22.3791C34.0172 22.3533 34.0072 22.3254 33.9844 22.3025C33.9777 22.2957 33.9699 22.2895 33.9614 22.2842C33.9405 22.271 33.9147 22.2629 33.8865 22.2629C33.8582 22.2629 33.8324 22.271 33.8115 22.2842C33.803 22.2895 33.7953 22.2957 33.7885 22.3025Z"
              fill="url(#about-gradient)" stroke="url(#about-gradient)" stroke-width="4"/>
    </g>
</svg>
