<svg width="112" height="114" viewBox="0 0 112 114" fill="none" xmlns="http://www.w3.org/2000/svg">
    <circle cx="23" cy="67" r="3" fill="url(#contact-gradient)"/>
    <circle cx="37" cy="67" r="3" fill="url(#contact-gradient)"/>
    <circle cx="53" cy="67" r="3" fill="url(#contact-gradient)"/>
    <rect x="59" y="21" width="34" height="2" rx="1" stroke="url(#contact-gradient)" stroke-width="2"/>
    <rect x="15" y="23" width="12" height="2" rx="1" stroke="url(#contact-gradient)" stroke-width="2"/>
    <rect x="85" y="87" width="12" height="2" rx="1" stroke="url(#contact-gradient)" stroke-width="2"/>
    <rect x="59" y="35" width="34" height="2" rx="1" stroke="url(#contact-gradient)" stroke-width="2"/>
    <path d="M72 53.9104H72.1974C72.7125 53.9104 73.2077 54.1092 73.5799 54.4653L90.6385 70.7843C91.9076 71.9983 94.0131 71.1043 94.021 69.3481L94.0819 55.9014C94.0869 54.8004 94.9808 53.9104 96.0819 53.9104H102C106.418 53.9104 110 50.3287 110 45.9104V10C110 5.58172 106.418 2 102 2H48C43.5817 2 40 5.58173 40 10V42M72 53.9104H48C43.5817 53.9104 40 50.3287 40 45.9104V42M72 53.9104V85.9104C72 90.3287 68.4183 93.9104 64 93.9104H39.8026C39.2875 93.9104 38.7923 94.1092 38.4201 94.4653L21.3615 110.784C20.0924 111.998 17.9869 111.104 17.979 109.348L17.9181 95.9014C17.9131 94.8004 17.0192 93.9104 15.9181 93.9104H10C5.58173 93.9104 2 90.3287 2 85.9104V50C2 45.5817 5.58172 42 10 42H40"
          stroke="url(#contact-gradient)" stroke-width="4"/>
</svg>
