<svg width="128" height="128" viewBox="0 0 128 128" fill="none" xmlns="http://www.w3.org/2000/svg">
    <path d="M112 12H16C11.588 12 8 15.588 8 20V88C8 92.412 11.588 96 16 96H28.7C31.352 95.936 31.314 92.05 28.7 92H16C13.794 92 12 90.206 12 88V31.998H39.172C40.3313 32.0007 41.4798 31.774 42.5511 31.3308C43.6224 30.8877 44.5954 30.2369 45.414 29.416C45.8614 28.9664 46.3934 28.6099 46.9794 28.3672C47.5654 28.1244 48.1937 28.0003 48.828 28.002H108C110.588 27.982 110.658 24.04 108 24.002H48.828C47.6687 23.9993 46.5202 24.226 45.4489 24.6692C44.3776 25.1123 43.4046 25.7631 42.586 26.584C42.1386 27.0336 41.6066 27.3901 41.0206 27.6328C40.4346 27.8756 39.8063 27.9997 39.172 27.998H12V20C12 17.794 13.794 16 16 16H112C114.206 16 116 17.794 116 20V88C116 90.206 114.206 92 112 92H99.3C96.66 92.034 96.686 95.968 99.3 96H112C116.412 96 120 92.412 120 88V20C120 15.588 116.412 12 112 12Z"
          fill="url(#project-gradient)"/>
    <path d="M33 22.0001C33.044 24.6281 36.956 24.6281 37 22.0001C36.956 19.3701 33.044 19.3701 33 22.0001ZM25 22.0001C25.044 24.6281 28.956 24.6281 29 22.0001C28.956 19.3701 25.044 19.3701 25 22.0001ZM17 22.0001C17.044 24.6281 20.956 24.6281 21 22.0001C20.956 19.3701 17.044 19.3701 17 22.0001ZM43.44 116C43.7645 116 44.0841 115.921 44.3712 115.77C44.6583 115.618 44.9043 115.4 45.088 115.132L51.742 105.444H54.446L55.844 110.922C56.172 112.215 56.9219 113.362 57.975 114.18C59.0281 114.999 60.3241 115.443 61.658 115.442H66.342C69.088 115.442 71.482 113.584 72.156 110.922L73.554 105.442H76.258L82.912 115.132C83.0957 115.4 83.3417 115.618 83.6288 115.77C83.9159 115.921 84.2355 116 84.56 116C86.916 116.466 94.334 102.988 90.49 91.2081C88.488 84.7641 84.34 80.6301 81.624 78.4861C80.832 71.6081 78.664 64.3241 74.004 57.5901C71.544 54.0381 67.898 52.0001 64 52.0001C52.194 52.1561 47.492 69.7541 46.376 78.4861C32.372 89.4261 35.544 106.93 41.828 115.186C42.014 115.439 42.2569 115.644 42.5369 115.785C42.8169 115.927 43.1263 116 43.44 116ZM68.28 109.938C68.1701 110.369 67.9197 110.751 67.5684 111.024C67.217 111.297 66.7848 111.445 66.34 111.444H61.66C61.2149 111.444 60.7825 111.296 60.4311 111.023C60.0797 110.75 59.8295 110.367 59.72 109.936L58.574 105.444H69.426L68.28 109.938ZM86.67 92.3981C89.046 100.018 86.39 106.82 84.48 110.35L79.486 103.078C80.654 98.8781 82.09 92.1041 82.002 84.3141C83.778 86.2781 85.596 88.9421 86.67 92.3981ZM57.286 59.8661C68.788 46.3881 77.326 70.6061 77.746 79.7521C78.626 88.4741 77.09 96.6221 75.792 101.442H52.208C48.894 90.4981 48.582 71.4201 57.286 59.8661ZM41.33 92.3921C42.404 88.9381 44.222 86.2761 45.998 84.3121C45.91 92.1021 47.346 98.8781 48.514 103.076L43.52 110.348C41.61 106.818 38.954 100.016 41.33 92.3921Z"
          fill="url(#project-gradient)"/>
    <path d="M64 83.9199C73.25 83.6259 73.248 70.2139 64 69.9199C54.75 70.2139 54.752 83.6259 64 83.9199ZM64 73.9199C67.942 73.9899 67.942 79.8499 64 79.9199C60.058 79.8499 60.058 73.9899 64 73.9199Z"
          fill="url(#project-gradient)"/>
</svg>
