<svg width="205" height="205" viewBox="0 0 205 205" fill="none" xmlns="http://www.w3.org/2000/svg">
    <path d="M89.6875 22.4219H105.703M118.516 22.4219H156.953M147.344 35.2344H156.953M134.531 35.2344H89.6875M89.6875 48.0469H121.719M99.2969 64.0625H156.953M89.6875 76.875H147.344M89.6875 89.6875H140.938M137.734 198.594L169.766 169.766M137.734 198.594V171.756C137.734 170.652 138.63 169.766 139.734 169.766H169.766M137.734 198.594H32.0312M169.766 169.766V115.312M32.0312 198.594H21.2187C20.1142 198.594 19.2188 197.698 19.2188 196.594V21.2188C19.2188 20.1142 20.1142 19.2188 21.2188 19.2188H32.0312M32.0312 198.594C32.0312 128.543 32.0312 89.269 32.0312 19.2188M169.766 115.312L118.516 166.562M169.766 115.312L172.969 112.109M32.0312 19.2188V8.40625C32.0312 7.30168 32.9267 6.40625 34.0312 6.40625H167.766C168.87 6.40625 169.766 7.30168 169.766 8.40625V76.875M169.766 76.875L153.75 92.8906M169.766 76.875L187.57 94.6795C188.351 95.4606 188.351 96.7269 187.57 97.508L172.969 112.109M99.2969 147.344L93.2949 171.352C93.1118 172.084 93.7695 172.749 94.5019 172.566L118.516 166.562M99.2969 147.344L118.516 166.562M99.2969 147.344L153.75 92.8906M153.75 92.8906L172.969 112.109M89.6875 121.719H124.922M99.2969 108.906H137.734M44.8438 20.2188V50.25C44.8438 50.8023 45.2915 51.25 45.8438 51.25H75.875C76.4273 51.25 76.875 50.8023 76.875 50.25V20.2187C76.875 19.6665 76.4273 19.2188 75.875 19.2188H45.8438C45.2915 19.2188 44.8438 19.6665 44.8438 20.2188ZM45.8438 64.0625H75.875C76.4273 64.0625 76.875 64.5102 76.875 65.0625V95.0938C76.875 95.646 76.4273 96.0938 75.875 96.0938H45.8438C45.2915 96.0938 44.8438 95.646 44.8438 95.0938V65.0625C44.8438 64.5102 45.2915 64.0625 45.8438 64.0625ZM45.8438 108.906H75.875C76.4273 108.906 76.875 109.354 76.875 109.906V139.938C76.875 140.49 76.4273 140.938 75.875 140.938H45.8438C45.2915 140.938 44.8438 140.49 44.8438 139.938V109.906C44.8438 109.354 45.2915 108.906 45.8438 108.906ZM45.8438 153.75H75.875C76.4273 153.75 76.875 154.198 76.875 154.75V184.781C76.875 185.334 76.4273 185.781 75.875 185.781H45.8438C45.2915 185.781 44.8438 185.334 44.8438 184.781V154.75C44.8438 154.198 45.2915 153.75 45.8438 153.75Z"
          stroke="url(#resume-gradient)" stroke-width="5" stroke-linecap="round" stroke-linejoin="round"/>
</svg>
