<svg width="128" height="128" viewBox="0 0 128 128" fill="none" xmlns="http://www.w3.org/2000/svg">
    <g clip-path="url(#clip0_389_7047)">
        <path d="M122.228 26.125H114.125V6.375C114.125 2.85925 111.266 0 107.75 0H80.75C77.2343 0 74.375 2.8595 74.375 6.375V26.125H62.625V10.125C62.625 6.60925 59.7655 3.75 56.25 3.75H19.75C16.2343 3.75 13.375 6.6095 13.375 10.125V26.125H5.7725C2.59 26.125 0 28.715 0 31.8975V39.9375C0 40.4348 0.197544 40.9117 0.549175 41.2633C0.900806 41.615 1.37772 41.8125 1.875 41.8125C2.37228 41.8125 2.84919 41.615 3.20083 41.2633C3.55246 40.9117 3.75 40.4348 3.75 39.9375V31.8975C3.75 30.7822 4.65725 29.875 5.7725 29.875H13.375V33.625H9.375C8.87772 33.625 8.40081 33.8225 8.04917 34.1742C7.69754 34.5258 7.5 35.0027 7.5 35.5V100.5C7.5 100.997 7.69754 101.474 8.04917 101.826C8.40081 102.177 8.87772 102.375 9.375 102.375H104C105.035 102.375 105.875 101.536 105.875 100.5C105.875 99.4638 105.035 98.625 104 98.625H11.25V37.375H13.3965C13.6522 40.6572 16.4032 43.25 19.75 43.25H34.8828V82.4275C34.8828 83.463 35.7228 84.3025 36.7578 84.3025H42.625C43.1223 84.3025 43.5992 84.105 43.9508 83.7533C44.3025 83.4017 44.5 82.9248 44.5 82.4275C44.5 81.9302 44.3025 81.4533 43.9508 81.1017C43.5992 80.75 43.1223 80.5525 42.625 80.5525H38.6328V43.25H56.25C59.5968 43.25 62.3475 40.6572 62.6035 37.375H75.791C76.961 38.8225 78.748 39.75 80.75 39.75H87.0703C87.9375 42.129 90.0557 43.91 92.625 44.297V57.708H86.5C86.0027 57.708 85.5258 57.9055 85.1742 58.2572C84.8225 58.6088 84.625 59.0857 84.625 59.583C84.625 60.0803 84.8225 60.5572 85.1742 60.9088C85.5258 61.2605 86.0027 61.458 86.5 61.458H94.5C94.9973 61.458 95.4742 61.2605 95.8258 60.9088C96.1775 60.5572 96.375 60.0803 96.375 59.583V44.297C98.9443 43.9103 101.062 42.129 101.93 39.75H107.75C109.751 39.75 111.539 38.8225 112.709 37.375H116.75V98.625H112.062C111.028 98.625 110.188 99.4638 110.188 100.5C110.188 101.536 111.028 102.375 112.062 102.375H118.625C119.122 102.375 119.599 102.177 119.951 101.826C120.302 101.474 120.5 100.997 120.5 100.5V35.5C120.5 35.0027 120.302 34.5258 119.951 34.1742C119.599 33.8225 119.122 33.625 118.625 33.625H114.119C114.122 33.542 114.125 33.459 114.125 33.375V29.875H122.228C123.343 29.875 124.25 30.7822 124.25 31.8975V104.103C124.25 105.218 123.343 106.125 122.228 106.125H5.7725C4.65725 106.125 3.75 105.218 3.75 104.103V47.9375C3.75 47.4402 3.55246 46.9633 3.20083 46.6117C2.84919 46.26 2.37228 46.0625 1.875 46.0625C1.37772 46.0625 0.900806 46.26 0.549175 46.6117C0.197544 46.9633 0 47.4402 0 47.9375L0 104.103C0 107.285 2.59 109.875 5.7725 109.875H50.875V116.75H31.75C28.6485 116.75 26.125 119.273 26.125 122.375C26.125 125.477 28.6485 128 31.75 128H96.25C99.3515 128 101.875 125.477 101.875 122.375C101.875 119.273 99.3515 116.75 96.25 116.75H77.125V109.875H122.228C125.41 109.875 128 107.285 128 104.103V31.8975C128 28.715 125.41 26.125 122.228 26.125ZM58.875 36.875C58.875 38.3225 57.6975 39.5 56.25 39.5H19.75C18.3025 39.5 17.125 38.3225 17.125 36.875V10.125C17.125 8.6775 18.3025 7.5 19.75 7.5H56.25C57.6975 7.5 58.875 8.6775 58.875 10.125V36.875ZM62.625 33.625V29.875H74.375V33.375C74.375 33.459 74.378 33.542 74.3808 33.625H62.625ZM95.3262 40.625H93.6738C91.9853 40.625 90.5918 39.3407 90.4163 37.6982L90.413 37.667C90.4021 37.5609 90.3966 37.4544 90.3965 37.3478V36.8807H98.6035V37.3478C98.6035 37.4649 98.597 37.5819 98.584 37.6982C98.4082 39.3407 97.0147 40.625 95.3262 40.625ZM107.75 36H102.354V35.877C102.354 35.0987 102.026 34.3965 101.504 33.8955C101.73 33.168 102.173 32.5282 102.787 32.0887C106.599 29.3602 108.875 24.9112 108.875 20.1885C108.875 17.4892 108.14 14.8525 106.75 12.5645C106.492 12.1394 106.075 11.8341 105.592 11.716C105.109 11.5979 104.599 11.6764 104.174 11.9345C103.289 12.4727 103.007 13.626 103.545 14.5107C104.578 16.213 105.125 18.1757 105.125 20.1882C105.125 23.704 103.435 27.0137 100.604 29.039C99.2198 30.0302 98.2432 31.4882 97.8185 33.1307H91.1817C90.7567 31.4882 89.7803 30.0302 88.3955 29.039C85.5655 27.0137 83.875 23.704 83.875 20.1885C83.875 14.2255 88.6415 9.375 94.5 9.375C95.8529 9.37269 97.1933 9.63406 98.4463 10.1445C98.6742 10.2376 98.9182 10.2848 99.1645 10.2835C99.4107 10.2822 99.6542 10.2323 99.8811 10.1368C100.108 10.0414 100.314 9.90206 100.487 9.72694C100.66 9.55182 100.797 9.3443 100.89 9.11625C100.983 8.88821 101.03 8.64409 101.029 8.39783C101.027 8.15156 100.977 7.90798 100.882 7.68098C100.786 7.45399 100.647 7.24803 100.472 7.07487C100.297 6.9017 100.089 6.76472 99.8613 6.67175C98.1591 5.97805 96.3381 5.62251 94.5 5.625C86.5732 5.625 80.125 12.1582 80.125 20.1885C80.125 24.911 82.4012 29.3602 86.213 32.0887C86.8272 32.5282 87.2695 33.168 87.496 33.8963C87.2275 34.1518 87.0138 34.4592 86.8677 34.7999C86.7217 35.1406 86.6464 35.5073 86.6465 35.878V36H80.75C79.3025 36 78.125 34.8225 78.125 33.375V6.375C78.125 4.9275 79.3025 3.75 80.75 3.75H107.75C109.197 3.75 110.375 4.9275 110.375 6.375V33.375C110.375 34.8225 109.197 36 107.75 36ZM98.125 122.375C98.125 123.409 97.2843 124.25 96.25 124.25H31.75C30.7157 124.25 29.875 123.409 29.875 122.375C29.875 121.341 30.7157 120.5 31.75 120.5H96.25C97.2843 120.5 98.125 121.341 98.125 122.375ZM73.375 116.75H54.625V109.875H73.375V116.75Z"
              fill="url(#tech-gradient)"/>
        <path d="M83.123 74.1035C85.515 73.5918 87.25 71.4453 87.25 69C87.25 66.5547 85.5148 64.4082 83.123 63.8965C82.4673 63.7538 81.81 63.6184 81.1513 63.4902L80.0245 60.7685C80.3988 60.2117 80.7676 59.6512 81.1308 59.087C82.46 57.0343 82.17 54.289 80.4405 52.5595C78.711 50.831 75.9658 50.54 73.913 51.8693C73.3491 52.2323 72.7889 52.6011 72.2325 52.9755L69.5107 51.8488C69.4227 51.3938 69.294 50.7637 69.1045 49.877C68.5927 47.485 66.4453 45.75 64 45.75C61.5547 45.75 59.4073 47.4852 58.8955 49.877C58.7537 50.5329 58.6182 51.1902 58.4893 51.8488L55.7675 52.9755C55.2111 52.6011 54.6509 52.2323 54.087 51.8693C52.0343 50.54 49.289 50.831 47.5595 52.5595C45.83 54.289 45.54 57.0343 46.8693 59.087C47.2324 59.6512 47.6012 60.2117 47.9755 60.7685L46.8488 63.4902C46.3938 63.578 45.7627 63.706 44.877 63.8965C42.485 64.4082 40.75 66.5547 40.75 69C40.75 71.4453 42.4852 73.5918 44.877 74.1035C45.5329 74.2458 46.1902 74.3816 46.8488 74.5107L47.9755 77.2315C47.6012 77.7883 47.2324 78.3488 46.8693 78.913C45.54 80.9658 45.83 83.711 47.5595 85.4405C49.289 87.169 52.0343 87.46 54.087 86.1308C54.6509 85.7677 55.2111 85.3989 55.7675 85.0245L58.4893 86.1523C58.5773 86.6065 58.706 87.2373 58.8955 88.123C59.4073 90.515 61.5547 92.25 64 92.25C66.4453 92.25 68.5927 90.5148 69.1045 88.123C69.2463 87.4671 69.3818 86.8098 69.5107 86.1513L72.2325 85.0245C72.6162 85.2842 73.1525 85.6388 73.913 86.1308C75.9658 87.46 78.711 87.169 80.4405 85.4405C82.17 83.711 82.46 80.9658 81.1308 78.913C80.7676 78.3488 80.3988 77.7883 80.0245 77.2315L81.1513 74.5098C81.6063 74.4228 82.2363 74.294 83.123 74.1035ZM48.1613 70.9463H48.1885H48.161H48.1613ZM79.7852 70.9473C79.8047 70.9463 79.8222 70.9463 79.837 70.9463H79.8515C79.829 70.9463 79.8065 70.9463 79.7852 70.9473ZM79.7607 70.9482C79.0225 70.9825 78.3692 71.4365 78.0782 72.1318L76.168 76.7432C75.8857 77.4277 76.0215 78.206 76.5175 78.7607C76.581 78.8417 76.877 79.2422 77.9835 80.9512C78.3575 81.5282 78.2755 82.3018 77.789 82.788C77.3018 83.2755 76.5282 83.3575 75.9512 82.9835C74.2842 81.9035 73.8623 81.5957 73.7675 81.5225C73.2218 81.0235 72.4395 80.8827 71.74 81.169L67.1407 83.074C66.4375 83.3615 65.9765 84.0225 65.9482 84.7657C65.9317 84.8925 65.8478 85.4207 65.4375 87.338C65.293 88.0117 64.6885 88.5 64 88.5C63.3115 88.5 62.707 88.0117 62.5625 87.338C62.1475 85.3975 62.0675 84.88 62.0518 84.7607C62.036 84.3964 61.9161 84.0441 61.7061 83.7459C61.4962 83.4476 61.205 83.2159 60.8672 83.0782L56.253 81.166C55.5547 80.881 54.7655 81.0263 54.2275 81.5263C54.123 81.6075 53.6865 81.9227 52.05 82.9835C51.4717 83.3575 50.6983 83.2763 50.212 82.789C49.9752 82.5506 49.8268 82.2386 49.7913 81.9045C49.7558 81.5704 49.8352 81.2341 50.0165 80.9512C51.0977 79.2812 51.4053 78.8613 51.4775 78.7675C51.723 78.4981 51.8867 78.1643 51.9493 77.8052C52.0119 77.4461 51.9709 77.0766 51.831 76.74L49.919 72.125C49.7794 71.7903 49.5476 71.502 49.2506 71.2939C48.9536 71.0858 48.6035 70.9662 48.2412 70.9492C48.127 70.9345 47.6172 70.8555 45.662 70.4375C44.9882 70.293 44.5 69.6885 44.5 69C44.5 68.3115 44.9882 67.707 45.662 67.5635C47.6055 67.1475 48.121 67.0665 48.2393 67.0518C48.9775 67.0175 49.6307 66.5635 49.9217 65.8682L51.832 61.2567C52.1143 60.5722 51.9785 59.794 51.4825 59.2393C51.419 59.1583 51.123 58.7578 50.0165 57.0488C49.6425 56.4718 49.7245 55.6983 50.211 55.212C50.6972 54.7245 51.4708 54.6425 52.0488 55.0165C53.7158 56.0965 54.1377 56.4043 54.2325 56.4775C54.7782 56.9765 55.5605 57.1173 56.26 56.831L60.8672 54.922C61.5655 54.6328 62.0235 53.9745 62.0518 53.2345C62.0683 53.1075 62.1522 52.579 62.5625 50.662C62.706 49.9882 63.3105 49.5 64 49.5C64.3359 49.5013 64.6614 49.6171 64.9226 49.8284C65.1838 50.0397 65.3651 50.3337 65.4365 50.662C65.8525 52.6045 65.9325 53.121 65.9482 53.2393C65.9825 53.9755 66.4325 54.6267 67.1308 54.9217L71.7483 56.835C72.4473 57.12 73.2345 56.9738 73.7725 56.4738C73.877 56.3938 74.3135 56.0772 75.95 55.0165C76.5282 54.6425 77.3018 54.7245 77.788 55.212C78.2755 55.6983 78.3575 56.4718 77.9835 57.0488C76.9022 58.7188 76.5947 59.1388 76.5225 59.2335C76.2769 59.5026 76.1131 59.8362 76.0505 60.1951C75.9879 60.554 76.029 60.9234 76.169 61.2598L78.0762 65.8652C78.2143 66.2028 78.4461 66.4938 78.7443 66.7039C79.0424 66.9139 79.3944 67.0343 79.7588 67.0508C79.873 67.0665 80.3837 67.1445 82.338 67.5632C83.0117 67.707 83.5 68.3115 83.5 69C83.5 69.6885 83.0107 70.293 82.338 70.4365C80.3945 70.8525 79.879 70.9335 79.7607 70.9482Z"
              fill="url(#tech-gradient)"/>
        <path d="M64 60.1543C59.123 60.1543 55.1553 64.1231 55.1553 69.0001C55.1553 73.8771 59.123 77.8458 64 77.8458C68.877 77.8458 72.8447 73.8771 72.8447 69.0001C72.8447 64.1231 68.877 60.1543 64 60.1543ZM64 74.0958C61.1905 74.0958 58.9053 71.8096 58.9053 69.0001C58.9053 66.1906 61.1902 63.9043 64 63.9043C66.8098 63.9043 69.0947 66.1906 69.0947 69.0001C69.0947 71.8096 66.8098 74.0958 64 74.0958ZM23 17.3001L37.6495 17.2988C37.8958 17.2988 38.1397 17.2503 38.3673 17.156C38.5948 17.0617 38.8016 16.9235 38.9757 16.7493C39.1498 16.5751 39.2879 16.3683 39.3821 16.1407C39.4762 15.9131 39.5246 15.6691 39.5245 15.4228C39.5245 15.1766 39.476 14.9329 39.3818 14.7054C39.2875 14.478 39.1494 14.2714 38.9753 14.0974C38.8011 13.9233 38.5944 13.7853 38.367 13.6912C38.1395 13.5971 37.8957 13.5487 37.6495 13.5488L23 13.5501C22.5027 13.5501 22.0258 13.7476 21.6742 14.0993C21.3225 14.4509 21.125 14.9278 21.125 15.4251C21.125 15.9224 21.3225 16.3993 21.6742 16.7509C22.0258 17.1025 22.5027 17.3001 23 17.3001ZM23 24.7988L53 24.7978C53.2462 24.7978 53.49 24.7493 53.7175 24.6551C53.945 24.5609 54.1517 24.4228 54.3258 24.2487C54.4999 24.0745 54.638 23.8678 54.7323 23.6404C54.8265 23.4129 54.875 23.1691 54.875 22.9228C54.875 22.6766 54.8265 22.4328 54.7323 22.2053C54.638 21.9778 54.4999 21.7711 54.3258 21.597C54.1517 21.4229 53.945 21.2848 53.7175 21.1906C53.49 21.0963 53.2462 21.0478 53 21.0478L23 21.0488C22.5027 21.0488 22.0258 21.2464 21.6742 21.598C21.3225 21.9496 21.125 22.4265 21.125 22.9238C21.125 23.4211 21.3225 23.898 21.6742 24.2497C22.0258 24.6013 22.5027 24.7988 23 24.7988ZM53 28.5478L23.001 28.5488C22.7547 28.5487 22.5109 28.5972 22.2834 28.6914C22.0558 28.7855 21.8491 28.9237 21.675 29.0978C21.5008 29.2719 21.3627 29.4787 21.2685 29.7062C21.1743 29.9337 21.1259 30.1776 21.126 30.4238C21.126 30.9211 21.3235 31.398 21.6752 31.7497C22.0268 32.1013 22.5037 32.2988 23.001 32.2988L53 32.2978C54.035 32.2978 54.875 31.4581 54.875 30.4228C54.875 29.3876 54.035 28.5478 53 28.5478Z"
              fill="url(#tech-gradient)"/>
    </g>

</svg>
