<svg xmlns="http://www.w3.org/2000/svg" width="64" height="64" fill="none" viewBox="0 0 64 64"><g clip-path="url(#clip0_151_7584)"><path fill="#00c58e" d="M21.296 51.468a2.93 2.93 0 0 1-.314-1.884H7.694l19.738-34.75 8.318 14.82 2.616-1.952-8.214-14.768A3.5 3.5 0 0 0 27.4 11.12a3.06 3.06 0 0 0-2.686 1.848l-20 35.186a3.46 3.46 0 0 0-.174 3.312 3.05 3.05 0 0 0 2.912 1.412H24.2a3.05 3.05 0 0 1-2.912-1.4z"/><path fill="#108775" d="M59.272 48.224 43.178 19.646a3.38 3.38 0 0 0-2.702-1.814 2.98 2.98 0 0 0-2.616 1.814l-2.128 3.4v6.6l4.742-8.142 15.902 28.142h-6.05c.096.57.011 1.155-.244 1.674l-.052.104a3.46 3.46 0 0 1-2.912 1.464h9.468a3.44 3.44 0 0 0 2.912-1.464 3.1 3.1 0 0 0-.244-3.2z"/><path fill="currentColor" d="m50.466 51.4.052-.104.14-.278c.17-.446.213-.931.122-1.4a4.2 4.2 0 0 0-.54-1.448l-12.572-21.8-1.9-3.312h-.034l-1.918 3.296-12.554 21.8a4.4 4.4 0 0 0-.488 1.43 2.88 2.88 0 0 0 .296 1.884 3.13 3.13 0 0 0 2.964 1.4H47.45a3.58 3.58 0 0 0 3.016-1.482zM35.732 29.672 47.24 49.6H24.224z"/></g><defs><clipPath id="clip0_151_7584"><path fill="#fff" d="M0 0h64v64H0z"/></clipPath></defs></svg>