<svg xmlns="http://www.w3.org/2000/svg" width="64" height="64" fill="none" viewBox="0 0 64 64"><g clip-path="url(#clip0_151_6820)"><path fill="#764abc" d="M43.574 43.112a4.23 4.23 0 0 0 3.817-4.354c-.076-2.252-1.985-4.054-4.276-4.054h-.152c-2.367.075-4.2 2.027-4.123 4.354.076 1.126.534 2.102 1.221 2.778-2.596 5.03-6.566 8.707-12.521 11.785-4.047 2.102-8.246 2.853-12.446 2.327-3.436-.45-6.108-1.951-7.788-4.429-2.443-3.678-2.672-7.657-.61-11.635 1.45-2.853 3.74-4.955 5.191-6.006-.305-.975-.763-2.627-.992-3.828C-.176 37.932.969 48.592 4.329 53.621c2.519 3.754 7.635 6.08 13.285 6.08 1.527 0 3.054-.15 4.581-.525 9.773-1.876 17.18-7.582 21.379-16.064m13.438-9.308c-5.803-6.681-14.355-10.36-24.128-10.36h-1.221c-.687-1.35-2.138-2.252-3.742-2.252h-.152c-2.367.075-4.2 2.027-4.123 4.354.076 2.252 1.985 4.054 4.275 4.054h.153c1.68-.075 3.13-1.126 3.741-2.553h1.375c5.803 0 11.3 1.652 16.263 4.88 3.817 2.477 6.566 5.705 8.093 9.608 1.298 3.153 1.222 6.231-.153 8.858-2.137 3.979-5.726 6.156-10.46 6.156-3.054 0-5.955-.901-7.482-1.577-.84.751-2.367 1.952-3.436 2.703 3.283 1.501 6.642 2.327 9.85 2.327 7.329 0 12.75-3.979 14.812-7.957 2.214-4.354 2.061-11.86-3.665-18.241M18.225 44.388C18.3 46.64 20.21 48.44 22.5 48.44h.153c2.367-.075 4.2-2.026 4.123-4.353-.076-2.253-1.985-4.054-4.276-4.054h-.152c-.153 0-.382 0-.535.075-3.13-5.105-4.428-10.66-3.97-16.665.305-4.504 1.832-8.407 4.505-11.635 2.214-2.778 6.49-4.13 9.391-4.204 8.093-.15 11.529 9.759 11.758 13.737.993.225 2.673.751 3.818 1.126-.916-12.16-8.552-18.466-15.881-18.466-6.872 0-13.21 4.88-15.73 12.086-3.511 9.608-1.22 18.841 3.055 26.123-.382.525-.61 1.351-.534 2.177"/></g><defs><clipPath id="clip0_151_6820"><path fill="#fff" d="M0 0h64v64H0z"/></clipPath></defs></svg>