<svg xmlns="http://www.w3.org/2000/svg" width="64" height="64" fill="none" viewBox="0 0 64 64"><g clip-path="url(#clip0_151_7513)"><path fill="#41b883" d="M48.8 7.85H60l-28 48.3L4 7.85h21.42L32 19.05l6.44-11.2z"/><path fill="#41b883" d="m4 7.85 28 48.3 28-48.3H48.8L32 36.83 15.06 7.85z"/><path fill="#35495e" d="M15.06 7.85 32 36.97 48.8 7.85H38.44L32 19.05l-6.58-11.2z"/><path fill="#99b8c4" d="m53.368 54.384.912-.894c4.224.136 4.288-.01 4.474-.438l1.16-2.786L60 50l-.094-.23c-.05-.122-.2-.486-2.84-2.966V45.5c3.042-2.89 2.978-3.038 2.8-3.46l-1.154-2.814c-.174-.422-.24-.588-4.432-.474l-.914-.93a20 20 0 0 0-.142-4.106l-.118-.264-3.016-1.3c-.444-.2-.6-.272-3.448 2.786l-1.28-.018c-2.932-3.086-3.07-3.03-3.51-2.856l-2.8 1.118c-.438.176-.6.238-.424 4.438l-.906.89c-4.22-.136-4.284.012-4.468.438l-1.162 2.786L32 42l.096.232c.05.12.2.48 2.838 2.962v1.3c-3.042 2.89-2.976 3.038-2.8 3.462l1.154 2.818c.178.43.24.584 4.432.476l.912.934a20 20 0 0 0 .14 4.1l.116.266 3.036 1.308c.442.182.6.248 3.434-2.8l1.28.016c2.936 3.09 3.086 3.03 3.514 2.86l2.8-1.116c.448-.172.594-.232.416-4.434M41.342 47.86a4.94 4.94 0 0 1 2.898-6.4 5.05 5.05 0 0 1 6.492 2.858 4.934 4.934 0 0 1-2.81 6.368 5.11 5.11 0 0 1-6.58-2.826"/></g><defs><clipPath id="clip0_151_7513"><path fill="#fff" d="M0 0h64v64H0z"/></clipPath></defs></svg>