<svg width="24" height="24" viewBox="0 0 24 24" fill="none" xmlns="http://www.w3.org/2000/svg">
    <path d="M22.6581 5.86047C22.6581 4.77484 21.775 3.89171 20.6893 3.89171C20.132 3.89171 19.6282 4.12501 19.2697 4.49856L11.5868 0.0627612C11.5156 0.0216453 11.4348 0 11.3525 0C11.2703 0 11.1895 0.0216453 11.1182 0.0627612L3.43501 4.49861C3.07656 4.12501 2.57303 3.89171 2.01563 3.89171C0.930003 3.89171 0.046875 4.77484 0.046875 5.86047C0.046875 6.78443 0.686815 7.56138 1.54688 7.77232V16.6407C1.54688 16.808 1.63622 16.9628 1.78126 17.0466L9.46185 21.4811C9.40965 21.6599 9.38313 21.8451 9.3831 22.0313C9.3831 23.1168 10.2662 24.0001 11.3519 24.0001C12.4373 24.0001 13.3204 23.1168 13.3204 22.0313C13.3204 21.8405 13.2928 21.6563 13.2419 21.4816L20.9238 17.0466C21.0688 16.963 21.1581 16.808 21.1581 16.6407V7.77232C22.0182 7.56138 22.6582 6.78443 22.6582 5.86047H22.6581ZM0.984379 5.86047C0.984379 5.29178 1.4469 4.82922 2.01563 4.82922C2.58418 4.82922 3.0467 5.29178 3.0467 5.86047C3.0467 6.42907 2.58418 6.89172 2.01563 6.89172C1.4469 6.89172 0.984379 6.42907 0.984379 5.86047ZM11.3519 23.0626C10.7831 23.0626 10.3206 22.6001 10.3206 22.0313C10.3206 21.4628 10.7831 21.0001 11.3519 21.0001C11.9204 21.0001 12.3831 21.4628 12.3831 22.0313C12.3831 22.6001 11.9204 23.0626 11.3519 23.0626ZM12.7724 20.6703C12.4137 20.2962 11.9098 20.0626 11.3519 20.0626C10.7943 20.0626 10.2904 20.296 9.93187 20.6697L2.48438 16.3701V7.77232C3.34426 7.56138 3.9842 6.78443 3.9842 5.86047C3.9842 5.66931 3.95636 5.48453 3.90531 5.30955L11.3524 1.01001L18.7998 5.30955C18.7474 5.48851 18.7208 5.67401 18.7208 5.86047C18.7208 6.78443 19.3608 7.56138 20.2206 7.77232V16.3701L12.7724 20.6703ZM20.6893 6.89172C20.1207 6.89172 19.658 6.42907 19.658 5.86047C19.658 5.29178 20.1207 4.82922 20.6893 4.82922C21.258 4.82922 21.7206 5.29178 21.7206 5.86047C21.7206 6.42907 21.258 6.89172 20.6893 6.89172Z"
          fill="currentColor"/>
    <path d="M17.7743 7.2717L11.5868 3.69948C11.5155 3.65836 11.4347 3.63672 11.3525 3.63672C11.2702 3.63672 11.1894 3.65836 11.1182 3.69948L4.93066 7.2717C4.78563 7.35556 4.69629 7.51029 4.69629 7.67764V14.8223C4.69629 14.9896 4.78563 15.1445 4.93066 15.2282L11.1182 18.8006C11.1907 18.8423 11.2714 18.8634 11.3524 18.8634C11.4335 18.8634 11.5142 18.8423 11.5868 18.8006L17.7743 15.2282C17.9193 15.1445 18.0087 14.9896 18.0087 14.8223V7.67764C18.0087 7.51029 17.9193 7.35556 17.7743 7.2717ZM11.3524 4.64669L16.6024 7.67764L11.3524 10.7088L6.10254 7.67764L11.3524 4.64669ZM11.8211 17.5828V15.4688C11.8211 15.2099 11.6113 15.0001 11.3524 15.0001C11.0936 15.0001 10.8838 15.2099 10.8838 15.4688V17.5828L5.63379 14.5516V8.48951L11.1182 11.656C11.1907 11.6977 11.2714 11.7188 11.3524 11.7188C11.4335 11.7188 11.5142 11.6977 11.5868 11.656L17.0711 8.48956V14.5516L11.8211 17.5828Z"
          fill="currentColor"/>
    <path d="M11.3521 12.8906C11.2277 12.891 11.1084 12.9403 11.0202 13.028C10.9326 13.1161 10.8832 13.2351 10.8828 13.3594C10.8832 13.4835 10.9326 13.6026 11.0202 13.6906C11.1084 13.7783 11.2277 13.8277 11.3521 13.8281C11.4754 13.8281 11.5963 13.778 11.6835 13.6906C11.7711 13.6026 11.8204 13.4835 11.8209 13.3594C11.8209 13.236 11.7707 13.1152 11.6835 13.028C11.5955 12.9403 11.4764 12.891 11.3521 12.8906Z"
          fill="currentColor"/>
</svg>
