<svg width="64" height="64" viewBox="0 0 64 64" fill="none" xmlns="http://www.w3.org/2000/svg">
    <g clip-path="url(#clip0_151_8377)">
        <g clip-path="url(#clip1_151_8377)">
            <path d="M30.5728 0H33.4528C40.7147 0.436622 47.1225 2.95893 52.6763 7.56693C52.7303 7.61244 52.7929 7.62809 52.864 7.61387C54.6859 7.264 56.101 7.72267 57.1093 8.98987C58.7179 11.0144 58.0117 14.1227 55.6352 15.1403C52.2261 16.6037 49.1221 13.408 50.2336 10.0331C50.2423 10.0059 50.2427 9.97678 50.2347 9.94941C50.2267 9.92204 50.2107 9.89768 50.1888 9.87947C44.7445 5.48907 38.0288 3.1296 31.04 3.35787C16.0747 3.84853 3.9744 15.9509 3.36427 30.8267C2.67947 47.52 16.5333 61.3504 33.2181 60.6272C51.3515 59.84 64.2304 42.5557 59.7547 24.8811C59.6082 24.2994 59.5548 23.8748 59.5947 23.6075C59.7952 22.2763 61.5061 21.7451 62.432 22.7264C62.6581 22.9668 62.853 23.4204 63.0165 24.0875C63.5399 26.2165 63.8677 28.3783 64 30.5728V33.4528C63.3003 43.6572 58.9845 51.7461 51.0528 57.7195C45.9598 61.5566 40.0668 63.6501 33.3739 64H30.6005C13.9861 63.1317 0.8768 50.1184 0 33.4272V30.5472C0.8896 13.8901 13.952 0.8896 30.5728 0Z"
                  fill="currentColor"/>
            <path d="M32.0533 22.3339L27.7248 34.2848C27.7189 34.3007 27.7169 34.3177 27.7189 34.3345C27.7209 34.3513 27.7269 34.3673 27.7363 34.3812C27.7458 34.395 27.7584 34.4063 27.7731 34.414C27.7878 34.4218 27.8042 34.4257 27.8208 34.4256L34.4043 34.4C34.4896 34.4 34.5465 34.4405 34.5749 34.5216L36.3712 39.6309C36.4082 39.7347 36.3719 39.7867 36.2624 39.7867H26.0906C26.0309 39.7867 25.9904 39.8151 25.969 39.872L24.2304 44.5525C24.2076 44.6108 24.165 44.64 24.1024 44.64H17.3226C17.3141 44.6398 17.3056 44.6376 17.298 44.6335C17.2905 44.6295 17.284 44.6238 17.2792 44.6169C17.2744 44.6099 17.2713 44.602 17.2704 44.5938C17.2694 44.5856 17.2705 44.5773 17.2736 44.5696L28.2218 16.16C28.2419 16.1071 28.2779 16.0618 28.325 16.0304C28.372 15.999 28.4277 15.9832 28.4843 15.9851C30.8295 16.0419 33.157 16.0427 35.4667 15.9872C35.8208 15.9787 35.9424 15.9616 36.0811 16.3243C39.7091 25.7493 43.3415 35.1737 46.9781 44.5973C46.9802 44.6025 46.981 44.6082 46.9804 44.6138C46.9798 44.6194 46.9778 44.6247 46.9747 44.6294C46.9715 44.634 46.9672 44.6378 46.9623 44.6404C46.9573 44.643 46.9517 44.6443 46.9461 44.6443L40.1749 44.6379C40.0839 44.6379 40.0227 44.5945 39.9915 44.5077L32.1834 22.3339C32.1791 22.32 32.1704 22.308 32.1587 22.2994C32.147 22.2909 32.1329 22.2862 32.1184 22.2862C32.1039 22.2862 32.0898 22.2909 32.0781 22.2994C32.0664 22.308 32.0577 22.32 32.0533 22.3339Z"
                  fill="currentColor"/>
        </g>
    </g>
    <defs>
        <clipPath id="clip0_151_8377">
            <rect width="64" height="64" fill="white"/>
        </clipPath>
        <clipPath id="clip1_151_8377">
            <rect width="64" height="64" fill="white"/>
        </clipPath>
    </defs>
</svg>
