<svg width="64" height="64" viewBox="0 0 64 64" fill="none" xmlns="http://www.w3.org/2000/svg">
<g clip-path="url(#clip0_151_12115)">
<path d="M49.368 18.144L49.968 17.236L51.016 17.872L51.48 18.204C52.6 19.068 54.956 21.276 55.464 24.94C56.356 24.78 57.256 24.7 58.156 24.7C60.292 24.7 61.728 25.196 62.544 25.608L62.964 25.836L63.236 26.016L64 26.64L63.736 27.44C63.3256 28.5367 62.6845 29.5325 61.856 30.36C60.696 31.556 58.656 32.968 55.42 33.152L54.708 33.172H54.116C52.636 37.08 50.648 41.484 47.308 45.436C45.3262 47.7844 42.9755 49.7947 40.348 51.388C37.198 53.2569 33.7485 54.5668 30.152 55.26C27.576 55.76 24.96 56.008 22.34 56C16.54 56 11.42 54.848 8.27197 52.832C5.45997 51.036 3.29997 48.104 1.84797 44.124C0.577271 40.4872 -0.0468196 36.656 0.00396647 32.804C-0.00261491 32.3101 0.168129 31.8303 0.485195 31.4515C0.802262 31.0728 1.24463 30.8204 1.73197 30.74L2.00397 30.72H44.164L44.532 30.692L45.128 30.628C46.152 30.492 47.712 30.188 48.808 29.548C47.496 27.376 47.124 24.836 47.736 22.132C47.9923 21.0041 48.3957 19.9148 48.936 18.892L49.368 18.144ZM11.56 23.136L11.72 23.164C11.793 23.1913 11.8588 23.2352 11.9123 23.292C11.9657 23.3489 12.0053 23.4173 12.028 23.492L12.052 23.652V28.912L12.028 29.076C12.0049 29.1511 11.9647 29.2198 11.9105 29.2767C11.8564 29.3336 11.7898 29.3772 11.716 29.404L11.56 29.428H5.91197C5.8067 29.4266 5.70461 29.3917 5.62047 29.3284C5.53634 29.2652 5.47452 29.1767 5.44397 29.076L5.41597 28.916V23.648L5.44397 23.488C5.46654 23.4122 5.50649 23.3427 5.56066 23.2851C5.61483 23.2274 5.6817 23.1832 5.75597 23.156L5.91197 23.132L11.56 23.136ZM19.348 23.136L19.504 23.164C19.5778 23.1908 19.6444 23.2344 19.6985 23.2913C19.7527 23.3482 19.7929 23.4169 19.816 23.492L19.84 23.652V28.912L19.812 29.076C19.7889 29.1511 19.7487 29.2198 19.6945 29.2767C19.6404 29.3336 19.5738 29.3772 19.5 29.404L19.344 29.428H13.696C13.5909 29.426 13.4891 29.3909 13.405 29.3277C13.321 29.2645 13.2591 29.1764 13.228 29.076L13.2 28.92V23.652C13.1991 23.545 13.2313 23.4403 13.2922 23.3522C13.353 23.2642 13.4395 23.197 13.54 23.16L13.696 23.132L19.348 23.136ZM27.252 23.136L27.408 23.164C27.481 23.1913 27.5468 23.2352 27.6003 23.292C27.6537 23.3489 27.6933 23.4173 27.716 23.492L27.744 23.652V28.912L27.716 29.076C27.6929 29.1511 27.6527 29.2198 27.5985 29.2767C27.5444 29.3336 27.4778 29.3772 27.404 29.404L27.248 29.428H21.6C21.4947 29.4266 21.3926 29.3917 21.3085 29.3284C21.2243 29.2652 21.1625 29.1767 21.132 29.076L21.108 28.916V23.648L21.132 23.488C21.1545 23.4122 21.1945 23.3427 21.2487 23.2851C21.3028 23.2274 21.3697 23.1832 21.444 23.156L21.6 23.132L27.252 23.136ZM35.06 23.136L35.216 23.164C35.2898 23.1908 35.3564 23.2344 35.4105 23.2913C35.4647 23.3482 35.5049 23.4169 35.528 23.492L35.556 23.652V28.912C35.5568 29.019 35.5246 29.1237 35.4638 29.2118C35.4029 29.2998 35.3164 29.367 35.216 29.404L35.056 29.428H29.412C29.3067 29.4266 29.2046 29.3917 29.1205 29.3284C29.0363 29.2652 28.9745 29.1767 28.944 29.076L28.92 28.916V23.648L28.944 23.488C28.9665 23.4122 29.0065 23.3427 29.0607 23.2851C29.1148 23.2274 29.1817 23.1832 29.256 23.156L29.416 23.132H35.064L35.06 23.136ZM42.94 23.136L43.096 23.164C43.1698 23.1908 43.2364 23.2344 43.2905 23.2913C43.3447 23.3482 43.3849 23.4169 43.408 23.492L43.432 23.652V28.912C43.4328 29.019 43.4006 29.1237 43.3398 29.2118C43.2789 29.2998 43.1924 29.367 43.092 29.404L42.936 29.428H37.288C37.1827 29.4266 37.0806 29.3917 36.9965 29.3284C36.9123 29.2652 36.8505 29.1767 36.82 29.076L36.796 28.916V23.648L36.82 23.488C36.8425 23.4122 36.8825 23.3427 36.9367 23.2851C36.9908 23.2274 37.0577 23.1832 37.132 23.156L37.292 23.132H42.936L42.94 23.136ZM19.34 15.568L19.5 15.596C19.5726 15.6229 19.6381 15.6661 19.6915 15.7223C19.7449 15.7785 19.7847 15.8461 19.808 15.92L19.836 16.084V21.344C19.8368 21.451 19.8046 21.5557 19.7438 21.6438C19.6829 21.7318 19.5964 21.799 19.496 21.836L19.34 21.864H13.696C13.5898 21.8614 13.4873 21.8252 13.4032 21.7605C13.319 21.6957 13.2577 21.6059 13.228 21.504L13.2 21.344V16.084C13.1999 15.9777 13.2325 15.8738 13.2933 15.7866C13.3541 15.6993 13.4402 15.6328 13.54 15.596L13.696 15.568H19.34ZM27.244 15.568L27.404 15.596C27.4766 15.6229 27.5421 15.6661 27.5955 15.7223C27.6489 15.7785 27.6887 15.8461 27.712 15.92L27.74 16.084V21.344C27.7408 21.451 27.7086 21.5557 27.6478 21.6438C27.5869 21.7318 27.5004 21.799 27.4 21.836L27.244 21.864H21.6C21.4938 21.8614 21.3913 21.8252 21.3072 21.7605C21.223 21.6957 21.1617 21.6059 21.132 21.504L21.108 21.344V16.084L21.132 15.924C21.1551 15.8489 21.1953 15.7802 21.2494 15.7233C21.3035 15.6664 21.3701 15.6228 21.444 15.596L21.6 15.568H27.244ZM35.056 15.568C35.272 15.568 35.456 15.716 35.524 15.92L35.552 16.084V21.344C35.5528 21.451 35.5206 21.5557 35.4598 21.6438C35.3989 21.7318 35.3124 21.799 35.212 21.836L35.052 21.864H29.412C29.3058 21.8614 29.2033 21.8252 29.1192 21.7605C29.035 21.6957 28.9737 21.6059 28.944 21.504L28.92 21.344V16.084L28.944 15.924C28.9671 15.8489 29.0073 15.7802 29.0614 15.7233C29.1155 15.6664 29.1821 15.6228 29.256 15.596L29.416 15.568H35.064H35.056ZM35.056 8C35.272 8 35.456 8.148 35.524 8.352L35.552 8.512V13.776C35.5528 13.883 35.5206 13.9877 35.4598 14.0758C35.3989 14.1638 35.3124 14.231 35.212 14.268L35.052 14.292H29.412C29.3067 14.2906 29.2046 14.2557 29.1205 14.1924C29.0363 14.1292 28.9745 14.0407 28.944 13.94L28.92 13.78V8.512L28.944 8.352C28.9671 8.27693 29.0073 8.20824 29.0614 8.15133C29.1155 8.09441 29.1821 8.05083 29.256 8.024L29.412 8H35.06H35.056Z" fill="#2396ED"/>
</g>
<defs>
<clipPath id="clip0_151_12115">
<rect width="64" height="64" fill="white"/>
</clipPath>
</defs>
</svg>
