<svg width="64" height="64" viewBox="0 0 64 64" fill="none" xmlns="http://www.w3.org/2000/svg">
<g clip-path="url(#clip0_151_7772)">
<path d="M59.664 33.4L46.956 54.834C46.7191 55.2082 46.3876 55.5131 45.9949 55.7179C45.6022 55.9227 45.1624 56.02 44.72 56H19.294C18.8504 56.0173 18.4102 55.9173 18.0176 55.7102C17.625 55.503 17.294 55.1959 17.058 54.82L4.34598 33.42C4.11952 33.0343 4.00012 32.5952 4.00012 32.148C4.00012 31.7008 4.11952 31.2617 4.34598 30.876L17.054 9.352C17.2813 8.95451 17.6064 8.62168 17.9984 8.38507C18.3904 8.14846 18.8364 8.01591 19.294 8H44.712C45.1693 8.01699 45.6147 8.15046 46.006 8.38776C46.3973 8.62506 46.7215 8.95833 46.948 9.356L59.656 30.928C59.881 31.3017 59.9999 31.7297 59.9999 32.166C59.9999 32.6023 59.881 33.0303 59.656 33.404L59.664 33.4ZM49.14 41.8V22.572L32 12.932L14.88 22.572V41.8L32 51.438L49.14 41.8Z" fill="#4B32C3"/>
<path d="M43.604 38.376L32.11 44.846L20.626 38.376V25.436L32.11 18.964L43.604 25.436V38.376Z" fill="#8080F2"/>
</g>
<defs>
<clipPath id="clip0_151_7772">
<rect width="64" height="64" fill="white"/>
</clipPath>
</defs>
</svg>
