<svg width="64" height="64" viewBox="0 0 64 64" fill="none" xmlns="http://www.w3.org/2000/svg">
<g clip-path="url(#clip0_151_12126)">
<path d="M34.2 32C34.2 26.844 38.2759 22.668 43.2999 22.668C48.3279 22.668 52.4 26.84 52.4 32C52.4 37.156 48.3279 41.332 43.2999 41.332C38.2799 41.332 34.2 37.16 34.2 32Z" fill="#1ABCFE"/>
<path d="M16 50.668C16 45.512 20.076 41.332 25.1 41.332H34.2V50.668C34.2 55.82 30.124 60 25.1 60C20.076 60 16 55.82 16 50.668Z" fill="#0ACF83"/>
<path d="M34.2 4V22.668H43.2999C48.3279 22.668 52.4 18.488 52.4 13.332C52.4 8.18 48.3279 4 43.2999 4H34.2Z" fill="#FF7262"/>
<path d="M16 13.332C16 18.488 20.076 22.668 25.1 22.668H34.2V4H25.1C20.076 4 16 8.18 16 13.332Z" fill="#F24E1E"/>
<path d="M16 32C16 37.156 20.076 41.332 25.1 41.332H34.2V22.668H25.1C20.076 22.668 16 26.84 16 32Z" fill="#A259FF"/>
</g>
<defs>
<clipPath id="clip0_151_12126">
<rect width="64" height="64" fill="white"/>
</clipPath>
</defs>
</svg>
