<svg width="64" height="64" viewBox="0 0 64 64" fill="none" xmlns="http://www.w3.org/2000/svg">
<g clip-path="url(#clip0_151_8362)">
<path d="M11.6 49.2L11.94 48.726L27.98 18.298L28.014 17.976L20.944 4.696C20.8145 4.45316 20.612 4.25716 20.3651 4.13573C20.1181 4.01431 19.8393 3.9736 19.5679 4.01938C19.2966 4.06516 19.0465 4.1951 18.853 4.39082C18.6596 4.58654 18.5326 4.83813 18.49 5.11L11.6 49.2Z" fill="#FFC24A"/>
<path d="M11.8 48.84L12.056 48.34L27.93 18.228L20.878 4.896C20.7617 4.66414 20.5734 4.47621 20.3413 4.36036C20.1093 4.24451 19.8459 4.20697 19.5907 4.25337C19.3355 4.29977 19.1022 4.42761 18.9258 4.61774C18.7493 4.80787 18.6392 5.05005 18.612 5.308L11.8 48.84Z" fill="#FFA712"/>
<path d="M33.168 28.02L38.432 22.62L33.166 12.578C33.0501 12.3619 32.8777 12.1813 32.6673 12.0554C32.4569 11.9294 32.2162 11.8629 31.971 11.8629C31.7257 11.8629 31.4851 11.9294 31.2747 12.0554C31.0642 12.1813 30.8919 12.3619 30.776 12.578L27.962 17.942V18.4L33.168 28.02Z" fill="#F4BD62"/>
<path d="M33.074 27.7999L38.192 22.5599L33.074 12.8C32.9902 12.5887 32.8471 12.4062 32.662 12.2744C32.4768 12.1426 32.2575 12.0672 32.0304 12.0573C31.8034 12.0473 31.5783 12.1033 31.3823 12.2184C31.1864 12.3335 31.0279 12.5028 30.926 12.706L28.098 18.164L28.014 18.442L33.074 27.7999Z" fill="#FFA50E"/>
<path d="M11.604 49.202L11.758 49.046L12.316 48.82L32.836 28.376L33.096 27.668L27.978 17.912L11.604 49.202Z" fill="#F6820C"/>
<path d="M33.824 59.512L52.4 49.154L47.092 16.492C47.0539 16.2618 46.9532 16.0465 46.8008 15.8697C46.6484 15.693 46.4502 15.5617 46.2281 15.4902C46.0059 15.4187 45.7684 15.4097 45.5415 15.4644C45.3146 15.5191 45.1072 15.6352 44.942 15.8L11.6 49.2L30.066 59.51C30.6401 59.8304 31.2866 59.9985 31.944 59.9985C32.6014 59.9985 33.2479 59.8304 33.822 59.51" fill="#FDE068"/>
<path d="M52.23 49.068L46.966 16.652C46.9567 16.4318 46.8823 16.2192 46.7522 16.0413C46.622 15.8634 46.442 15.7281 46.235 15.6525C46.0279 15.5769 45.8031 15.5645 45.589 15.6167C45.3748 15.6689 45.181 15.7835 45.032 15.946L11.8 49.138L30.062 59.338C30.6315 59.6557 31.2728 59.8225 31.925 59.8225C32.5771 59.8225 33.2185 59.6557 33.788 59.338L52.23 49.068Z" fill="#FCCA3F"/>
<path d="M33.824 59.2C33.2499 59.5204 32.6034 59.6885 31.946 59.6885C31.2886 59.6885 30.6421 59.5204 30.068 59.2L11.752 49.044L11.6 49.2L30.066 59.51C30.6401 59.8304 31.2866 59.9985 31.944 59.9985C32.6014 59.9985 33.2479 59.8304 33.822 59.51L52.4 49.154L52.354 48.874L33.824 59.2Z" fill="#EEAB37"/>
</g>
<defs>
<clipPath id="clip0_151_8362">
<rect width="64" height="64" fill="white"/>
</clipPath>
</defs>
</svg>
