<svg width="64" height="64" viewBox="0 0 64 64" fill="none" xmlns="http://www.w3.org/2000/svg">
<g clip-path="url(#clip0_151_12106)">
<path d="M5.17072 34.8264C3.60976 33.2654 3.60976 30.7346 5.17072 29.1736L29.1736 5.17072C30.7346 3.60976 33.2654 3.60976 34.8264 5.17072L58.8292 29.1736C60.3902 30.7346 60.3902 33.2654 58.8292 34.8264L34.8264 58.8292C33.2654 60.3902 30.7346 60.3902 29.1736 58.8292L5.17072 34.8264Z" fill="#EE513B"/>
<path d="M24.2978 10.123L21.8672 12.5537L28.145 18.8315C27.891 19.3764 27.7492 19.984 27.7492 20.6248C27.7492 22.444 28.8922 23.9962 30.4992 24.6024V39.9596C28.8922 40.5658 27.7492 42.118 27.7492 43.9372C27.7492 46.2844 29.652 48.1872 31.9992 48.1872C34.3464 48.1872 36.2492 46.2844 36.2492 43.9372C36.2492 42.288 35.3098 40.858 33.9368 40.1536V24.6234L39.9378 30.6244C39.6962 31.1582 39.5618 31.7508 39.5618 32.3748C39.5618 34.722 41.4646 36.6248 43.8118 36.6248C46.159 36.6248 48.0618 34.722 48.0618 32.3748C48.0618 30.0276 46.159 28.1248 43.8118 28.1248C43.3556 28.1248 42.9164 28.1966 42.5044 28.3296L36.0594 21.8846C36.1828 21.4866 36.2492 21.0634 36.2492 20.6248C36.2492 18.2776 34.3464 16.3748 31.9992 16.3748C31.5606 16.3748 31.1376 16.4412 30.7394 16.5646L24.2978 10.123Z" fill="white"/>
</g>
<defs>
<clipPath id="clip0_151_12106">
<rect width="64" height="64" fill="white"/>
</clipPath>
</defs>
</svg>
