<svg width="64" height="64" viewBox="0 0 64 64" fill="none" xmlns="http://www.w3.org/2000/svg">
<g clip-path="url(#clip0_151_8354)">
<g clip-path="url(#clip1_151_8354)">
<path d="M38.2227 7.60552L50.7831 14.8575C51.163 14.4605 51.6047 14.1095 52.1041 13.8195C54.948 12.1846 58.5753 13.1553 60.2271 15.9992C61.8619 18.8431 60.8913 22.4704 58.0473 24.1222C57.4277 24.4784 56.7701 24.7109 56.1036 24.8273V39.1734C56.7617 39.2909 57.4107 39.522 58.0227 39.8737C60.8809 41.524 61.8507 45.1478 60.2004 47.9891C58.5671 50.8303 54.9263 51.8 52.0851 50.1667C51.3801 49.7615 50.7904 49.2327 50.327 48.6232L37.9927 55.7446C38.2917 56.4546 38.4569 57.2352 38.4569 58.055C38.4569 61.3256 35.7996 64 32.512 64C29.2244 64 26.567 61.3427 26.567 58.055C26.567 57.4072 26.6702 56.7838 26.8611 56.2003L14.3853 48.9972C13.977 49.4528 13.491 49.8531 12.9328 50.1773C10.0719 51.8121 6.44459 50.8414 4.80977 47.9975C3.17495 45.1536 4.14563 41.5264 6.98953 39.8745C7.42255 39.6256 7.87374 39.4371 8.33334 39.3064V24.6947C7.86787 24.5638 7.41112 24.3739 6.97334 24.1222C4.12943 22.4874 3.15876 18.8431 4.79358 15.9992C6.4284 13.1553 10.0727 12.1846 12.9166 13.8195C13.322 14.0549 13.6893 14.3305 14.0165 14.6383L26.7222 7.30246C26.6207 6.86656 26.567 6.41213 26.567 5.94497C26.567 2.65735 29.2244 0 32.512 0C35.7996 0 38.4569 2.65735 38.4569 5.94497C38.4569 6.52151 38.3752 7.07867 38.2227 7.60552ZM36.9081 9.95043C36.7755 10.0959 36.6358 10.2348 36.4894 10.3665L53.2332 39.3666C53.2936 39.3473 53.3544 39.3288 53.4155 39.3114V24.6793C51.9917 24.2671 50.72 23.3267 49.9243 21.9425C49.0576 20.4347 48.9232 18.7068 49.4121 17.1698L36.9081 9.95043ZM28.1635 10.0021C28.0776 9.91005 27.9945 9.81527 27.9146 9.71789L15.5085 16.8808C16.1115 18.4875 16.0179 20.3394 15.0964 21.9425C14.1933 23.5134 12.6771 24.5127 11.0214 24.8171V39.1777C11.1103 39.1939 11.1988 39.2121 11.2869 39.2323L28.1635 10.0021ZM34.1359 11.6662C33.6199 11.8119 33.0752 11.8899 32.512 11.8899C31.7677 11.8899 31.0558 11.7538 30.3997 11.5049L13.7098 40.4118C14.258 40.8565 14.7365 41.4068 15.1125 42.0543C15.3615 42.4873 15.55 42.9385 15.6807 43.3981H49.3389C49.4695 42.9372 49.6581 42.485 49.9074 42.0514C50.1909 41.5582 50.535 41.1213 50.9249 40.7447L34.1359 11.6662ZM36.6662 53.7992L49.3029 46.5033C49.2675 46.3654 49.237 46.2263 49.2114 46.0862H15.8093C15.7753 46.2731 15.7323 46.4584 15.6806 46.6412L28.2554 53.9015C29.3345 52.7958 30.8419 52.1101 32.512 52.1101C34.1299 52.1101 35.5952 52.7537 36.6662 53.7992Z" fill="#E535AB"/>
</g>
</g>
<defs>
<clipPath id="clip0_151_8354">
<rect width="64" height="64" fill="white"/>
</clipPath>
<clipPath id="clip1_151_8354">
<rect width="64" height="64" fill="white"/>
</clipPath>
</defs>
</svg>
