<svg width="64" height="64" viewBox="0 0 64 64" fill="none" xmlns="http://www.w3.org/2000/svg">
<g clip-path="url(#clip0_151_6753)">
<g clip-path="url(#clip1_151_6753)">
<path d="M64 0H0V64H64V0Z" fill="#FFCA28"/>
<path d="M38.8571 53.2295L43.5691 50.1113C43.9385 51.2716 46.277 54.027 49.2308 54.027C52.1847 54.027 53.5561 52.4137 53.5561 51.344C53.5561 48.4293 50.5399 47.4016 49.0912 46.9081C48.8548 46.8277 48.6605 46.7614 48.5275 46.7036C48.4592 46.6739 48.3561 46.6343 48.2237 46.5838C46.6125 45.9683 40.6681 43.6972 40.6681 37.1139C40.6681 29.8629 47.6658 29.0291 49.2484 29.0291C50.2836 29.0291 55.2615 29.1559 57.7405 33.8147L53.1691 37.0053C52.1671 34.9749 50.5019 34.3043 49.477 34.3043C46.9451 34.3043 46.4176 36.1603 46.4176 37.0053C46.4176 39.376 49.1684 40.4387 51.4909 41.3358C52.0987 41.5705 52.677 41.7939 53.1691 42.0265C55.701 43.2229 59.4285 45.1808 59.4285 51.344C59.4285 54.4311 56.8393 59.4291 50.3209 59.4291C41.5648 59.4291 39.2439 54.1721 38.8571 53.2295Z" fill="#3E3E3E"/>
<path d="M16 53.8484L20.9113 50.7321C21.296 51.8916 22.7915 54.0297 24.9611 54.0297C27.131 54.0297 28.2416 51.8011 28.2416 50.7321V29.7147H34.2816V50.7321C34.3794 53.6311 32.7717 59.429 25.6759 59.429C19.152 59.429 16.4398 55.5518 16 53.8484Z" fill="#3E3E3E"/>
</g>
</g>
<defs>
<clipPath id="clip0_151_6753">
<rect width="64" height="64" fill="white"/>
</clipPath>
<clipPath id="clip1_151_6753">
<rect width="64" height="64" fill="white"/>
</clipPath>
</defs>
</svg>
