<svg width="64" height="64" viewBox="0 0 64 64" fill="none" xmlns="http://www.w3.org/2000/svg">
<g clip-path="url(#clip0_151_8388)">
<path d="M34.345 4.59744C32.9254 3.79906 31.0746 3.80264 29.6538 4.59744C22.5378 8.52454 15.4216 12.4528 8.30432 16.3781C6.91938 17.1067 5.98528 18.594 6.00018 20.1376V43.8656C5.99018 45.4394 6.97244 46.941 8.3931 47.6596C10.4374 48.7472 12.4236 49.9452 14.5049 50.9604C16.909 52.1418 19.9169 52.403 22.3504 51.171C24.3258 50.15 25.2032 47.879 25.2006 45.792C25.2166 37.9612 25.2032 30.1302 25.2068 22.2992C25.2538 21.9512 24.9924 21.5792 24.6128 21.5876C23.7034 21.5732 22.7928 21.5792 21.8834 21.5852C21.5398 21.5528 21.2044 21.8382 21.2304 22.1836C21.2182 29.964 21.2328 37.7468 21.223 45.5284C21.2428 46.6048 20.5156 47.6392 19.4783 48.0028C17.0824 48.8426 10.244 44.4024 10.244 44.4024C9.993 44.2862 9.83364 44.014 9.85824 43.7436C9.85824 35.9152 9.85946 28.0866 9.85824 20.2594C9.82374 19.9438 10.0182 19.6596 10.308 19.5308C17.4007 15.6268 24.4896 11.7131 31.5822 7.80672C31.8286 7.6423 32.172 7.6428 32.4178 7.80792C39.5104 11.7131 46.6006 15.6232 53.6944 19.5274C53.9852 19.656 54.1714 19.945 54.1418 20.2594C54.1406 28.0866 54.1442 35.9152 54.1394 43.7426C54.1604 44.0196 54.0172 44.288 53.7586 44.4096C46.7322 48.2924 39.6258 52.05 32.663 56.0456C32.3592 56.2198 32.015 56.4172 31.6746 56.2252C29.8436 55.2124 28.0348 54.1602 26.2098 53.1376C26.0114 53.0138 25.7588 52.9606 25.5518 53.0992C24.7336 53.5304 23.964 53.8796 23.0244 54.2516C21.7048 54.774 21.9156 54.9876 23.1058 55.681C25.24 56.8888 27.3778 58.0918 29.512 59.3008C30.917 60.1776 32.8048 60.24 34.255 59.4298C41.3722 55.5076 48.4872 51.5808 55.6058 47.6586C57.0226 46.936 58.0098 45.4404 57.9998 43.8654V20.1376C58.0136 18.6253 57.1152 17.1645 55.772 16.4252C48.6312 12.4789 41.487 8.54128 34.345 4.59744Z" fill="#8CC84B"/>
<path d="M45.0839 22.4124C42.2905 20.918 38.9672 20.8384 35.863 21.0338C33.6204 21.2554 31.2618 21.8742 29.628 23.4818C27.9522 25.0978 27.5874 27.7074 28.3834 29.817C28.9538 31.3078 30.3896 32.2772 31.8744 32.79C33.787 33.4652 35.7958 33.674 37.8052 33.8828C39.638 34.0732 41.4715 34.2638 43.2331 34.8084C43.9527 35.0468 44.7907 35.4116 45.0111 36.1946C45.2147 37.1218 44.9915 38.1996 44.2387 38.8438C41.8475 40.7364 35.1958 40.4464 32.8332 38.9568C31.878 38.3222 31.4664 37.1988 31.299 36.1282C31.2804 35.7946 31.0118 35.4886 30.6496 35.514C29.7426 35.5032 28.8356 35.5056 27.9286 35.5128C27.6122 35.4862 27.2832 35.7114 27.2658 36.0344C27.0794 40.9378 31.5828 43.0754 35.8078 43.546C38.2217 43.776 40.6884 43.7628 43.0654 43.2448C44.8522 42.838 46.6438 42.0888 47.8738 40.7126C49.3906 39.04 49.6888 36.5498 49.0086 34.4664C48.4886 32.9118 47.0024 31.9146 45.4832 31.4016C43.4172 30.6932 40.9688 30.3124 39.0976 30.1342C36.3778 29.8752 33.1458 29.981 32.376 28.1938C32.069 27.258 32.3303 26.096 33.1903 25.5204C35.4657 23.977 40.0966 24.182 42.453 25.335C43.535 25.8768 44.162 26.9896 44.4208 28.113C44.4688 28.443 44.6908 28.7874 45.0728 28.773C45.9736 28.791 46.8745 28.7778 47.7751 28.779C48.0845 28.8006 48.4233 28.626 48.4837 28.3092C48.4454 25.9612 47.2465 23.5576 45.0839 22.4124Z" fill="#8CC84B"/>
</g>
<defs>
<clipPath id="clip0_151_8388">
<rect width="64" height="64" fill="white"/>
</clipPath>
</defs>
</svg>
