<svg width="64" height="64" viewBox="0 0 64 64" fill="none" xmlns="http://www.w3.org/2000/svg">
    <g clip-path="url(#clip0_151_7584)">
        <path d="M21.296 51.468C20.9839 50.8927 20.8733 50.2294 20.982 49.584H7.69401L27.432 14.834L35.75 29.654L38.366 27.702L30.152 12.934C29.8773 12.4291 29.4825 11.9996 29.0026 11.6832C28.5227 11.3669 27.9723 11.1734 27.4 11.12C26.8237 11.1438 26.2658 11.3298 25.7906 11.6568C25.3154 11.9837 24.9422 12.4382 24.714 12.968L4.71401 48.154C4.40981 48.6473 4.23445 49.2091 4.20404 49.7878C4.17364 50.3665 4.28917 50.9436 4.54001 51.466C4.84421 51.9507 5.27855 52.3401 5.79345 52.5897C6.30835 52.8394 6.88307 52.9393 7.45201 52.878H24.2C23.6322 52.9412 23.058 52.8435 22.5431 52.5959C22.0282 52.3484 21.5932 51.961 21.288 51.478L21.296 51.468Z"
              fill="#00C58E"/>
        <path d="M59.272 48.224L43.178 19.646C42.9164 19.1409 42.5317 18.7099 42.0594 18.3929C41.5871 18.0758 41.0426 17.8829 40.476 17.832C39.913 17.8559 39.3684 18.039 38.9053 18.3601C38.4422 18.6812 38.0798 19.1271 37.86 19.646L35.732 23.046V29.646L40.474 21.504L56.376 49.646H50.326C50.4223 50.2158 50.337 50.8014 50.082 51.32L50.03 51.424C49.7024 51.8886 49.2653 52.2653 48.7573 52.5206C48.2494 52.776 47.6864 52.9022 47.118 52.888H56.586C57.1546 52.9038 57.7182 52.7783 58.2264 52.5228C58.7346 52.2673 59.1715 51.8898 59.498 51.424C59.7536 50.9193 59.866 50.3541 59.823 49.7899C59.78 49.2258 59.5832 48.6842 59.254 48.224H59.272Z"
              fill="#108775"/>
        <path d="M50.466 51.4L50.518 51.296L50.658 51.018C50.8287 50.5719 50.8709 50.0869 50.78 49.618C50.6907 49.1062 50.5076 48.6153 50.24 48.17L37.668 26.37L35.768 23.058H35.734L33.816 26.354L21.262 48.154C21.0174 48.5986 20.8522 49.0825 20.774 49.584C20.6555 50.2274 20.7599 50.8919 21.07 51.468C21.386 51.9529 21.8305 52.3405 22.3538 52.5877C22.8771 52.8348 23.4588 52.9319 24.034 52.868H47.45C48.0356 52.8866 48.6168 52.7612 49.1427 52.5028C49.6685 52.2445 50.1229 51.861 50.466 51.386V51.4ZM35.732 29.672L47.24 49.6H24.224L35.732 29.672Z"
              fill="currentColor"/>
    </g>
    <defs>
        <clipPath id="clip0_151_7584">
            <rect width="64" height="64" fill="white"/>
        </clipPath>
    </defs>
</svg>
