<svg width="64" height="64" viewBox="0 0 64 64" fill="none" xmlns="http://www.w3.org/2000/svg">
<g clip-path="url(#clip0_151_6774)">
<g clip-path="url(#clip1_151_6774)">
<path d="M54.4 0H9.6C4.29807 0 0 4.29807 0 9.6V54.4C0 59.7019 4.29807 64 9.6 64H54.4C59.7019 64 64 59.7019 64 54.4V9.6C64 4.29807 59.7019 0 54.4 0Z" fill="#777BB3"/>
<path d="M19.375 25.25H12.125C12.0438 25.2454 11.9634 25.2673 11.8958 25.3124C11.8281 25.3575 11.777 25.4233 11.75 25.5L8.375 43.125C8.375 43.5 8.75 43.5 8.75 43.5H12.5C12.875 43.5 12.875 43.25 12.875 43.25L13.75 38.875H17.125C22.375 38.875 25 35.375 25.625 32.25C26.25 29.125 25.75 25.25 19.375 25.25ZM21 32C20.5 34.375 18.875 35.375 16.625 35.375H14.375L15.75 28.75H18C21.375 28.75 21.25 30 21 32Z" fill="black" stroke="white" stroke-width="0.75"/>
<path d="M34.375 38.875C33.875 38.875 34 38.375 34 38.375L35.5 30.75C35.5 29.75 36.25 28.75 33.25 28.875H31L29.125 38.625C29.125 38.625 29.125 39 28.625 39H25C24.625 39 24.625 38.625 24.625 38.625L28.125 21C28.125 21 28.125 20.75 28.625 20.75H32.375C32.75 20.75 32.625 21.125 32.625 21.125L31.75 25.375H35C39.5 25.375 40.625 27.5 40.25 30L38.625 38.625C38.625 38.625 38.625 39 38 39L34.375 38.875Z" fill="black" stroke="white" stroke-width="0.75"/>
<path d="M49.25 25.25H42C41.9188 25.2454 41.8384 25.2673 41.7708 25.3124C41.7031 25.3575 41.652 25.4233 41.625 25.5L38.25 43.125C38.25 43.5 38.625 43.5 38.625 43.5H42.375C42.75 43.5 42.75 43.25 42.75 43.25L43.625 38.875H47C52.25 38.875 54.875 35.375 55.5 32.25C56.125 29.125 55.625 25.25 49.25 25.25ZM50.875 32C50.375 34.375 48.75 35.375 46.5 35.375H44.25L45.625 28.75H47.875C51.25 28.75 51.125 30 50.875 32Z" fill="black" stroke="white" stroke-width="0.75"/>
</g>
</g>
<defs>
<clipPath id="clip0_151_6774">
<rect width="64" height="64" fill="white"/>
</clipPath>
<clipPath id="clip1_151_6774">
<rect width="64" height="64" fill="white"/>
</clipPath>
</defs>
</svg>
