<svg width="64" height="64" viewBox="0 0 64 64" fill="none" xmlns="http://www.w3.org/2000/svg">
<g clip-path="url(#clip0_151_7227)">
<path fill-rule="evenodd" clip-rule="evenodd" d="M28.9323 31.0175C32.7326 27.3854 31.5729 22.8932 28.1311 17.4497C24.6893 12.0063 17.761 10.0697 16.4685 11.305C15.1759 12.5404 14.8894 21.3726 18.3312 26.8161C21.773 32.2595 25.1321 34.6496 28.9323 31.0175Z" fill="url(#paint0_linear_151_7227)"/>
<path fill-rule="evenodd" clip-rule="evenodd" d="M32.2181 31.5202C35.0295 35.9667 38.7881 34.3409 43.4405 29.8944C48.0928 25.4479 50.0219 16.9304 49.0657 15.4181C48.1095 13.9057 40.8428 13.9816 36.1905 18.428C31.5382 22.8745 29.4067 27.0738 32.2181 31.5202Z" fill="url(#paint1_linear_151_7227)"/>
<path fill-rule="evenodd" clip-rule="evenodd" d="M30.681 29.0741C35.3493 29.6491 37.1851 25.3227 38.0411 18.3295C38.8971 11.3362 35.3685 3.94483 33.7808 3.74926C32.193 3.5537 26.8588 9.85347 26.0028 16.8467C25.1468 23.84 26.0127 28.4991 30.681 29.0741Z" fill="url(#paint2_linear_151_7227)"/>
<path fill-rule="evenodd" clip-rule="evenodd" d="M29.5053 60C39.293 60 47.2305 57.1479 47.2305 44.2132C47.2305 31.2785 39.293 20.6644 29.5053 20.6644C19.7177 20.6644 11.7864 31.2785 11.7864 44.2132C11.7864 57.1479 19.7177 60 29.5053 60Z" fill="url(#paint3_linear_151_7227)"/>
<path d="M38.4579 41.5725C39.8561 41.5725 40.9896 41.0436 40.9896 40.3912C40.9896 39.7388 39.8561 39.21 38.4579 39.21C37.0596 39.21 35.9261 39.7388 35.9261 40.3912C35.9261 41.0436 37.0596 41.5725 38.4579 41.5725Z" fill="#EAADCC"/>
<path d="M19.7091 40.855C21.0969 41.0259 22.2862 40.6395 22.3655 39.992C22.4447 39.3445 21.3839 38.681 19.9961 38.5101C18.6083 38.3391 17.419 38.7255 17.3398 39.373C17.2605 40.0205 18.3213 40.684 19.7091 40.855Z" fill="#EAADCC"/>
<path fill-rule="evenodd" clip-rule="evenodd" d="M26.0699 39.1923C25.9081 39.3017 25.8654 39.5219 25.9744 39.6842C26.5236 40.5017 27.3649 40.9611 28.4469 41.0852C29.5371 41.2101 30.5125 40.9308 31.3501 40.2479C31.5015 40.1245 31.5245 39.9013 31.4015 39.7494C31.2784 39.5975 31.0559 39.5745 30.9045 39.6979C30.2182 40.2574 29.4334 40.4849 28.5271 40.381C27.6127 40.2762 26.9743 39.9044 26.5603 39.2881C26.4513 39.1258 26.2317 39.0829 26.0699 39.1923Z" fill="black"/>
<path fill-rule="evenodd" clip-rule="evenodd" d="M21.3223 33.8256C22.0211 33.8011 22.6636 34.063 23.1374 34.5063C23.6113 34.9495 23.9166 35.5741 23.941 36.275C23.9654 36.976 23.7043 37.6204 23.2624 38.0958C22.8205 38.5711 22.1978 38.8774 21.4991 38.9019C20.8004 38.9263 20.158 38.6644 19.6841 38.2211C19.2103 37.7779 18.9051 37.1532 18.8807 36.4523C18.8563 35.7514 19.1173 35.1069 19.5592 34.6316C20.001 34.1563 20.6237 33.8501 21.3223 33.8256Z" fill="black"/>
<path fill-rule="evenodd" clip-rule="evenodd" d="M21.4555 35.9486C21.4396 35.4922 21.0578 35.1351 20.603 35.151C20.148 35.167 19.7921 35.5499 19.808 36.0063C19.8239 36.4626 20.2056 36.8197 20.6606 36.8038C21.1153 36.7877 21.4714 36.4049 21.4555 35.9486Z" fill="white"/>
<path fill-rule="evenodd" clip-rule="evenodd" d="M36.6626 34.4702C37.3613 34.4457 38.0037 34.7077 38.4776 35.1509C38.9514 35.5942 39.2567 36.2188 39.2811 36.9197C39.3055 37.6206 39.0444 38.2651 38.6026 38.7404C38.1607 39.2158 37.538 39.522 36.8393 39.5465C36.1406 39.571 35.4981 39.3091 35.0243 38.8658C34.5504 38.4225 34.2451 37.7979 34.2207 37.0969C34.1963 36.396 34.4575 35.7516 34.8993 35.2763C35.3412 34.8009 35.9639 34.4947 36.6626 34.4702Z" fill="black"/>
<path d="M23.5882 36.2874C23.6302 37.4938 22.6895 38.5056 21.487 38.5478C20.2846 38.5899 19.2759 37.6463 19.2339 36.44C19.1919 35.2338 20.1325 34.2219 21.3349 34.1798C22.5374 34.1377 23.5462 35.0813 23.5882 36.2874ZM24.2943 36.2627C24.2387 34.6653 22.9027 33.4157 21.3102 33.4715C19.7179 33.5273 18.4722 34.8673 18.5278 36.4647C18.5834 38.0622 19.9192 39.3119 21.5116 39.2561C23.1041 39.2003 24.3499 37.8602 24.2943 36.2627Z" fill="white"/>
<path fill-rule="evenodd" clip-rule="evenodd" d="M21.3165 33.6486C22.8114 33.5962 24.0656 34.7693 24.1178 36.2689C24.17 37.7686 23.0005 39.0267 21.5055 39.079C20.0106 39.1314 18.7566 37.9583 18.7044 36.4586C18.6522 34.959 19.8216 33.701 21.3165 33.6486ZM24.4709 36.2566C24.4118 34.5614 22.9941 33.2352 21.3041 33.2944C19.6143 33.3536 18.2923 34.7758 18.3514 36.4709C18.4104 38.1662 19.8279 39.4924 21.5178 39.4332C23.2078 39.374 24.5299 37.9519 24.4709 36.2566ZM23.7648 36.2813C23.7194 34.9773 22.6288 33.9572 21.3288 34.0028C20.0289 34.0483 19.0121 35.1422 19.0574 36.4462C19.1028 37.7503 20.1933 38.7704 21.4932 38.7249C22.7932 38.6793 23.8102 37.5854 23.7648 36.2813ZM21.3411 34.3569C22.4461 34.3182 23.3731 35.1853 23.4117 36.2937C23.4503 37.4022 22.5859 38.332 21.4808 38.3707C20.376 38.4094 19.4491 37.5424 19.4105 36.4338C19.3719 35.3254 20.2362 34.3956 21.3411 34.3569Z" fill="white"/>
<path d="M38.9279 36.932C38.9699 38.1383 38.0293 39.1502 36.8268 39.1923C35.6244 39.2344 34.6156 38.2908 34.5736 37.0845C34.5317 35.8783 35.4724 34.8665 36.6748 34.8243C37.8773 34.7822 38.8859 35.7258 38.9279 36.932ZM39.634 36.9072C39.5784 35.3098 38.2425 34.0602 36.6501 34.116C35.0577 34.1718 33.8119 35.5119 33.8675 37.1092C33.9232 38.7067 35.2591 39.9564 36.8515 39.9006C38.4439 39.8448 39.6896 38.5048 39.634 36.9072Z" fill="white"/>
<path fill-rule="evenodd" clip-rule="evenodd" d="M36.6563 34.2931C38.1513 34.2408 39.4053 35.4139 39.4575 36.9135C39.5097 38.4132 38.3403 39.6712 36.8453 39.7236C35.3505 39.7759 34.0963 38.6028 34.0441 37.1031C33.9919 35.6035 35.1614 34.3455 36.6563 34.2931ZM39.8106 36.9011C39.7516 35.2059 38.3339 33.8798 36.644 33.939C34.9541 33.9982 33.6321 35.4203 33.6911 37.1155C33.7501 38.8107 35.1678 40.1369 36.8577 40.0777C38.5477 40.0185 39.8696 38.5964 39.8106 36.9011ZM39.1045 36.9258C39.0591 35.6218 37.9686 34.6018 36.6686 34.6473C35.3688 34.6928 34.3518 35.7867 34.3972 37.0907C34.4426 38.3949 35.5332 39.4149 36.833 39.3694C38.133 39.3239 39.1499 38.23 39.1045 36.9258ZM36.681 35.0014C37.786 34.9627 38.7129 35.8298 38.7514 36.9382C38.79 38.0467 37.9257 38.9765 36.8207 39.0152C35.7158 39.054 34.7888 38.1869 34.7502 37.0784C34.7116 35.97 35.5761 35.0402 36.681 35.0014Z" fill="white"/>
<path fill-rule="evenodd" clip-rule="evenodd" d="M36.7954 36.5931C36.7795 36.1368 36.3977 35.7796 35.9428 35.7956C35.4879 35.8115 35.1319 36.1945 35.1478 36.6508C35.1637 37.1071 35.5454 37.4643 36.0004 37.4483C36.4553 37.4324 36.8113 37.0494 36.7954 36.5931Z" fill="white"/>
<path fill-rule="evenodd" clip-rule="evenodd" d="M33.4992 24.871C33.7521 25.1247 33.7521 25.536 33.4992 25.7897L27.7292 31.5779C27.4763 31.8316 27.0662 31.8316 26.8133 31.5779C26.5603 31.3242 26.5603 30.9128 26.8133 30.6591L32.5832 24.871C32.8362 24.6172 33.2462 24.6172 33.4992 24.871Z" fill="#FFC73B"/>
<path fill-rule="evenodd" clip-rule="evenodd" d="M32.3215 31.5779C32.5745 31.3242 32.5745 30.9128 32.3215 30.6591L26.5516 24.871C26.2986 24.6173 25.8886 24.6173 25.6356 24.871C25.3827 25.1247 25.3827 25.5361 25.6356 25.7898L31.4056 31.5779C31.6585 31.8316 32.0686 31.8316 32.3215 31.5779Z" fill="#FFC73B"/>
<path fill-rule="evenodd" clip-rule="evenodd" d="M15.6358 44.9431C15.8937 44.6945 16.3037 44.7026 16.5515 44.9613L25.2653 54.057C25.5132 54.3157 25.5051 54.727 25.2472 54.9756C24.9893 55.2242 24.5793 55.216 24.3314 54.9573L15.6176 45.8617C15.3697 45.603 15.3779 45.1917 15.6358 44.9431Z" fill="#ECB732"/>
<path fill-rule="evenodd" clip-rule="evenodd" d="M24.0643 46.0013C24.3249 46.247 24.3376 46.6582 24.0926 46.9196L18.5581 52.8259C18.3132 53.0873 17.9033 53.1 17.6427 52.8543C17.382 52.6085 17.3694 52.1974 17.6144 51.9359L23.1488 46.0297C23.3938 45.7682 23.8037 45.7555 24.0643 46.0013Z" fill="#ECB732"/>
<path fill-rule="evenodd" clip-rule="evenodd" d="M43.2635 44.9431C43.0056 44.6945 42.5956 44.7026 42.3478 44.9613L33.6339 54.057C33.3861 54.3157 33.3942 54.727 33.6521 54.9756C33.91 55.2242 34.32 55.216 34.5679 54.9573L43.2817 45.8617C43.5296 45.603 43.5214 45.1917 43.2635 44.9431Z" fill="#ECB732"/>
<path fill-rule="evenodd" clip-rule="evenodd" d="M34.8349 46.0013C34.5742 46.247 34.5616 46.6582 34.8066 46.9196L40.341 52.8259C40.586 53.0873 40.9959 53.1 41.2565 52.8543C41.5171 52.6085 41.5298 52.1974 41.2848 51.9359L35.7503 46.0297C35.5054 45.7682 35.0955 45.7555 34.8349 46.0013Z" fill="#ECB732"/>
</g>
<defs>
<linearGradient id="paint0_linear_151_7227" x1="1914.1" y1="-1475.96" x2="3496.66" y2="2937.96" gradientUnits="userSpaceOnUse">
<stop stop-color="#52CE63"/>
<stop offset="1" stop-color="#51A256"/>
</linearGradient>
<linearGradient id="paint1_linear_151_7227" x1="1534.34" y1="1922.45" x2="-2872.4" y2="3491.64" gradientUnits="userSpaceOnUse">
<stop stop-color="#52CE63"/>
<stop offset="1" stop-color="#51A256"/>
</linearGradient>
<linearGradient id="paint2_linear_151_7227" x1="1947.81" y1="239.502" x2="1072.84" y2="7343.19" gradientUnits="userSpaceOnUse">
<stop stop-color="#8AE99C"/>
<stop offset="1" stop-color="#52CE63"/>
</linearGradient>
<linearGradient id="paint3_linear_151_7227" x1="5820.89" y1="3299.05" x2="4875.59" y2="18772.9" gradientUnits="userSpaceOnUse">
<stop stop-color="#FFE56C"/>
<stop offset="1" stop-color="#FFC63A"/>
</linearGradient>
<clipPath id="clip0_151_7227">
<rect width="64" height="64" fill="white"/>
</clipPath>
</defs>
</svg>
