<svg width="64" height="64" viewBox="0 0 64 64" fill="none" xmlns="http://www.w3.org/2000/svg">
<g clip-path="url(#clip0_151_12138)">
<g clip-path="url(#clip1_151_12138)">
<path d="M63.7383 36.0633C65.9779 18.5304 53.5961 2.50132 36.0953 0.26172C18.5944 -1.97788 2.50132 10.4039 0.26172 27.9047C-1.97788 45.4056 10.4039 61.4667 27.9047 63.7383C45.4376 65.9779 61.4667 53.5961 63.7383 36.0633Z" fill="#FF6C37"/>
<path d="M43.5499 20.546L30.0484 34.0476L26.2411 30.2403C39.5187 16.9626 40.8304 18.1144 43.5499 20.546Z" fill="white"/>
<path d="M30.0484 34.3675C29.9524 34.3675 29.8884 34.3355 29.8244 34.2715L25.9851 30.4642C25.8571 30.3362 25.8571 30.1443 25.9851 30.0163C39.4866 16.5147 40.8944 17.7945 43.7419 20.354C43.8059 20.418 43.8379 20.482 43.8379 20.578C43.8379 20.674 43.8059 20.738 43.7419 20.8019L30.2403 34.2715C30.2083 34.3355 30.1123 34.3675 30.0484 34.3675ZM26.689 30.2402L30.0484 33.5996L43.07 20.578C40.7024 18.4664 39.1027 17.8265 26.689 30.2402Z" fill="#FF6C37"/>
<path d="M33.9197 37.9189L30.2403 34.2396L43.7419 20.738C47.3572 24.3854 41.9502 30.3043 33.9197 37.9189Z" fill="white"/>
<path d="M33.9197 38.2389C33.8237 38.2389 33.7597 38.2069 33.6957 38.1429L30.0164 34.4636C29.9524 34.3996 29.9524 34.3356 29.9524 34.2396C29.9524 34.1436 29.9844 34.0796 30.0484 34.0156L43.5499 20.5141C43.6779 20.3861 43.8699 20.3861 43.9979 20.5141C44.8297 21.2819 45.2776 22.3697 45.2456 23.4895C45.1816 27.0409 41.1504 31.5521 34.1756 38.1429C34.0796 38.2069 33.9837 38.2389 33.9197 38.2389ZM30.6883 34.2396C32.7359 36.3192 33.5997 37.1511 33.9197 37.471C39.2947 32.3519 44.5098 27.1049 44.5418 23.4895C44.5738 22.6577 44.2538 21.8258 43.7099 21.186L30.6883 34.2396Z" fill="#FF6C37"/>
<path d="M26.305 30.3363L29.0245 33.0558C29.0885 33.1198 29.0885 33.1838 29.0245 33.2477C28.9925 33.2797 28.9925 33.2797 28.9605 33.2797L23.3296 34.4955C23.0416 34.5275 22.7857 34.3355 22.7217 34.0476C22.6897 33.8876 22.7537 33.7277 22.8496 33.6317L26.1131 30.3683C26.177 30.3043 26.273 30.2723 26.305 30.3363Z" fill="white"/>
<path d="M23.2336 34.8155C22.7537 34.8155 22.4017 34.4315 22.4017 33.9516C22.4017 33.7276 22.4977 33.5037 22.6577 33.3437L25.9211 30.0803C26.1131 29.9203 26.369 29.9203 26.561 30.0803L29.2805 32.7998C29.4725 32.9598 29.4725 33.2477 29.2805 33.4397C29.2165 33.5037 29.1525 33.5357 29.0565 33.5677L23.4255 34.7835C23.3616 34.7835 23.2976 34.8155 23.2336 34.8155ZM26.209 30.6882L23.0736 33.8236C23.0096 33.8876 22.9776 33.9836 23.0416 34.0796C23.0736 34.1756 23.1696 34.2076 23.2656 34.1756L28.5446 33.0238L26.209 30.6882Z" fill="#FF6C37"/>
<path d="M50.6846 13.0594C48.637 11.0758 45.3416 11.1397 43.358 13.2194C41.3743 15.299 41.4383 18.5624 43.5179 20.546C45.2136 22.1778 47.7732 22.4657 49.7888 21.2499L46.1415 17.6026L50.6846 13.0594Z" fill="white"/>
<path d="M47.1013 22.3057C44.0618 22.3057 41.5983 19.8421 41.5983 16.8027C41.5983 13.7632 44.0618 11.2997 47.1013 11.2997C48.509 11.2997 49.8848 11.8436 50.9086 12.8354C50.9726 12.8994 51.0046 12.9634 51.0046 13.0594C51.0046 13.1553 50.9726 13.2193 50.9086 13.2833L46.5894 17.6025L49.9808 20.9939C50.1087 21.1219 50.1087 21.3139 49.9808 21.4419C49.9488 21.4738 49.9488 21.4738 49.9168 21.5058C49.0849 22.0178 48.0931 22.3057 47.1013 22.3057ZM47.1013 11.9716C44.4138 11.9716 42.2382 14.1472 42.2701 16.8347C42.2701 19.5222 44.4458 21.6978 47.1333 21.6658C47.8691 21.6658 48.605 21.5058 49.2769 21.1539L45.9175 17.8265C45.8535 17.7625 45.8215 17.6985 45.8215 17.6025C45.8215 17.5066 45.8535 17.4426 45.9175 17.3786L50.2047 13.0914C49.3409 12.3555 48.2531 11.9716 47.1013 11.9716Z" fill="#FF6C37"/>
<path d="M50.7806 13.1553L50.7167 13.0913L46.1415 17.6025L49.7568 21.2178C50.1088 20.9939 50.4607 20.7379 50.7486 20.45C52.7963 18.4343 52.7963 15.1709 50.7806 13.1553Z" fill="white"/>
<path d="M49.7888 21.5698C49.6928 21.5698 49.6288 21.5378 49.5649 21.4738L45.9175 17.8265C45.8535 17.7625 45.8215 17.6985 45.8215 17.6025C45.8215 17.5065 45.8535 17.4425 45.9175 17.3785L50.4607 12.8354C50.5887 12.7074 50.7806 12.7074 50.9086 12.8354L51.0046 12.8994C53.1482 15.043 53.1482 18.4983 51.0366 20.6739C50.7167 20.9939 50.3647 21.2818 49.9808 21.5058C49.8848 21.5378 49.8208 21.5698 49.7888 21.5698ZM46.5894 17.6025L49.8208 20.8339C50.0768 20.674 50.3327 20.45 50.5247 20.258C52.3484 18.4344 52.4443 15.4589 50.6847 13.5392L46.5894 17.6025Z" fill="#FF6C37"/>
<path d="M44.0938 21.1219C43.326 20.3541 42.0782 20.3541 41.3103 21.1219L29.2485 33.1837L31.2641 35.1994L44.0298 24.0014C44.8617 23.2975 44.9257 22.0497 44.2218 21.2179C44.1578 21.1859 44.1258 21.1539 44.0938 21.1219Z" fill="white"/>
<path d="M31.2322 35.5193C31.1362 35.5193 31.0722 35.4873 31.0082 35.4233L28.9926 33.4077C28.8646 33.2797 28.8646 33.0878 28.9926 32.9598L41.0544 20.898C41.9502 20.0021 43.39 20.0021 44.2858 20.898C45.1816 21.7938 45.1816 23.2335 44.2858 24.1294C44.2538 24.1614 44.2218 24.1934 44.1898 24.2254L31.4241 35.4233C31.3921 35.4873 31.3281 35.5193 31.2322 35.5193ZM29.6964 33.1837L31.2641 34.7515L43.8059 23.7454C44.5098 23.1695 44.5738 22.1137 43.9979 21.4099C43.422 20.706 42.3661 20.642 41.6623 21.2179C41.6303 21.2499 41.5983 21.2819 41.5343 21.3139L29.6964 33.1837Z" fill="#FF6C37"/>
<path d="M20.0022 46.9092C19.8742 46.9732 19.8102 47.1012 19.8422 47.2292L20.3861 49.5328C20.5141 49.8527 20.3221 50.2366 19.9702 50.3326C19.7142 50.4286 19.4263 50.3326 19.2663 50.1407L15.7469 46.6533L27.2329 35.1674L31.2002 35.2313L33.8877 37.9189C33.2478 38.4628 29.3765 42.2061 20.0022 46.9092Z" fill="white"/>
<path d="M19.7462 50.6526C19.4903 50.6526 19.2343 50.5566 19.0744 50.3646L15.587 46.8772C15.523 46.8133 15.491 46.7493 15.491 46.6533C15.491 46.5573 15.523 46.4933 15.587 46.4293L27.0729 34.9434C27.1369 34.8794 27.2329 34.8474 27.2969 34.8474L31.2642 34.9114C31.3601 34.9114 31.4241 34.9434 31.4881 35.0074L34.1756 37.6949C34.2396 37.7589 34.2716 37.8549 34.2716 37.9509C34.2716 38.0468 34.2396 38.1108 34.1436 38.1748L33.9197 38.3668C30.5283 41.3422 25.9211 44.3177 20.1941 47.1652L20.7381 49.4368C20.834 49.8527 20.6421 50.3006 20.2581 50.5246C20.0662 50.6206 19.9062 50.6526 19.7462 50.6526ZM16.2269 46.6533L19.5223 49.9167C19.6183 50.0767 19.8102 50.1407 19.9702 50.0447C20.1302 49.9487 20.1941 49.7567 20.0982 49.5968L19.5543 47.2932C19.4903 47.0052 19.6183 46.7493 19.8742 46.6213C25.5372 43.7738 30.1124 40.8303 33.4718 37.9189L31.1042 35.5513L27.4248 35.4873L16.2269 46.6533Z" fill="#FF6C37"/>
<path d="M13.0274 49.4048L15.7789 46.6533L19.8742 50.7486L13.3474 50.3007C13.0594 50.2687 12.8674 50.0127 12.8994 49.7248C12.8994 49.5968 12.9314 49.4688 13.0274 49.4048Z" fill="white"/>
<path d="M19.8742 51.0365L13.3154 50.5886C12.8355 50.5566 12.5155 50.1407 12.5475 49.6608C12.5795 49.4688 12.6435 49.2769 12.8035 49.1489L15.555 46.3974C15.683 46.2694 15.8749 46.2694 16.0029 46.3974L20.0982 50.4926C20.1941 50.5886 20.2261 50.7166 20.1621 50.8446C20.0982 50.9725 20.0022 51.0365 19.8742 51.0365ZM15.7789 47.1012L13.2514 49.6288C13.1554 49.6928 13.1554 49.8527 13.2514 49.9167C13.2834 49.9487 13.3154 49.9807 13.3794 49.9807L19.0423 50.3647L15.7789 47.1012Z" fill="#FF6C37"/>
<path d="M26.1131 36.6391C25.9211 36.6391 25.7931 36.4791 25.7931 36.3191C25.7931 36.2232 25.8251 36.1592 25.8891 36.0952L28.9925 32.9917C29.1205 32.8638 29.3125 32.8638 29.4405 32.9917L31.4561 35.0074C31.5521 35.1034 31.5841 35.1993 31.5521 35.3273C31.5201 35.4233 31.4241 35.5193 31.2961 35.5513L26.1771 36.6391C26.1451 36.6391 26.1131 36.6391 26.1131 36.6391ZM29.2165 33.6636L27.1049 35.7752L30.5603 35.0394L29.2165 33.6636Z" fill="#FF6C37"/>
<path d="M31.2002 35.2313L27.6808 35.9992C27.4248 36.0632 27.1689 35.9032 27.1049 35.6472C27.0729 35.4873 27.1049 35.3273 27.2329 35.1993L29.1845 33.2477L31.2002 35.2313Z" fill="white"/>
<path d="M27.6168 36.3191C27.1689 36.3191 26.817 35.9672 26.817 35.5193C26.817 35.2953 26.9129 35.1034 27.0409 34.9434L28.9926 32.9917C29.1205 32.8638 29.3125 32.8638 29.4405 32.9917L31.4561 35.0074C31.5521 35.1034 31.5841 35.1993 31.5521 35.3273C31.5201 35.4233 31.4241 35.5193 31.2961 35.5513L27.7768 36.3191C27.7128 36.3191 27.6488 36.3191 27.6168 36.3191ZM29.2165 33.6636L27.4888 35.3913C27.4248 35.4553 27.4248 35.5193 27.4568 35.5833C27.4888 35.6473 27.5528 35.6793 27.6488 35.6793L30.5923 35.0394L29.2165 33.6636Z" fill="#FF6C37"/>
<path d="M50.8126 16.2267C50.7486 16.0348 50.5247 15.9388 50.3327 16.0028C50.1408 16.0668 50.0448 16.2907 50.1088 16.4827C50.1088 16.5147 50.1408 16.5467 50.1408 16.5787C50.3327 16.9626 50.2687 17.4425 50.0128 17.7945C49.8848 17.9544 49.9168 18.1784 50.0448 18.3064C50.2047 18.4343 50.4287 18.4023 50.5567 18.2424C51.0366 17.6345 51.1326 16.8666 50.8126 16.2267Z" fill="#FF6C37"/>
</g>
</g>
<defs>
<clipPath id="clip0_151_12138">
<rect width="64" height="64" fill="white"/>
</clipPath>
<clipPath id="clip1_151_12138">
<rect width="64" height="64" fill="white"/>
</clipPath>
</defs>
</svg>
