<svg width="64" height="64" viewBox="0 0 64 64" fill="none" xmlns="http://www.w3.org/2000/svg">
    <g clip-path="url(#clip0_151_12168)">
        <path d="M47.1023 39.7179L48.9511 35.0426H54.2895L51.7561 27.9503L54.9246 19.9375L64 44.0336H57.3072L55.7564 39.7179H47.1023Z"
              fill="currentColor"/>
        <path d="M41.3925 44.0337L51.1079 19.9375L44.6669 19.9375L38.021 35.509L33.2951 19.9376H28.3443L23.2699 35.509L19.6913 28.4134L16.4529 38.3905L19.7409 44.0337H26.0796L30.6651 30.0694L35.0371 44.0337H41.3925Z"
              fill="var(--accent)"/>
        <path d="M6.11397 35.7618H10.0813C11.283 35.7618 12.3532 35.6277 13.2917 35.3595L14.3177 32.1985L17.1852 23.3642C16.9667 23.0179 16.7172 22.6905 16.4369 22.382C14.9646 20.7523 12.8105 19.9375 9.97449 19.9375H0V44.0337H6.11397V35.7618ZM11.3653 25.4811C11.9404 26.0598 12.2279 26.8344 12.2279 27.8047C12.2279 28.7825 11.975 29.5579 11.4693 30.1311C10.9149 30.768 9.89397 31.0864 8.40669 31.0864H6.11397V24.6128H8.42354C9.80967 24.6128 10.7903 24.9022 11.3653 25.4811Z"
              fill="currentColor"/>
    </g>
    <defs>
        <clipPath id="clip0_151_12168">
            <rect width="64" height="64" fill="white"/>
        </clipPath>
    </defs>
</svg>
