<svg width="64" height="64" viewBox="0 0 64 64" fill="none" xmlns="http://www.w3.org/2000/svg">
<g clip-path="url(#clip0_151_6795)">
<g clip-path="url(#clip1_151_6795)">
<path d="M32.0009 36.4331C34.4741 36.4331 36.4789 34.4282 36.4789 31.9551C36.4789 29.4819 34.4741 27.4771 32.0009 27.4771C29.5278 27.4771 27.5229 29.4819 27.5229 31.9551C27.5229 34.4282 29.5278 36.4331 32.0009 36.4331Z" fill="#00D8FF"/>
<path fill-rule="evenodd" clip-rule="evenodd" d="M32.3299 22.516C39.9649 22.568 48.2949 23.125 54.0129 28.224C54.1809 28.374 54.3429 28.53 54.5009 28.691C55.8499 30.066 56.5549 32.286 55.4659 34.113C53.2319 37.864 48.2359 39.5 43.3989 40.507C36.1649 42.013 28.6009 42.025 21.3699 40.699C17.2089 39.935 12.9539 38.596 9.99694 35.795C8.84594 34.705 7.86194 33.271 8.01594 31.675C8.26594 29.093 10.7429 27.436 12.8279 26.314C18.6189 23.198 25.6749 22.501 32.3299 22.516ZM31.7759 23.689C24.5519 23.738 16.7329 24.199 11.1549 28.818C10.9599 28.979 10.7719 29.148 10.5909 29.325C10.4739 29.439 10.3609 29.558 10.2519 29.68C9.27294 30.78 8.93594 32.547 9.85994 33.868C10.7899 35.197 12.2019 36.156 13.6559 36.938C19.0939 39.862 25.5199 40.381 31.7849 40.403C38.1279 40.426 44.6689 39.848 50.2719 36.951C52.5039 35.796 55.0159 34.1 54.9269 31.916C54.8449 29.912 52.8909 28.674 51.4279 27.79C51.0319 27.551 50.6249 27.33 50.2119 27.122C44.6499 24.335 38.1319 23.675 31.7759 23.689Z" fill="#00D8FF"/>
<path fill-rule="evenodd" clip-rule="evenodd" d="M42.115 10.703C44.908 10.774 46.355 14.132 46.546 16.612C46.584 17.105 46.598 17.6 46.592 18.095C46.586 18.631 46.557 19.167 46.51 19.701C45.921 26.313 42.902 32.61 39.347 38.425C35.87 44.113 31.63 49.785 25.862 52.421C23.955 53.293 21.687 53.831 19.999 52.858C17.685 51.525 17.432 48.407 17.475 46.042C17.486 45.461 17.524 44.88 17.584 44.301C18.473 35.741 22.812 27.632 28.242 20.646C31.41 16.57 35.179 12.527 39.874 11.063C40.613 10.832 41.2 10.692 42.115 10.703ZM41.981 11.875C38.702 11.927 35.758 14.357 33.151 16.882C26.297 23.519 21.246 32.346 19.214 41.603C19.057 42.32 18.925 43.042 18.828 43.769C18.753 44.332 18.698 44.898 18.669 45.466C18.646 45.918 18.638 46.371 18.652 46.824C18.662 47.178 18.685 47.532 18.724 47.884C18.753 48.153 18.792 48.421 18.841 48.687C18.878 48.884 18.921 49.08 18.971 49.275C19.012 49.433 19.058 49.59 19.11 49.746C19.519 50.979 20.573 52.157 21.988 52.196C25.289 52.286 28.397 49.879 31.084 47.263C35.801 42.672 39.316 36.903 42.062 30.839C44.278 25.943 46.305 20.621 45.173 15.232C45.13 15.028 45.08 14.826 45.023 14.626C44.976 14.463 44.923 14.302 44.865 14.143C44.425 12.944 43.39 11.872 41.981 11.875Z" fill="#00D8FF"/>
<path fill-rule="evenodd" clip-rule="evenodd" d="M22.109 10.747C25.673 10.816 28.874 13.235 31.716 15.944C36.902 20.887 40.727 27.175 43.629 33.793C45.877 38.92 47.945 44.675 46.107 50.085C45.528 51.79 44.063 53.35 42.11 53.39C38.529 53.462 35.21 50.858 32.33 48.055C25.105 41.021 19.741 31.735 17.903 21.887C17.771 21.183 17.666 20.473 17.594 19.76C17.535 19.178 17.498 18.593 17.488 18.008C17.48 17.536 17.49 17.064 17.523 16.594C17.545 16.28 17.577 15.968 17.62 15.657C17.661 15.365 17.713 15.074 17.778 14.786C17.821 14.595 17.869 14.406 17.924 14.218C18.463 12.375 19.865 10.733 22.109 10.747ZM21.974 11.92C19.887 11.966 18.932 14.427 18.74 16.154C18.701 16.508 18.677 16.865 18.666 17.222C18.652 17.678 18.658 18.135 18.681 18.591C19.009 25.19 21.959 31.57 25.519 37.412C28.871 42.912 32.919 48.39 38.487 51.206C40.095 52.019 42.049 52.658 43.438 51.89C45.18 50.926 45.394 48.629 45.487 46.917C45.512 46.451 45.515 45.983 45.5 45.516C45.482 44.93 45.436 44.345 45.367 43.763C44.725 38.326 42.317 33.181 39.551 28.319C36.109 22.271 31.892 16.243 25.924 13.094C24.688 12.442 23.35 11.909 21.974 11.92Z" fill="#00D8FF"/>
</g>
</g>
<defs>
<clipPath id="clip0_151_6795">
<rect width="64" height="64" fill="white"/>
</clipPath>
<clipPath id="clip1_151_6795">
<rect width="64" height="64" fill="white"/>
</clipPath>
</defs>
</svg>
