<svg width="64" height="64" viewBox="0 0 64 64" fill="none" xmlns="http://www.w3.org/2000/svg">
<g clip-path="url(#clip0_151_6820)">
<path d="M43.5736 43.112C45.7878 42.8866 47.4676 41.01 47.3912 38.7578C47.315 36.506 45.406 34.7044 43.1154 34.7044H42.9628C40.5956 34.7794 38.7634 36.7312 38.8398 39.0582C38.9162 40.1842 39.3742 41.16 40.0614 41.8356C37.4654 46.8652 33.495 50.5434 27.5396 53.6212C23.4928 55.723 19.2936 56.4738 15.0943 55.9484C11.6584 55.498 8.98602 53.9968 7.30602 51.5192C4.86288 47.841 4.6339 43.8624 6.69546 39.884C8.14624 37.0314 10.4366 34.9294 11.8873 33.8784C11.582 32.9026 11.1237 31.2512 10.8948 30.0502C-0.176411 37.9322 0.96898 48.5918 4.32852 53.6212C6.84804 57.3746 11.9637 59.7018 17.6138 59.7018C19.1408 59.7018 20.6678 59.5514 22.195 59.1764C31.9682 57.2996 39.3744 51.5944 43.5736 43.112ZM57.0118 33.8036C51.209 27.1226 42.6574 23.4444 32.8842 23.4444H31.6628C30.9756 22.0932 29.5248 21.1922 27.9214 21.1922H27.7686C25.4018 21.2674 23.5696 23.219 23.6458 25.5462C23.7222 27.7982 25.6308 29.5998 27.9214 29.5998H28.074C29.7538 29.5248 31.2046 28.4738 31.8154 27.0474H33.1896C38.9926 27.0474 44.4898 28.6988 49.453 31.9268C53.2704 34.404 56.0192 37.632 57.5462 41.5354C58.8442 44.6882 58.7678 47.766 57.3934 50.3934C55.2556 54.3718 51.6672 56.5488 46.9332 56.5488C43.879 56.5488 40.9778 55.648 39.4506 54.9724C38.6108 55.723 37.0836 56.924 36.0146 57.675C39.298 59.1762 42.6574 60.002 45.8642 60.002C53.194 60.002 58.6152 56.0232 60.6768 52.0448C62.8908 47.6908 62.738 40.1842 57.0118 33.8036ZM18.2246 44.3878C18.301 46.6398 20.2098 48.4412 22.5004 48.4412H22.6532C25.02 48.3664 26.8524 46.4146 26.776 44.0876C26.6998 41.8354 24.7908 40.034 22.5004 40.034H22.3478C22.195 40.034 21.9658 40.034 21.8134 40.1088C18.6828 35.0044 17.3848 29.4496 17.843 23.4442C18.1482 18.9401 19.6754 15.0366 22.3478 11.8086C24.5618 9.03109 28.8376 7.67991 31.7392 7.60503C39.8324 7.45479 43.268 17.3636 43.4972 21.3422C44.4898 21.5674 46.1696 22.093 47.315 22.4684C46.3986 10.3076 38.7634 4.00195 31.4338 4.00195C24.5618 4.00195 18.2246 8.88133 15.7048 16.0877C12.1927 25.6962 14.4833 34.9294 18.759 42.211C18.3774 42.7364 18.1482 43.562 18.2246 44.3878Z" fill="#764ABC"/>
</g>
<defs>
<clipPath id="clip0_151_6820">
<rect width="64" height="64" fill="white"/>
</clipPath>
</defs>
</svg>
