<svg width="64" height="64" viewBox="0 0 64 64" fill="none" xmlns="http://www.w3.org/2000/svg">
<g clip-path="url(#clip0_151_6716)">
<path d="M52.22 35.144C50.4614 35.1463 48.7263 35.5484 47.146 36.32C46.6512 35.4989 46.2691 34.6149 46.01 33.692C45.8611 32.9685 45.8267 32.2261 45.908 31.492C46.0789 30.6841 46.3007 29.8879 46.572 29.108C46.562 29.006 46.45 28.524 45.324 28.508C44.198 28.492 43.228 28.722 43.124 29.02C42.9284 29.5643 42.7714 30.1216 42.654 30.688C41.7221 32.987 40.575 35.1928 39.228 37.276C38.4733 36.0388 38.1629 34.5813 38.348 33.144C38.5189 32.3361 38.7407 31.5399 39.012 30.76C39.002 30.658 38.89 30.176 37.764 30.16C36.638 30.144 35.668 30.374 35.564 30.672C35.46 30.97 35.328 31.672 35.094 32.34C34.86 33.008 32.128 39.112 31.412 40.686C31.044 41.486 30.726 42.138 30.502 42.578C30.4914 42.6065 30.478 42.634 30.462 42.66C30.262 43.038 30.156 43.244 30.156 43.244V43.254C30.002 43.53 29.838 43.786 29.756 43.786C29.613 43.2146 29.6199 42.6159 29.776 42.048C30.176 39.93 31.156 36.638 31.146 36.524C31.146 36.462 31.33 35.89 30.512 35.594C30.3223 35.5037 30.1092 35.4744 29.9022 35.5103C29.6952 35.5461 29.5044 35.6452 29.356 35.794C29.284 35.794 29.234 35.968 29.234 35.968C29.234 35.968 30.124 32.266 27.536 32.266C26.5282 32.4687 25.5711 32.8709 24.721 33.449C23.8709 34.027 23.145 34.7692 22.586 35.632C21.89 36.01 20.408 36.818 18.822 37.688C18.222 38.026 17.594 38.364 17.012 38.688C16.972 38.648 16.93 38.596 16.89 38.556C13.74 35.2 7.95 32.832 8.2 28.342C8.292 26.706 8.854 22.41 19.318 17.192C27.93 12.948 34.784 14.124 35.97 16.732C37.668 20.456 32.298 27.37 23.4 28.372C22.4156 28.5717 21.3989 28.5476 20.4251 28.3014C19.4513 28.0553 18.5453 27.5934 17.774 26.95C17.304 26.438 17.232 26.408 17.058 26.51C16.772 26.664 16.956 27.124 17.058 27.39C17.3974 28.0043 17.8566 28.5443 18.4083 28.9782C18.9599 29.412 19.593 29.7309 20.27 29.916C23.7705 30.6724 27.4201 30.3107 30.704 28.882C36.104 26.796 40.304 20.996 39.072 16.138C37.834 11.208 29.652 9.58197 21.908 12.338C17.0575 13.9701 12.5757 16.541 8.718 19.904C4.452 23.894 3.778 27.36 4.054 28.814C5.054 33.97 12.156 37.324 14.998 39.814C14.854 39.896 14.722 39.968 14.61 40.028C13.188 40.734 7.768 43.568 6.41 46.564C4.876 49.964 6.656 52.394 7.832 52.722C9.60401 53.1461 11.4642 53.0064 13.153 52.3223C14.8418 51.6382 16.2748 50.4438 17.252 48.906C18.0841 47.6304 18.5956 46.1726 18.7429 44.6567C18.8902 43.1409 18.669 41.6119 18.098 40.2C18.0884 40.1771 18.0748 40.1562 18.058 40.138L19.172 39.484C19.898 39.054 20.614 38.656 21.228 38.328C20.8116 39.5289 20.5672 40.7826 20.502 42.052C20.3606 43.9975 20.956 45.9251 22.17 47.452C22.3547 47.611 22.5692 47.7317 22.8009 47.8073C23.0326 47.8828 23.2771 47.9116 23.52 47.892C24.72 47.892 25.27 46.892 25.872 45.704C26.608 44.252 27.272 42.564 27.272 42.564C27.272 42.564 26.444 47.126 28.694 47.126C29.512 47.126 30.34 46.062 30.71 45.526V45.536C30.71 45.536 30.73 45.506 30.772 45.434L30.904 45.22V45.2C31.232 44.628 31.968 43.328 33.062 41.17C34.474 38.388 35.834 34.91 35.834 34.91C35.9652 35.6743 36.1462 36.4293 36.376 37.17C36.7054 38.0678 37.095 38.9425 37.542 39.788C37.214 40.248 37.01 40.504 37.01 40.504L37.02 40.514C36.754 40.862 36.468 41.24 36.15 41.608C35.2039 42.6481 34.326 43.7484 33.522 44.902C33.4025 45.0957 33.3615 45.3277 33.4072 45.5507C33.4529 45.7737 33.5819 45.9709 33.768 46.102C34.189 46.321 34.6689 46.4002 35.138 46.328C35.8449 46.2881 36.54 46.1292 37.194 45.858C37.826 45.6355 38.4223 45.3223 38.964 44.928C39.5225 44.5411 39.972 44.017 40.2694 43.4061C40.5667 42.7953 40.7019 42.1182 40.662 41.44C40.5991 40.5856 40.3809 39.75 40.018 38.974C40.12 38.83 40.218 38.688 40.314 38.544C41.4511 36.8467 42.4759 35.077 43.382 33.246C43.5132 34.0103 43.6942 34.7653 43.924 35.506C44.1957 36.2819 44.5301 37.0344 44.924 37.756C43.6159 38.7624 42.5855 40.0853 41.93 41.6C41.286 43.462 41.786 44.3 42.73 44.494C43.2465 44.5296 43.763 44.4238 44.224 44.188C44.9017 43.9652 45.5402 43.6372 46.116 43.216C46.7231 42.8577 47.2316 42.354 47.5957 41.7504C47.9599 41.1468 48.1682 40.4621 48.202 39.758C48.1566 39.0551 47.9979 38.3642 47.732 37.712C49.4582 37.0376 51.3298 36.8226 53.164 37.088C58.032 37.66 58.994 40.698 58.81 41.978C58.7237 42.4317 58.5413 42.8618 58.2749 43.2392C58.0086 43.6166 57.6646 43.9326 57.266 44.166C56.928 44.38 56.816 44.452 56.846 44.606C56.886 44.832 57.046 44.82 57.336 44.78C58.0697 44.5519 58.717 44.1069 59.1926 43.5034C59.6682 42.9 59.9497 42.1666 60 41.4C60.154 38.4 57.29 35.11 52.226 35.14L52.22 35.144ZM14.66 47.8C13.044 49.56 10.794 50.224 9.822 49.662C8.778 49.062 9.188 46.462 11.172 44.598C12.3489 43.5385 13.6209 42.5899 14.972 41.764C15.208 41.62 15.556 41.416 15.972 41.164L16.084 41.102L16.33 40.948C16.6844 42.1356 16.7166 43.3961 16.4231 44.6002C16.1296 45.8043 15.5211 46.9086 14.66 47.8ZM26.422 39.8C25.86 41.17 24.684 44.68 23.968 44.484C23.354 44.32 22.968 41.66 23.846 39.032C24.2893 37.7669 24.935 36.5821 25.758 35.524C26.638 34.542 27.61 34.214 27.844 34.614C27.6305 36.4037 27.1512 38.1516 26.422 39.8ZM36.128 44.444C35.892 44.566 35.668 44.644 35.566 44.588C35.494 44.548 35.668 44.388 35.668 44.388C35.668 44.388 36.886 43.078 37.366 42.486C37.642 42.138 37.966 41.73 38.318 41.268V41.4C38.318 42.964 36.804 44.018 36.13 44.448L36.128 44.444ZM43.616 42.736C43.442 42.614 43.472 42.204 44.056 40.926C44.4621 40.1052 45.0293 39.3746 45.724 38.778C45.8305 39.0807 45.8859 39.399 45.888 39.72C45.8959 40.403 45.6775 41.0695 45.2668 41.6155C44.8562 42.1614 44.2765 42.5561 43.618 42.738L43.616 42.736Z" fill="#CD6799"/>
</g>
<defs>
<clipPath id="clip0_151_6716">
<rect width="64" height="64" fill="white"/>
</clipPath>
</defs>
</svg>
