<svg width="64" height="64" viewBox="0 0 64 64" fill="none" xmlns="http://www.w3.org/2000/svg">
<g clip-path="url(#clip0_151_6763)">
<g clip-path="url(#clip1_151_6763)">
<path d="M0 32V64H32H64V32V0H32H0V32Z" fill="#007ACC"/>
<path d="M14.1528 32.2123L14.1325 34.8332H18.2976H22.4627L22.4627 46.6681V58.5031H25.4087H28.3547V46.6681L28.3547 34.8332H32.5198H36.6849V32.2631C36.6849 30.8408 36.6544 29.6523 36.6138 29.6218C36.5833 29.5811 31.5141 29.5608 25.368 29.571L14.1833 29.6015L14.1528 32.2123Z" fill="white"/>
<path d="M51.6417 29.527C53.267 29.9334 54.5064 30.6547 55.6442 31.8331C56.2334 32.4629 57.107 33.6109 57.1782 33.8851C57.1985 33.9664 54.415 35.8356 52.7286 36.882C52.6677 36.9226 52.4239 36.6585 52.1496 36.2521C51.3267 35.0534 50.4632 34.5353 49.1426 34.4439C47.2023 34.3118 45.9528 35.3277 45.9629 37.0242C45.9629 37.522 46.034 37.8166 46.2372 38.2229C46.6639 39.1067 47.4563 39.635 49.9451 40.7118C54.5267 42.6826 56.4874 43.9829 57.7064 45.8318C59.0677 47.894 59.3724 51.1855 58.448 53.6337C57.4321 56.2953 54.9128 58.1036 51.3674 58.7029C50.2702 58.8959 47.6696 58.8655 46.4912 58.6521C43.921 58.195 41.4829 56.9251 39.9794 55.2591C39.3902 54.609 38.2423 52.9124 38.3134 52.7905C38.3439 52.7499 38.608 52.5874 38.9026 52.4147C39.187 52.2521 40.2639 51.6324 41.2797 51.0432L43.1185 49.9766L43.5045 50.5455C44.0429 51.3683 45.2213 52.4959 45.9324 52.8718C47.9744 53.9486 50.7782 53.7962 52.1597 52.5569C52.749 52.0185 52.9928 51.4597 52.9928 50.6369C52.9928 49.8953 52.9013 49.5702 52.5153 49.0115C52.0175 48.3004 51.0017 47.701 48.1166 46.4515C44.815 45.0293 43.3928 44.1455 42.0924 42.7436C41.3407 41.9309 40.6296 40.6305 40.335 39.5436C40.0912 38.6394 40.0302 36.374 40.2232 35.4597C40.9039 32.2699 43.3115 30.0451 46.7858 29.3848C47.9134 29.1715 50.5344 29.2528 51.6417 29.527Z" fill="white"/>
</g>
</g>
<defs>
<clipPath id="clip0_151_6763">
<rect width="64" height="64" fill="white"/>
</clipPath>
<clipPath id="clip1_151_6763">
<rect width="64" height="64" fill="white"/>
</clipPath>
</defs>
</svg>
