<svg width="64" height="64" viewBox="0 0 64 64" fill="none" xmlns="http://www.w3.org/2000/svg">
<g clip-path="url(#clip0_151_6664)">
<path d="M59.7672 12.292L33.4836 59.2914C32.9408 60.2616 31.5468 60.2674 30.9958 59.3018L4.1912 12.2964C3.5912 11.244 4.4908 9.96936 5.6832 10.1824L31.9952 14.8856C32.163 14.9156 32.3349 14.9153 32.5026 14.8848L58.2642 10.1892C59.4526 9.97256 60.3568 11.2376 59.7672 12.292Z" fill="url(#paint0_linear_151_6664)"/>
<path d="M44.5288 4.01381L25.0782 7.82501C24.9228 7.85543 24.7818 7.93665 24.6776 8.05591C24.5734 8.17517 24.5117 8.32569 24.5024 8.48381L23.306 28.6914C23.278 29.1674 23.715 29.5368 24.1794 29.4296L29.5948 28.18C30.1016 28.063 30.5594 28.5094 30.4552 29.0188L28.8464 36.8974C28.738 37.4274 29.2358 37.881 29.7536 37.7238L33.0984 36.7074C33.617 36.55 34.1152 37.0048 34.0056 37.5354L31.4488 49.9108C31.2888 50.6848 32.3184 51.1068 32.7478 50.4432L33.0346 50L48.884 18.3696C49.1494 17.84 48.692 17.2362 48.11 17.3484L42.536 18.4242C42.012 18.5252 41.5664 18.0374 41.7142 17.5248L45.3524 4.91281C45.5004 4.39921 45.0532 3.91101 44.5288 4.01381Z" fill="url(#paint1_linear_151_6664)"/>
</g>
<defs>
<linearGradient id="paint0_linear_151_6664" x1="3.53667" y1="8.50246" x2="36.247" y2="52.9257" gradientUnits="userSpaceOnUse">
<stop stop-color="#41D1FF"/>
<stop offset="1" stop-color="#BD34FE"/>
</linearGradient>
<linearGradient id="paint1_linear_151_6664" x1="30.4835" y1="5.0484" x2="36.4007" y2="45.6394" gradientUnits="userSpaceOnUse">
<stop stop-color="#FFEA83"/>
<stop offset="0.0833" stop-color="#FFDD35"/>
<stop offset="1" stop-color="#FFA800"/>
</linearGradient>
<clipPath id="clip0_151_6664">
<rect width="64" height="64" fill="white"/>
</clipPath>
</defs>
</svg>
