<svg width="64" height="64" viewBox="0 0 64 64" fill="none" xmlns="http://www.w3.org/2000/svg">
<g clip-path="url(#clip0_151_7513)">
<path d="M48.8 7.84998H60L32 56.15L4 7.84998H25.42L32 19.05L38.44 7.84998H48.8Z" fill="#41B883"/>
<path d="M4 7.84998L32 56.15L60 7.84998H48.8L32 36.83L15.06 7.84998H4Z" fill="#41B883"/>
<path d="M15.0601 7.84998L32.0001 36.97L48.8001 7.84998H38.4401L32.0001 19.05L25.4201 7.84998H15.0601Z" fill="#35495E"/>
<path d="M53.368 54.384L54.28 53.49C58.504 53.626 58.568 53.48 58.754 53.052L59.914 50.266L60 50L59.906 49.77C59.856 49.648 59.706 49.284 57.066 46.804V45.5C60.108 42.61 60.044 42.462 59.866 42.04L58.712 39.226C58.538 38.804 58.472 38.638 54.28 38.752L53.366 37.822C53.4597 36.4521 53.4122 35.0762 53.224 33.716L53.106 33.452L50.09 32.152C49.646 31.952 49.49 31.88 46.642 34.938L45.362 34.92C42.43 31.834 42.292 31.89 41.852 32.064L39.052 33.182C38.614 33.358 38.452 33.42 38.628 37.62L37.722 38.51C33.502 38.374 33.438 38.522 33.254 38.948L32.092 41.734L32 42L32.096 42.232C32.146 42.352 32.296 42.712 34.934 45.194V46.494C31.892 49.384 31.958 49.532 32.134 49.956L33.288 52.774C33.466 53.204 33.528 53.358 37.72 53.25L38.632 54.184C38.5375 55.5519 38.5845 56.9258 38.772 58.284L38.888 58.55L41.924 59.858C42.366 60.04 42.524 60.106 45.358 57.058L46.638 57.074C49.574 60.164 49.724 60.104 50.152 59.934L52.952 58.818C53.4 58.646 53.546 58.586 53.368 54.384ZM41.342 47.86C41.108 47.2499 40.9974 46.5993 41.0166 45.9461C41.0359 45.2929 41.1846 44.65 41.4541 44.0547C41.7237 43.4594 42.1088 42.9235 42.587 42.4781C43.0652 42.0327 43.6271 41.6866 44.24 41.46C45.4806 40.9875 46.8573 41.0225 48.0723 41.5573C49.2872 42.0922 50.2427 43.084 50.732 44.318C51.2004 45.5353 51.1678 46.8886 50.6412 48.0819C50.1147 49.2753 49.137 50.2115 47.922 50.686C46.6737 51.1718 45.2846 51.1478 44.0538 50.6192C42.8231 50.0906 41.8492 49.0997 41.342 47.86Z" fill="#99B8C4"/>
</g>
<defs>
<clipPath id="clip0_151_7513">
<rect width="64" height="64" fill="white"/>
</clipPath>
</defs>
</svg>
