<svg width="64" height="64" viewBox="0 0 64 64" fill="none" xmlns="http://www.w3.org/2000/svg">
<g clip-path="url(#clip0_151_7731)">
<g clip-path="url(#clip1_151_7731)">
<path fill-rule="evenodd" clip-rule="evenodd" d="M31.9714 62.4646C48.7859 62.4646 62.4166 48.8234 62.4166 31.9961C62.4166 15.1687 48.7859 1.52747 31.9714 1.52747C15.1571 1.52747 1.52634 15.1687 1.52634 31.9961C1.52634 48.8234 15.1571 62.4646 31.9714 62.4646ZM31.9714 63.0715C49.1206 63.0715 63.0231 49.1584 63.0231 31.9961C63.0231 14.8335 49.1206 0.920532 31.9714 0.920532C14.8222 0.920532 0.919861 14.8335 0.919861 31.9961C0.919861 49.1584 14.8222 63.0715 31.9714 63.0715Z" fill="#AEDDFF"/>
<path d="M46.4592 6.67676C47.4439 6.67676 48.2421 5.87785 48.2421 4.89234C48.2421 3.90682 47.4439 3.10791 46.4592 3.10791C45.4744 3.10791 44.6761 3.90682 44.6761 4.89234C44.6761 5.87785 45.4744 6.67676 46.4592 6.67676Z" fill="#1697F6"/>
<path d="M17.4838 60.8854C18.4686 60.8854 19.2669 60.0865 19.2669 59.1011C19.2669 58.1155 18.4686 57.3165 17.4838 57.3165C16.499 57.3165 15.7007 58.1155 15.7007 59.1011C15.7007 60.0865 16.499 60.8854 17.4838 60.8854Z" fill="#1697F6"/>
<path d="M32.469 27.6309L23.1765 43.7423L31.9756 59.0037L43.6299 38.8021L55.2789 18.6005H37.6753L32.469 27.6309Z" fill="#1697F6"/>
<path d="M20.3264 38.8021L20.9367 39.8645L29.6296 24.7889L33.2013 18.6005H31.9754H8.672L20.3264 38.8021Z" fill="#AEDDFF"/>
<path d="M37.6753 18.6005C42.0802 33.1076 31.9756 59.0037 31.9756 59.0037L23.1765 43.7423L37.6753 18.6005Z" fill="#1867C0"/>
<path d="M33.2015 18.6005C14.6425 18.6005 20.9367 39.8645 20.9367 39.8645L33.2015 18.6005Z" fill="#7BC6FF"/>
</g>
</g>
<defs>
<clipPath id="clip0_151_7731">
<rect width="64" height="64" fill="white"/>
</clipPath>
<clipPath id="clip1_151_7731">
<rect width="64" height="64" fill="white"/>
</clipPath>
</defs>
</svg>
