<svg width="64" height="64" viewBox="0 0 64 64" fill="none" xmlns="http://www.w3.org/2000/svg">
<g clip-path="url(#clip0_151_6809)">
<path d="M32 0.0106201L60.2483 15.9895V47.9581L32 63.937L3.75171 47.9581V15.9895L32 0.0106201Z" fill="white"/>
<path d="M55.2062 46.8495L32.938 59.46V49.653L46.8169 42.01L55.2062 46.8495ZM56.7305 45.4744V19.1236L48.5865 23.8245V40.7735L56.7305 45.4744ZM8.70842 46.8495L30.9766 59.4493V49.6424L17.0976 42.01L8.70842 46.8495ZM7.18408 45.4744V19.1236L15.3281 23.8245V40.7735L7.18408 45.4744ZM8.1328 17.418L30.9766 4.49841V13.9856L16.3408 22.0337L16.2235 22.0976L8.1328 17.418ZM55.7711 17.418L32.938 4.49841V13.9856L47.5631 22.0443L47.6804 22.1083L55.7711 17.418Z" fill="#8ED6FB"/>
<path d="M30.9766 47.4144L17.2896 39.878V24.965L30.9766 32.8639V47.4144ZM32.938 47.4144L46.6251 39.8887V24.965L32.938 32.8639V47.4144ZM18.2063 23.2382L31.9573 15.6804L45.6977 23.2382L31.9573 31.169L18.2063 23.2382Z" fill="#1C78C0"/>
</g>
<defs>
<clipPath id="clip0_151_6809">
<rect width="64" height="64" fill="white"/>
</clipPath>
</defs>
</svg>
