<svg width="435" height="234" viewBox="0 0 435 234" fill="none" xmlns="http://www.w3.org/2000/svg">
    <g clip-path="url(#clip0_34_1579)">
        <path d="M114.878 233.681C63.0129 234.525 39.2309 233.597 58.0372 231.573C76.9279 229.549 57.9529 229.296 28.6892 229.549C-0.574436 229.802 -13.4774 227.272 29.7856 224.658C73.0486 222.043 231.68 219.345 213.464 222.718C195.248 226.091 181.839 226.85 192.886 228.115C203.934 229.38 186.224 232.501 114.878 233.681Z"
              fill="#99ADF9"/>
        <path d="M330.856 217.068C277.051 217.574 252.426 219.176 271.991 220.778C291.641 222.381 282.786 222.971 252.341 223.477C221.897 223.983 197.946 227.188 242.812 228.874C287.761 230.477 452.211 229.043 433.236 225.923C414.261 222.802 400.346 222.381 411.731 220.694C423.285 219.092 404.9 216.393 330.856 217.068Z"
              fill="#99ADF9"/>
        <path d="M202.247 223.055H44.7126C43.3633 223.055 42.1826 221.959 42.1826 220.525V214.116C42.1826 212.767 43.279 211.586 44.7126 211.586H202.332C203.681 211.586 204.862 212.682 204.862 214.116V220.525C204.777 221.959 203.681 223.055 202.247 223.055Z"
              fill="#E1ECFF"/>
        <path d="M205.452 223.055H107.204C105.854 223.055 104.674 221.959 104.674 220.525V214.116C104.674 212.767 105.77 211.586 107.204 211.586H205.452C206.802 211.586 207.982 212.682 207.982 214.116V220.525C207.982 221.959 206.886 223.055 205.452 223.055Z"
              fill="#CDE0FC"/>
        <path d="M161.936 211.755H47.2428C45.3875 211.755 43.7008 210.574 43.0261 208.803L16.8828 136.529C15.7865 133.578 17.9791 130.542 21.0995 130.542H135.793C137.648 130.542 139.335 131.722 140.009 133.493L166.153 205.767C167.165 208.634 165.056 211.755 161.936 211.755Z"
              fill="#CDE0FC"/>
        <path d="M154.936 207.622H50.1101C48.2548 207.622 46.5681 206.442 45.8935 204.671L22.7861 140.662C21.6898 137.71 23.8825 134.674 27.0028 134.674H131.913C133.769 134.674 135.455 135.855 136.13 137.626L159.237 201.635C160.249 204.502 158.057 207.622 154.936 207.622Z"
              fill="#FF8D76"/>
        <path d="M60.3991 219.007H49.4358C49.0141 219.007 48.6768 218.67 48.6768 218.248V216.393C48.6768 215.971 49.0141 215.634 49.4358 215.634H60.3991C60.8208 215.634 61.1581 215.971 61.1581 216.393V218.248C61.1581 218.67 60.8208 219.007 60.3991 219.007Z"
              fill="#CDE0FC"/>
        <path d="M75.6637 219.007H64.7004C64.2787 219.007 63.9414 218.67 63.9414 218.248V216.393C63.9414 215.971 64.2787 215.634 64.7004 215.634H75.6637C76.0854 215.634 76.4227 215.971 76.4227 216.393V218.248C76.5071 218.67 76.0854 219.007 75.6637 219.007Z"
              fill="#CDE0FC"/>
        <path d="M69.0851 201.129H129.383C132.419 201.129 134.106 197.587 132.251 195.225L92.7828 145.047C91.0961 142.854 87.6384 143.36 86.5421 145.89L65.7118 196.069C64.6998 198.43 66.4708 201.129 69.0851 201.129Z"
              fill="#FEC272"/>
        <path d="M86.8791 158.962L94.0475 180.72C94.3848 181.816 95.4811 182.575 96.6618 182.575H97.7581C99.1918 182.575 100.204 181.479 100.119 180.045L98.1798 158.456C98.0955 157.107 96.9148 156.01 95.5655 156.01L89.2405 155.842C87.4695 155.757 86.2888 157.36 86.8791 158.962Z"
              fill="white"/>
        <path d="M102.734 189.406C102.903 191.599 101.216 193.37 99.0236 193.37C96.8309 193.37 94.8912 191.599 94.7226 189.406C94.5539 187.214 96.2406 185.443 98.4332 185.443C100.626 185.443 102.566 187.214 102.734 189.406Z"
              fill="white"/>
        <path d="M0.353516 119.578L10.7265 127.759C10.7265 127.759 13.5095 123.879 19.4972 121.855C25.4848 119.831 33.5808 121.349 33.5808 121.349L37.7975 97.5673C37.7975 97.5673 32.7375 113.422 25.3162 114.518C17.8948 115.615 11.8228 105.663 11.8228 105.663C11.8228 105.663 16.2082 116.542 11.9915 119.831C7.60618 123.205 0.353516 119.578 0.353516 119.578Z"
              fill="currentColor"/>
        <path d="M169.779 188.985L178.044 201.55L199.549 176.588L178.044 209.309L169.779 188.985Z" fill="currentColor"/>
        <path d="M182.092 109.711L200.982 75.978L186.646 110.639L182.092 109.711Z" fill="currentColor"/>
        <path d="M277.895 125.144C276.63 126.747 274.943 128.602 273.172 130.626C263.895 140.746 249.053 154.661 241.378 158.793C232.186 163.685 224.09 164.865 220.295 159.468C216.5 154.071 216.247 149.854 222.066 143.36C227.885 136.867 249.727 107.94 261.281 98.495C269.461 91.8327 279.666 94.8687 283.461 101.447C287.34 107.856 285.738 115.446 277.895 125.144Z"
              fill="#F774B9"/>
        <path d="M273.172 130.542C263.895 140.662 249.053 154.577 241.378 158.709C232.186 163.6 224.09 164.781 220.295 159.384C234.547 158.203 261.534 127.674 261.534 127.674L273.172 130.542Z"
              fill="#F261B4"/>
        <path d="M238.849 155.504C231.006 170.516 217.175 161.155 206.38 150.613C195.586 140.071 183.526 123.289 181.755 118.313C181.165 116.711 180.996 115.024 181.165 113.338C181.418 109.88 183.189 106.844 185.634 106.844C189.261 106.844 217.681 125.903 227.126 133.746C234.126 139.565 239.355 144.541 240.029 149.77C240.198 151.709 239.861 153.565 238.849 155.504Z"
              fill="#F774B9"/>
        <path d="M238.849 155.504C231.006 170.516 217.175 161.155 206.38 150.613C195.586 140.071 183.526 123.289 181.755 118.313C181.165 116.711 180.996 115.024 181.165 113.338C183.104 113.591 185.128 114.687 187.152 116.88C187.152 116.88 211.356 148.589 223.584 154.83C227.885 157.022 233.957 154.324 239.945 149.77C240.198 151.709 239.861 153.565 238.849 155.504Z"
              fill="#F261B4"/>
        <path d="M188.502 117.892C187.658 122.024 185.803 131.975 182.261 133.578C178.635 135.18 172.225 133.409 170.623 129.277C169.021 125.06 173.153 119.578 177.201 114.35C181.249 109.121 183.779 106.844 186.056 107.013C188.333 107.181 189.345 113.422 188.502 117.892Z"
              fill="#F774B9"/>
        <path d="M171.045 126.915C171.045 127.337 170.623 124.807 171.045 127.337C171.466 129.867 175.515 129.614 176.105 128.518C178.045 125.06 185.297 109.964 183.948 108.784C182.599 107.603 171.298 119.831 171.045 126.915Z"
              fill="#FF97C9"/>
        <path d="M361.553 191.683C361.553 191.683 382.299 189.912 392.166 173.467C402.033 157.022 386.179 118.482 385.251 103.218C384.323 87.9534 396.889 75.978 410.045 87.9534C423.201 99.9287 422.864 139.397 418.141 157.866C413.334 176.419 399.082 190.587 380.107 197.249C366.698 201.972 359.023 199.02 359.023 199.02L361.553 191.683Z"
              fill="#F774B9"/>
        <path d="M301.845 199.948C297.291 214.706 285.231 222.381 272.413 223.73C259.594 225.079 236.824 226.091 234.631 224.658C233.619 223.983 233.113 222.549 233.282 220.947C233.451 219.007 234.547 216.73 236.655 214.959C240.535 211.67 254.45 211.67 254.45 211.67C254.45 211.67 251.92 211.333 248.293 208.55C244.667 205.683 236.149 200.032 242.896 179.118C249.643 158.203 269.461 153.396 289.195 160.311C293.749 161.914 297.122 165.54 299.399 170.094C303.953 178.78 304.544 191.262 301.845 199.948Z"
              fill="#F774B9"/>
        <path d="M267.1 211.417C267.1 212.176 266.425 212.682 265.75 212.682C265.582 212.682 246.101 212.345 240.113 214.032C235.137 215.465 234.884 218.586 234.8 220.525V220.947C234.631 222.634 235.559 222.802 235.728 222.802C236.487 222.887 236.993 223.561 236.908 224.32C236.824 224.995 236.234 225.501 235.559 225.501C235.475 225.501 235.475 225.501 235.39 225.501C233.872 225.332 231.764 223.899 232.101 220.694V220.272C232.27 218.164 232.607 213.357 239.354 211.417C241.8 210.743 246.269 210.321 250.739 210.152C248.546 209.478 246.607 208.719 245.257 207.791C238.173 202.815 236.908 194.804 240.956 180.214C243.992 169.335 250.149 163.347 256.389 159.974C257.064 159.637 257.907 159.89 258.16 160.649C258.413 161.239 258.16 161.914 257.57 162.251C251.92 165.287 246.269 170.853 243.486 180.889C239.185 196.49 241.715 201.972 246.775 205.598C251.498 208.887 265.666 209.984 265.835 209.984C266.509 210.068 267.1 210.658 267.1 211.417Z"
              fill="#F774B9"/>
        <path d="M301.845 199.948C297.291 214.706 285.231 222.381 272.413 223.73C259.594 225.079 236.824 226.091 234.631 224.658C233.619 223.983 233.113 222.549 233.282 220.947C238.005 221.453 255.462 222.549 276.882 212.092C297.207 202.225 299.399 178.78 299.484 170.01C303.953 178.78 304.544 191.262 301.845 199.948Z"
              fill="#F774B9"/>
        <path d="M242.812 186.202C242.812 186.202 249.39 196.406 258.835 202.225C268.28 208.044 273.509 209.225 273.509 209.225C273.509 209.225 264.991 211.164 256.811 210.996C248.631 210.827 242.474 206.189 240.366 198.767C238.173 191.262 242.812 186.202 242.812 186.202Z"
              fill="#F774B9"/>
        <path d="M304.122 221.284C302.857 221.284 301.676 221.284 300.496 221.284C297.544 221.284 294.592 221.2 291.809 221.031C287.171 220.778 282.87 220.272 278.822 219.598C254.112 215.212 240.788 202.056 241.8 173.805C242.643 150.866 249.643 123.373 254.787 106.001C255.293 104.314 255.715 102.796 256.221 101.362C257.907 95.7964 259.341 91.7484 259.931 89.8087C260.184 89.0497 260.353 88.628 260.353 88.628L331.362 76.2311L332.036 76.0624C332.036 76.0624 334.566 81.8814 338.277 91.0737C338.952 92.6761 339.626 94.3627 340.301 96.1337C341.06 98.0734 341.903 100.097 342.747 102.29C348.734 117.301 356.156 136.698 362.144 154.492C363.915 159.721 365.517 164.781 366.95 169.504C368.3 173.973 369.48 178.274 370.408 182.154C376.649 207.369 344.939 220.863 304.122 221.284Z"
              fill="#FF97C9"/>
        <path d="M332.712 212.092H317.194C312.303 212.092 304.207 212.345 301.761 216.983C301.002 218.333 300.665 219.851 300.581 221.284C297.629 221.284 294.677 221.2 291.894 221.031L291.22 217.489C291.22 217.489 291.22 217.489 294.593 213.188C297.882 209.056 308.592 186.961 309.183 185.864C308.93 186.623 304.966 197.755 311.628 204.839C318.122 211.923 331.278 212.092 332.712 212.092Z"
              fill="#F774B9"/>
        <path d="M283.039 217.236C282.955 217.321 282.87 217.321 282.786 217.405C281.605 218.164 280.256 218.923 278.822 219.598C254.028 215.212 240.788 202.056 241.8 173.805C242.475 155.926 246.86 135.349 251.161 118.904C252.426 114.181 253.607 109.88 254.787 106.001C257.908 102.965 262.377 100.266 268.449 100.266C282.533 100.266 290.545 104.145 296.279 148.42C301.845 192.274 294.593 209.393 283.039 217.236Z"
              fill="#FFBDE0"/>
        <path opacity="0.5"
              d="M283.039 217.236C282.955 217.321 282.87 217.321 282.786 217.405C281.605 218.164 280.256 218.923 278.822 219.598C254.028 215.212 240.788 202.056 241.8 173.805C242.475 155.926 246.86 135.349 251.161 118.904C250.318 131.048 249.474 162.504 261.534 188.141C268.787 203.574 276.714 212.345 283.039 217.236Z"
              fill="#F9BC93"/>
        <path d="M338.361 91.0737C333.133 94.7 322.591 100.856 308.507 104.483C303.11 105.832 297.207 106.844 290.882 107.181C270.389 108.278 260.522 104.145 256.221 101.194C257.907 95.6277 259.341 91.5797 259.931 89.64C264.064 90.9893 274.605 93.435 292.147 91.5797C295.267 91.2423 298.387 90.652 301.423 89.893C314.073 86.6883 325.205 80.1103 331.362 75.978L332.036 75.8937C332.121 75.978 334.566 81.8814 338.361 91.0737Z"
              fill="#738DE0"/>
        <path d="M308.507 104.483C303.11 105.832 297.207 106.844 290.882 107.181C270.389 108.278 260.522 104.145 256.221 101.194C257.907 95.6277 259.341 91.5797 259.931 89.64C264.064 90.9893 274.605 93.435 292.147 91.5797C295.267 91.2423 298.387 90.652 301.423 89.893L308.507 104.483Z"
              fill="#5A7FDB"/>
        <path d="M276.376 111.061C276.376 111.567 276.376 112.073 276.292 112.579C275.617 117.807 271.485 121.855 266.425 121.855C260.943 121.855 256.474 116.964 256.474 110.976C256.474 108.193 257.401 105.663 259.088 103.724C260.943 101.531 263.558 100.182 266.425 100.182C271.907 100.266 276.376 105.073 276.376 111.061Z"
              fill="#FCBD92"/>
        <path d="M276.377 111.061C276.377 111.567 276.377 112.073 276.292 112.579C274.521 114.771 271.823 116.121 268.955 116.121C263.474 116.121 259.004 111.229 259.004 105.326C259.004 104.82 259.004 104.314 259.088 103.808C260.944 101.615 263.558 100.266 266.425 100.266C271.907 100.266 276.377 105.073 276.377 111.061Z"
              fill="#FFD3B3"/>
        <path d="M265.751 113.422C269.244 113.422 272.076 112.063 272.076 110.386C272.076 108.709 269.244 107.35 265.751 107.35C262.258 107.35 259.426 108.709 259.426 110.386C259.426 112.063 262.258 113.422 265.751 113.422Z"
              fill="#1C3177"/>
        <path d="M264.232 120.59V112.579C264.232 111.904 264.823 111.314 265.582 111.314C266.341 111.314 266.931 111.904 266.931 112.579V120.59C266.931 121.265 266.341 121.855 265.582 121.855C264.823 121.855 264.232 121.265 264.232 120.59Z"
              fill="#1C3177"/>
        <path d="M362.228 154.492C360.036 156.601 357.084 158.372 353.289 157.866C343.253 156.516 344.35 152.215 342.41 142.18C340.47 132.144 326.387 133.325 327.567 113.591C328.326 100.435 335.663 96.977 340.47 96.218C341.229 98.1577 342.073 100.182 342.916 102.374C348.819 117.301 356.241 136.698 362.228 154.492Z"
              fill="#F774B9"/>
        <path d="M369.312 199.948C364.758 214.706 352.698 222.381 339.879 223.73C327.061 225.079 304.291 226.091 302.098 224.658C301.086 223.983 300.58 222.549 300.749 220.947C300.917 219.007 302.014 216.73 304.122 214.959C308.001 211.67 321.916 211.67 321.916 211.67C321.916 211.67 319.386 211.333 315.76 208.55C312.134 205.683 303.616 200.032 310.363 179.118C317.109 158.203 336.928 153.396 356.662 160.311C361.216 161.914 364.589 165.54 366.866 170.094C371.42 178.78 372.01 191.262 369.312 199.948Z"
              fill="#FF97C9"/>
        <path d="M334.567 211.417C334.567 212.176 333.892 212.682 333.217 212.682C333.049 212.682 313.568 212.345 307.58 214.032C302.604 215.465 302.351 218.586 302.267 220.525V220.947C302.098 222.634 303.026 222.802 303.195 222.802C303.954 222.887 304.46 223.561 304.375 224.32C304.291 224.995 303.701 225.501 303.026 225.501C302.942 225.501 302.942 225.501 302.857 225.501C301.339 225.332 299.231 223.899 299.568 220.694V220.272C299.737 218.164 300.074 213.357 306.821 211.417C309.267 210.743 313.736 210.321 318.206 210.152C316.013 209.478 314.074 208.719 312.724 207.791C305.64 202.815 304.375 194.804 308.423 180.214C311.459 169.335 317.616 163.347 323.856 159.974C324.531 159.637 325.374 159.89 325.627 160.649C325.88 161.239 325.627 161.914 325.037 162.251C319.387 165.287 313.736 170.853 310.953 180.889C306.652 196.49 309.182 201.972 314.242 205.598C318.965 208.887 333.133 209.984 333.302 209.984C333.976 210.068 334.567 210.658 334.567 211.417Z"
              fill="#F774B9"/>
        <path d="M369.312 199.948C364.758 214.706 352.698 222.381 339.879 223.73C327.061 225.079 304.291 226.091 302.098 224.658C301.086 223.983 300.58 222.549 300.749 220.947C305.471 221.453 322.928 222.549 344.349 212.092C364.673 202.225 366.866 178.78 366.95 170.01C371.42 178.78 372.01 191.262 369.312 199.948Z"
              fill="#FF8AC7"/>
        <path d="M310.279 186.202C310.279 186.202 316.857 196.406 326.302 202.225C335.747 208.044 340.976 209.225 340.976 209.225C340.976 209.225 332.458 211.164 324.278 210.996C316.098 210.827 309.941 206.189 307.833 198.767C305.64 191.262 310.279 186.202 310.279 186.202Z"
              fill="#FF8AC7"/>
        <path d="M292.484 217.489C292.484 217.489 291.135 219.26 292.231 221.959C293.327 224.658 293.159 227.525 290.46 228.874C289.111 229.549 284.388 229.633 279.581 229.549C279.075 229.549 278.485 229.549 277.979 229.465C275.111 229.38 272.413 229.212 270.389 229.043C269.63 228.959 268.955 228.959 268.449 228.874C268.365 228.874 268.365 228.874 268.28 228.874C264.823 228.537 261.871 226.26 261.871 223.055C261.871 222.296 262.04 221.453 262.461 220.61C264.485 216.14 273.003 212.514 273.003 212.514C273.003 212.514 280.424 200.876 285.569 177.768C290.713 154.661 290.46 144.372 291.388 133.156C291.978 126.409 292.062 114.097 305.303 112.747C312.977 111.988 317.7 114.265 320.314 118.313C322.254 121.265 323.181 125.144 323.434 129.53C324.109 140.071 322.338 149.517 314.917 172.118C307.495 194.804 292.484 217.489 292.484 217.489Z"
              fill="#FF97C9"/>
        <path d="M292.484 217.489C292.484 217.489 291.135 219.26 292.231 221.959C293.327 224.658 293.159 227.525 290.46 228.874C289.111 229.549 284.388 229.633 279.581 229.549C279.075 229.549 278.485 229.549 277.979 229.465C275.111 229.38 272.413 229.212 270.389 229.043C269.63 228.959 268.955 228.959 268.449 228.874C268.365 228.874 268.365 228.874 268.28 228.874C264.823 228.537 261.871 226.26 261.871 223.055C263.473 222.887 265.244 222.887 266.931 223.055C271.232 223.477 284.894 225.332 286.243 222.381C287.593 219.429 285.569 215.887 285.569 215.887C285.569 215.887 295.436 198.43 304.628 175.997C313.314 154.745 319.724 121.855 320.314 118.398C322.254 121.349 323.181 125.229 323.434 129.614C324.109 140.156 322.338 149.601 314.917 172.202C307.495 194.804 292.484 217.489 292.484 217.489Z"
              fill="#FF8AC7"/>
        <path d="M288.014 230.73C283.798 230.73 268.533 230.308 266.003 229.802C264.317 229.465 262.799 228.284 261.787 226.682C260.69 224.995 260.437 222.971 260.943 220.947C261.955 217.068 270.304 212.851 271.991 212.008C272.666 211.67 273.425 211.923 273.762 212.598C274.099 213.273 273.846 214.032 273.172 214.369C269.461 216.14 264.064 219.598 263.558 221.537C263.22 222.802 263.473 224.067 264.148 225.164C264.738 226.176 265.666 226.85 266.594 227.103C269.039 227.609 287.34 228.115 288.858 227.947C289.701 227.862 291.303 227.188 291.556 224.995C291.809 223.055 290.544 220.104 290.038 219.176C289.785 218.754 289.87 218.164 290.123 217.742C290.123 217.658 293.749 212.767 299.484 203.237C305.556 193.201 313.061 173.805 319.049 152.468C325.121 131.132 319.892 119.916 319.808 119.831C319.471 119.157 319.724 118.398 320.398 118.06C321.073 117.723 321.832 117.976 322.169 118.651C322.422 119.157 327.904 130.795 321.579 153.227C315.507 174.732 307.917 194.466 301.676 204.671C297.038 212.261 293.833 216.983 292.653 218.67C293.243 220.019 294.424 222.887 294.086 225.332C293.665 228.79 291.135 230.477 288.942 230.645C288.858 230.73 288.52 230.73 288.014 230.73Z"
              fill="#F774B9"/>
        <path d="M273.593 217.236C273.593 217.236 270.557 219.092 269.798 222.296C269.208 225.164 270.136 228.368 270.389 229.127C269.63 229.043 268.955 229.043 268.449 228.959C268.027 227.525 267.437 224.658 268.027 221.875C268.871 217.995 272.497 215.803 272.666 215.718C273.087 215.465 273.678 215.634 273.931 216.056C274.099 216.393 274.015 216.983 273.593 217.236Z"
              fill="#F774B9"/>
        <path d="M282.279 217.658C282.195 217.742 279.918 219.345 279.412 223.055C278.906 226.935 279.665 228.706 279.665 228.706C279.749 228.959 279.749 229.296 279.581 229.549C279.075 229.549 278.484 229.549 277.978 229.465C277.894 229.212 276.966 227.188 277.557 222.802C278.147 218.164 281.099 216.224 281.183 216.14C281.605 215.887 282.111 215.971 282.448 216.393C282.785 216.815 282.617 217.405 282.279 217.658Z"
              fill="#F774B9"/>
        <path d="M332.121 75.978C332.121 75.978 330.182 77.749 326.555 80.3633C322.929 82.9776 306.568 92.3386 284.895 93.0133C266.763 93.6036 240.451 93.435 232.018 75.1347C230.331 71.5083 229.403 67.123 229.319 61.9786C228.897 30.6066 266.51 18.6313 281.774 18.2097C298.135 17.788 315.255 19.6433 322.086 30.8597C325.459 36.4257 328.411 49.413 329.929 58.6053C331.447 67.9663 332.121 75.978 332.121 75.978Z"
              fill="#FF97C9"/>
        <path d="M281.268 20.318C279.075 22.848 276.208 24.366 273.341 25.2937C265.666 27.7394 257.402 25.9684 257.402 25.9684C257.402 25.9684 256.558 16.1857 256.643 10.957C256.727 8.84868 256.896 7.33069 257.317 6.23436C257.992 4.54769 259.004 3.87302 260.606 3.70436C263.305 3.45136 281.268 20.318 281.268 20.318Z"
              fill="#FF97C9"/>
        <path d="M271.57 23.4383C264.739 22.5106 259.763 24.1973 259.763 24.1973C259.763 24.1973 258.245 16.1856 258.33 12.0533C258.33 10.3666 258.583 9.18597 258.92 8.2583C260.101 9.18597 262.378 11.21 265.414 14.8363C268.365 18.547 270.474 21.7516 271.57 23.4383Z"
              fill="#FFBDE0"/>
        <path d="M325.038 38.534L316.014 34.992L295.605 26.9803C295.605 26.9803 297.967 10.451 301.762 5.05366C301.762 4.96933 301.846 4.96933 301.846 4.885C305.725 -0.343668 309.352 0.0780009 310.954 2.608C312.556 5.138 319.134 19.812 321.833 27.8237C324.616 36.004 325.038 38.534 325.038 38.534Z"
              fill="#FF97C9"/>
        <path d="M314.074 23.9444L299.315 23.0167C299.315 23.0167 301.002 11.8004 303.785 7.49935C304.881 7.24635 305.978 7.41501 306.99 8.42701C309.435 10.957 312.809 19.306 313.821 22.9323C313.905 23.1853 313.989 23.607 314.074 23.9444Z"
              fill="#FFBDE0"/>
        <path d="M302.352 57.003C301.761 57.003 301.171 56.5813 301.087 55.991C300.918 55.232 301.34 54.5573 302.099 54.3887L315.423 51.184C316.182 51.0153 316.857 51.437 317.026 52.196C317.194 52.955 316.773 53.6297 316.014 53.7983L302.689 57.003C302.605 56.9187 302.436 57.003 302.352 57.003Z"
              fill="#F774B9"/>
        <path d="M315.339 68.641C315.254 68.641 315.17 68.641 315.086 68.641L302.773 66.1953C302.014 66.0267 301.592 65.352 301.677 64.593C301.845 63.834 302.52 63.4123 303.279 63.4967L315.592 65.9423C316.351 66.111 316.772 66.7857 316.688 67.5447C316.519 68.2193 316.013 68.641 315.339 68.641Z"
              fill="#F774B9"/>
        <path d="M232.692 65.0147C232.018 65.0147 231.427 64.5087 231.343 63.834C231.259 63.075 231.765 62.4003 232.524 62.316L244.752 60.8823C245.511 60.798 246.186 61.304 246.27 62.063C246.354 62.822 245.848 63.4967 245.089 63.581L232.861 65.0147C232.777 65.0147 232.777 65.0147 232.692 65.0147Z"
              fill="#F774B9"/>
        <path d="M244.836 55.0633C244.668 55.0633 244.583 55.0633 244.415 54.979L232.355 50.8466C231.68 50.5936 231.259 49.8346 231.512 49.16C231.765 48.4853 232.524 48.0636 233.198 48.3166L245.258 52.449C245.933 52.702 246.354 53.461 246.101 54.1357C245.848 54.726 245.342 55.0633 244.836 55.0633Z"
              fill="#F774B9"/>
        <path d="M304.291 24.5347H295.773C295.014 24.5347 294.424 23.9443 294.424 23.1853C294.424 22.4263 295.014 21.836 295.773 21.836H304.291C305.05 21.836 305.64 22.4263 305.64 23.1853C305.64 23.9443 305.05 24.5347 304.291 24.5347Z"
              fill="#F774B9"/>
        <path d="M274.268 24.5347H265.751C264.992 24.5347 264.401 23.9443 264.401 23.1853C264.401 22.4263 264.992 21.836 265.751 21.836H274.268C275.027 21.836 275.618 22.4263 275.618 23.1853C275.533 23.9443 274.943 24.5347 274.268 24.5347Z"
              fill="#F774B9"/>
        <path d="M332.121 75.978C332.121 75.978 330.182 77.749 326.555 80.3633C322.929 82.9777 306.568 92.3387 284.895 93.0133C266.763 93.6037 240.451 93.435 232.018 75.1347C234.379 77.243 246.186 85.9293 280.256 84.4113C312.472 82.8933 326.218 64.7617 329.929 58.6053C331.447 67.9663 332.121 75.978 332.121 75.978Z"
              fill="#FF8AC7"/>
        <path d="M267.606 70.918C267.353 70.918 267.1 70.8336 266.931 70.7493C266.256 70.3276 266.088 69.5686 266.509 68.894L269.039 64.6773C269.798 63.4123 271.148 62.6533 272.581 62.569C274.015 62.4846 275.449 63.1593 276.292 64.34L279.497 68.7253C279.918 69.3156 279.834 70.159 279.159 70.5806C278.569 71.0023 277.726 70.918 277.304 70.2433L274.099 65.858C273.762 65.352 273.256 65.1833 272.666 65.1833C272.075 65.1833 271.569 65.5206 271.316 66.0266L268.786 70.2433C268.533 70.665 268.112 70.918 267.606 70.918Z"
              fill="#1C3177"/>
        <path d="M250.318 38.6184C250.318 42.582 252.174 45.7867 254.366 45.7867C256.643 45.7867 258.414 42.582 258.414 38.6184C258.414 37.1004 258.161 35.6667 257.655 34.486L250.824 35.0764C250.487 36.0884 250.318 37.3534 250.318 38.6184Z"
              fill="#1C3177"/>
        <path d="M259.763 36.51H251.246C250.487 36.51 249.896 35.9197 249.896 35.1607C249.896 34.4017 250.487 33.8113 251.246 33.8113H259.763C260.522 33.8113 261.113 34.4017 261.113 35.1607C261.113 35.9197 260.438 36.51 259.763 36.51Z"
              fill="#1C3177"/>
        <path d="M296.194 40.558C296.194 45.0277 294.255 48.654 291.809 48.654C289.363 48.654 287.424 45.0277 287.424 40.558C287.424 38.787 287.761 37.1847 288.267 35.8353L295.688 36.51C295.941 37.6907 296.194 39.1243 296.194 40.558Z"
              fill="#1C3177"/>
        <path d="M296.785 37.9437H288.267C287.508 37.9437 286.918 37.3533 286.918 36.5943C286.918 35.8353 287.508 35.245 288.267 35.245H296.785C297.544 35.245 298.134 35.8353 298.134 36.5943C298.134 37.3533 297.46 37.9437 296.785 37.9437Z"
              fill="#1C3177"/>
    </g>
    <defs>
        <clipPath id="clip0_34_1579">
            <rect width="435" height="234" fill="white"/>
        </clipPath>
    </defs>
</svg>
