<svg width="24" height="24" viewBox="0 0 24 24" fill="none" xmlns="http://www.w3.org/2000/svg">
    <path d="M23.53 1.9663C23.3401 1.79249 23.1073 1.67238 22.8556 1.6183C22.6039 1.56421 22.3423 1.57811 22.0978 1.65857L0.995214 8.61486C0.420104 8.80443 0.0301044 9.3178 0.00165128 9.92263C-0.026755 10.5275 0.313323 11.0752 0.868042 11.318L6.08687 13.6014L7.66145 20.9043C7.72684 21.2076 7.88082 21.4779 8.20703 21.561C8.53698 21.645 8.77009 21.4647 9.01628 21.2804L12.8891 18.3805L17.4167 22.0854C17.6804 22.3013 18.0027 22.4139 18.3314 22.4139C18.4906 22.4138 18.6487 22.3875 18.7995 22.3363C19.276 22.1747 19.6292 21.7858 19.7444 21.296L23.9616 3.36618C24.0204 3.11554 24.0114 2.85377 23.9355 2.60775C23.8597 2.36173 23.7197 2.14033 23.53 1.9663ZM9.35364 14.9098C9.35106 14.9159 9.34853 14.9228 9.34614 14.931L8.47314 17.9811L7.49889 13.4626L14.1981 9.74047L9.51432 14.6379C9.44087 14.7152 9.38593 14.8082 9.35364 14.9098ZM9.63071 19.0594L10.0272 17.674L10.4065 16.3489L11.7654 17.461L9.63071 19.0594ZM22.5894 3.04339L18.3723 20.9732C18.3702 20.9821 18.3674 20.9944 18.3468 21.0013C18.3264 21.0083 18.3164 21.0004 18.3094 20.9946L13.3551 16.9404L13.3547 16.9401L11.0593 15.0617L18.4338 7.35088C18.5504 7.22901 18.6194 7.06939 18.6283 6.90099C18.6372 6.7326 18.5854 6.56659 18.4824 6.43311C18.3793 6.29962 18.2318 6.2075 18.0666 6.17348C17.9015 6.13946 17.7296 6.1658 17.5822 6.24772L6.66259 12.3147L1.43307 10.0266C1.41714 10.0197 1.40837 10.0158 1.40964 9.98882C1.4109 9.96196 1.42 9.95891 1.4365 9.95347L22.5391 2.99722C22.5493 2.99389 22.5608 2.99005 22.5778 3.00552C22.5947 3.02108 22.5919 3.03289 22.5894 3.04339Z"
          fill="currentColor"/>
</svg>
